<?xml version="1.0" encoding="UTF-8" standalone="no"?>
<!-- Created with Inkscape (http://www.inkscape.org/) -->

<svg
   xmlns:dc="http://purl.org/dc/elements/1.1/"
   xmlns:cc="http://creativecommons.org/ns#"
   xmlns:rdf="http://www.w3.org/1999/02/22-rdf-syntax-ns#"
   xmlns:svg="http://www.w3.org/2000/svg"
   xmlns="http://www.w3.org/2000/svg"
   xmlns:sodipodi="http://sodipodi.sourceforge.net/DTD/sodipodi-0.dtd"
   xmlns:inkscape="http://www.inkscape.org/namespaces/inkscape"
   width="50"
   height="50"
   viewBox="0 0 13.229166 13.229167"
   version="1.1"
   id="svg8"
   sodipodi:docname="squid_terror.svg"
   inkscape:version="0.92.1 r15371">
  <defs
     id="defs2" />
  <sodipodi:namedview
     id="base"
     pagecolor="#ffffff"
     bordercolor="#666666"
     borderopacity="1.0"
     inkscape:pageopacity="0.0"
     inkscape:pageshadow="2"
     inkscape:zoom="22.627417"
     inkscape:cx="17.632478"
     inkscape:cy="21.838575"
     inkscape:document-units="mm"
     inkscape:current-layer="layer1"
     showgrid="false"
     units="px"
     inkscape:window-width="2560"
     inkscape:window-height="1315"
     inkscape:window-x="-13"
     inkscape:window-y="-13"
     inkscape:window-maximized="1" />
  <metadata
     id="metadata5">
    <rdf:RDF>
      <cc:Work
         rdf:about="">
        <dc:format>image/svg+xml</dc:format>
        <dc:type
           rdf:resource="http://purl.org/dc/dcmitype/StillImage" />
        <dc:title></dc:title>
      </cc:Work>
    </rdf:RDF>
  </metadata>
  <g
     inkscape:label="Layer 1"
     inkscape:groupmode="layer"
     id="layer1"
     transform="translate(0,-283.77082)">
    <path
       style="fill:#000000;stroke-width:0.26458332"
       id="path94"
       d="m 5.3928642,291.01368 c 0.040509,-0.055 0.081552,-0.10969 0.1215281,-0.16511 0.1475005,-0.20452 0.2928176,-0.4106 0.4387443,-0.61623 0.2834269,-0.39941 0.5655206,-0.79973 0.8465087,-1.20085 0.3487391,-0.4979 0.7064449,-0.98941 1.0566572,-1.48626 0.110341,-0.1519 0.2140741,-0.3083 0.3133357,-0.46761 0.035951,-0.0509 0.061959,-0.10754 0.092728,-0.16144 0.02095,-0.0297 0.027447,-0.0632 0.030877,-0.0986 0.00411,-0.0408 0.00254,-0.0806 -0.00683,-0.12039 -0.023951,-0.0706 -0.071859,-0.13064 -0.1166645,-0.18922 -0.069949,-0.0892 -0.1519,-0.16769 -0.2325781,-0.24695 -0.055849,-0.0515 -0.1098182,-0.10503 -0.1636826,-0.15861 -0.015984,-0.0173 -0.0554,-0.0391 -0.049661,-0.0684 0.00108,-0.006 0.005,-0.0101 0.0075,-0.0152 0.05729,-0.0312 0.1127956,-0.066 0.1718707,-0.0937 0.011234,-0.005 0.024622,-0.003 0.036981,-0.004 0.015767,-10e-4 0.031551,-0.003 0.04737,-0.003 0.074434,-0.003 0.1493901,-2e-5 0.2238523,-1.8e-4 0.1910287,2.8e-4 0.3824248,-0.007 0.571984,-0.0316 0.045439,-0.006 0.090631,-0.0137 0.1359463,-0.0206 0.2053757,-0.0337 0.4070416,-0.0871 0.6048121,-0.15147 0.1274331,-0.0415 0.1998914,-0.0698 0.3261744,-0.11668 0.3357352,-0.12709 0.6581542,-0.28603 0.9773602,-0.44947 0.138805,-0.0717 0.276126,-0.14624 0.412247,-0.2229 0.0066,-0.004 -0.02645,0.0145 -0.02004,0.0105 0.06531,-0.0407 0.13158,-0.0798 0.197084,-0.12011 0.157559,-0.10047 0.319771,-0.19309 0.481775,-0.2861 0.0087,-0.003 0.01694,-0.009 0.02622,-0.0105 0.06844,-0.0117 0.03827,0.13411 0.03461,0.16121 -0.03883,0.22835 -0.06845,0.45781 -0.0904,0.68836 -0.02247,0.27071 -0.03069,0.54268 -0.02277,0.81424 0.0016,0.0538 0.0046,0.10752 0.0069,0.16128 0.0137,0.25606 0.04625,0.51125 0.103304,0.76138 0.01076,0.0472 0.02348,0.0939 0.03523,0.14081 0.06306,0.25037 0.144281,0.49549 0.230081,0.73883 0.03609,0.10795 0.0811,0.21248 0.122762,0.31829 0.04142,0.11358 -0.01458,0.0885 -0.151309,0.16179 -0.05528,-0.0171 -0.107523,-0.044 -0.160625,-0.0671 -0.08778,-0.0365 -0.172824,-0.079 -0.259619,-0.11755 -0.08074,-0.0354 -0.16507,-0.0615 -0.247595,-0.0922 -0.04833,-0.0181 -0.09712,-0.0344 -0.148083,-0.0431 -0.02677,-0.004 -0.05389,-0.004 -0.08089,-0.004 -0.01178,0.003 -0.03594,-0.003 -0.04647,3.2e-4 -0.0034,10e-4 -0.01132,0.009 -0.0082,0.007 0.04664,-0.0248 0.09253,-0.051 0.138796,-0.0765 -0.004,0.006 -0.0083,0.0118 -0.01201,0.018 -0.02146,0.0361 -0.03868,0.0747 -0.05925,0.11124 -0.02306,0.041 -0.04644,0.078 -0.07118,0.11829 -0.07497,0.11797 -0.14621,0.23838 -0.223644,0.35477 -0.05359,0.0806 -0.09837,0.14258 -0.154527,0.22193 -0.236347,0.32526 -0.484004,0.6422 -0.733389,0.95751 -0.3320698,0.42643 -0.6659152,0.85145 -0.9958972,1.2795 -0.248648,0.31627 -0.4956617,0.63374 -0.7396168,0.95363 -0.1092512,0.14413 -0.2234581,0.28444 -0.3421287,0.42089 -0.058576,0.0655 -0.115579,0.13204 -0.1698456,0.20112 -0.03279,0.0386 -0.057723,0.0826 -0.08508,0.12498 -0.017216,0.0291 -0.039293,0.0544 -0.061803,0.0793 -0.019108,0.0198 -0.040473,0.0374 -0.061455,0.0552 -0.066186,0.0502 -0.136243,0.10573 -0.2195423,0.11778 -0.024111,0.003 -0.0484,0.002 -0.072606,0.002 -0.052395,0.004 -0.08848,-0.0125 -0.1343326,-0.036 -0.1177275,-0.0704 -0.232604,-0.14571 -0.3463759,-0.22236 -0.1704231,-0.11833 -0.3378136,-0.24094 -0.5085336,-0.35885 -0.1806739,-0.12323 -0.3620447,-0.24544 -0.5424038,-0.36914 -0.1478209,-0.10082 -0.2939381,-0.20406 -0.4389556,-0.30886 -0.094683,-0.0664 -0.1840773,-0.14008 -0.2641656,-0.22353 -0.037989,-0.0435 -0.078806,-0.0891 -0.095005,-0.1461 -0.00273,-0.01 -0.00394,-0.0196 -0.00592,-0.0294 -0.00717,-0.0742 0.014962,-0.14443 0.044606,-0.21137 0.047977,-0.093 0.1151302,-0.17438 0.181959,-0.2543 0.06951,-0.0795 0.1439772,-0.15436 0.217629,-0.22997 0.050388,-0.0504 0.095604,-0.10515 0.1350701,-0.1644 0.021323,-0.0344 0.045043,-0.0671 0.066668,-0.10128 0.00704,-0.0111 0.01165,-0.0234 0.016452,-0.0356 0,0 0.1580325,-0.0731 0.1580325,-0.0731 v 0 c -0.0052,0.0128 -0.00909,0.026 -0.015526,0.0383 -0.020645,0.0353 -0.046176,0.0674 -0.067562,0.1023 -0.039067,0.0608 -0.084445,0.11688 -0.1354526,0.16819 -0.073939,0.0756 -0.1488239,0.15024 -0.2191726,0.22925 -0.066508,0.0785 -0.1327039,0.15879 -0.1822707,0.24941 -0.030104,0.0633 -0.052636,0.13017 -0.048172,0.20136 0.00151,0.009 0.00228,0.0181 0.00456,0.0269 0.014269,0.055 0.054077,0.0988 0.089916,0.14081 0.078872,0.0829 0.1668732,0.15618 0.260024,0.22256 0.1437466,0.10575 0.2893642,0.20891 0.4365035,0.30988 0.1799802,0.12411 0.3607327,0.24705 0.5417881,0.36957 0.1709547,0.11794 0.3386235,0.24058 0.5103648,0.35739 0.1142675,0.0759 0.2294687,0.15095 0.3493691,0.21766 0.021878,0.0101 0.035503,0.0178 0.058377,0.0236 0.024027,0.006 0.048866,0.004 0.073356,0.005 0.023603,-2e-4 0.047428,-5e-5 0.07066,-0.005 0.00976,-0.003 0.013002,-0.003 0.022352,-0.007 0.00377,-0.002 0.01456,-0.007 0.011036,-0.005 -0.2462339,0.14565 -0.1629307,0.0999 -0.1142312,0.0645 0.02195,-0.0161 0.041124,-0.0357 0.06255,-0.0525 0.022376,-0.0247 0.046155,-0.0482 0.063454,-0.077 0.027718,-0.043 0.053306,-0.0875 0.085834,-0.12716 0.055554,-0.0691 0.1113028,-0.13782 0.1717638,-0.20285 0.1217787,-0.13715 0.2389007,-0.27843 0.3511095,-0.42353 0.2479802,-0.32034 0.4975016,-0.63943 0.7484184,-0.95746 0.3313009,-0.42715 0.6659237,-0.85167 0.9960517,-1.27972 0.2460853,-0.31363 0.4903113,-0.6289 0.7234483,-0.95233 0.05524,-0.0784 0.100119,-0.14083 0.152833,-0.22042 0.0765,-0.11552 0.146717,-0.23509 0.219911,-0.35269 0.04876,-0.0807 0.09653,-0.16172 0.135856,-0.24752 0.143413,-0.0901 0.113036,-0.103 0.216918,-0.10104 0.02753,3.7e-4 0.05512,0.002 0.08219,0.007 0.05085,0.0107 0.09977,0.0279 0.148237,0.0466 0.08244,0.0311 0.166581,0.0579 0.247147,0.0938 0.08673,0.0389 0.172057,0.0809 0.260026,0.117 0.02505,0.0106 0.05014,0.0212 0.07516,0.0319 0.02597,0.0111 0.05344,0.0273 0.08259,0.0254 -0.04724,0.0277 -0.09529,0.054 -0.141705,0.083 -0.0023,0.001 0.0055,0.002 0.008,5.8e-4 0.0023,-9.5e-4 0.0039,-0.003 0.0047,-0.006 0.0055,-0.0164 -0.0065,-0.0361 -0.0098,-0.0511 -0.03885,-0.10742 -0.0823,-0.21318 -0.116686,-0.32221 -0.08278,-0.24511 -0.163465,-0.49119 -0.227063,-0.74211 -0.01176,-0.0472 -0.02453,-0.0941 -0.03529,-0.14153 -0.05701,-0.2511 -0.08962,-0.50728 -0.103316,-0.76428 -0.0135,-0.32558 -0.01386,-0.65174 0.01348,-0.97674 0.01206,-0.13534 0.02525,-0.27031 0.04296,-0.40505 0.01668,-0.12688 0.01221,-0.0822 0.02901,-0.20106 0.0037,-0.0263 0.007,-0.0527 0.01046,-0.079 0.0013,-0.0108 0.02198,-0.12635 -0.0025,-0.1316 -0.01086,-0.002 -0.03377,0.0109 -0.03993,0.0137 0.03766,-0.0219 0.07533,-0.0439 0.11298,-0.0658 0.01404,-0.008 -0.02809,0.0163 -0.04215,0.0245 -0.08953,0.0519 -0.177872,0.10564 -0.265757,0.16026 -0.282861,0.17384 -0.570438,0.34011 -0.866307,0.49095 -0.319494,0.1627 -0.642063,0.32104 -0.9779293,0.44755 -0.3047479,0.11273 -0.6138265,0.21778 -0.9360649,0.26793 -0.045661,0.007 -0.091197,0.0146 -0.1369851,0.0206 -0.1910072,0.0249 -0.3838234,0.0318 -0.5762609,0.0326 -0.075261,8e-4 -0.1512462,-0.001 -0.2264072,0.004 -0.015888,0.001 -0.031757,0.003 -0.047515,0.005 -0.012213,0.002 -0.04596,0.0149 -0.036309,0.007 0.038642,-0.0308 0.083824,-0.0523 0.1257361,-0.0785 -0.00415,10e-4 -0.00879,10e-4 -0.012449,0.004 -0.015425,0.01 0.035852,0.0496 0.040944,0.0559 0.052893,0.0542 0.1061114,0.108 0.1612696,0.15986 0.08092,0.0801 0.1628974,0.15952 0.2338385,0.24884 0.047026,0.06 0.096756,0.1214 0.1228534,0.19392 0.010724,0.0413 0.013769,0.0826 0.00963,0.12527 -0.00251,0.037 -0.00594,0.0743 -0.027547,0.10582 -0.033495,0.0535 -0.057592,0.11253 -0.09585,0.16326 -0.1026522,0.16139 -0.2095653,0.32005 -0.3240614,0.47334 -0.3614391,0.49941 -0.7295057,0.99404 -1.0843924,1.49818 -0.4597905,0.65253 -0.921254,1.30403 -1.3677259,1.96579 0,0 -0.1559378,0.0672 -0.1559378,0.0672 z"
       inkscape:connector-curvature="0" />
    <path
       style="fill:#000000;stroke-width:0.26458332"
       id="path110"
       d="m 10.634288,287.39991 c -0.192323,0.23704 -0.381746,0.4764 -0.573388,0.71398 -0.2060904,0.25024 -0.407438,0.50498 -0.5888096,0.77393 -0.029786,0.0442 -0.057885,0.0894 -0.086827,0.13418 -0.090243,0.15527 -0.1905926,0.31247 -0.2329921,0.48945 -0.00537,0.0224 -0.00792,0.0454 -0.011885,0.0681 -0.00606,0.0804 9.261e-4,0.16395 0.044561,0.23396 0.00642,0.0103 0.014311,0.0196 0.021468,0.0294 0.053341,0.0644 0.1237581,0.0894 0.2026828,0.10779 0.057951,0.0113 0.1178168,0.0146 0.1764704,0.006 0.034759,-0.005 0.047632,-0.01 0.081305,-0.0197 -0.021016,0.0166 0.1059841,-0.0552 0.079365,-0.0416 -0.034635,0.0176 -0.06591,0.0427 -0.1027033,0.0552 -0.018558,0.006 0.031282,-0.0236 0.046456,-0.036 0.039955,-0.0327 0.064234,-0.0559 0.1027986,-0.0911 0.1460389,-0.13855 0.2712142,-0.29711 0.3996942,-0.4516 0.174954,-0.20718 0.331729,-0.42887 0.477322,-0.65746 0.03511,-0.0551 0.0687,-0.11122 0.103058,-0.16682 0.152558,-0.2522 0.286127,-0.51491 0.408238,-0.78296 0.05288,-0.12053 0.111271,-0.24001 0.138673,-0.36945 0.0092,-0.07 0.0042,-0.10819 -0.03579,-0.16571 -0.03838,-0.0538 -0.09329,-0.092 -0.149795,-0.12466 -0.06034,-0.0284 -0.131813,-0.0516 -0.198511,-0.0307 -0.01708,0.005 -0.03278,0.0144 -0.04917,0.0216 0.02837,-0.0143 0.06707,-0.0692 0.08512,-0.043 0.018,0.0261 -0.04898,0.0404 -0.0715,0.0628 -0.105596,0.10474 -0.190577,0.22789 -0.278192,0.34729 0,0 -0.145175,0.0628 -0.145175,0.0628 v 0 c 0.05929,-0.0825 0.124712,-0.17647 0.189348,-0.25577 0.02542,-0.0312 0.109033,-0.12848 0.148911,-0.15581 0.06579,-0.0451 0.136724,-0.0822 0.205086,-0.12331 0.01746,-0.006 0.03433,-0.0145 0.05237,-0.0189 0.0703,-0.0168 0.143439,0.009 0.205586,0.0396 0.05825,0.0346 0.115164,0.0744 0.154737,0.13042 0.01281,0.0186 0.02024,0.0273 0.02912,0.0482 0.01755,0.0413 0.01723,0.0868 0.01177,0.13055 -0.003,0.0147 -0.0053,0.0295 -0.009,0.044 -0.02959,0.11582 -0.08719,0.22233 -0.133811,0.33161 -0.125028,0.26969 -0.261835,0.53373 -0.415504,0.78836 -0.175292,0.28487 -0.355923,0.56765 -0.572654,0.82336 -0.127153,0.15407 -0.250883,0.31222 -0.3942719,0.45174 -0.03865,0.036 -0.061324,0.0581 -0.1010812,0.0918 -0.014875,0.0126 -0.029042,0.0263 -0.045423,0.0369 -0.061727,0.0399 -0.1253374,0.0768 -0.188536,0.11432 -0.037731,0.0224 -0.042357,0.0225 -0.082246,0.0386 -0.013846,0.004 -0.027543,0.008 -0.04154,0.0106 -0.072991,0.015 -0.1485723,0.0107 -0.2211001,-0.004 -0.082414,-0.021 -0.1550057,-0.0493 -0.2098723,-0.1176 -0.019606,-0.0277 -0.028129,-0.0368 -0.041941,-0.0688 -0.028365,-0.0656 -0.032657,-0.13762 -0.027609,-0.20804 0.00403,-0.0235 0.00661,-0.0472 0.012107,-0.0704 0.042739,-0.18012 0.1457172,-0.33957 0.2381885,-0.497 0.029416,-0.0451 0.057985,-0.0909 0.088249,-0.13542 0.1823842,-0.26864 0.3834138,-0.524 0.588926,-0.77513 0.18902,-0.23433 0.376584,-0.46984 0.560415,-0.70827 0,0 0.157321,-0.0673 0.157321,-0.0673 z"
       inkscape:connector-curvature="0" />
    <path
       style="fill:#000000;stroke-width:0.26458332"
       id="path116"
       d="m 10.88111,286.83795 c -0.105468,0.15476 -0.218674,0.30407 -0.331144,0.45377 -0.145155,0.20254 -0.308397,0.39084 -0.467205,0.58253 -0.1428095,0.17562 -0.2904806,0.34722 -0.43749,0.51932 -0.1213498,0.14779 -0.2396757,0.29781 -0.3708479,0.43711 -0.099215,0.10166 -0.205131,0.19638 -0.3202125,0.27966 -0.097979,0.0641 -0.070356,0.0473 -0.2367799,0.14072 -0.023299,0.0131 -0.06092,0.0292 -0.086504,0.0379 -0.03384,0.0114 -0.04908,0.0135 -0.083693,0.0206 -0.044509,0.004 -0.096548,0.0127 -0.137578,-0.0113 -0.028403,-0.0166 -0.031905,-0.0282 -0.051057,-0.0553 -0.00639,-0.0166 -0.014465,-0.0327 -0.019174,-0.0499 -0.040556,-0.14802 -0.00508,-0.32 0.023564,-0.46662 0.048281,-0.2077 0.1200851,-0.4103 0.2155764,-0.60109 0.019296,-0.0386 0.040691,-0.076 0.061036,-0.11403 0.093323,-0.1555 0.192763,-0.30804 0.3050294,-0.45068 0.074625,-0.0948 0.1049975,-0.12561 0.1857351,-0.21537 0.1251493,-0.13199 0.2568655,-0.25806 0.3992788,-0.37139 0.076348,-0.0608 0.1252064,-0.0945 0.2038265,-0.15097 0.089623,-0.0635 0.1824109,-0.12231 0.2778101,-0.17669 0.07596,-0.0433 0.151789,-0.0868 0.228575,-0.12866 0.06017,-0.0328 0.102936,-0.0498 0.165226,-0.0769 0.110262,-0.048 0.225851,-0.0797 0.345106,-0.0936 0.05217,-0.006 0.105026,-0.005 0.154999,0.0123 0.03589,0.016 0.04679,0.0486 0.05334,0.0845 0.01029,0.0808 -0.0023,0.16146 -0.01719,0.24078 -0.02405,0.11313 -0.06179,0.2235 -0.112268,0.32763 -0.01108,0.0229 -0.02369,0.0449 -0.03553,0.0674 -0.05845,0.10492 -0.134119,0.19823 -0.211069,0.28981 0,0 -0.151412,0.0642 -0.151412,0.0642 v 0 c 0.02326,-0.0276 0.04738,-0.0544 0.06978,-0.0827 0.05085,-0.0642 0.0973,-0.13254 0.139622,-0.20258 0.012,-0.0221 0.02484,-0.0438 0.036,-0.0663 0.05069,-0.10245 0.08821,-0.21159 0.112189,-0.32325 0.01456,-0.077 0.02669,-0.15517 0.01675,-0.23368 -0.0049,-0.0303 -0.01168,-0.0571 -0.04371,-0.068 -0.04856,-0.0135 -0.09889,-0.0139 -0.148787,-0.008 -0.11699,0.015 -0.230309,0.047 -0.33841,0.0947 -0.02669,0.0118 -0.05368,0.0231 -0.08008,0.0355 -0.02812,0.0133 -0.0533,0.0341 -0.08343,0.0418 -0.02076,0.005 0.07352,-0.0439 0.05435,-0.0343 -0.03102,0.0155 -0.06032,0.0343 -0.09001,0.0522 -0.084664,0.0511 -0.1070144,0.0677 -0.1901864,0.12382 -0.078032,0.0555 -0.1293913,0.0907 -0.2051492,0.15028 -0.1430591,0.11256 -0.2751738,0.23822 -0.4010284,0.36955 -0.079666,0.0879 -0.1123926,0.12103 -0.1860164,0.21391 -0.1123198,0.14169 -0.2113105,0.29367 -0.3050664,0.44805 -0.020497,0.0378 -0.042069,0.0749 -0.061496,0.11325 -0.095919,0.18917 -0.1678622,0.39049 -0.2161053,0.59689 -0.027421,0.141 -0.06225,0.31315 -0.022085,0.45523 0.00444,0.0157 0.012041,0.0303 0.018063,0.0455 0.017563,0.0234 0.020196,0.0333 0.04624,0.0461 0.039977,0.0196 0.08936,0.009 0.1310748,0.004 0.035432,-0.008 0.047103,-0.01 0.081658,-0.0227 0.045155,-0.0167 0.208003,-0.10146 -0.016092,0.0194 -0.016539,0.009 0.031766,-0.0201 0.047649,-0.0301 0.1165384,-0.082 0.223335,-0.17626 0.3235767,-0.27754 0.055301,-0.0578 0.063991,-0.0655 0.1171718,-0.12676 0.088118,-0.10143 0.1698876,-0.20815 0.2566812,-0.31069 0.1474862,-0.17192 0.2944987,-0.3443 0.438236,-0.51935 0.1586766,-0.19161 0.3229526,-0.37893 0.4674766,-0.58179 0.11045,-0.14754 0.221937,-0.29461 0.323148,-0.44873 0,0 0.158066,-0.0697 0.158066,-0.0697 z"
       inkscape:connector-curvature="0" />
    <path
       style="fill:#000000;stroke-width:0.26458332"
       id="path122"
       d="m 9.3403408,288.38831 c 0.1137738,-0.0857 0.2235663,-0.17633 0.3295708,-0.27146 0.1053738,-0.0983 0.1999581,-0.20939 0.2734054,-0.33375 0.01266,-0.0214 0.023799,-0.0437 0.035697,-0.0656 0.02834,-0.0641 0.077248,-0.16311 0.066553,-0.23624 -0.0014,-0.009 -0.0058,-0.0182 -0.0086,-0.0273 -0.0069,-0.007 -0.01263,-0.0148 -0.02072,-0.0199 -0.072171,-0.046 -0.1837087,-0.003 -0.2548668,0.0209 -0.057193,0.0245 -0.099041,0.0404 -0.1532168,0.0723 -0.019905,0.0117 0.07472,-0.05 0.062114,-0.0307 -0.019026,0.0292 -0.056345,0.0411 -0.0833,0.0632 -0.077954,0.0639 -0.092799,0.0832 -0.1640743,0.15605 -0.1243311,0.14198 -0.2369687,0.29809 -0.3074183,0.47445 -0.011107,0.0278 -0.019434,0.0566 -0.029152,0.085 -0.019346,0.0855 -0.047204,0.21768 0.013597,0.29483 0.00838,0.0106 0.020421,0.0178 0.030632,0.0267 0.014155,0.004 0.027786,0.0111 0.042468,0.013 0.066433,0.009 0.1397809,-0.0163 0.1981869,-0.0451 0.026957,-0.0133 0.060174,-0.0214 0.077662,-0.0459 0.012562,-0.0176 -0.040546,0.0149 -0.06082,0.0223 0.027476,-0.0248 0.054951,-0.0496 0.082427,-0.0744 0,0 0.1520685,-0.0622 0.1520685,-0.0622 v 0 c -0.026962,0.0252 -0.053924,0.0504 -0.080887,0.0756 -0.074025,0.0478 -0.1472372,0.0969 -0.2220749,0.14339 -0.080163,0.0498 -0.1901774,0.1021 -0.2879767,0.082 -0.016343,-0.003 -0.031004,-0.0123 -0.046506,-0.0185 -0.01112,-0.0106 -0.024162,-0.0195 -0.033364,-0.0318 -0.063877,-0.0855 -0.036258,-0.2149 -0.01601,-0.3091 0.00981,-0.0289 0.018203,-0.0584 0.029429,-0.0868 0.070299,-0.17796 0.1829366,-0.33579 0.306527,-0.48028 0.071555,-0.0749 0.08386,-0.0919 0.1620803,-0.15781 0.1363916,-0.115 0.2953811,-0.2025 0.4603675,-0.26905 0.079638,-0.0253 0.1923476,-0.065 0.2689846,-0.008 0.0097,0.007 0.01653,0.0178 0.0248,0.0267 0.0036,0.0107 0.0088,0.0209 0.01065,0.032 0.01297,0.0759 -0.03719,0.17897 -0.06638,0.24584 -0.01192,0.0223 -0.02305,0.045 -0.03575,0.0669 -0.073,0.12553 -0.1670059,0.23827 -0.272023,0.33813 -0.1042688,0.0945 -0.2125935,0.1839 -0.323161,0.27097 0,0 -0.1608926,0.0635 -0.1608926,0.0635 z"
       inkscape:connector-curvature="0" />
    <path
       style="fill:#000000;stroke-width:0.26458332"
       id="path124"
       d="m 10.310672,289.1143 c 0.110781,-0.0697 0.201117,-0.16601 0.289478,-0.26133 0.06948,-0.0771 0.127795,-0.1633 0.17258,-0.25695 0.02851,-0.0596 0.03474,-0.0815 0.05716,-0.14335 0.02925,-0.099 0.05759,-0.20314 0.04719,-0.30752 -0.0015,-0.0145 -0.0049,-0.0287 -0.0073,-0.0431 -0.0081,-0.0298 -0.01685,-0.0649 -0.04564,-0.0823 -0.03748,-0.0227 -0.08233,-0.0113 -0.122064,-0.005 -10e-5,-0.048 -0.141623,0.0966 -0.129333,0.0518 0.0069,-0.025 0.07994,-0.0596 0.06867,-0.0363 -0.01426,0.0295 -0.05356,0.0378 -0.07925,0.0582 -0.07315,0.058 -0.09895,0.0856 -0.167429,0.15076 -0.161219,0.16249 -0.295443,0.3485 -0.4106945,0.54564 -0.035468,0.071 -0.099872,0.1829 -0.084502,0.26664 0.00217,0.0118 0.00807,0.0225 0.012102,0.0338 0.0077,0.01 0.013962,0.0206 0.023095,0.0288 0.048819,0.0441 0.1203015,0.0497 0.1824745,0.0421 0.02087,-0.003 0.04129,-0.008 0.06193,-0.0119 0.06084,-0.0178 0.07442,-0.0196 0.13317,-0.046 0.02218,-0.01 0.08371,-0.0485 0.06518,-0.0327 -0.02345,0.0199 -0.04988,0.041 -0.08032,0.0456 -0.02416,0.004 0.04044,-0.0275 0.05971,-0.0425 0.01933,-0.0151 0.03732,-0.0318 0.05598,-0.0477 0.0761,-0.0757 0.03795,-0.0348 0.113623,-0.12362 0,0 0.153078,-0.065 0.153078,-0.065 v 0 c -0.0735,0.09 -0.03621,0.0485 -0.111017,0.12545 -0.01848,0.0163 -0.0363,0.0334 -0.05543,0.049 -0.08574,0.0697 -0.159291,0.10428 -0.266969,0.16367 -0.06321,0.0349 -0.131957,0.0589 -0.201979,0.0756 -0.02134,0.003 -0.04248,0.008 -0.064011,0.0103 -0.067496,0.006 -0.1418063,-0.006 -0.1926532,-0.0544 -0.010173,-0.01 -0.017256,-0.0223 -0.025882,-0.0335 -0.00481,-0.0129 -0.011689,-0.0251 -0.014441,-0.0386 -0.018015,-0.0881 0.047027,-0.20296 0.084848,-0.2775 0.1164526,-0.19806 0.2510216,-0.38553 0.4112966,-0.55082 0.06794,-0.0659 0.09264,-0.0928 0.164952,-0.15196 0.02522,-0.0206 0.05023,-0.0418 0.07774,-0.0592 0.07123,-0.0451 0.144292,-0.0874 0.218067,-0.12828 0.02235,-0.0124 0.04599,-0.0225 0.06999,-0.0312 0.02088,-0.008 0.04284,-0.0119 0.06426,-0.0178 0.03986,-0.004 0.06077,-0.0106 0.0992,3.4e-4 0.05134,0.0147 0.07199,0.0609 0.08317,0.10855 0.0026,0.0151 0.0063,0.0301 0.0078,0.0453 0.01092,0.10665 -0.01742,0.21311 -0.04668,0.31449 -0.02212,0.0627 -0.02829,0.0848 -0.05639,0.14541 -0.04402,0.0949 -0.10124,0.18278 -0.170693,0.26105 -0.08676,0.095 -0.175336,0.19128 -0.2828,0.26333 0,0 -0.161275,0.0628 -0.161275,0.0628 z"
       inkscape:connector-curvature="0" />
    <path
       style="fill:#000000;stroke-width:0.26458332"
       id="path132"
       d="m 7.4146787,289.40187 c -0.1566201,0.30036 -0.3280457,0.59268 -0.5029594,0.88266 -0.1807025,0.28983 -0.3746084,0.57113 -0.5814591,0.84286 -0.038987,0.0504 -0.079005,0.10007 -0.1181606,0.15037 -0.015793,0.0203 -0.030814,0.04 -0.042954,0.0626 -0.00212,0.008 -0.00534,0.0126 -0.00138,0.0202 0.00997,0.0191 0.046767,0.0333 0.064229,0.0414 0.123026,0.0529 0.2471108,0.10342 0.3712337,0.15372 0.1984433,0.0783 0.3906499,0.17031 0.5780209,0.27204 0.1279036,0.0706 0.2520127,0.14805 0.3653171,0.24046 0.046893,0.035 0.084298,0.0802 0.1262168,0.12053 0.00768,0.006 0.014089,0.0131 0.024585,0.0139 0.030407,0.002 0.095466,-0.0388 0.1187752,-0.0519 -0.028578,0.0154 -0.055115,0.0568 -0.085734,0.0461 -0.027329,-0.01 0.047103,-0.0337 0.069864,-0.0516 0.1327475,-0.10439 0.2497852,-0.22579 0.3658124,-0.34797 0.1825574,-0.20484 0.3622421,-0.41217 0.5469943,-0.61507 0.1078732,-0.11659 0.2124934,-0.23613 0.3115929,-0.36028 0.04049,-0.0485 0.071627,-0.10316 0.1012743,-0.15861 0.018703,-0.0363 0.040465,-0.071 0.056361,-0.10863 0.00948,-0.0234 0.011806,-0.0483 0.012814,-0.0733 -4.762e-4,-0.0433 -0.047284,-0.058 -0.079774,-0.0751 -0.1566796,-0.0738 -0.3192801,-0.13381 -0.4803746,-0.19704 -0.2055037,-0.0781 -0.3999497,-0.18078 -0.59153,-0.28776 -0.1431563,-0.0842 -0.2884694,-0.16457 -0.4331168,-0.24613 -0.064581,-0.0402 -0.1318168,-0.076 -0.1953207,-0.11797 -0.047338,-0.0326 -0.024249,-0.0171 -0.069192,-0.0465 -0.041096,-0.0218 -0.072925,-0.0565 -0.1113129,-0.082 -0.059126,-0.0307 -0.1088503,0.0262 0.1003165,-0.0695 0,0 -0.1585087,0.0677 -0.1585087,0.0677 v 0 c 0.1199481,-0.0761 0.1238515,-0.14121 0.2048341,-0.0916 0.036806,0.027 0.06915,0.0601 0.1090933,0.0829 0.085447,0.0577 0.1717579,0.1138 0.2613144,0.16509 0.1437417,0.082 0.2877253,0.16359 0.4300706,0.24802 0.190699,0.10722 0.3850045,0.20867 0.5900936,0.28597 0.1628934,0.0633 0.3273145,0.12306 0.4867013,0.19496 0.040164,0.0205 0.088242,0.0393 0.092176,0.0904 -5.821e-4,0.0266 -0.00198,0.0534 -0.010597,0.0789 -0.014507,0.039 -0.037014,0.074 -0.056208,0.11082 -0.030789,0.0564 -0.060644,0.1134 -0.1026819,0.1626 -0.100924,0.12552 -0.2076813,0.24615 -0.3174908,0.36396 -0.1860888,0.20267 -0.3668903,0.40999 -0.5490286,0.6162 -0.090761,0.0968 -0.181814,0.19286 -0.2807457,0.28149 -0.024635,0.0221 -0.1142143,0.0984 -0.1465059,0.11904 -0.066576,0.0426 -0.1357323,0.0811 -0.2035982,0.12165 -0.035546,0.0187 -0.087565,0.0558 -0.1313608,0.0413 -0.011205,-0.004 -0.018828,-0.0118 -0.027449,-0.0192 -0.040338,-0.0409 -0.07743,-0.0852 -0.1228865,-0.12083 -0.1105974,-0.093 -0.2331008,-0.17009 -0.3590637,-0.24059 -0.1868802,-0.10185 -0.3788558,-0.19362 -0.5777214,-0.26991 -0.1259184,-0.0497 -0.2518259,-0.0996 -0.3770429,-0.15105 -0.027959,-0.0134 -0.074202,-0.032 -0.078579,-0.0687 -6.35e-4,-0.005 0.00101,-0.0107 0.00151,-0.0161 0.010978,-0.0256 0.026497,-0.0455 0.043979,-0.0674 0.040894,-0.0511 0.083117,-0.10115 0.1238009,-0.15243 0.2124885,-0.2714 0.4112311,-0.55331 0.5933551,-0.84606 0.172194,-0.28541 0.3398404,-0.57409 0.4865201,-0.87361 0,0 0.1558771,-0.0708 0.1558771,-0.0708 z"
       inkscape:connector-curvature="0" />
    <path
       style="fill:#000000;stroke-width:0.26458332"
       id="path162"
       d="m 6.1110613,290.23491 c -0.089359,0.0928 -0.1915557,0.17292 -0.2956486,0.24839 -0.141588,0.10264 -0.2480664,0.17149 -0.4014808,0.25984 -0.115606,0.0666 -0.2332929,0.12948 -0.3499393,0.19422 -0.1750763,0.0831 -0.2448753,0.12415 -0.4298661,0.18096 -0.1307092,0.0401 -0.283268,0.0698 -0.4196882,0.0838 -0.1563267,0.0161 -0.1935353,0.009 -0.3452312,0.001 -0.1598292,-0.019 -0.3179352,-0.0597 -0.4571918,-0.14272 -0.067193,-0.0401 -0.097414,-0.0681 -0.1580205,-0.11718 -0.1445451,-0.12832 -0.2760586,-0.27061 -0.4078545,-0.41177 -0.1002545,-0.10867 -0.2071005,-0.21132 -0.3237625,-0.30236 -0.023159,-0.0181 -0.047231,-0.0349 -0.070847,-0.0524 -0.1149342,-0.0862 -0.2428883,-0.15296 -0.3824617,-0.18869 -0.026272,-0.007 -0.053097,-0.0111 -0.079645,-0.0166 -0.1005084,-0.0181 -0.2009252,-0.01 -0.2955529,0.0296 -0.025207,0.0105 -0.046391,0.0403 -0.073406,0.0363 -0.026298,-0.004 0.047182,-0.0245 0.070774,-0.0367 -0.1011202,0.0704 -0.1796336,0.16351 -0.2317376,0.27526 -0.033344,0.0715 -0.038252,0.10159 -0.059146,0.17726 -0.022949,0.1196 -0.018902,0.24365 0.017312,0.36046 0.021679,0.0699 0.035806,0.0885 0.070355,0.15185 0.08424,0.12674 0.1850974,0.19219 0.3291295,0.23743 0.029067,0.009 0.058937,0.0155 0.088406,0.0232 0.1793926,0.0392 0.3636293,0.0393 0.5462381,0.0447 0.1184206,0.006 0.2386829,0.0113 0.3542042,0.0405 0.019026,0.005 0.037575,0.0114 0.056363,0.017 0.075796,0.0277 0.1541835,0.0635 0.2097497,0.12429 0.00936,0.0102 0.016923,0.022 0.025384,0.033 0.038526,0.0637 0.050387,0.13451 0.028391,0.2064 -0.00491,0.0161 -0.012285,0.0312 -0.018428,0.0469 -0.049464,0.099 -0.1153956,0.18981 -0.1935061,0.26828 -0.018918,0.019 -0.039138,0.0367 -0.058707,0.055 -0.021701,0.0179 -0.042763,0.0366 -0.0651,0.0537 -0.03939,0.0301 -0.1036269,0.0734 -0.1463566,0.0985 -0.078482,0.046 -0.2024927,0.1204 -0.2988514,0.16436 -0.026919,0.0123 -0.054601,0.0228 -0.081902,0.0342 -0.1145834,0.0441 -0.2336801,0.0755 -0.3551364,0.0935 -0.077305,0.0114 -0.1108235,0.0127 -0.1892091,0.0188 -0.1551968,0.0129 -0.3120219,0.0148 -0.4659673,0.0403 -0.028551,0.005 -0.056807,0.0111 -0.08521,0.0166 -0.027499,0.007 -0.055251,0.0122 -0.082498,0.0198 -0.04652,0.0129 -0.10602049,0.0335 -0.15032611,0.0534 -0.0229719,0.0103 -0.0887424,0.0475 -0.0673918,0.0342 0.0248404,-0.0155 0.0550088,-0.059 0.0778979,-0.0407 0.0215805,0.0172 -0.0438529,0.0336 -0.0657794,0.0504 -0.11125493,0.0986 -0.20129055,0.22215 -0.25305837,0.36229 -0.009373,0.0254 -0.0154744,0.0518 -0.0232114,0.0778 -0.0254273,0.12406 -0.0138311,0.25237 0.0409942,0.36742 0.0103402,0.0217 0.023677,0.0418 0.0355157,0.0627 0.0819975,0.11213 0.19656928,0.19363 0.32511208,0.24482 0.027209,0.0108 0.055433,0.0189 0.08315,0.0284 0.1097122,0.0297 0.2241086,0.041 0.3373598,0.0287 0.059885,-0.006 0.083833,-0.0147 0.1410353,-0.0295 -0.035529,0.0282 0.1521214,-0.0709 0.1134006,-0.0547 -0.031755,0.0133 -0.057871,0.0423 -0.091967,0.0469 -0.021668,0.003 0.034551,-0.0269 0.050997,-0.0413 0.036824,-0.0323 0.065612,-0.0634 0.099757,-0.0985 0.09775,-0.10219 0.1874516,-0.21158 0.2806324,-0.31787 0.060017,-0.0672 0.1224643,-0.13279 0.1937923,-0.18822 0.043362,-0.0337 0.060429,-0.0433 0.105959,-0.0725 0.1159402,-0.0676 0.2430596,-0.16441 0.3872829,-0.1491 0.013909,0.001 0.027504,0.005 0.041257,0.008 0.013131,0.005 0.027005,0.009 0.039392,0.016 0.06075,0.0338 0.095595,0.0982 0.106925,0.16512 0.00406,0.024 0.00368,0.0486 0.00552,0.0728 -0.00704,0.18922 -0.07928,0.36722 -0.1642004,0.53405 -0.025109,0.0493 -0.052668,0.0974 -0.079003,0.14607 -0.1091718,0.19679 -0.2211887,0.39221 -0.3210996,0.59397 -0.05694,0.11498 -0.063028,0.13305 -0.1125992,0.2479 -0.056165,0.14791 -0.1152778,0.3028 -0.1102566,0.46391 7.065e-4,0.0227 0.00447,0.0452 0.0067,0.0678 0.015271,0.0802 0.044495,0.15762 0.097776,0.2206 0.035428,0.0419 0.05378,0.0526 0.097062,0.0864 0.085646,0.0575 0.1827543,0.10001 0.2880277,0.0935 0.018495,-0.001 0.036683,-0.005 0.055025,-0.008 -0.02661,0.032 0.1383795,-0.0607 0.1063739,-0.0404 -0.030444,0.0194 -0.060487,0.0411 -0.094804,0.0522 -0.019294,0.006 0.032854,-0.0239 0.048228,-0.0371 0.042695,-0.0367 0.054077,-0.0531 0.091275,-0.0959 0.092824,-0.11645 0.1470691,-0.25599 0.1976588,-0.39445 0.043785,-0.12851 0.082384,-0.25857 0.136135,-0.38338 0.04071,-0.0939 0.097368,-0.17921 0.1773642,-0.24412 0.017187,-0.014 0.035814,-0.026 0.053721,-0.039 0.110527,-0.0703 0.216485,-0.13713 0.3436361,-0.16695 0.047145,-0.0111 0.1054994,-0.0189 0.1538748,-0.0214 0.024469,-10e-4 0.049004,-2.1e-4 0.073506,-3.1e-4 0.080568,0.004 0.16408,0.0123 0.2371005,0.0498 0.042415,0.0218 0.050003,0.0332 0.08502,0.0654 0.011679,0.0157 0.024675,0.0306 0.035036,0.0472 0.049941,0.0802 0.074811,0.17638 0.085809,0.26926 0.00337,0.0285 0.00439,0.0572 0.00658,0.0858 0.00859,0.18386 -0.023725,0.36588 -0.04487,0.54781 -0.022601,0.17973 -0.038093,0.36003 -0.046335,0.54095 -0.00249,0.15253 0.00151,0.30565 0.01764,0.4574 0.0122,0.0807 0.034843,0.15962 0.082583,0.22693 0.029527,0.0416 0.047397,0.0561 0.083695,0.0919 0.082576,0.0727 0.1812195,0.12057 0.2897711,0.13922 0.023476,0.004 0.047301,0.006 0.070952,0.009 0.093838,0.006 0.1873577,-0.006 0.2736951,-0.0444 0.020653,-0.009 0.079975,-0.0422 0.060306,-0.031 -0.028396,0.0161 -0.057668,0.0306 -0.086502,0.0459 0.1298159,-0.0924 0.2099016,-0.23142 0.2916732,-0.36447 0.086225,-0.14752 0.1750475,-0.29329 0.275876,-0.43132 0.090916,-0.12343 0.195584,-0.23578 0.3127721,-0.33445 0.1163638,-0.0825 0.2436239,-0.17787 0.3924512,-0.17801 0.014727,-2e-5 0.029369,0.002 0.044054,0.003 0.013494,0.004 0.027605,0.007 0.040485,0.0125 0.080539,0.0362 0.1244411,0.11847 0.163227,0.1926 0.054288,0.12351 0.084126,0.2559 0.1231454,0.38468 0.023085,0.0751 0.044041,0.15288 0.087077,0.21964 0.029864,0.0463 0.039215,0.0515 0.078252,0.0906 0.103486,0.0915 0.2313816,0.14261 0.3614261,0.18321 0.088655,0.0237 0.1796682,0.0398 0.271716,0.0376 0.048015,-10e-4 0.06526,-0.005 0.1119373,-0.0109 0.04436,-0.008 0.087365,-0.022 0.1275154,-0.0427 0.010673,-0.005 0.041626,-0.024 0.031067,-0.0182 -0.1265913,0.0685 -0.155311,0.10002 -0.099753,0.0462 0.00567,-0.009 0.012451,-0.0165 0.01701,-0.0257 0.026517,-0.0535 0.017216,-0.12082 0.00127,-0.17584 -0.00563,-0.0194 -0.013862,-0.038 -0.020794,-0.057 -0.055152,-0.12373 -0.1482981,-0.22332 -0.2341184,-0.32605 -0.074234,-0.0868 -0.1423725,-0.17959 -0.192583,-0.28262 -0.00907,-0.0186 -0.016743,-0.0379 -0.025112,-0.0568 -0.033555,-0.0868 -0.048854,-0.18055 -0.026872,-0.27236 0.00427,-0.0178 0.011353,-0.0349 0.017031,-0.0523 0.00884,-0.0171 0.016362,-0.0349 0.02653,-0.0513 0.083663,-0.13448 0.2299656,-0.18885 0.3645396,-0.25992 0.075324,-0.0176 0.1528457,-0.0148 0.2269281,0.008 0.045486,0.0139 0.078125,0.0316 0.1209016,0.0521 0.1230284,0.069 0.2267069,0.16553 0.3333949,0.25647 0.08408,0.0736 0.1678146,0.14765 0.2573329,0.21465 0.057137,0.0428 0.075188,0.0534 0.1343832,0.0925 0.1035841,0.065 0.2164225,0.11616 0.3365414,0.14132 0.020135,0.004 0.040608,0.007 0.060912,0.01 0.066486,0.006 0.1368884,0.01 0.1992078,-0.0193 0.013758,-0.006 0.052836,-0.0298 0.038993,-0.0236 -0.036699,0.0165 -0.071833,0.0364 -0.1077499,0.0546 0.095751,-0.0951 0.1298245,-0.21588 0.1573215,-0.34399 0.01883,-0.10969 0.015142,-0.22275 -0.011157,-0.33101 -0.00461,-0.019 -0.010954,-0.0375 -0.016431,-0.0563 -0.023569,-0.068 -0.055329,-0.1336 -0.098754,-0.1913 -0.027043,-0.0359 -0.044384,-0.0517 -0.075877,-0.0842 -0.1005692,-0.0966 -0.220745,-0.16709 -0.3404354,-0.23674 -0.098934,-0.0572 -0.2003607,-0.10968 -0.2980894,-0.16901 -0.045563,-0.0291 -0.094195,-0.0624 -0.1163714,-0.11404 -0.00357,-0.008 -0.00553,-0.0172 -0.0083,-0.0258 -0.00169,-0.0225 -0.00545,-0.0365 0.0046,-0.0585 0.019934,-0.0436 0.06433,-0.0756 0.1047676,-0.0978 0.066476,-0.0366 0.1342123,-0.0709 0.2013186,-0.10638 0.1272955,-0.0387 0.2610739,-0.047 0.3933547,-0.048 0.1396897,10e-4 0.2787565,0.0159 0.4181446,0.024 0.1382173,0.0103 0.2763956,0.007 0.4138747,-0.01 0.063638,-0.0112 0.1265919,-0.0268 0.1861449,-0.0522 0.01767,-0.008 0.0681,-0.0355 0.05185,-0.0252 -0.190326,0.1202 -0.08969,0.0481 -0.05261,0.0204 0.07739,-0.0698 0.13339,-0.16063 0.156887,-0.26271 0.0047,-0.0203 0.0065,-0.0411 0.0097,-0.0616 0.0057,-0.10343 -0.01042,-0.20973 -0.06208,-0.30095 -0.01011,-0.0179 -0.02269,-0.0342 -0.03403,-0.0513 -0.07391,-0.0905 -0.174903,-0.14429 -0.2879393,-0.16925 -0.025575,-0.006 -0.051603,-0.009 -0.077405,-0.0135 -0.1174856,-0.012 -0.2367672,-0.006 -0.352656,0.0171 -0.07928,0.0156 -0.1169144,0.029 -0.1948831,0.0524 -0.2131957,0.0712 -0.4170569,0.16707 -0.6184135,0.26622 -0.2012188,0.10546 -0.3978839,0.21923 -0.5981613,0.32644 -0.1260237,0.0661 -0.2577184,0.12425 -0.3959566,0.15974 -0.02154,0.006 -0.043409,0.01 -0.065114,0.0145 -0.083004,0.0118 -0.1749925,0.0241 -0.2552174,-0.009 -0.013261,-0.005 -0.025284,-0.0136 -0.037927,-0.0204 -0.011716,-0.009 -0.024437,-0.017 -0.03515,-0.0272 -0.059823,-0.0571 -0.089969,-0.13721 -0.1127866,-0.21448 -0.02137,-0.0853 -0.024339,-0.17345 -0.026321,-0.26094 9.525e-4,-0.0623 0.008,-0.12473 0.02168,-0.1855 0.012187,-0.0464 0.043473,-0.0804 0.078697,-0.11106 0,0 0.1601343,-0.0644 0.1601343,-0.0644 v 0 c -0.035372,0.0271 -0.068266,0.0573 -0.082979,0.10075 -0.015661,0.0593 -0.022225,0.121 -0.024831,0.18211 0.00108,0.0862 0.00334,0.17308 0.023381,0.25738 0.021042,0.0738 0.049151,0.15148 0.1076317,0.20477 0.010292,0.009 0.022474,0.0164 0.03371,0.0247 0.011972,0.006 0.023418,0.013 0.035918,0.0177 0.078917,0.0295 0.1677765,0.016 0.2483347,0.004 0.02136,-0.005 0.042879,-0.009 0.064076,-0.015 0.1365887,-0.0364 0.2665341,-0.0945 0.3911912,-0.16037 0.1999274,-0.1071 0.3961558,-0.22095 0.5975897,-0.32524 0.2022174,-0.0989 0.4067522,-0.19498 0.6211425,-0.26484 0.079924,-0.0233 0.1159602,-0.0361 0.1972156,-0.0513 0.1174539,-0.022 0.238201,-0.0269 0.3568983,-0.0134 0.026242,0.005 0.05274,0.008 0.078723,0.0145 0.116338,0.0272 0.219419,0.0856 0.295361,0.17876 0.01174,0.0178 0.02473,0.0348 0.03522,0.0533 0.05319,0.0939 0.07076,0.20324 0.0667,0.30985 -0.0029,0.0213 -0.0044,0.0428 -0.0088,0.0638 -0.0218,0.10424 -0.07603,0.19819 -0.15193,0.27217 -0.09673,0.0772 -0.05213,0.0452 -0.237713,0.14814 -0.02932,0.0163 -0.078747,0.0344 -0.1103618,0.0438 -0.052902,0.0158 -0.075303,0.0184 -0.1299896,0.0285 -0.1381635,0.0151 -0.2768576,0.0182 -0.4155738,0.007 -0.1392103,-0.009 -0.2782623,-0.0227 -0.4178406,-0.0227 -0.1313826,0.002 -0.2645886,0.0105 -0.3898501,0.0535 0.030056,-0.0199 0.061369,-0.0381 0.090168,-0.0599 0.014293,-0.0108 -0.031746,0.0167 -0.046486,0.0269 -0.012949,0.009 -0.024897,0.0193 -0.036286,0.0302 -0.024535,0.0234 -0.036789,0.0436 -0.03348,0.0776 0.00217,0.008 0.00353,0.0155 0.00652,0.0229 0.01991,0.049 0.068135,0.0794 0.1101564,0.10721 0.096767,0.0599 0.1975207,0.11265 0.2957766,0.17008 0.1207575,0.0709 0.2417202,0.14294 0.3437655,0.24007 0.033025,0.0341 0.049503,0.0488 0.077824,0.0865 0.044435,0.0591 0.076909,0.12641 0.100892,0.19613 0.00565,0.0192 0.012184,0.0383 0.016941,0.0578 0.026913,0.11023 0.0311,0.2256 0.013324,0.3375 -0.02622,0.12858 -0.059656,0.25417 -0.1505556,0.35358 -0.061124,0.0388 -0.1215946,0.0786 -0.1833708,0.11636 -0.013129,0.008 -0.026847,0.0153 -0.041193,0.0208 -0.064645,0.0251 -0.13545,0.0194 -0.202638,0.0118 -0.020439,-0.004 -0.041059,-0.007 -0.06132,-0.0114 -0.1208082,-0.0277 -0.2342417,-0.0803 -0.338446,-0.1467 -0.062069,-0.0414 -0.074675,-0.0486 -0.1346766,-0.0939 -0.089518,-0.0675 -0.1736323,-0.14159 -0.2585344,-0.21469 -0.1061326,-0.0896 -0.2090605,-0.18532 -0.3317685,-0.25224 -0.044341,-0.0205 -0.072137,-0.0355 -0.1192159,-0.0486 -0.072982,-0.0202 -0.1488247,-0.0205 -0.2214671,7.2e-4 0.032168,-0.021 0.065671,-0.04 0.096505,-0.0629 0.015036,-0.0112 -0.03327,0.0173 -0.048937,0.0276 -0.064491,0.0422 -0.1168045,0.10023 -0.1510808,0.16923 -0.00605,0.0166 -0.013563,0.0327 -0.018156,0.0497 -0.023847,0.0884 -0.010184,0.17986 0.021553,0.26412 0.00805,0.0186 0.01537,0.0376 0.024151,0.0559 0.049056,0.10227 0.1170529,0.19383 0.1904526,0.27976 0.087148,0.10417 0.1810597,0.20544 0.2376426,0.33063 0.00746,0.0196 0.016211,0.0387 0.022394,0.0588 0.017854,0.0578 0.029205,0.12802 0.0066,0.18632 -0.00397,0.0102 -0.010292,0.0194 -0.015438,0.0291 -0.06332,0.0745 -0.015341,0.0232 -0.192932,0.12822 -0.049349,0.0292 -0.104905,0.0455 -0.1611914,0.0546 -0.046807,0.005 -0.064606,0.008 -0.112654,0.008 -0.092822,0 -0.1845323,-0.0175 -0.2737554,-0.042 -0.1339119,-0.0428 -0.2599965,-0.095 -0.3666273,-0.18956 -0.039758,-0.0403 -0.050461,-0.0469 -0.081036,-0.0944 -0.043677,-0.0678 -0.065242,-0.14674 -0.088181,-0.22315 -0.037987,-0.1279 -0.067965,-0.25914 -0.1221901,-0.38146 -0.037077,-0.0697 -0.078866,-0.14937 -0.1573205,-0.17998 -0.012216,-0.005 -0.025432,-0.006 -0.038148,-0.01 -0.039758,-0.001 -0.04745,-0.004 -0.087716,0.003 -0.016444,0.003 -0.032801,0.007 -0.048711,0.0117 -0.024228,0.008 -0.1880169,0.0816 0.045563,-0.0376 0.018031,-0.009 -0.033401,0.0229 -0.050101,0.0343 -0.017039,0.0138 -0.034576,0.0271 -0.051119,0.0415 -0.09884,0.0861 -0.1853242,0.18599 -0.2648788,0.28984 -0.1016792,0.13715 -0.1910525,0.28234 -0.2765468,0.43006 -0.081596,0.13375 -0.1601959,0.27441 -0.2873369,0.37081 -0.048279,0.0288 -0.181732,0.11664 -0.2637454,0.15008 -0.088354,0.036 -0.1835513,0.045 -0.278088,0.0378 -0.024016,-0.003 -0.04823,-0.005 -0.072048,-0.01 -0.1108681,-0.021 -0.211583,-0.0712 -0.2954099,-0.14664 -0.037516,-0.0374 -0.055408,-0.0519 -0.08603,-0.0953 -0.049093,-0.0695 -0.073098,-0.15051 -0.085596,-0.23382 -0.015952,-0.15282 -0.019534,-0.30698 -0.017063,-0.46054 0.00841,-0.18137 0.0234,-0.36213 0.046411,-0.54228 0.020889,-0.18088 0.053068,-0.36179 0.045532,-0.54455 -0.0022,-0.0281 -0.00324,-0.0563 -0.00656,-0.0842 -0.010681,-0.0901 -0.034505,-0.18376 -0.083649,-0.26115 -0.00993,-0.0156 -0.022439,-0.0295 -0.033658,-0.0442 -0.034072,-0.0301 -0.040825,-0.0403 -0.081757,-0.0603 -0.071786,-0.0351 -0.1531771,-0.0425 -0.2317197,-0.0455 -0.024088,4.5e-4 -0.048226,-2.6e-4 -0.072266,0.001 -0.076207,0.005 -0.152337,0.0198 -0.2238891,0.0468 -0.022389,0.008 -0.081471,0.0471 -0.065614,0.0292 0.021474,-0.0243 0.05577,-0.0331 0.083655,-0.0496 -0.045459,0.0313 -0.062711,0.0403 -0.1023041,0.0785 -0.057591,0.0555 -0.09923,0.12379 -0.1321689,0.19615 -0.00863,0.0194 -0.017767,0.0386 -0.025884,0.0582 -0.043777,0.10576 -0.072453,0.21703 -0.1113499,0.32454 -0.050556,0.1396 -0.1045419,0.28044 -0.1949714,0.3998 -0.036477,0.044 -0.047532,0.0605 -0.089365,0.0987 -0.074032,0.0677 -0.1471141,0.10047 -0.2434249,0.15334 -0.016997,0.009 -0.035164,0.0166 -0.053565,0.0227 -0.01826,0.006 -0.037377,0.009 -0.056065,0.0137 -0.018836,0.002 -0.037583,0.005 -0.05651,0.006 -0.1076551,0.002 -0.2061039,-0.0434 -0.2931432,-0.1029 -0.044458,-0.0353 -0.063543,-0.0467 -0.1000727,-0.0902 -0.055036,-0.0654 -0.08531,-0.14565 -0.1013697,-0.22868 -0.0024,-0.0233 -0.0064,-0.0466 -0.00719,-0.07 -0.00553,-0.16397 0.05534,-0.32155 0.1125658,-0.47196 0.049933,-0.11481 0.05704,-0.13514 0.1143946,-0.24992 0.1007624,-0.20165 0.2134363,-0.39705 0.3218375,-0.59459 0.1115786,-0.20912 0.229037,-0.42545 0.2388176,-0.66771 -0.00164,-0.0231 -0.00111,-0.0464 -0.00493,-0.0692 -0.010303,-0.0617 -0.042584,-0.12186 -0.1002872,-0.15062 -0.011851,-0.006 -0.024984,-0.009 -0.037475,-0.0132 -0.013187,-0.002 -0.026266,-0.005 -0.039561,-0.006 -0.045867,-0.003 -0.091969,0.006 -0.1349322,0.0217 -0.016889,0.006 -0.0637,0.0325 -0.04953,0.0214 0.028554,-0.0223 0.062256,-0.0371 0.093384,-0.0557 -0.045533,0.0282 -0.063738,0.0381 -0.1071166,0.0707 -0.072059,0.0542 -0.1350527,0.11888 -0.1951481,0.18577 -0.093338,0.10638 -0.1833372,0.2157 -0.2805199,0.31865 -0.029699,0.0312 -0.066461,0.071 -0.098462,0.10011 -0.081303,0.0741 -0.1302849,0.0939 -0.2472894,0.16365 -0.01789,0.0107 -0.036234,0.0207 -0.055302,0.0291 -0.019558,0.009 -0.040198,0.0145 -0.060296,0.0217 -0.059336,0.0138 -0.079942,0.0207 -0.1419642,0.0261 -0.1146491,0.01 -0.2300333,-0.003 -0.3404909,-0.0344 -0.0280175,-0.01 -0.0565524,-0.0185 -0.0840524,-0.0298 -0.13110096,-0.0538 -0.24802425,-0.13799 -0.33189518,-0.25287 -0.0122226,-0.0216 -0.0259652,-0.0424 -0.0366677,-0.0648 -0.0564089,-0.11801 -0.069476,-0.24993 -0.0452773,-0.37765 0.007591,-0.0266 0.0134837,-0.0538 0.0227729,-0.0799 0.0505212,-0.14181 0.13962964,-0.26794 0.24940207,-0.36977 0.0215821,-0.0172 0.0415218,-0.0368 0.064746,-0.0517 0.066378,-0.0427 0.18731894,-0.11902 0.27757081,-0.15766 0.075026,-0.0321 0.1541518,-0.0538 0.2339314,-0.0702 0.028558,-0.005 0.056981,-0.0113 0.085674,-0.0158 0.1540623,-0.0241 0.3106759,-0.0256 0.4657627,-0.0391 0.078522,-0.007 0.1113393,-0.008 0.188679,-0.0204 0.1209112,-0.019 0.2393583,-0.0514 0.3530997,-0.0966 0.027093,-0.0117 0.054552,-0.0225 0.081278,-0.035 0.026645,-0.0125 0.049347,-0.0398 0.078762,-0.0398 0.025469,-4e-5 -0.08596,0.0546 -0.065239,0.0398 0.023946,-0.0171 0.050337,-0.0305 0.074934,-0.0467 0.072335,-0.0475 0.070555,-0.0487 0.1368883,-0.10224 0.019579,-0.0179 0.039802,-0.0351 0.05874,-0.0537 0.077805,-0.0763 0.1432086,-0.16507 0.1935652,-0.26167 0.00642,-0.0147 0.013983,-0.029 0.019254,-0.0442 0.023966,-0.0691 0.014877,-0.13047 -0.021669,-0.19276 -0.00791,-0.0102 -0.014962,-0.0212 -0.02373,-0.0306 -0.054162,-0.0586 -0.1305494,-0.0924 -0.204157,-0.11863 -0.018391,-0.005 -0.03657,-0.0115 -0.055177,-0.0161 -0.114572,-0.0281 -0.233406,-0.0337 -0.3506862,-0.0395 -0.1832391,-0.006 -0.3682254,-0.007 -0.5478882,-0.0482 -0.02983,-0.008 -0.060081,-0.0149 -0.089489,-0.0244 -0.1449607,-0.0471 -0.2522548,-0.11825 -0.3359614,-0.24722 -0.035077,-0.0648 -0.049826,-0.0846 -0.072049,-0.15595 -0.037089,-0.11904 -0.042258,-0.24582 -0.020564,-0.36807 0.020255,-0.0769 0.025055,-0.1077 0.057595,-0.18066 0.051327,-0.1151 0.1259071,-0.20848 0.227575,-0.2829 0.066113,-0.0392 0.1968997,-0.12673 0.2906267,-0.16267 0.096951,-0.0372 0.1990606,-0.0421 0.3004406,-0.0223 0.026711,0.006 0.053703,0.0109 0.080132,0.018 0.1405616,0.038 0.2694956,0.10599 0.3853469,0.19359 0.1427908,0.10685 0.2772139,0.22403 0.3960875,0.35741 0.1307029,0.14104 0.2612313,0.2832 0.4058986,0.41017 0.060168,0.0482 0.089599,0.0752 0.1560417,0.11458 0.136742,0.081 0.2913571,0.12204 0.4482399,0.14036 0.1487771,0.007 0.1866241,0.0146 0.3399404,-10e-4 0.1376373,-0.0143 0.2838672,-0.0435 0.4157231,-0.0847 0.1819365,-0.0569 0.2545789,-0.0992 0.4267917,-0.18127 0.03099,-0.0153 0.062988,-0.0287 0.09297,-0.0459 0.1513247,-0.0868 0.2560764,-0.15432 0.3953245,-0.25563 0.079984,-0.0582 0.1604534,-0.12189 0.2333884,-0.18937 0.017494,-0.0162 0.033278,-0.0341 0.049917,-0.0512 0,0 0.1584843,-0.0661 0.1584843,-0.0661 z"
       inkscape:connector-curvature="0" />
    <path
       style="fill:#000000;stroke-width:0.26458332"
       id="path170"
       d="m 7.5398626,290.81963 c 0.1253154,0.0606 0.2485517,0.12536 0.3708218,0.19182 0.1238832,0.0707 0.061426,0.0328 0.1870554,0.1142 0,0 -0.1378823,0.0886 -0.1378823,0.0886 v 0 c -0.1262407,-0.0798 -0.063525,-0.0425 -0.187869,-0.11219 -0.123221,-0.0657 -0.2472283,-0.13074 -0.3757528,-0.18548 0,0 0.1436269,-0.097 0.1436269,-0.097 z"
       inkscape:connector-curvature="0" />
    <path
       style="fill:#00e4c6;stroke-width:0.04419417;fill-opacity:0.45588234"
       d="m 18.078839,49.330082 c -0.686488,-0.126124 -1.386699,-0.653635 -1.590816,-1.198457 -0.28206,-0.752866 -0.280249,-2.174902 0.0058,-4.586208 0.230456,-1.942399 0.136607,-2.757177 -0.383948,-3.333368 -0.255476,-0.282782 -0.521497,-0.370193 -1.193025,-0.392016 -0.438271,-0.01424 -0.645006,-0.0014 -0.861786,0.05359 -0.596943,0.151396 -1.381139,0.607781 -1.76384,1.026516 -0.282978,0.309624 -0.458364,0.678087 -0.796338,1.673002 -0.382876,1.1271 -0.672161,1.70328 -1.05533,2.101947 L 10.135953,44.99097 9.7420868,44.9753 C 9.4050829,44.961892 9.3060128,44.938819 9.0554234,44.815376 8.3262421,44.456174 7.9529693,43.802412 8.0173602,42.99728 8.0841566,42.162077 8.5474096,41.048708 9.6649088,39.037611 10.701815,37.171554 10.960871,36.509356 10.962809,35.719924 10.963437,35.465299 10.941074,35.363321 10.842043,35.169149 10.565235,34.62641 9.9634736,34.590121 9.1442511,35.066764 8.3611723,35.522379 7.9808788,35.861055 7.0601413,36.922798 6.4008212,37.68309 6.0182976,38.021928 5.7379425,38.093999 5.4057292,38.179401 4.5600902,38.166087 4.2018681,38.069815 3.3342563,37.836644 2.639524,37.273566 2.3696838,36.584835 2.2653072,36.318427 2.2307064,35.732257 2.3015606,35.430764 c 0.07868,-0.334793 0.2743381,-0.752327 0.5021385,-1.07156 0.1984167,-0.278056 0.5657365,-0.646991 0.6441591,-0.646991 0.023903,0 0.079038,-0.03707 0.1225214,-0.08239 0.092606,-0.0965 0.5165348,-0.239686 0.9850419,-0.332706 0.3339858,-0.06631 1.0000838,-0.13255 1.8561553,-0.184583 1.4812486,-0.09003 2.5904822,-0.491367 3.9959042,-1.445771 0.607453,-0.412514 1.272978,-1.228161 1.422895,-1.743859 0.121979,-0.419593 -0.05021,-0.844269 -0.44956,-1.10879 C 10.885184,28.485825 10.371261,28.380146 8.9748389,28.319375 7.854437,28.270616 7.4498911,28.225105 6.9804208,28.095009 6.5449295,27.974328 6.2054617,27.786794 5.9344014,27.517151 5.0036264,26.591242 5.0561302,24.886994 6.0466005,23.875225 6.3206099,23.595323 6.4337617,23.53165 6.7863111,23.458972 c 0.4765286,-0.09824 1.0770324,0.0176 1.7338882,0.334478 0.6936536,0.334625 1.196517,0.753698 2.5980567,2.165152 1.298099,1.307282 1.579751,1.54505 2.120831,1.790388 0.687371,0.311669 1.652254,0.446213 2.578589,0.35956 1.405615,-0.131487 2.395574,-0.472835 4.042307,-1.393833 0.333112,-0.186305 0.617597,-0.338736 0.632188,-0.338736 0.01459,0 -0.12817,0.16407 -0.317248,0.364602 -0.434086,0.460381 -0.839351,1.001495 -0.982885,1.312359 -0.07416,0.160622 -0.117953,0.347182 -0.131675,0.560996 -0.01823,0.284087 -0.0079,0.341947 0.0913,0.511207 0.10478,0.178795 0.595788,0.689042 0.893821,0.928847 0.258129,0.207695 1.519988,1.093767 2.850525,2.001624 0.741357,0.505847 1.775501,1.222004 2.298097,1.591461 0.873886,0.617805 1.264753,0.881164 1.957034,1.318611 l 0.255558,0.161486 -0.112036,0.120826 c -0.186322,0.200941 -0.222321,0.378233 -0.222087,1.093767 1.77e-4,0.559862 0.01535,0.711003 0.0976,0.972272 0.126482,0.401798 0.315579,0.694418 0.548349,0.848547 0.362127,0.239784 1.130515,0.183836 1.992483,-0.145076 0.384764,-0.146819 0.883958,-0.401733 2.151695,-1.098762 2.587127,-1.422458 4.152391,-1.951835 5.324004,-1.800595 1.063952,0.137342 1.616371,0.628763 1.755064,1.561271 0.08393,0.564271 -0.104462,1.141654 -0.498461,1.527727 -0.362906,0.355604 -0.573182,0.373553 -3.747456,0.319877 -1.274461,-0.02155 -1.46301,0.01228 -2.147246,0.385261 -0.681047,0.371243 -0.82278,0.569612 -0.656838,0.919308 0.08686,0.183041 0.275133,0.316627 1.124705,0.79801 0.376756,0.213477 0.854053,0.498339 1.060661,0.633028 0.985303,0.642324 1.426675,1.401449 1.430043,2.459559 0.0021,0.648812 -0.210726,1.345508 -0.508227,1.663984 -0.126516,0.135436 -0.131915,0.136749 -0.438158,0.106573 -0.44982,-0.04432 -0.763235,-0.135724 -1.212862,-0.3537 -0.507831,-0.246193 -0.945987,-0.561539 -1.819064,-1.309201 -0.848234,-0.726387 -1.105914,-0.920119 -1.451305,-1.091135 -0.626474,-0.310189 -0.999123,-0.302611 -1.653714,0.03363 -0.559021,0.28715 -0.842197,0.53772 -1.023198,0.905384 -0.129661,0.263379 -0.137353,0.305973 -0.121194,0.67108 0.02561,0.57869 0.249584,1.068108 0.799676,1.747425 0.143324,0.176993 0.388958,0.480904 0.545854,0.675359 0.37062,0.459342 0.558132,0.837961 0.582612,1.176395 0.0156,0.215668 -0.04596,0.52508 -0.104472,0.52508 -0.0074,0 -0.163733,0.02089 -0.347304,0.04642 -0.831887,0.115705 -2.122075,-0.296186 -2.697919,-0.861308 -0.293512,-0.288046 -0.379163,-0.473267 -0.670831,-1.45068 -0.271487,-0.909785 -0.463853,-1.354988 -0.696957,-1.613006 -0.217493,-0.240739 -0.359547,-0.291505 -0.745436,-0.266398 -0.541674,0.03524 -1.155462,0.398659 -1.844828,1.092301 -0.51437,0.517561 -0.940696,1.097949 -1.593086,2.168785 -0.707229,1.160847 -0.991525,1.511911 -1.345164,1.661075 -0.174314,0.07353 -0.847077,0.123122 -1.082757,0.07982 z"
       id="path4647"
       inkscape:connector-curvature="0"
       transform="matrix(0.26458333,0,0,0.26458333,0,283.77082)" />
    <path
       style="fill:#00e4c6;fill-opacity:0.45588235;stroke-width:0.04419417"
       d="M 27.976744,34.712566 C 27.634509,34.5532 26.8818,34.068388 25.81286,33.31883 c -0.534772,-0.374991 -1.539103,-1.069402 -2.231847,-1.543137 -2.760075,-1.887485 -3.617484,-2.565561 -3.849112,-3.044041 -0.248009,-0.512317 0.0981,-1.186317 1.20851,-2.353405 0.236992,-0.249088 0.430894,-0.440365 0.430894,-0.425061 0,0.0153 -0.227291,0.340184 -0.505091,0.721955 -0.2778,0.38177 -0.499025,0.700193 -0.491612,0.707606 0.0074,0.0074 0.14728,-0.04147 0.310814,-0.108628 l 0.297336,-0.122107 0.642491,-0.951491 c 0.525074,-0.777602 0.720093,-1.026932 1.067112,-1.364286 0.386049,-0.375298 0.417417,-0.440012 0.162782,-0.33583 -0.06026,0.02466 -0.02667,-0.04796 0.115227,-0.249102 0.110158,-0.156148 0.554587,-0.791033 0.987619,-1.410856 1.697021,-2.429044 3.208139,-4.547442 4.965195,-6.960583 1.810045,-2.485915 2.598895,-3.627938 2.875232,-4.162492 0.121058,-0.234178 0.141521,-0.320406 0.142621,-0.600998 0.0021,-0.532606 -0.206648,-0.851018 -1.254808,-1.9141132 L 30.0284,8.5350644 30.925813,8.5040379 c 1.049057,-0.036269 1.574448,-0.083188 2.333724,-0.2084091 2.634059,-0.4344124 6.189861,-1.963966 10.223523,-4.3977218 0.579278,-0.3495136 1.069362,-0.6354793 1.089078,-0.6354793 0.0722,0 0.0761,0.1198621 0.01799,0.5524272 -0.321906,2.3962464 -0.348531,2.7625281 -0.346943,4.7729708 0.0015,1.8587293 0.04087,2.4308723 0.245987,3.5715603 0.183068,1.018089 0.70585,2.873357 1.21059,4.296189 0.110215,0.310689 0.193255,0.572025 0.184533,0.580747 -0.0087,0.0087 -0.21281,-0.07617 -0.453531,-0.18865 -0.24072,-0.112479 -0.735984,-0.314616 -1.100586,-0.449192 -0.543948,-0.200774 -0.726361,-0.248185 -1.016466,-0.264187 l -0.353554,-0.0195 -0.279628,0.189055 c -0.207447,0.140254 -0.307705,0.244461 -0.388394,0.403694 -0.439355,0.867025 -1.541905,2.534495 -2.652507,4.011586 -0.78609,1.045494 -4.192875,5.43697 -6.582645,8.485282 -0.48592,0.619823 -1.224843,1.564473 -1.642052,2.099223 -0.417208,0.534749 -1.093244,1.362649 -1.502303,1.839777 -0.409058,0.477128 -0.801803,0.954425 -0.872766,1.060661 -0.384887,0.576191 -0.423361,0.613032 -0.639718,0.612567 -0.11714,-2.65e-4 -0.293593,-0.04362 -0.423401,-0.10407 z m 1.365421,-2.792554 c 0.895968,-0.532362 1.28521,-0.897338 2.966857,-2.781896 0.563932,-0.631976 1.248838,-1.396303 1.522014,-1.698504 0.744754,-0.823882 0.987819,-1.136674 1.258375,-1.619358 0.263881,-0.470775 0.328512,-0.772775 0.199099,-0.93033 -0.08709,-0.106024 -0.617283,-0.343045 -1.675419,-0.748986 -1.123408,-0.430982 -2.122933,-0.926759 -3.579728,-1.775592 -1.172727,-0.683314 -1.758016,-1.050603 -2.050058,-1.286483 -0.09449,-0.07632 -0.205907,-0.138766 -0.247587,-0.138766 -0.04168,0 -0.199355,0.09446 -0.350388,0.209923 -0.201377,0.153942 -0.253206,0.213476 -0.194355,0.223249 0.04414,0.0073 0.121861,0.03387 0.172716,0.05898 0.08936,0.04412 0.08147,0.06664 -0.235536,0.671682 -1.222128,2.332592 -2.665006,4.55801 -4.068327,6.274769 -0.355592,0.435015 -0.411757,0.565666 -0.297463,0.69196 0.04164,0.04601 0.58593,0.287624 1.20953,0.536912 2.027988,0.810703 3.429671,1.581905 4.177394,2.298389 0.286176,0.27422 0.387047,0.344715 0.495236,0.346103 0.09218,0.0012 0.316472,-0.105571 0.69764,-0.332051 z m 6.717093,-8.219447 c 0.09359,-0.03154 0.380073,-0.183277 0.636624,-0.337197 0.348906,-0.209328 0.585163,-0.396795 0.937498,-0.743892 0.614341,-0.605209 1.728485,-1.939062 2.344077,-2.80633 0.155279,-0.218761 0.409179,-0.536071 0.564224,-0.705132 0.381237,-0.415702 0.69121,-0.899385 0.850237,-1.326712 0.07259,-0.195053 0.163846,-0.414304 0.202796,-0.487224 0.03895,-0.07292 0.235436,-0.440837 0.436635,-0.817592 0.401012,-0.750912 0.961533,-1.924227 1.176504,-2.462728 0.145047,-0.363339 0.203025,-0.739694 0.154115,-1.000408 -0.04437,-0.236535 -0.411592,-0.613565 -0.768943,-0.789488 -0.233397,-0.114901 -0.348714,-0.144697 -0.560015,-0.144697 -0.240978,0 -0.304845,0.02231 -0.676629,0.236336 -0.225795,0.129985 -0.469415,0.28588 -0.541379,0.346434 -0.161901,0.136231 -0.162884,0.117054 -0.0077,-0.149931 0.363545,-0.625394 0.582945,-1.346963 0.615939,-2.025716 0.02299,-0.472994 0.02033,-0.491973 -0.08657,-0.6162453 -0.0964,-0.1120746 -0.146673,-0.1305381 -0.399204,-0.1466177 -0.641082,-0.040821 -1.560033,0.2588727 -2.639811,0.860911 -1.553239,0.86602 -2.513506,1.592357 -3.63348,2.74833 -1.721924,1.777271 -2.853706,3.893258 -3.174207,5.934519 -0.07672,0.488644 -0.04155,1.163519 0.07224,1.385935 0.237721,0.464671 0.823296,0.420054 1.771418,-0.134972 0.933018,-0.546184 1.564371,-1.132769 2.756629,-2.561158 0.426061,-0.510442 1.281432,-1.534642 1.900825,-2.275999 0.619393,-0.741358 1.214148,-1.461248 1.321678,-1.599755 0.142817,-0.183963 0.253616,-0.275982 0.411123,-0.341439 0.259749,-0.107947 0.261904,-0.03647 0.0041,0.137499 -0.09677,0.06531 -0.383063,0.383512 -0.636201,0.707107 -0.253138,0.323595 -0.969839,1.224751 -1.592668,2.002568 -2.051516,2.562025 -2.926609,3.848899 -3.3659,4.949748 -0.129377,0.324212 -0.141228,0.39573 -0.142809,0.861786 -0.0015,0.442171 0.011,0.53203 0.09619,0.69131 0.251147,0.469592 0.881676,0.748297 1.559369,0.689266 0.133688,-0.01164 0.319644,-0.04698 0.413236,-0.07852 z"
       id="path4649"
       inkscape:connector-curvature="0"
       transform="matrix(0.26458333,0,0,0.26458333,0,283.77082)" />
    <path
       style="fill:#00e5f7;fill-opacity:0.45588235;stroke-width:0.04419417"
       d="m 34.559772,18.227514 c -0.503534,-0.225832 -0.300223,-1.386474 0.433599,-2.47528 0.803431,-1.19209 1.752922,-1.925887 2.515006,-1.943677 0.509488,-0.01189 0.56643,0.293527 0.196501,1.053962 -0.366172,0.752709 -0.949245,1.409498 -1.96801,2.216819 -0.241059,0.191027 -0.4218,0.353277 -0.401646,0.360555 0.02015,0.0073 0.160099,-0.03693 0.31099,-0.09825 0.253082,-0.102836 0.701739,-0.42257 1.04876,-0.747394 0.07863,-0.0736 0.152864,-0.12393 0.164957,-0.111837 0.03817,0.03817 -0.893784,1.112413 -1.136471,1.309994 -0.127663,0.103936 -0.227857,0.206203 -0.222653,0.22726 0.01391,0.0563 -0.37623,0.212562 -0.606083,0.242751 -0.127055,0.01669 -0.248015,0.0041 -0.33495,-0.03491 z"
       id="path4651"
       inkscape:connector-curvature="0"
       transform="matrix(0.26458333,0,0,0.26458333,0,283.77082)" />
    <path
       style="fill:#ffffff;fill-opacity:0.45588235;stroke-width:0.04419417"
       d="m 37.899926,20.319967 c -0.222221,-0.03795 -0.34277,-0.114707 -0.422595,-0.269071 -0.09625,-0.186126 -0.05319,-0.396189 0.177884,-0.867732 0.518107,-1.057295 1.56995,-2.335577 2.418144,-2.93872 0.266542,-0.189535 0.318902,-0.2099 0.539657,-0.2099 0.376524,0 0.469636,0.143909 0.468237,0.72368 -9.07e-4,0.375714 -0.108515,0.794956 -0.28476,1.109425 -0.544135,0.970886 -1.145778,1.739528 -1.659131,2.119656 -0.3235,0.239546 -0.890361,0.391936 -1.237436,0.332662 z"
       id="path4653"
       inkscape:connector-curvature="0"
       transform="matrix(0.26458333,0,0,0.26458333,0,283.77082)" />
    <path
       style="fill:#ffffff;fill-opacity:0.45588235;stroke-width:0.04419417"
       d="m 28.92671,31.697403 c -0.697985,-0.72982 -2.157567,-1.555261 -4.323521,-2.445094 -0.592376,-0.243364 -1.125754,-0.474393 -1.185283,-0.513399 -0.105533,-0.06915 -0.106336,-0.07388 -0.03216,-0.189409 0.04184,-0.06517 0.209376,-0.287534 0.372305,-0.494142 1.154918,-1.464534 2.47974,-3.498482 3.687614,-5.66145 l 0.360419,-0.645411 0.174516,0.120501 c 0.311062,0.214785 2.674719,1.550755 3.356496,1.897136 0.364602,0.185238 1.06066,0.4933 1.546796,0.684583 1.062029,0.417881 1.652192,0.675427 1.756718,0.766627 0.125163,0.109207 0.0927,0.326437 -0.104888,0.701888 -0.331029,0.629004 -0.456962,0.783085 -2.563464,3.136439 -1.77989,1.988467 -2.281773,2.476372 -2.868766,2.788864 -0.01314,0.007 -0.09269,-0.05921 -0.176777,-0.147133 z m 1.428443,-3.711742 c 0.139004,-0.08695 0.252734,-0.172938 0.252734,-0.191092 0,-0.05271 -0.716434,-0.466759 -1.441544,-0.833112 l -0.668146,-0.337572 -0.270561,0.174358 c -0.148809,0.0959 -0.265778,0.187514 -0.259932,0.203592 0.0058,0.01608 0.348715,0.198678 0.761931,0.405775 0.413215,0.207098 0.880568,0.456516 1.038563,0.554261 0.157994,0.09774 0.297828,0.178654 0.310742,0.179798 0.01291,0.0011 0.13721,-0.06906 0.276213,-0.156008 z"
       id="path4655"
       inkscape:connector-curvature="0"
       transform="matrix(0.26458333,0,0,0.26458333,0,283.77082)" />
    <path
       style="fill:#ffffff;fill-opacity:0.45588235;stroke-width:0.04419417"
       d="m 32.245165,20.418659 c -0.341469,-0.341468 -0.246887,-1.547501 0.23118,-2.947804 0.365941,-1.071876 0.870145,-1.983397 1.747877,-3.159884 0.431013,-0.577718 1.719829,-1.896975 2.305684,-2.360143 0.513836,-0.40623 1.45913,-1.03948 1.834058,-1.228631 1.032796,-0.521042 2.189877,-0.7443768 2.388368,-0.460991 0.0942,0.134491 0.08146,0.67371 -0.02681,1.134884 -0.05028,0.214173 -0.118124,0.398852 -0.151178,0.411536 -0.03298,0.01266 -0.144574,0.148535 -0.247985,0.301955 -0.48663,0.721954 -2.026411,2.74873 -2.061561,2.713581 -0.0071,-0.0071 0.04934,-0.159363 0.125488,-0.338303 0.07615,-0.178939 0.148528,-0.436513 0.160848,-0.572387 0.01967,-0.216907 0.0091,-0.262526 -0.08677,-0.37396 -0.404048,-0.469734 -2.045339,0.219119 -3.152797,1.323235 -0.478713,0.477268 -0.775837,0.854798 -1.094937,1.391242 -0.756822,1.272306 -0.718676,2.433205 0.07995,2.433205 0.200793,0 0.640805,-0.146808 0.865898,-0.288903 0.09483,-0.05986 0.184136,-0.108844 0.198456,-0.108844 0.05821,0 -0.551321,0.691163 -1.012406,1.147989 -0.842513,0.834732 -1.280321,1.105914 -1.78543,1.105914 -0.153807,0 -0.220006,-0.02575 -0.317942,-0.123691 z"
       id="path4657"
       inkscape:connector-curvature="0"
       transform="matrix(0.26458333,0,0,0.26458333,0,283.77082)" />
    <path
       style="fill:#ffffff;fill-opacity:0.45588235;stroke-width:0.04419417"
       d="m 35.453292,23.306411 c -0.373051,-0.106903 -0.608163,-0.284225 -0.753403,-0.56822 -0.112596,-0.220164 -0.129277,-0.299427 -0.125245,-0.595149 0.0029,-0.215009 0.04035,-0.45555 0.101203,-0.650518 0.242884,-0.778226 1.056765,-2.110332 2.187118,-3.579728 0.99932,-1.299059 3.083832,-3.849096 3.180156,-3.890365 0.05837,-0.02501 0.239963,-0.223884 0.403531,-0.441942 0.441964,-0.5892 0.675996,-0.853887 0.877694,-0.992658 0.156342,-0.107567 0.204834,-0.119858 0.355978,-0.09023 0.397242,0.07786 0.795854,0.340272 0.971077,0.639267 0.235463,0.401787 0.08939,0.928458 -0.724025,2.610417 l -0.213727,0.441942 -0.0586,-0.190828 c -0.03223,-0.104956 -0.107449,-0.229252 -0.167152,-0.276214 -0.141781,-0.111525 -0.507839,-0.113496 -0.795266,-0.0043 -0.315266,0.119792 -1.049953,0.56071 -1.378491,0.827294 -1.025011,0.831718 -2.293349,2.572135 -2.478993,3.401679 -0.04574,0.204389 -0.04198,0.252643 0.03131,0.402232 0.255624,0.521687 0.956421,0.536198 1.928397,0.03993 0.261298,-0.133412 0.475087,-0.230734 0.475087,-0.21627 0,0.09525 -1.628015,2.034628 -2.126021,2.532635 -0.582366,0.582365 -0.671834,0.63454 -1.114566,0.649978 -0.214971,0.0075 -0.448223,-0.01233 -0.576066,-0.04897 z"
       id="path4659"
       inkscape:connector-curvature="0"
       transform="matrix(0.26458333,0,0,0.26458333,0,283.77082)" />
    <path
       style="fill:#ffffff;fill-opacity:0.45588235;stroke-width:0.04419417"
       d="m 34.484415,18.155471 c -0.391177,-0.3077 -0.146921,-1.394005 0.545427,-2.425735 0.731723,-1.090407 1.656418,-1.827162 2.375039,-1.892325 0.460295,-0.04174 0.597575,0.117687 0.472329,0.54852 -0.239072,0.822379 -0.983126,1.748505 -2.194394,2.73137 -0.209687,0.170148 -0.366146,0.315076 -0.347686,0.322063 0.143156,0.05419 0.866721,-0.376204 1.271454,-0.756285 0.257892,-0.242184 0.191203,-0.09936 -0.131457,0.281525 -0.585384,0.691024 -1.018777,1.099471 -1.266497,1.193597 -0.297811,0.11316 -0.578229,0.112103 -0.724215,-0.0027 z"
       id="path4661"
       inkscape:connector-curvature="0"
       transform="matrix(0.26458333,0,0,0.26458333,0,283.77082)" />
    <path
       style="fill:#ffffff;fill-opacity:0.45588235;stroke-width:0.04419417"
       d="m 34.651208,18.243532 c -0.01527,-0.0247 -0.04627,-0.03347 -0.0689,-0.01949 -0.02263,0.01398 -0.04114,0.0044 -0.04114,-0.02138 0,-0.02574 -0.02163,-0.04183 -0.04807,-0.03575 -0.0891,0.02048 -0.217091,-0.287624 -0.217091,-0.522571 0,-0.778884 0.619478,-1.955067 1.502602,-2.852943 0.729461,-0.741646 1.274039,-1.011044 1.951507,-0.965391 0.154695,0.01042 0.228307,0.15882 0.199489,0.402149 -0.02894,0.244386 -0.35482,0.963744 -0.512163,1.130578 -0.05062,0.05367 -0.09204,0.117608 -0.09204,0.142076 0,0.02447 -0.04033,0.06607 -0.08963,0.09245 -0.04929,0.02638 -0.07991,0.06369 -0.06803,0.08291 0.01188,0.01922 -0.03784,0.07889 -0.110477,0.132597 -0.07264,0.05371 -0.121867,0.114167 -0.109389,0.134357 0.02982,0.04825 -0.53989,0.58889 -1.138241,1.080152 -0.262458,0.215485 -0.469947,0.39904 -0.461086,0.407901 0.0089,0.0089 0.144514,-0.03483 0.301452,-0.0971 0.182642,-0.07246 0.428028,-0.229806 0.681784,-0.43716 0.218043,-0.178173 0.411752,-0.314488 0.430464,-0.302923 0.04656,0.02878 -0.554047,0.724541 -0.928842,1.075999 -0.399748,0.374859 -0.531358,0.480716 -0.560915,0.45116 -0.01332,-0.01332 -0.02422,-0.0027 -0.02422,0.02367 0,0.02634 -0.100416,0.06943 -0.223146,0.09575 -0.276764,0.05936 -0.338754,0.05984 -0.373921,0.0029 z"
       id="path4663"
       inkscape:connector-curvature="0"
       transform="matrix(0.26458333,0,0,0.26458333,0,283.77082)" />
    <path
       style="fill:#ffffff;fill-opacity:0.45588235;stroke-width:0.04419417"
       d="m 34.651208,18.243532 c -0.01527,-0.0247 -0.04627,-0.03347 -0.0689,-0.01949 -0.02263,0.01398 -0.04114,0.0044 -0.04114,-0.02138 0,-0.02574 -0.0242,-0.04183 -0.05377,-0.03575 -0.02958,0.0061 -0.09065,-0.05856 -0.135711,-0.143631 -0.184977,-0.349198 0.0044,-1.219307 0.41776,-1.919906 0.441394,-0.748031 1.218013,-1.610987 1.760463,-1.956177 0.345803,-0.220053 0.867142,-0.388011 1.09141,-0.351618 0.40662,0.06599 0.422699,0.373015 0.05858,1.118509 -0.124029,0.253933 -0.254415,0.472789 -0.289746,0.486347 -0.03533,0.01356 -0.05378,0.04158 -0.04099,0.06227 0.01279,0.02069 -0.02693,0.0705 -0.08826,0.110689 -0.06133,0.04019 -0.102522,0.08762 -0.09153,0.105399 0.01099,0.01778 -0.03945,0.07627 -0.112094,0.12998 -0.07264,0.05371 -0.121906,0.114104 -0.109476,0.134216 0.02997,0.04848 -0.592506,0.641775 -1.158759,1.104442 -0.249483,0.203845 -0.446733,0.377501 -0.438332,0.385901 0.0084,0.0084 0.142918,-0.03654 0.298927,-0.09986 0.170078,-0.06904 0.43362,-0.237114 0.658196,-0.419771 0.205998,-0.167548 0.401319,-0.304633 0.434046,-0.304633 0.04993,0 -0.231596,0.353013 -0.742298,0.930796 -0.06077,0.06875 -0.239753,0.22507 -0.397747,0.347379 -0.157995,0.122309 -0.310875,0.242348 -0.339735,0.266753 -0.05482,0.04635 -0.379407,0.131506 -0.508395,0.13337 -0.0411,5.97e-4 -0.08722,-0.01913 -0.102491,-0.04383 z"
       id="path4665"
       inkscape:connector-curvature="0"
       transform="matrix(0.26458333,0,0,0.26458333,0,283.77082)" />
    <path
       style="fill:#ffffff;fill-opacity:0.45588235;stroke-width:0.04419417"
       d="m 34.651208,18.243532 c -0.01527,-0.0247 -0.04627,-0.03347 -0.0689,-0.01949 -0.02263,0.01398 -0.04114,0.0044 -0.04114,-0.02138 0,-0.02574 -0.0242,-0.04183 -0.05377,-0.03575 -0.02958,0.0061 -0.08921,-0.05856 -0.132514,-0.143631 -0.235114,-0.461869 0.07843,-1.489876 0.731895,-2.399622 0.327592,-0.456071 0.939333,-1.117279 1.22216,-1.320987 0.109381,-0.07878 0.22372,-0.167373 0.254087,-0.196867 0.08058,-0.07826 0.524827,-0.237803 0.813559,-0.29217 0.445462,-0.08388 0.612761,0.05814 0.549277,0.466276 -0.03518,0.226198 -0.44636,1.086237 -0.535711,1.120525 -0.03533,0.01356 -0.05378,0.04158 -0.04099,0.06227 0.01279,0.02069 -0.02693,0.0705 -0.08826,0.110689 -0.06133,0.04019 -0.102522,0.08762 -0.09153,0.105399 0.01099,0.01778 -0.03945,0.07627 -0.112094,0.12998 -0.07264,0.05371 -0.121906,0.114104 -0.109476,0.134216 0.02997,0.04848 -0.592506,0.641775 -1.158759,1.104442 -0.249483,0.203845 -0.446505,0.377728 -0.437826,0.386407 0.05164,0.05164 0.555902,-0.222741 0.927452,-0.504647 0.238572,-0.181011 0.442184,-0.320694 0.452472,-0.310406 0.06161,0.06161 -0.764183,0.984279 -1.129306,1.261798 -0.182301,0.138561 -0.34189,0.266019 -0.354641,0.28324 -0.02548,0.0344 -0.374671,0.121822 -0.493489,0.123539 -0.0411,5.97e-4 -0.08722,-0.01913 -0.102491,-0.04383 z"
       id="path4667"
       inkscape:connector-curvature="0"
       transform="matrix(0.26458333,0,0,0.26458333,0,283.77082)" />
    <path
       style="fill:#ffffff;fill-opacity:0.45588235;stroke-width:0.04419417"
       d="m 34.651208,18.243532 c -0.01527,-0.0247 -0.04627,-0.03347 -0.0689,-0.01949 -0.02263,0.01398 -0.04114,0.0044 -0.04114,-0.02138 0,-0.02574 -0.03084,-0.0468 -0.06855,-0.0468 -0.0377,0 -0.09736,-0.06897 -0.132582,-0.15326 -0.238764,-0.571442 0.21068,-1.766024 1.034946,-2.750791 0.798439,-0.953913 1.284491,-1.303149 2.001595,-1.438177 0.445462,-0.08388 0.612761,0.05814 0.549277,0.466276 -0.04116,0.264643 -0.439724,1.060623 -0.622681,1.24358 -0.085,0.085 -0.154552,0.167269 -0.154552,0.182811 0,0.01554 -0.04972,0.06737 -0.110486,0.115166 -0.06077,0.0478 -0.110485,0.113229 -0.110485,0.1454 0,0.07281 -0.58862,0.629596 -1.160714,1.097939 -0.23733,0.19429 -0.423432,0.361331 -0.413561,0.371202 0.0465,0.0465 0.632003,-0.272193 0.943123,-0.513356 0.554226,-0.429603 0.554468,-0.370565 0.0011,0.269181 -0.482265,0.557546 -1.006179,0.987645 -1.280024,1.050817 -0.243687,0.05622 -0.332041,0.05643 -0.366372,8.8e-4 z"
       id="path4669"
       inkscape:connector-curvature="0"
       transform="matrix(0.26458333,0,0,0.26458333,0,283.77082)" />
    <path
       style="fill:#ffffff;fill-opacity:0.45588235;stroke-width:0.04419417"
       d="m 34.653825,18.247766 c -0.01671,-0.02703 -0.04889,-0.03771 -0.07152,-0.02372 -0.02263,0.01398 -0.04114,0.0044 -0.04114,-0.02138 0,-0.02574 -0.03084,-0.0468 -0.06855,-0.0468 -0.09622,0 -0.196619,-0.266464 -0.196619,-0.521841 0,-0.509328 0.32424,-1.324395 0.785721,-1.97513 0.326676,-0.460644 0.903611,-1.091961 1.238548,-1.35529 0.642585,-0.505205 1.536622,-0.679004 1.627628,-0.316407 0.09438,0.376055 -0.377147,1.350835 -0.878712,1.816533 -0.06684,0.06206 -0.121534,0.137321 -0.121534,0.167238 0,0.06923 -0.601249,0.635837 -1.160714,1.093841 -0.23733,0.19429 -0.423432,0.361331 -0.413561,0.371202 0.04708,0.04708 0.633914,-0.273675 0.952469,-0.5206 0.351201,-0.27223 0.490308,-0.322571 0.328533,-0.118891 -0.511884,0.644479 -1.091603,1.200089 -1.452397,1.391996 -0.142933,0.07603 -0.493486,0.115352 -0.528159,0.05925 z"
       id="path4671"
       inkscape:connector-curvature="0"
       transform="matrix(0.26458333,0,0,0.26458333,0,283.77082)" />
    <path
       style="fill:#ffffff;fill-opacity:0.45588235;stroke-width:0.04419417"
       d="m 34.618508,18.259617 c -0.04254,-0.01201 -0.07734,-0.04027 -0.07734,-0.0628 0,-0.02253 -0.03084,-0.04095 -0.06855,-0.04095 -0.09622,0 -0.196619,-0.266464 -0.196619,-0.521841 0,-0.722468 0.496051,-1.705594 1.350574,-2.676708 0.614632,-0.698494 1.112014,-1.023548 1.750004,-1.143679 0.609255,-0.114721 0.723077,0.212774 0.350371,1.008108 -0.193634,0.413202 -0.312911,0.598625 -0.584568,0.908743 -0.512399,0.584944 -0.720733,0.789978 -1.241953,1.222282 -0.309751,0.25691 -0.555516,0.474777 -0.546144,0.484149 0.04417,0.04417 0.616338,-0.268328 0.937102,-0.51182 0.553884,-0.420452 0.558448,-0.374062 0.02468,0.250904 -0.36372,0.425868 -0.85512,0.868455 -1.112574,1.002058 -0.127276,0.06605 -0.470492,0.113898 -0.584991,0.08156 z"
       id="path4673"
       inkscape:connector-curvature="0"
       transform="matrix(0.26458333,0,0,0.26458333,0,283.77082)" />
    <path
       style="fill:#ffffff;fill-opacity:0.45588235;stroke-width:0.04419417"
       d="m 34.618508,18.257982 c -0.04254,-0.01111 -0.07734,-0.03864 -0.07734,-0.06116 0,-0.02253 -0.03084,-0.04095 -0.06855,-0.04095 -0.09622,0 -0.196619,-0.266464 -0.196619,-0.521841 0,-0.319341 0.149734,-0.846985 0.357008,-1.258049 0.515514,-1.022367 1.580006,-2.171205 2.243153,-2.420892 0.532117,-0.200352 0.841854,-0.217452 1.003883,-0.05542 0.115931,0.115931 0.05836,0.470853 -0.147707,0.910586 -0.199292,0.425277 -0.317469,0.609473 -0.589956,0.919528 -0.105948,0.120555 -0.282126,0.32097 -0.391507,0.445366 -0.10938,0.124396 -0.45741,0.44494 -0.773398,0.71232 -0.315988,0.267379 -0.581342,0.50362 -0.589675,0.524978 -0.03631,0.09306 0.526046,-0.210651 0.885267,-0.478114 0.216022,-0.160843 0.40469,-0.28052 0.419262,-0.265948 0.01457,0.01457 -0.08524,0.161317 -0.221805,0.326099 -0.833191,1.005348 -1.388967,1.384517 -1.85202,1.263508 z"
       id="path4675"
       inkscape:connector-curvature="0"
       transform="matrix(0.26458333,0,0,0.26458333,0,283.77082)" />
    <path
       style="fill:#ffffff;fill-opacity:0.45588235;stroke-width:0.04419417"
       d="m 34.546498,18.21286 c -0.49864,-0.245647 -0.282522,-1.380229 0.47682,-2.503215 0.525642,-0.777369 1.362679,-1.570006 1.852846,-1.754563 1.057834,-0.398295 1.318641,-0.09356 0.809527,0.945882 -0.340964,0.696133 -0.904248,1.33282 -1.91182,2.160956 -0.2145,0.176301 -0.368833,0.327828 -0.342963,0.336727 0.07724,0.02657 0.527113,-0.225869 0.892197,-0.500653 0.187923,-0.141442 0.353839,-0.245008 0.368701,-0.230146 0.06711,0.06711 -0.780207,0.996933 -1.202065,1.319108 -0.384562,0.293691 -0.667896,0.361548 -0.943243,0.225904 z"
       id="path4677"
       inkscape:connector-curvature="0"
       transform="matrix(0.26458333,0,0,0.26458333,0,283.77082)" />
    <path
       style="fill:#ffffff;fill-opacity:0.45588235;stroke-width:0.04419417"
       d="m 37.899926,20.319967 c -0.222221,-0.03795 -0.34277,-0.114707 -0.422595,-0.269071 -0.09457,-0.182874 -0.0541,-0.391522 0.162983,-0.840431 0.493231,-1.01994 1.499424,-2.266401 2.333074,-2.890187 0.361448,-0.270456 0.391135,-0.283869 0.630274,-0.284779 0.381521,-0.0015 0.478701,0.136077 0.477591,0.675883 -8.64e-4,0.419981 -0.101794,0.829805 -0.28476,1.156267 -0.544135,0.970886 -1.145778,1.739528 -1.659131,2.119656 -0.3235,0.239546 -0.890361,0.391936 -1.237436,0.332662 z"
       id="path4679"
       inkscape:connector-curvature="0"
       transform="matrix(0.26458333,0,0,0.26458333,0,283.77082)" />
    <path
       style="fill:#ffffff;fill-opacity:0.45588235;stroke-width:0.04419417"
       d="m 37.899926,20.319967 c -0.344009,-0.05875 -0.515031,-0.271295 -0.463538,-0.576078 0.06219,-0.368107 0.54721,-1.221691 1.139789,-2.005914 0.348257,-0.460887 1.170217,-1.280506 1.521909,-1.517577 0.239995,-0.161777 0.306859,-0.185854 0.516125,-0.185854 0.368114,0 0.467695,0.142254 0.467695,0.668114 0,0.520808 -0.104,0.859174 -0.435553,1.417075 -0.566106,0.952583 -1.002194,1.492298 -1.508991,1.867572 -0.3235,0.239546 -0.890361,0.391936 -1.237436,0.332662 z"
       id="path4681"
       inkscape:connector-curvature="0"
       transform="matrix(0.26458333,0,0,0.26458333,0,283.77082)" />
    <path
       style="fill:#ffffff;fill-opacity:0.45588235;stroke-width:0.04419417"
       d="m 37.899926,20.320002 c -0.344048,-0.05884 -0.515029,-0.271342 -0.463538,-0.576113 0.06219,-0.368107 0.54721,-1.221691 1.139789,-2.005914 0.348257,-0.460887 1.170217,-1.280506 1.521909,-1.517577 0.240493,-0.162112 0.306608,-0.185854 0.51756,-0.185854 0.280617,0 0.402404,0.09332 0.449515,0.344444 0.04106,0.218863 -0.0092,0.83326 -0.08949,1.09405 -0.06636,0.215551 -0.44977,0.884343 -0.830339,1.448394 -0.216871,0.32143 -0.778701,0.914139 -1.030071,1.086684 -0.341725,0.234567 -0.871889,0.37062 -1.215339,0.311886 z"
       id="path4683"
       inkscape:connector-curvature="0"
       transform="matrix(0.26458333,0,0,0.26458333,0,283.77082)" />
    <path
       style="fill:#ffffff;fill-opacity:0.45588235;stroke-width:0.04419417"
       d="m 37.892681,20.319395 c -0.342502,-0.05724 -0.508097,-0.268882 -0.455226,-0.581821 0.07106,-0.420619 0.768646,-1.57755 1.39977,-2.3215 0.387613,-0.456906 0.923506,-0.963053 1.270234,-1.199728 0.231499,-0.158019 0.29779,-0.181802 0.506752,-0.181802 0.370033,0 0.468142,0.142179 0.467042,0.676838 -8.68e-4,0.422042 -0.101923,0.83002 -0.290657,1.173436 -0.497062,0.904446 -1.202889,1.799004 -1.675331,2.123298 -0.344071,0.236178 -0.870277,0.370153 -1.222584,0.311279 z"
       id="path4685"
       inkscape:connector-curvature="0"
       transform="matrix(0.26458333,0,0,0.26458333,0,283.77082)" />
    <path
       style="fill:#ffffff;fill-opacity:0.45588235;stroke-width:0.04419417"
       d="m 37.892681,20.319395 c -0.342502,-0.05724 -0.508097,-0.268882 -0.455226,-0.581821 0.041,-0.242664 0.359474,-0.869455 0.713856,-1.404933 0.560027,-0.846211 1.354216,-1.70542 1.956148,-2.116295 0.225749,-0.154095 0.300537,-0.181802 0.490717,-0.181802 0.279734,0 0.372787,0.04849 0.434887,0.226633 0.06927,0.198702 0.05936,0.717548 -0.02014,1.054998 -0.170229,0.722511 -1.237943,2.234028 -1.908216,2.701381 -0.325724,0.227114 -0.861194,0.360466 -1.212021,0.301839 z"
       id="path4687"
       inkscape:connector-curvature="0"
       transform="matrix(0.26458333,0,0,0.26458333,0,283.77082)" />
    <path
       style="fill:#ffffff;fill-opacity:0.45588235;stroke-width:0.04419417"
       d="m 28.904332,31.67541 c -0.204488,-0.211454 -0.847297,-0.698872 -1.257455,-0.95348 -0.748297,-0.46451 -1.717023,-0.925558 -3.373376,-1.605498 -0.43341,-0.177916 -0.827792,-0.355691 -0.876404,-0.395055 -0.08607,-0.0697 -0.06847,-0.09813 0.672983,-1.086949 1.211325,-1.615451 2.153101,-3.074396 3.303608,-5.117758 l 0.43022,-0.764093 0.237484,0.151725 c 0.471074,0.300962 2.647312,1.529209 3.295699,1.860059 0.364602,0.186045 1.06066,0.494835 1.546796,0.686202 1.062876,0.4184 1.652299,0.675675 1.756718,0.766782 0.125163,0.109207 0.0927,0.326437 -0.104888,0.701888 -0.325231,0.617987 -0.466643,0.792245 -2.402139,2.960086 -1.411775,1.58125 -1.727718,1.918838 -2.180972,2.330383 -0.306996,0.278747 -0.796857,0.646356 -0.861307,0.646356 -0.0067,0 -0.09088,-0.08129 -0.186967,-0.180648 z m 1.450821,-3.689749 c 0.139004,-0.08695 0.252734,-0.172938 0.252734,-0.191092 0,-0.05271 -0.716434,-0.466759 -1.441544,-0.833112 l -0.668146,-0.337572 -0.270594,0.174358 c -0.148826,0.0959 -0.270767,0.184799 -0.27098,0.19756 -2.21e-4,0.01276 0.319196,0.181803 0.709797,0.37565 0.390601,0.193848 0.862926,0.445993 1.049611,0.560325 0.186686,0.114331 0.349995,0.208796 0.362909,0.209922 0.01291,0.0011 0.13721,-0.06909 0.276213,-0.156039 z"
       id="path4689"
       inkscape:connector-curvature="0"
       transform="matrix(0.26458333,0,0,0.26458333,0,283.77082)" />
    <path
       style="fill:#ffffff;fill-opacity:0.45588235;stroke-width:0.04419417"
       d="m 28.783291,31.570092 c -0.529661,-0.498312 -1.592225,-1.161007 -2.661113,-1.659669 -0.243068,-0.113397 -0.936171,-0.411551 -1.54023,-0.662564 -0.604059,-0.251014 -1.137652,-0.488263 -1.185763,-0.52722 -0.08486,-0.06871 -0.06488,-0.100974 0.667863,-1.078409 1.19367,-1.59229 2.177904,-3.117509 3.31361,-5.134938 l 0.423899,-0.753 0.348686,0.215759 c 0.625777,0.387215 2.686605,1.542207 3.297333,1.847992 0.328142,0.164297 1.044088,0.477313 1.59099,0.695592 1.195459,0.477128 1.500115,0.610608 1.602039,0.701911 0.125226,0.112175 0.09303,0.330894 -0.103825,0.705345 -0.32769,0.623317 -0.481858,0.81191 -2.543362,3.111288 -1.48276,1.653854 -1.661388,1.84434 -2.092638,2.231557 -0.274256,0.246253 -0.753267,0.597828 -0.80442,0.590413 -0.0072,-0.0011 -0.148126,-0.128876 -0.313069,-0.284057 z m 1.571862,-3.584431 c 0.139004,-0.08695 0.252734,-0.172938 0.252734,-0.191092 0,-0.05142 -0.686492,-0.448175 -1.431314,-0.827228 l -0.676836,-0.344453 -0.271364,0.174857 c -0.14925,0.09617 -0.271537,0.185297 -0.27175,0.198058 -2.21e-4,0.01276 0.319196,0.181803 0.709797,0.37565 0.390601,0.193848 0.862926,0.445993 1.049611,0.560325 0.186686,0.114331 0.349995,0.208796 0.362909,0.209922 0.01291,0.0011 0.13721,-0.06909 0.276213,-0.156039 z"
       id="path4691"
       inkscape:connector-curvature="0"
       transform="matrix(0.26458333,0,0,0.26458333,0,283.77082)" />
    <path
       style="fill:#ffffff;fill-opacity:0.45588235;stroke-width:0.04419417"
       d="m 28.783291,31.570092 c -0.795278,-0.748208 -2.031965,-1.426041 -4.354901,-2.386939 -0.518368,-0.214426 -0.982926,-0.422611 -1.032351,-0.462633 -0.08811,-0.07135 -0.07789,-0.08864 0.525063,-0.888245 1.355356,-1.797391 2.459444,-3.508614 3.59375,-5.569946 l 0.281647,-0.511827 0.333985,0.207128 c 0.617929,0.383222 2.675523,1.535064 3.297324,1.845845 0.339015,0.169442 1.063856,0.488024 1.610758,0.707961 1.216898,0.489374 1.502401,0.614855 1.602039,0.70411 0.125226,0.112175 0.09303,0.330894 -0.103825,0.705345 -0.327466,0.622891 -0.479371,0.808755 -2.542842,3.111288 -1.458887,1.627905 -1.701712,1.886625 -2.115255,2.253713 -0.258237,0.229228 -0.734521,0.575186 -0.782323,0.568257 -0.0072,-0.0011 -0.148126,-0.128876 -0.313069,-0.284057 z m 1.564698,-3.584224 c 0.142944,-0.08683 0.259898,-0.1728 0.259898,-0.191037 0,-0.05015 -0.692449,-0.44978 -1.440774,-0.831508 l -0.667376,-0.340435 -0.271364,0.174857 c -0.14925,0.09617 -0.271537,0.185297 -0.27175,0.198058 -2.21e-4,0.01276 0.319196,0.181803 0.709797,0.37565 0.390601,0.193848 0.862926,0.445993 1.049611,0.560325 0.186686,0.114331 0.346771,0.208796 0.355745,0.209922 0.009,0.0011 0.13327,-0.069 0.276213,-0.155832 z"
       id="path4693"
       inkscape:connector-curvature="0"
       transform="matrix(0.26458333,0,0,0.26458333,0,283.77082)" />
    <path
       style="fill:#ffffff;fill-opacity:0.45588235;stroke-width:0.04419417"
       d="m 32.245165,20.418659 c -0.276599,-0.276599 -0.275289,-1.074717 0.0036,-2.182788 0.255303,-1.014419 0.634578,-1.891892 1.222818,-2.829054 0.610286,-0.972286 1.070965,-1.544896 1.950612,-2.424552 1.613297,-1.613316 3.142594,-2.566189 4.500156,-2.803956 0.439814,-0.07703 0.738902,-0.04716 0.829996,0.0829 0.0942,0.134491 0.08146,0.67371 -0.02681,1.134884 -0.05028,0.214173 -0.118124,0.398852 -0.151178,0.411536 -0.03298,0.01266 -0.144574,0.148535 -0.247985,0.301955 -0.482895,0.716412 -2.026351,2.748791 -2.061119,2.714023 -0.0069,-0.0069 0.04831,-0.159846 0.122657,-0.339915 0.234572,-0.568143 0.230456,-0.864517 -0.01407,-1.013613 -0.289404,-0.176457 -0.782892,-0.08064 -1.534562,0.29797 -0.647435,0.326103 -1.041142,0.610245 -1.547279,1.116687 -0.738203,0.738646 -1.344249,1.684749 -1.530598,2.389427 -0.103268,0.390508 -0.104171,0.904869 -0.0019,1.093581 0.101884,0.188033 0.318014,0.318079 0.528977,0.318288 0.207761,2.21e-4 0.645283,-0.144329 0.874041,-0.288738 0.09483,-0.05986 0.184136,-0.108844 0.198456,-0.108844 0.05624,0 -0.557016,0.700292 -0.996551,1.137992 -0.827442,0.823987 -1.29866,1.115911 -1.801285,1.115911 -0.153807,0 -0.220006,-0.02575 -0.317942,-0.123691 z"
       id="path4695"
       inkscape:connector-curvature="0"
       transform="matrix(0.26458333,0,0,0.26458333,0,283.77082)" />
    <path
       style="fill:#ffffff;fill-opacity:0.45588235;stroke-width:0.04419417"
       d="m 32.245165,20.418659 c -0.282672,-0.282671 -0.275548,-1.088564 0.01981,-2.240698 0.477224,-1.861573 1.496203,-3.539074 3.155862,-5.195363 1.649362,-1.646011 3.218707,-2.610804 4.589749,-2.821659 0.392362,-0.06034 0.653941,-0.0251 0.7415,0.09991 0.09473,0.135239 0.08176,0.673866 -0.02741,1.138884 -0.05064,0.215693 -0.109404,0.392169 -0.13059,0.392169 -0.02119,0 -0.182893,0.203846 -0.359351,0.452991 -0.740856,1.046035 -1.93567,2.612524 -1.968001,2.580194 -0.0077,-0.0077 0.04683,-0.16133 0.121173,-0.341399 0.234572,-0.568143 0.230456,-0.864517 -0.01407,-1.013613 -0.264952,-0.161548 -0.708234,-0.09061 -1.383614,0.221416 -1.246023,0.575664 -2.345925,1.668428 -2.964826,2.945585 -0.458484,0.946123 -0.475819,1.69413 -0.04555,1.965476 0.213124,0.134405 0.5631,0.09202 0.994087,-0.120396 0.187353,-0.09234 0.359352,-0.176619 0.38222,-0.187292 0.09278,-0.0433 -0.557679,0.699897 -0.989613,1.130708 -0.823245,0.821107 -1.300707,1.116777 -1.803425,1.116777 -0.153807,0 -0.220006,-0.02575 -0.317942,-0.123691 z"
       id="path4697"
       inkscape:connector-curvature="0"
       transform="matrix(0.26458333,0,0,0.26458333,0,283.77082)" />
    <path
       style="fill:#ffffff;fill-opacity:0.45588235;stroke-width:0.04419417"
       d="m 32.292431,20.470283 c -0.529136,-0.370622 -0.175562,-2.517304 0.695574,-4.223097 0.99682,-1.951898 2.824146,-3.934852 4.779338,-5.186379 1.147445,-0.734485 2.732958,-1.1594267 2.98474,-0.799957 0.09473,0.135239 0.08176,0.673866 -0.02741,1.138884 -0.05064,0.215693 -0.109404,0.392169 -0.13059,0.392169 -0.02119,0 -0.182893,0.203846 -0.359351,0.452991 -0.740856,1.046035 -1.93567,2.612524 -1.968001,2.580194 -0.0077,-0.0077 0.04683,-0.16133 0.121173,-0.341399 0.234572,-0.568143 0.230456,-0.864517 -0.01407,-1.013613 -0.267767,-0.163264 -0.747173,-0.0808 -1.428853,0.245787 -0.621116,0.29757 -1.183425,0.69724 -1.674602,1.190252 -1.185722,1.190151 -1.8669,2.766245 -1.501197,3.473436 0.184853,0.357466 0.613558,0.393978 1.20475,0.102606 0.187353,-0.09234 0.359352,-0.176619 0.38222,-0.187292 0.09278,-0.0433 -0.557679,0.699897 -0.989613,1.130708 -0.582157,0.580645 -1.081742,0.960147 -1.38092,1.048993 -0.295758,0.08783 -0.564037,0.08617 -0.693181,-0.0043 z"
       id="path4699"
       inkscape:connector-curvature="0"
       transform="matrix(0.26458333,0,0,0.26458333,0,283.77082)" />
    <path
       style="fill:#ffffff;fill-opacity:0.45588235;stroke-width:0.04419417"
       d="m 35.487381,23.323169 c -0.09941,-0.02375 -0.287769,-0.107274 -0.418584,-0.185611 -0.628835,-0.376574 -0.667547,-1.216519 -0.107387,-2.330043 0.388712,-0.772711 0.987318,-1.694727 1.762045,-2.714029 0.885579,-1.16515 3.220505,-4.028479 3.319777,-4.071055 0.05831,-0.02501 0.239852,-0.223884 0.40342,-0.441942 0.441964,-0.5892 0.675996,-0.853887 0.877694,-0.992658 0.156342,-0.107567 0.204834,-0.119858 0.355978,-0.09023 0.397242,0.07786 0.795854,0.340272 0.971077,0.639267 0.232348,0.396471 0.146547,0.735052 -0.58727,2.317458 l -0.335516,0.723506 -0.09821,-0.222534 c -0.123665,-0.280212 -0.220781,-0.332778 -0.573328,-0.31033 -0.211629,0.01348 -0.357449,0.05803 -0.610818,0.186634 -1.125737,0.571394 -2.016437,1.4105 -2.905599,2.737289 -0.589657,0.879872 -0.801132,1.392826 -0.705632,1.711578 0.0832,0.277702 0.409557,0.481902 0.771313,0.482608 0.267394,5.21e-4 0.776138,-0.161059 1.210615,-0.3845 0.249144,-0.128129 0.45299,-0.220935 0.45299,-0.206237 0,0.09362 -1.646617,2.058435 -2.131083,2.542901 -0.566032,0.566032 -0.668249,0.624933 -1.109504,0.639327 -0.198681,0.0065 -0.442571,-0.0076 -0.541977,-0.0314 z"
       id="path4701"
       inkscape:connector-curvature="0"
       transform="matrix(0.26458333,0,0,0.26458333,0,283.77082)" />
    <path
       style="fill:#ffffff;fill-opacity:0.45588235;stroke-width:0.04419417"
       d="m 35.487381,23.323169 c -0.09941,-0.02375 -0.287769,-0.107274 -0.418584,-0.185611 -0.628835,-0.376574 -0.667547,-1.216519 -0.107387,-2.330043 0.386564,-0.76844 0.916837,-1.590685 1.675664,-2.598295 0.872951,-1.159149 3.301249,-4.141658 3.419705,-4.200185 0.06553,-0.03238 0.238471,-0.220807 0.384312,-0.418732 0.405066,-0.549728 0.722061,-0.908898 0.902956,-1.023093 0.135056,-0.08526 0.194396,-0.09745 0.337559,-0.06938 0.599725,0.11761 1.079679,0.571764 1.079679,1.021641 0,0.114215 -0.04089,0.340051 -0.09087,0.501859 -0.09084,0.294107 -0.573718,1.40789 -0.822271,1.89661 l -0.131746,0.259049 -0.07854,-0.205642 c -0.108542,-0.284213 -0.222836,-0.349177 -0.57488,-0.32676 -0.328818,0.02094 -0.709509,0.19583 -1.368376,0.628643 -0.768624,0.504913 -1.750566,1.60474 -2.41238,2.701992 -0.573381,0.950635 -0.6076,1.395697 -0.128985,1.677611 0.117359,0.06913 0.222292,0.08714 0.481517,0.08268 0.379712,-0.0065 0.771786,-0.132875 1.304994,-0.420484 0.181605,-0.09796 0.33019,-0.16492 0.33019,-0.148809 0,0.101013 -1.615811,2.033749 -2.130815,2.548753 -0.566317,0.566318 -0.668485,0.6252 -1.109772,0.639595 -0.198681,0.0065 -0.442571,-0.0076 -0.541977,-0.0314 z"
       id="path4703"
       inkscape:connector-curvature="0"
       transform="matrix(0.26458333,0,0,0.26458333,0,283.77082)" />
    <path
       style="fill:#ffffff;fill-opacity:0.45588235;stroke-width:0.04419417"
       d="m 35.487381,23.323169 c -0.09941,-0.02375 -0.287769,-0.107274 -0.418584,-0.185611 -0.628835,-0.376574 -0.667547,-1.216519 -0.107387,-2.330043 0.384728,-0.764791 0.895208,-1.557203 1.666249,-2.586499 0.795763,-1.0623 3.299838,-4.141977 3.43433,-4.223766 0.07052,-0.04289 0.28336,-0.282831 0.472972,-0.533208 0.436152,-0.575923 0.616667,-0.775363 0.815261,-0.90073 0.136911,-0.08643 0.186337,-0.09471 0.365479,-0.06124 0.357246,0.06674 0.731534,0.314535 0.917117,0.607169 0.230234,0.363042 0.162774,0.730076 -0.341131,1.856024 -0.446119,0.996827 -0.577768,1.240519 -0.613472,1.135573 -0.14755,-0.433708 -0.218666,-0.485169 -0.625373,-0.452522 -0.337011,0.02705 -0.707823,0.197661 -1.358233,0.624919 -1.182278,0.776644 -2.84556,2.995967 -2.871018,3.830808 -0.01221,0.400428 0.284357,0.638892 0.789072,0.634478 0.36983,-0.0032 0.648691,-0.08929 1.226389,-0.378445 0.236991,-0.118623 0.430893,-0.204178 0.430893,-0.190121 0,0.09769 -1.628271,2.042473 -2.130815,2.545018 -0.566317,0.566318 -0.668485,0.6252 -1.109772,0.639595 -0.198681,0.0065 -0.442571,-0.0076 -0.541977,-0.0314 z"
       id="path4705"
       inkscape:connector-curvature="0"
       transform="matrix(0.26458333,0,0,0.26458333,0,283.77082)" />
  </g>
</svg>
