<?xml version="1.0" encoding="iso-8859-1"?>
<!-- Generator: Adobe Illustrator 19.0.0, SVG Export Plug-In . SVG Version: 6.00 Build 0)  -->
<svg version="1.1" id="Layer_1" xmlns="http://www.w3.org/2000/svg" xmlns:xlink="http://www.w3.org/1999/xlink" x="0px" y="0px"
	 viewBox="0 0 512 512" style="enable-background:new 0 0 512 512;" xml:space="preserve">
<path style="fill:#98C8ED;" d="M283.234,384v-21.787h-54.468V384c0,46.762-20.13,81.702-38.128,81.702v32.681
	c20.749,0,39.5-13.183,52.799-37.121c5.329-9.593,9.545-20.573,12.563-32.428c3.018,11.857,7.233,22.836,12.563,32.428
	c13.299,23.938,32.05,37.121,52.799,37.121v-32.681C303.363,465.702,283.234,430.762,283.234,384z"/>
<path style="fill:#7AB9E8;" d="M283.234,384v-21.787h-27.235v66.622c0-0.001,0.001-0.001,0.001-0.001
	c3.018,11.855,7.233,22.835,12.563,32.427c13.299,23.939,32.05,37.122,52.799,37.122v-32.681
	C303.363,465.702,283.234,430.762,283.234,384z"/>
<path style="fill:#B4D8F1;" d="M441.191,324.085v32.681c21.024,0,38.128,17.104,38.128,38.128c0,33.037-26.878,59.915-59.915,59.915
	c-45.051,0-81.702-36.652-81.702-81.702v-21.787h-32.681v21.787c0,63.071,51.311,114.383,114.383,114.383
	c51.057,0,92.596-41.538,92.596-92.596C512,355.85,480.235,324.085,441.191,324.085z"/>
<g>
	<path style="fill:#D1E5F5;" d="M206.979,351.319h-32.681v21.787c0,45.051-36.652,81.702-81.702,81.702
		c-33.037,0-59.915-26.878-59.915-59.915c0-21.024,17.104-38.128,38.128-38.128v-32.681C31.765,324.085,0,355.85,0,394.894
		c0,51.057,41.538,92.596,92.596,92.596c63.071,0,114.383-51.312,114.383-114.383V351.319z"/>
	<path style="fill:#D1E5F5;" d="M354.043,340.426c0-36.099,29.264-65.362,65.362-65.362c30.082,0,54.468-24.386,54.468-54.468
		C473.871,100.268,376.328,13.617,256,13.617S38.128,100.268,38.128,220.596c0,30.082,24.386,54.468,54.468,54.468
		c36.098,0,65.362,29.262,65.362,65.362"/>
</g>
<g>
	<path style="fill:#B4D8F1;" d="M256,13.617L256,13.617l-0.001,326.808h98.044c0-36.099,29.264-65.362,65.362-65.362
		c30.082,0,54.468-24.386,54.468-54.468C473.871,100.268,376.328,13.617,256,13.617z"/>
	<path style="fill:#B4D8F1;" d="M354.043,111.66c0-54.147-43.895-98.043-98.043-98.043s-98.043,43.896-98.043,98.043v-10.894v239.66
		c0,18.049,14.632,32.681,32.681,32.681h130.723c18.049,0,32.681-14.632,32.681-32.681v-239.66V111.66z"/>
</g>
<path style="fill:#98C8ED;" d="M256,13.617v359.489h65.362c18.049,0,32.681-14.632,32.681-32.681V111.66
	C354.043,57.513,310.148,13.617,256,13.617z"/>
<path style="fill:#58575D;" d="M217.872,334.979h-0.002c-12.012,0-21.785-9.774-21.785-21.787
	c0.004-12.016,9.778-21.787,21.787-21.787c12.013,0,21.787,9.774,21.787,21.787C239.66,325.205,229.886,334.979,217.872,334.979z"/>
<path style="fill:#454449;" d="M294.128,334.979h-0.002c-12.012,0-21.785-9.774-21.785-21.787
	c0.004-12.016,9.778-21.787,21.787-21.787c12.013,0,21.787,9.774,21.787,21.787C315.915,325.205,306.141,334.979,294.128,334.979z"
	/>
<g>
</g>
<g>
</g>
<g>
</g>
<g>
</g>
<g>
</g>
<g>
</g>
<g>
</g>
<g>
</g>
<g>
</g>
<g>
</g>
<g>
</g>
<g>
</g>
<g>
</g>
<g>
</g>
<g>
</g>
</svg>
