<?xml version="1.0" encoding="UTF-8" standalone="no"?>
<!-- Created with Inkscape (http://www.inkscape.org/) -->

<svg
   xmlns:dc="http://purl.org/dc/elements/1.1/"
   xmlns:cc="http://creativecommons.org/ns#"
   xmlns:rdf="http://www.w3.org/1999/02/22-rdf-syntax-ns#"
   xmlns:svg="http://www.w3.org/2000/svg"
   xmlns="http://www.w3.org/2000/svg"
   xmlns:sodipodi="http://sodipodi.sourceforge.net/DTD/sodipodi-0.dtd"
   xmlns:inkscape="http://www.inkscape.org/namespaces/inkscape"
   width="50"
   height="50"
   viewBox="0 0 13.229166 13.229167"
   version="1.1"
   id="svg8"
   sodipodi:docname="squid_terror_solo_ojos.svg"
   inkscape:version="0.91 r13725">
  <defs
     id="defs2" />
  <sodipodi:namedview
     id="base"
     pagecolor="#ffffff"
     bordercolor="#666666"
     borderopacity="1.0"
     inkscape:pageopacity="0.0"
     inkscape:pageshadow="2"
     inkscape:zoom="22.627417"
     inkscape:cx="37.277497"
     inkscape:cy="25.341412"
     inkscape:document-units="mm"
     inkscape:current-layer="layer1"
     showgrid="false"
     units="px"
     inkscape:window-width="2450"
     inkscape:window-height="1392"
     inkscape:window-x="110"
     inkscape:window-y="48"
     inkscape:window-maximized="1" />
  <metadata
     id="metadata5">
    <rdf:RDF>
      <cc:Work
         rdf:about="">
        <dc:format>image/svg+xml</dc:format>
        <dc:type
           rdf:resource="http://purl.org/dc/dcmitype/StillImage" />
        <dc:title></dc:title>
      </cc:Work>
    </rdf:RDF>
  </metadata>
  <g
     inkscape:label="Layer 1"
     inkscape:groupmode="layer"
     id="layer1"
     transform="translate(0,-283.77082)">
    <path
       style="fill:#000000;stroke-width:0.26458332"
       id="path110"
       d="m 10.634288,287.39991 c -0.192323,0.23704 -0.381746,0.4764 -0.573388,0.71398 -0.2060904,0.25024 -0.407438,0.50498 -0.5888096,0.77393 -0.029786,0.0442 -0.057885,0.0894 -0.086827,0.13418 -0.090243,0.15527 -0.1905926,0.31247 -0.2329921,0.48945 -0.00537,0.0224 -0.00792,0.0454 -0.011885,0.0681 -0.00606,0.0804 9.261e-4,0.16395 0.044561,0.23396 0.00642,0.0103 0.014311,0.0196 0.021468,0.0294 0.053341,0.0644 0.1237581,0.0894 0.2026828,0.10779 0.057951,0.0113 0.1178168,0.0146 0.1764704,0.006 0.034759,-0.005 0.047632,-0.01 0.081305,-0.0197 -0.021016,0.0166 0.1059841,-0.0552 0.079365,-0.0416 -0.034635,0.0176 -0.06591,0.0427 -0.1027033,0.0552 -0.018558,0.006 0.031282,-0.0236 0.046456,-0.036 0.039955,-0.0327 0.064234,-0.0559 0.1027986,-0.0911 0.1460389,-0.13855 0.2712142,-0.29711 0.3996942,-0.4516 0.174954,-0.20718 0.331729,-0.42887 0.477322,-0.65746 0.03511,-0.0551 0.0687,-0.11122 0.103058,-0.16682 0.152558,-0.2522 0.286127,-0.51491 0.408238,-0.78296 0.05288,-0.12053 0.111271,-0.24001 0.138673,-0.36945 0.0092,-0.07 0.0042,-0.10819 -0.03579,-0.16571 -0.03838,-0.0538 -0.09329,-0.092 -0.149795,-0.12466 -0.06034,-0.0284 -0.131813,-0.0516 -0.198511,-0.0307 -0.01708,0.005 -0.03278,0.0144 -0.04917,0.0216 0.02837,-0.0143 0.06707,-0.0692 0.08512,-0.043 0.018,0.0261 -0.04898,0.0404 -0.0715,0.0628 -0.105596,0.10474 -0.190577,0.22789 -0.278192,0.34729 0,0 -0.145175,0.0628 -0.145175,0.0628 v 0 c 0.05929,-0.0825 0.124712,-0.17647 0.189348,-0.25577 0.02542,-0.0312 0.109033,-0.12848 0.148911,-0.15581 0.06579,-0.0451 0.136724,-0.0822 0.205086,-0.12331 0.01746,-0.006 0.03433,-0.0145 0.05237,-0.0189 0.0703,-0.0168 0.143439,0.009 0.205586,0.0396 0.05825,0.0346 0.115164,0.0744 0.154737,0.13042 0.01281,0.0186 0.02024,0.0273 0.02912,0.0482 0.01755,0.0413 0.01723,0.0868 0.01177,0.13055 -0.003,0.0147 -0.0053,0.0295 -0.009,0.044 -0.02959,0.11582 -0.08719,0.22233 -0.133811,0.33161 -0.125028,0.26969 -0.261835,0.53373 -0.415504,0.78836 -0.175292,0.28487 -0.355923,0.56765 -0.572654,0.82336 -0.127153,0.15407 -0.250883,0.31222 -0.3942719,0.45174 -0.03865,0.036 -0.061324,0.0581 -0.1010812,0.0918 -0.014875,0.0126 -0.029042,0.0263 -0.045423,0.0369 -0.061727,0.0399 -0.1253374,0.0768 -0.188536,0.11432 -0.037731,0.0224 -0.042357,0.0225 -0.082246,0.0386 -0.013846,0.004 -0.027543,0.008 -0.04154,0.0106 -0.072991,0.015 -0.1485723,0.0107 -0.2211001,-0.004 -0.082414,-0.021 -0.1550057,-0.0493 -0.2098723,-0.1176 -0.019606,-0.0277 -0.028129,-0.0368 -0.041941,-0.0688 -0.028365,-0.0656 -0.032657,-0.13762 -0.027609,-0.20804 0.00403,-0.0235 0.00661,-0.0472 0.012107,-0.0704 0.042739,-0.18012 0.1457172,-0.33957 0.2381885,-0.497 0.029416,-0.0451 0.057985,-0.0909 0.088249,-0.13542 0.1823842,-0.26864 0.3834138,-0.524 0.588926,-0.77513 0.18902,-0.23433 0.376584,-0.46984 0.560415,-0.70827 0,0 0.157321,-0.0673 0.157321,-0.0673 z"
       inkscape:connector-curvature="0" />
    <path
       style="fill:#000000;stroke-width:0.26458332"
       id="path116"
       d="m 10.88111,286.83795 c -0.105468,0.15476 -0.218674,0.30407 -0.331144,0.45377 -0.145155,0.20254 -0.308397,0.39084 -0.467205,0.58253 -0.1428095,0.17562 -0.2904806,0.34722 -0.43749,0.51932 -0.1213498,0.14779 -0.2396757,0.29781 -0.3708479,0.43711 -0.099215,0.10166 -0.205131,0.19638 -0.3202125,0.27966 -0.097979,0.0641 -0.070356,0.0473 -0.2367799,0.14072 -0.023299,0.0131 -0.06092,0.0292 -0.086504,0.0379 -0.03384,0.0114 -0.04908,0.0135 -0.083693,0.0206 -0.044509,0.004 -0.096548,0.0127 -0.137578,-0.0113 -0.028403,-0.0166 -0.031905,-0.0282 -0.051057,-0.0553 -0.00639,-0.0166 -0.014465,-0.0327 -0.019174,-0.0499 -0.040556,-0.14802 -0.00508,-0.32 0.023564,-0.46662 0.048281,-0.2077 0.1200851,-0.4103 0.2155764,-0.60109 0.019296,-0.0386 0.040691,-0.076 0.061036,-0.11403 0.093323,-0.1555 0.192763,-0.30804 0.3050294,-0.45068 0.074625,-0.0948 0.1049975,-0.12561 0.1857351,-0.21537 0.1251493,-0.13199 0.2568655,-0.25806 0.3992788,-0.37139 0.076348,-0.0608 0.1252064,-0.0945 0.2038265,-0.15097 0.089623,-0.0635 0.1824109,-0.12231 0.2778101,-0.17669 0.07596,-0.0433 0.151789,-0.0868 0.228575,-0.12866 0.06017,-0.0328 0.102936,-0.0498 0.165226,-0.0769 0.110262,-0.048 0.225851,-0.0797 0.345106,-0.0936 0.05217,-0.006 0.105026,-0.005 0.154999,0.0123 0.03589,0.016 0.04679,0.0486 0.05334,0.0845 0.01029,0.0808 -0.0023,0.16146 -0.01719,0.24078 -0.02405,0.11313 -0.06179,0.2235 -0.112268,0.32763 -0.01108,0.0229 -0.02369,0.0449 -0.03553,0.0674 -0.05845,0.10492 -0.134119,0.19823 -0.211069,0.28981 0,0 -0.151412,0.0642 -0.151412,0.0642 v 0 c 0.02326,-0.0276 0.04738,-0.0544 0.06978,-0.0827 0.05085,-0.0642 0.0973,-0.13254 0.139622,-0.20258 0.012,-0.0221 0.02484,-0.0438 0.036,-0.0663 0.05069,-0.10245 0.08821,-0.21159 0.112189,-0.32325 0.01456,-0.077 0.02669,-0.15517 0.01675,-0.23368 -0.0049,-0.0303 -0.01168,-0.0571 -0.04371,-0.068 -0.04856,-0.0135 -0.09889,-0.0139 -0.148787,-0.008 -0.11699,0.015 -0.230309,0.047 -0.33841,0.0947 -0.02669,0.0118 -0.05368,0.0231 -0.08008,0.0355 -0.02812,0.0133 -0.0533,0.0341 -0.08343,0.0418 -0.02076,0.005 0.07352,-0.0439 0.05435,-0.0343 -0.03102,0.0155 -0.06032,0.0343 -0.09001,0.0522 -0.084664,0.0511 -0.1070144,0.0677 -0.1901864,0.12382 -0.078032,0.0555 -0.1293913,0.0907 -0.2051492,0.15028 -0.1430591,0.11256 -0.2751738,0.23822 -0.4010284,0.36955 -0.079666,0.0879 -0.1123926,0.12103 -0.1860164,0.21391 -0.1123198,0.14169 -0.2113105,0.29367 -0.3050664,0.44805 -0.020497,0.0378 -0.042069,0.0749 -0.061496,0.11325 -0.095919,0.18917 -0.1678622,0.39049 -0.2161053,0.59689 -0.027421,0.141 -0.06225,0.31315 -0.022085,0.45523 0.00444,0.0157 0.012041,0.0303 0.018063,0.0455 0.017563,0.0234 0.020196,0.0333 0.04624,0.0461 0.039977,0.0196 0.08936,0.009 0.1310748,0.004 0.035432,-0.008 0.047103,-0.01 0.081658,-0.0227 0.045155,-0.0167 0.208003,-0.10146 -0.016092,0.0194 -0.016539,0.009 0.031766,-0.0201 0.047649,-0.0301 0.1165384,-0.082 0.223335,-0.17626 0.3235767,-0.27754 0.055301,-0.0578 0.063991,-0.0655 0.1171718,-0.12676 0.088118,-0.10143 0.1698876,-0.20815 0.2566812,-0.31069 0.1474862,-0.17192 0.2944987,-0.3443 0.438236,-0.51935 0.1586766,-0.19161 0.3229526,-0.37893 0.4674766,-0.58179 0.11045,-0.14754 0.221937,-0.29461 0.323148,-0.44873 0,0 0.158066,-0.0697 0.158066,-0.0697 z"
       inkscape:connector-curvature="0" />
    <path
       style="fill:#000000;stroke-width:0.26458332"
       id="path122"
       d="m 9.3403408,288.38831 c 0.1137738,-0.0857 0.2235663,-0.17633 0.3295708,-0.27146 0.1053738,-0.0983 0.1999581,-0.20939 0.2734054,-0.33375 0.01266,-0.0214 0.023799,-0.0437 0.035697,-0.0656 0.02834,-0.0641 0.077248,-0.16311 0.066553,-0.23624 -0.0014,-0.009 -0.0058,-0.0182 -0.0086,-0.0273 -0.0069,-0.007 -0.01263,-0.0148 -0.02072,-0.0199 -0.072171,-0.046 -0.1837087,-0.003 -0.2548668,0.0209 -0.057193,0.0245 -0.099041,0.0404 -0.1532168,0.0723 -0.019905,0.0117 0.07472,-0.05 0.062114,-0.0307 -0.019026,0.0292 -0.056345,0.0411 -0.0833,0.0632 -0.077954,0.0639 -0.092799,0.0832 -0.1640743,0.15605 -0.1243311,0.14198 -0.2369687,0.29809 -0.3074183,0.47445 -0.011107,0.0278 -0.019434,0.0566 -0.029152,0.085 -0.019346,0.0855 -0.047204,0.21768 0.013597,0.29483 0.00838,0.0106 0.020421,0.0178 0.030632,0.0267 0.014155,0.004 0.027786,0.0111 0.042468,0.013 0.066433,0.009 0.1397809,-0.0163 0.1981869,-0.0451 0.026957,-0.0133 0.060174,-0.0214 0.077662,-0.0459 0.012562,-0.0176 -0.040546,0.0149 -0.06082,0.0223 0.027476,-0.0248 0.054951,-0.0496 0.082427,-0.0744 0,0 0.1520685,-0.0622 0.1520685,-0.0622 v 0 c -0.026962,0.0252 -0.053924,0.0504 -0.080887,0.0756 -0.074025,0.0478 -0.1472372,0.0969 -0.2220749,0.14339 -0.080163,0.0498 -0.1901774,0.1021 -0.2879767,0.082 -0.016343,-0.003 -0.031004,-0.0123 -0.046506,-0.0185 -0.01112,-0.0106 -0.024162,-0.0195 -0.033364,-0.0318 -0.063877,-0.0855 -0.036258,-0.2149 -0.01601,-0.3091 0.00981,-0.0289 0.018203,-0.0584 0.029429,-0.0868 0.070299,-0.17796 0.1829366,-0.33579 0.306527,-0.48028 0.071555,-0.0749 0.08386,-0.0919 0.1620803,-0.15781 0.1363916,-0.115 0.2953811,-0.2025 0.4603675,-0.26905 0.079638,-0.0253 0.1923476,-0.065 0.2689846,-0.008 0.0097,0.007 0.01653,0.0178 0.0248,0.0267 0.0036,0.0107 0.0088,0.0209 0.01065,0.032 0.01297,0.0759 -0.03719,0.17897 -0.06638,0.24584 -0.01192,0.0223 -0.02305,0.045 -0.03575,0.0669 -0.073,0.12553 -0.1670059,0.23827 -0.272023,0.33813 -0.1042688,0.0945 -0.2125935,0.1839 -0.323161,0.27097 0,0 -0.1608926,0.0635 -0.1608926,0.0635 z"
       inkscape:connector-curvature="0" />
    <path
       style="fill:#000000;stroke-width:0.26458332"
       id="path124"
       d="m 10.310672,289.1143 c 0.110781,-0.0697 0.201117,-0.16601 0.289478,-0.26133 0.06948,-0.0771 0.127795,-0.1633 0.17258,-0.25695 0.02851,-0.0596 0.03474,-0.0815 0.05716,-0.14335 0.02925,-0.099 0.05759,-0.20314 0.04719,-0.30752 -0.0015,-0.0145 -0.0049,-0.0287 -0.0073,-0.0431 -0.0081,-0.0298 -0.01685,-0.0649 -0.04564,-0.0823 -0.03748,-0.0227 -0.08233,-0.0113 -0.122064,-0.005 -10e-5,-0.048 -0.141623,0.0966 -0.129333,0.0518 0.0069,-0.025 0.07994,-0.0596 0.06867,-0.0363 -0.01426,0.0295 -0.05356,0.0378 -0.07925,0.0582 -0.07315,0.058 -0.09895,0.0856 -0.167429,0.15076 -0.161219,0.16249 -0.295443,0.3485 -0.4106945,0.54564 -0.035468,0.071 -0.099872,0.1829 -0.084502,0.26664 0.00217,0.0118 0.00807,0.0225 0.012102,0.0338 0.0077,0.01 0.013962,0.0206 0.023095,0.0288 0.048819,0.0441 0.1203015,0.0497 0.1824745,0.0421 0.02087,-0.003 0.04129,-0.008 0.06193,-0.0119 0.06084,-0.0178 0.07442,-0.0196 0.13317,-0.046 0.02218,-0.01 0.08371,-0.0485 0.06518,-0.0327 -0.02345,0.0199 -0.04988,0.041 -0.08032,0.0456 -0.02416,0.004 0.04044,-0.0275 0.05971,-0.0425 0.01933,-0.0151 0.03732,-0.0318 0.05598,-0.0477 0.0761,-0.0757 0.03795,-0.0348 0.113623,-0.12362 0,0 0.153078,-0.065 0.153078,-0.065 v 0 c -0.0735,0.09 -0.03621,0.0485 -0.111017,0.12545 -0.01848,0.0163 -0.0363,0.0334 -0.05543,0.049 -0.08574,0.0697 -0.159291,0.10428 -0.266969,0.16367 -0.06321,0.0349 -0.131957,0.0589 -0.201979,0.0756 -0.02134,0.003 -0.04248,0.008 -0.064011,0.0103 -0.067496,0.006 -0.1418063,-0.006 -0.1926532,-0.0544 -0.010173,-0.01 -0.017256,-0.0223 -0.025882,-0.0335 -0.00481,-0.0129 -0.011689,-0.0251 -0.014441,-0.0386 -0.018015,-0.0881 0.047027,-0.20296 0.084848,-0.2775 0.1164526,-0.19806 0.2510216,-0.38553 0.4112966,-0.55082 0.06794,-0.0659 0.09264,-0.0928 0.164952,-0.15196 0.02522,-0.0206 0.05023,-0.0418 0.07774,-0.0592 0.07123,-0.0451 0.144292,-0.0874 0.218067,-0.12828 0.02235,-0.0124 0.04599,-0.0225 0.06999,-0.0312 0.02088,-0.008 0.04284,-0.0119 0.06426,-0.0178 0.03986,-0.004 0.06077,-0.0106 0.0992,3.4e-4 0.05134,0.0147 0.07199,0.0609 0.08317,0.10855 0.0026,0.0151 0.0063,0.0301 0.0078,0.0453 0.01092,0.10665 -0.01742,0.21311 -0.04668,0.31449 -0.02212,0.0627 -0.02829,0.0848 -0.05639,0.14541 -0.04402,0.0949 -0.10124,0.18278 -0.170693,0.26105 -0.08676,0.095 -0.175336,0.19128 -0.2828,0.26333 0,0 -0.161275,0.0628 -0.161275,0.0628 z"
       inkscape:connector-curvature="0" />
    <path
       style="fill:#00e5f7;fill-opacity:0.45588235;stroke-width:0.04419417"
       d="m 34.559772,18.227514 c -0.503534,-0.225832 -0.300223,-1.386474 0.433599,-2.47528 0.803431,-1.19209 1.752922,-1.925887 2.515006,-1.943677 0.509488,-0.01189 0.56643,0.293527 0.196501,1.053962 -0.366172,0.752709 -0.949245,1.409498 -1.96801,2.216819 -0.241059,0.191027 -0.4218,0.353277 -0.401646,0.360555 0.02015,0.0073 0.160099,-0.03693 0.31099,-0.09825 0.253082,-0.102836 0.701739,-0.42257 1.04876,-0.747394 0.07863,-0.0736 0.152864,-0.12393 0.164957,-0.111837 0.03817,0.03817 -0.893784,1.112413 -1.136471,1.309994 -0.127663,0.103936 -0.227857,0.206203 -0.222653,0.22726 0.01391,0.0563 -0.37623,0.212562 -0.606083,0.242751 -0.127055,0.01669 -0.248015,0.0041 -0.33495,-0.03491 z"
       id="path4651"
       inkscape:connector-curvature="0"
       transform="matrix(0.26458333,0,0,0.26458333,0,283.77082)" />
    <path
       style="fill:#ffffff;fill-opacity:0.45588235;stroke-width:0.04419417"
       d="m 37.899926,20.319967 c -0.222221,-0.03795 -0.34277,-0.114707 -0.422595,-0.269071 -0.09625,-0.186126 -0.05319,-0.396189 0.177884,-0.867732 0.518107,-1.057295 1.56995,-2.335577 2.418144,-2.93872 0.266542,-0.189535 0.318902,-0.2099 0.539657,-0.2099 0.376524,0 0.469636,0.143909 0.468237,0.72368 -9.07e-4,0.375714 -0.108515,0.794956 -0.28476,1.109425 -0.544135,0.970886 -1.145778,1.739528 -1.659131,2.119656 -0.3235,0.239546 -0.890361,0.391936 -1.237436,0.332662 z"
       id="path4653"
       inkscape:connector-curvature="0"
       transform="matrix(0.26458333,0,0,0.26458333,0,283.77082)" />
    <path
       style="fill:#ffffff;fill-opacity:0.45588235;stroke-width:0.04419417"
       d="m 32.245165,20.418659 c -0.341469,-0.341468 -0.246887,-1.547501 0.23118,-2.947804 0.365941,-1.071876 0.870145,-1.983397 1.747877,-3.159884 0.431013,-0.577718 1.719829,-1.896975 2.305684,-2.360143 0.513836,-0.40623 1.45913,-1.03948 1.834058,-1.228631 1.032796,-0.521042 2.189877,-0.7443768 2.388368,-0.460991 0.0942,0.134491 0.08146,0.67371 -0.02681,1.134884 -0.05028,0.214173 -0.118124,0.398852 -0.151178,0.411536 -0.03298,0.01266 -0.144574,0.148535 -0.247985,0.301955 -0.48663,0.721954 -2.026411,2.74873 -2.061561,2.713581 -0.0071,-0.0071 0.04934,-0.159363 0.125488,-0.338303 0.07615,-0.178939 0.148528,-0.436513 0.160848,-0.572387 0.01967,-0.216907 0.0091,-0.262526 -0.08677,-0.37396 -0.404048,-0.469734 -2.045339,0.219119 -3.152797,1.323235 -0.478713,0.477268 -0.775837,0.854798 -1.094937,1.391242 -0.756822,1.272306 -0.718676,2.433205 0.07995,2.433205 0.200793,0 0.640805,-0.146808 0.865898,-0.288903 0.09483,-0.05986 0.184136,-0.108844 0.198456,-0.108844 0.05821,0 -0.551321,0.691163 -1.012406,1.147989 -0.842513,0.834732 -1.280321,1.105914 -1.78543,1.105914 -0.153807,0 -0.220006,-0.02575 -0.317942,-0.123691 z"
       id="path4657"
       inkscape:connector-curvature="0"
       transform="matrix(0.26458333,0,0,0.26458333,0,283.77082)" />
    <path
       style="fill:#ffffff;fill-opacity:0.45588235;stroke-width:0.04419417"
       d="m 35.453292,23.306411 c -0.373051,-0.106903 -0.608163,-0.284225 -0.753403,-0.56822 -0.112596,-0.220164 -0.129277,-0.299427 -0.125245,-0.595149 0.0029,-0.215009 0.04035,-0.45555 0.101203,-0.650518 0.242884,-0.778226 1.056765,-2.110332 2.187118,-3.579728 0.99932,-1.299059 3.083832,-3.849096 3.180156,-3.890365 0.05837,-0.02501 0.239963,-0.223884 0.403531,-0.441942 0.441964,-0.5892 0.675996,-0.853887 0.877694,-0.992658 0.156342,-0.107567 0.204834,-0.119858 0.355978,-0.09023 0.397242,0.07786 0.795854,0.340272 0.971077,0.639267 0.235463,0.401787 0.08939,0.928458 -0.724025,2.610417 l -0.213727,0.441942 -0.0586,-0.190828 c -0.03223,-0.104956 -0.107449,-0.229252 -0.167152,-0.276214 -0.141781,-0.111525 -0.507839,-0.113496 -0.795266,-0.0043 -0.315266,0.119792 -1.049953,0.56071 -1.378491,0.827294 -1.025011,0.831718 -2.293349,2.572135 -2.478993,3.401679 -0.04574,0.204389 -0.04198,0.252643 0.03131,0.402232 0.255624,0.521687 0.956421,0.536198 1.928397,0.03993 0.261298,-0.133412 0.475087,-0.230734 0.475087,-0.21627 0,0.09525 -1.628015,2.034628 -2.126021,2.532635 -0.582366,0.582365 -0.671834,0.63454 -1.114566,0.649978 -0.214971,0.0075 -0.448223,-0.01233 -0.576066,-0.04897 z"
       id="path4659"
       inkscape:connector-curvature="0"
       transform="matrix(0.26458333,0,0,0.26458333,0,283.77082)" />
    <path
       style="fill:#ffffff;fill-opacity:0.45588235;stroke-width:0.04419417"
       d="m 34.484415,18.155471 c -0.391177,-0.3077 -0.146921,-1.394005 0.545427,-2.425735 0.731723,-1.090407 1.656418,-1.827162 2.375039,-1.892325 0.460295,-0.04174 0.597575,0.117687 0.472329,0.54852 -0.239072,0.822379 -0.983126,1.748505 -2.194394,2.73137 -0.209687,0.170148 -0.366146,0.315076 -0.347686,0.322063 0.143156,0.05419 0.866721,-0.376204 1.271454,-0.756285 0.257892,-0.242184 0.191203,-0.09936 -0.131457,0.281525 -0.585384,0.691024 -1.018777,1.099471 -1.266497,1.193597 -0.297811,0.11316 -0.578229,0.112103 -0.724215,-0.0027 z"
       id="path4661"
       inkscape:connector-curvature="0"
       transform="matrix(0.26458333,0,0,0.26458333,0,283.77082)" />
    <path
       style="fill:#ffffff;fill-opacity:0.45588235;stroke-width:0.04419417"
       d="m 34.651208,18.243532 c -0.01527,-0.0247 -0.04627,-0.03347 -0.0689,-0.01949 -0.02263,0.01398 -0.04114,0.0044 -0.04114,-0.02138 0,-0.02574 -0.02163,-0.04183 -0.04807,-0.03575 -0.0891,0.02048 -0.217091,-0.287624 -0.217091,-0.522571 0,-0.778884 0.619478,-1.955067 1.502602,-2.852943 0.729461,-0.741646 1.274039,-1.011044 1.951507,-0.965391 0.154695,0.01042 0.228307,0.15882 0.199489,0.402149 -0.02894,0.244386 -0.35482,0.963744 -0.512163,1.130578 -0.05062,0.05367 -0.09204,0.117608 -0.09204,0.142076 0,0.02447 -0.04033,0.06607 -0.08963,0.09245 -0.04929,0.02638 -0.07991,0.06369 -0.06803,0.08291 0.01188,0.01922 -0.03784,0.07889 -0.110477,0.132597 -0.07264,0.05371 -0.121867,0.114167 -0.109389,0.134357 0.02982,0.04825 -0.53989,0.58889 -1.138241,1.080152 -0.262458,0.215485 -0.469947,0.39904 -0.461086,0.407901 0.0089,0.0089 0.144514,-0.03483 0.301452,-0.0971 0.182642,-0.07246 0.428028,-0.229806 0.681784,-0.43716 0.218043,-0.178173 0.411752,-0.314488 0.430464,-0.302923 0.04656,0.02878 -0.554047,0.724541 -0.928842,1.075999 -0.399748,0.374859 -0.531358,0.480716 -0.560915,0.45116 -0.01332,-0.01332 -0.02422,-0.0027 -0.02422,0.02367 0,0.02634 -0.100416,0.06943 -0.223146,0.09575 -0.276764,0.05936 -0.338754,0.05984 -0.373921,0.0029 z"
       id="path4663"
       inkscape:connector-curvature="0"
       transform="matrix(0.26458333,0,0,0.26458333,0,283.77082)" />
    <path
       style="fill:#ffffff;fill-opacity:0.45588235;stroke-width:0.04419417"
       d="m 34.651208,18.243532 c -0.01527,-0.0247 -0.04627,-0.03347 -0.0689,-0.01949 -0.02263,0.01398 -0.04114,0.0044 -0.04114,-0.02138 0,-0.02574 -0.0242,-0.04183 -0.05377,-0.03575 -0.02958,0.0061 -0.09065,-0.05856 -0.135711,-0.143631 -0.184977,-0.349198 0.0044,-1.219307 0.41776,-1.919906 0.441394,-0.748031 1.218013,-1.610987 1.760463,-1.956177 0.345803,-0.220053 0.867142,-0.388011 1.09141,-0.351618 0.40662,0.06599 0.422699,0.373015 0.05858,1.118509 -0.124029,0.253933 -0.254415,0.472789 -0.289746,0.486347 -0.03533,0.01356 -0.05378,0.04158 -0.04099,0.06227 0.01279,0.02069 -0.02693,0.0705 -0.08826,0.110689 -0.06133,0.04019 -0.102522,0.08762 -0.09153,0.105399 0.01099,0.01778 -0.03945,0.07627 -0.112094,0.12998 -0.07264,0.05371 -0.121906,0.114104 -0.109476,0.134216 0.02997,0.04848 -0.592506,0.641775 -1.158759,1.104442 -0.249483,0.203845 -0.446733,0.377501 -0.438332,0.385901 0.0084,0.0084 0.142918,-0.03654 0.298927,-0.09986 0.170078,-0.06904 0.43362,-0.237114 0.658196,-0.419771 0.205998,-0.167548 0.401319,-0.304633 0.434046,-0.304633 0.04993,0 -0.231596,0.353013 -0.742298,0.930796 -0.06077,0.06875 -0.239753,0.22507 -0.397747,0.347379 -0.157995,0.122309 -0.310875,0.242348 -0.339735,0.266753 -0.05482,0.04635 -0.379407,0.131506 -0.508395,0.13337 -0.0411,5.97e-4 -0.08722,-0.01913 -0.102491,-0.04383 z"
       id="path4665"
       inkscape:connector-curvature="0"
       transform="matrix(0.26458333,0,0,0.26458333,0,283.77082)" />
    <path
       style="fill:#ffffff;fill-opacity:0.45588235;stroke-width:0.04419417"
       d="m 34.651208,18.243532 c -0.01527,-0.0247 -0.04627,-0.03347 -0.0689,-0.01949 -0.02263,0.01398 -0.04114,0.0044 -0.04114,-0.02138 0,-0.02574 -0.0242,-0.04183 -0.05377,-0.03575 -0.02958,0.0061 -0.08921,-0.05856 -0.132514,-0.143631 -0.235114,-0.461869 0.07843,-1.489876 0.731895,-2.399622 0.327592,-0.456071 0.939333,-1.117279 1.22216,-1.320987 0.109381,-0.07878 0.22372,-0.167373 0.254087,-0.196867 0.08058,-0.07826 0.524827,-0.237803 0.813559,-0.29217 0.445462,-0.08388 0.612761,0.05814 0.549277,0.466276 -0.03518,0.226198 -0.44636,1.086237 -0.535711,1.120525 -0.03533,0.01356 -0.05378,0.04158 -0.04099,0.06227 0.01279,0.02069 -0.02693,0.0705 -0.08826,0.110689 -0.06133,0.04019 -0.102522,0.08762 -0.09153,0.105399 0.01099,0.01778 -0.03945,0.07627 -0.112094,0.12998 -0.07264,0.05371 -0.121906,0.114104 -0.109476,0.134216 0.02997,0.04848 -0.592506,0.641775 -1.158759,1.104442 -0.249483,0.203845 -0.446505,0.377728 -0.437826,0.386407 0.05164,0.05164 0.555902,-0.222741 0.927452,-0.504647 0.238572,-0.181011 0.442184,-0.320694 0.452472,-0.310406 0.06161,0.06161 -0.764183,0.984279 -1.129306,1.261798 -0.182301,0.138561 -0.34189,0.266019 -0.354641,0.28324 -0.02548,0.0344 -0.374671,0.121822 -0.493489,0.123539 -0.0411,5.97e-4 -0.08722,-0.01913 -0.102491,-0.04383 z"
       id="path4667"
       inkscape:connector-curvature="0"
       transform="matrix(0.26458333,0,0,0.26458333,0,283.77082)" />
    <path
       style="fill:#ffffff;fill-opacity:0.45588235;stroke-width:0.04419417"
       d="m 34.651208,18.243532 c -0.01527,-0.0247 -0.04627,-0.03347 -0.0689,-0.01949 -0.02263,0.01398 -0.04114,0.0044 -0.04114,-0.02138 0,-0.02574 -0.03084,-0.0468 -0.06855,-0.0468 -0.0377,0 -0.09736,-0.06897 -0.132582,-0.15326 -0.238764,-0.571442 0.21068,-1.766024 1.034946,-2.750791 0.798439,-0.953913 1.284491,-1.303149 2.001595,-1.438177 0.445462,-0.08388 0.612761,0.05814 0.549277,0.466276 -0.04116,0.264643 -0.439724,1.060623 -0.622681,1.24358 -0.085,0.085 -0.154552,0.167269 -0.154552,0.182811 0,0.01554 -0.04972,0.06737 -0.110486,0.115166 -0.06077,0.0478 -0.110485,0.113229 -0.110485,0.1454 0,0.07281 -0.58862,0.629596 -1.160714,1.097939 -0.23733,0.19429 -0.423432,0.361331 -0.413561,0.371202 0.0465,0.0465 0.632003,-0.272193 0.943123,-0.513356 0.554226,-0.429603 0.554468,-0.370565 0.0011,0.269181 -0.482265,0.557546 -1.006179,0.987645 -1.280024,1.050817 -0.243687,0.05622 -0.332041,0.05643 -0.366372,8.8e-4 z"
       id="path4669"
       inkscape:connector-curvature="0"
       transform="matrix(0.26458333,0,0,0.26458333,0,283.77082)" />
    <path
       style="fill:#ffffff;fill-opacity:0.45588235;stroke-width:0.04419417"
       d="m 34.653825,18.247766 c -0.01671,-0.02703 -0.04889,-0.03771 -0.07152,-0.02372 -0.02263,0.01398 -0.04114,0.0044 -0.04114,-0.02138 0,-0.02574 -0.03084,-0.0468 -0.06855,-0.0468 -0.09622,0 -0.196619,-0.266464 -0.196619,-0.521841 0,-0.509328 0.32424,-1.324395 0.785721,-1.97513 0.326676,-0.460644 0.903611,-1.091961 1.238548,-1.35529 0.642585,-0.505205 1.536622,-0.679004 1.627628,-0.316407 0.09438,0.376055 -0.377147,1.350835 -0.878712,1.816533 -0.06684,0.06206 -0.121534,0.137321 -0.121534,0.167238 0,0.06923 -0.601249,0.635837 -1.160714,1.093841 -0.23733,0.19429 -0.423432,0.361331 -0.413561,0.371202 0.04708,0.04708 0.633914,-0.273675 0.952469,-0.5206 0.351201,-0.27223 0.490308,-0.322571 0.328533,-0.118891 -0.511884,0.644479 -1.091603,1.200089 -1.452397,1.391996 -0.142933,0.07603 -0.493486,0.115352 -0.528159,0.05925 z"
       id="path4671"
       inkscape:connector-curvature="0"
       transform="matrix(0.26458333,0,0,0.26458333,0,283.77082)" />
    <path
       style="fill:#ffffff;fill-opacity:0.45588235;stroke-width:0.04419417"
       d="m 34.618508,18.259617 c -0.04254,-0.01201 -0.07734,-0.04027 -0.07734,-0.0628 0,-0.02253 -0.03084,-0.04095 -0.06855,-0.04095 -0.09622,0 -0.196619,-0.266464 -0.196619,-0.521841 0,-0.722468 0.496051,-1.705594 1.350574,-2.676708 0.614632,-0.698494 1.112014,-1.023548 1.750004,-1.143679 0.609255,-0.114721 0.723077,0.212774 0.350371,1.008108 -0.193634,0.413202 -0.312911,0.598625 -0.584568,0.908743 -0.512399,0.584944 -0.720733,0.789978 -1.241953,1.222282 -0.309751,0.25691 -0.555516,0.474777 -0.546144,0.484149 0.04417,0.04417 0.616338,-0.268328 0.937102,-0.51182 0.553884,-0.420452 0.558448,-0.374062 0.02468,0.250904 -0.36372,0.425868 -0.85512,0.868455 -1.112574,1.002058 -0.127276,0.06605 -0.470492,0.113898 -0.584991,0.08156 z"
       id="path4673"
       inkscape:connector-curvature="0"
       transform="matrix(0.26458333,0,0,0.26458333,0,283.77082)" />
    <path
       style="fill:#ffffff;fill-opacity:0.45588235;stroke-width:0.04419417"
       d="m 34.618508,18.257982 c -0.04254,-0.01111 -0.07734,-0.03864 -0.07734,-0.06116 0,-0.02253 -0.03084,-0.04095 -0.06855,-0.04095 -0.09622,0 -0.196619,-0.266464 -0.196619,-0.521841 0,-0.319341 0.149734,-0.846985 0.357008,-1.258049 0.515514,-1.022367 1.580006,-2.171205 2.243153,-2.420892 0.532117,-0.200352 0.841854,-0.217452 1.003883,-0.05542 0.115931,0.115931 0.05836,0.470853 -0.147707,0.910586 -0.199292,0.425277 -0.317469,0.609473 -0.589956,0.919528 -0.105948,0.120555 -0.282126,0.32097 -0.391507,0.445366 -0.10938,0.124396 -0.45741,0.44494 -0.773398,0.71232 -0.315988,0.267379 -0.581342,0.50362 -0.589675,0.524978 -0.03631,0.09306 0.526046,-0.210651 0.885267,-0.478114 0.216022,-0.160843 0.40469,-0.28052 0.419262,-0.265948 0.01457,0.01457 -0.08524,0.161317 -0.221805,0.326099 -0.833191,1.005348 -1.388967,1.384517 -1.85202,1.263508 z"
       id="path4675"
       inkscape:connector-curvature="0"
       transform="matrix(0.26458333,0,0,0.26458333,0,283.77082)" />
    <path
       style="fill:#ffffff;fill-opacity:0.45588235;stroke-width:0.04419417"
       d="m 34.546498,18.21286 c -0.49864,-0.245647 -0.282522,-1.380229 0.47682,-2.503215 0.525642,-0.777369 1.362679,-1.570006 1.852846,-1.754563 1.057834,-0.398295 1.318641,-0.09356 0.809527,0.945882 -0.340964,0.696133 -0.904248,1.33282 -1.91182,2.160956 -0.2145,0.176301 -0.368833,0.327828 -0.342963,0.336727 0.07724,0.02657 0.527113,-0.225869 0.892197,-0.500653 0.187923,-0.141442 0.353839,-0.245008 0.368701,-0.230146 0.06711,0.06711 -0.780207,0.996933 -1.202065,1.319108 -0.384562,0.293691 -0.667896,0.361548 -0.943243,0.225904 z"
       id="path4677"
       inkscape:connector-curvature="0"
       transform="matrix(0.26458333,0,0,0.26458333,0,283.77082)" />
    <path
       style="fill:#ffffff;fill-opacity:0.45588235;stroke-width:0.04419417"
       d="m 37.899926,20.319967 c -0.222221,-0.03795 -0.34277,-0.114707 -0.422595,-0.269071 -0.09457,-0.182874 -0.0541,-0.391522 0.162983,-0.840431 0.493231,-1.01994 1.499424,-2.266401 2.333074,-2.890187 0.361448,-0.270456 0.391135,-0.283869 0.630274,-0.284779 0.381521,-0.0015 0.478701,0.136077 0.477591,0.675883 -8.64e-4,0.419981 -0.101794,0.829805 -0.28476,1.156267 -0.544135,0.970886 -1.145778,1.739528 -1.659131,2.119656 -0.3235,0.239546 -0.890361,0.391936 -1.237436,0.332662 z"
       id="path4679"
       inkscape:connector-curvature="0"
       transform="matrix(0.26458333,0,0,0.26458333,0,283.77082)" />
    <path
       style="fill:#ffffff;fill-opacity:0.45588235;stroke-width:0.04419417"
       d="m 37.899926,20.319967 c -0.344009,-0.05875 -0.515031,-0.271295 -0.463538,-0.576078 0.06219,-0.368107 0.54721,-1.221691 1.139789,-2.005914 0.348257,-0.460887 1.170217,-1.280506 1.521909,-1.517577 0.239995,-0.161777 0.306859,-0.185854 0.516125,-0.185854 0.368114,0 0.467695,0.142254 0.467695,0.668114 0,0.520808 -0.104,0.859174 -0.435553,1.417075 -0.566106,0.952583 -1.002194,1.492298 -1.508991,1.867572 -0.3235,0.239546 -0.890361,0.391936 -1.237436,0.332662 z"
       id="path4681"
       inkscape:connector-curvature="0"
       transform="matrix(0.26458333,0,0,0.26458333,0,283.77082)" />
    <path
       style="fill:#ffffff;fill-opacity:0.45588235;stroke-width:0.04419417"
       d="m 37.899926,20.320002 c -0.344048,-0.05884 -0.515029,-0.271342 -0.463538,-0.576113 0.06219,-0.368107 0.54721,-1.221691 1.139789,-2.005914 0.348257,-0.460887 1.170217,-1.280506 1.521909,-1.517577 0.240493,-0.162112 0.306608,-0.185854 0.51756,-0.185854 0.280617,0 0.402404,0.09332 0.449515,0.344444 0.04106,0.218863 -0.0092,0.83326 -0.08949,1.09405 -0.06636,0.215551 -0.44977,0.884343 -0.830339,1.448394 -0.216871,0.32143 -0.778701,0.914139 -1.030071,1.086684 -0.341725,0.234567 -0.871889,0.37062 -1.215339,0.311886 z"
       id="path4683"
       inkscape:connector-curvature="0"
       transform="matrix(0.26458333,0,0,0.26458333,0,283.77082)" />
    <path
       style="fill:#ffffff;fill-opacity:0.45588235;stroke-width:0.04419417"
       d="m 37.892681,20.319395 c -0.342502,-0.05724 -0.508097,-0.268882 -0.455226,-0.581821 0.07106,-0.420619 0.768646,-1.57755 1.39977,-2.3215 0.387613,-0.456906 0.923506,-0.963053 1.270234,-1.199728 0.231499,-0.158019 0.29779,-0.181802 0.506752,-0.181802 0.370033,0 0.468142,0.142179 0.467042,0.676838 -8.68e-4,0.422042 -0.101923,0.83002 -0.290657,1.173436 -0.497062,0.904446 -1.202889,1.799004 -1.675331,2.123298 -0.344071,0.236178 -0.870277,0.370153 -1.222584,0.311279 z"
       id="path4685"
       inkscape:connector-curvature="0"
       transform="matrix(0.26458333,0,0,0.26458333,0,283.77082)" />
    <path
       style="fill:#ffffff;fill-opacity:0.45588235;stroke-width:0.04419417"
       d="m 37.892681,20.319395 c -0.342502,-0.05724 -0.508097,-0.268882 -0.455226,-0.581821 0.041,-0.242664 0.359474,-0.869455 0.713856,-1.404933 0.560027,-0.846211 1.354216,-1.70542 1.956148,-2.116295 0.225749,-0.154095 0.300537,-0.181802 0.490717,-0.181802 0.279734,0 0.372787,0.04849 0.434887,0.226633 0.06927,0.198702 0.05936,0.717548 -0.02014,1.054998 -0.170229,0.722511 -1.237943,2.234028 -1.908216,2.701381 -0.325724,0.227114 -0.861194,0.360466 -1.212021,0.301839 z"
       id="path4687"
       inkscape:connector-curvature="0"
       transform="matrix(0.26458333,0,0,0.26458333,0,283.77082)" />
    <path
       style="fill:#ffffff;fill-opacity:0.45588235;stroke-width:0.04419417"
       d="m 32.245165,20.418659 c -0.276599,-0.276599 -0.275289,-1.074717 0.0036,-2.182788 0.255303,-1.014419 0.634578,-1.891892 1.222818,-2.829054 0.610286,-0.972286 1.070965,-1.544896 1.950612,-2.424552 1.613297,-1.613316 3.142594,-2.566189 4.500156,-2.803956 0.439814,-0.07703 0.738902,-0.04716 0.829996,0.0829 0.0942,0.134491 0.08146,0.67371 -0.02681,1.134884 -0.05028,0.214173 -0.118124,0.398852 -0.151178,0.411536 -0.03298,0.01266 -0.144574,0.148535 -0.247985,0.301955 -0.482895,0.716412 -2.026351,2.748791 -2.061119,2.714023 -0.0069,-0.0069 0.04831,-0.159846 0.122657,-0.339915 0.234572,-0.568143 0.230456,-0.864517 -0.01407,-1.013613 -0.289404,-0.176457 -0.782892,-0.08064 -1.534562,0.29797 -0.647435,0.326103 -1.041142,0.610245 -1.547279,1.116687 -0.738203,0.738646 -1.344249,1.684749 -1.530598,2.389427 -0.103268,0.390508 -0.104171,0.904869 -0.0019,1.093581 0.101884,0.188033 0.318014,0.318079 0.528977,0.318288 0.207761,2.21e-4 0.645283,-0.144329 0.874041,-0.288738 0.09483,-0.05986 0.184136,-0.108844 0.198456,-0.108844 0.05624,0 -0.557016,0.700292 -0.996551,1.137992 -0.827442,0.823987 -1.29866,1.115911 -1.801285,1.115911 -0.153807,0 -0.220006,-0.02575 -0.317942,-0.123691 z"
       id="path4695"
       inkscape:connector-curvature="0"
       transform="matrix(0.26458333,0,0,0.26458333,0,283.77082)" />
    <path
       style="fill:#ffffff;fill-opacity:0.45588235;stroke-width:0.04419417"
       d="m 32.245165,20.418659 c -0.282672,-0.282671 -0.275548,-1.088564 0.01981,-2.240698 0.477224,-1.861573 1.496203,-3.539074 3.155862,-5.195363 1.649362,-1.646011 3.218707,-2.610804 4.589749,-2.821659 0.392362,-0.06034 0.653941,-0.0251 0.7415,0.09991 0.09473,0.135239 0.08176,0.673866 -0.02741,1.138884 -0.05064,0.215693 -0.109404,0.392169 -0.13059,0.392169 -0.02119,0 -0.182893,0.203846 -0.359351,0.452991 -0.740856,1.046035 -1.93567,2.612524 -1.968001,2.580194 -0.0077,-0.0077 0.04683,-0.16133 0.121173,-0.341399 0.234572,-0.568143 0.230456,-0.864517 -0.01407,-1.013613 -0.264952,-0.161548 -0.708234,-0.09061 -1.383614,0.221416 -1.246023,0.575664 -2.345925,1.668428 -2.964826,2.945585 -0.458484,0.946123 -0.475819,1.69413 -0.04555,1.965476 0.213124,0.134405 0.5631,0.09202 0.994087,-0.120396 0.187353,-0.09234 0.359352,-0.176619 0.38222,-0.187292 0.09278,-0.0433 -0.557679,0.699897 -0.989613,1.130708 -0.823245,0.821107 -1.300707,1.116777 -1.803425,1.116777 -0.153807,0 -0.220006,-0.02575 -0.317942,-0.123691 z"
       id="path4697"
       inkscape:connector-curvature="0"
       transform="matrix(0.26458333,0,0,0.26458333,0,283.77082)" />
    <path
       style="fill:#ffffff;fill-opacity:0.45588235;stroke-width:0.04419417"
       d="m 32.292431,20.470283 c -0.529136,-0.370622 -0.175562,-2.517304 0.695574,-4.223097 0.99682,-1.951898 2.824146,-3.934852 4.779338,-5.186379 1.147445,-0.734485 2.732958,-1.1594267 2.98474,-0.799957 0.09473,0.135239 0.08176,0.673866 -0.02741,1.138884 -0.05064,0.215693 -0.109404,0.392169 -0.13059,0.392169 -0.02119,0 -0.182893,0.203846 -0.359351,0.452991 -0.740856,1.046035 -1.93567,2.612524 -1.968001,2.580194 -0.0077,-0.0077 0.04683,-0.16133 0.121173,-0.341399 0.234572,-0.568143 0.230456,-0.864517 -0.01407,-1.013613 -0.267767,-0.163264 -0.747173,-0.0808 -1.428853,0.245787 -0.621116,0.29757 -1.183425,0.69724 -1.674602,1.190252 -1.185722,1.190151 -1.8669,2.766245 -1.501197,3.473436 0.184853,0.357466 0.613558,0.393978 1.20475,0.102606 0.187353,-0.09234 0.359352,-0.176619 0.38222,-0.187292 0.09278,-0.0433 -0.557679,0.699897 -0.989613,1.130708 -0.582157,0.580645 -1.081742,0.960147 -1.38092,1.048993 -0.295758,0.08783 -0.564037,0.08617 -0.693181,-0.0043 z"
       id="path4699"
       inkscape:connector-curvature="0"
       transform="matrix(0.26458333,0,0,0.26458333,0,283.77082)" />
    <path
       style="fill:#ffffff;fill-opacity:0.45588235;stroke-width:0.04419417"
       d="m 35.487381,23.323169 c -0.09941,-0.02375 -0.287769,-0.107274 -0.418584,-0.185611 -0.628835,-0.376574 -0.667547,-1.216519 -0.107387,-2.330043 0.388712,-0.772711 0.987318,-1.694727 1.762045,-2.714029 0.885579,-1.16515 3.220505,-4.028479 3.319777,-4.071055 0.05831,-0.02501 0.239852,-0.223884 0.40342,-0.441942 0.441964,-0.5892 0.675996,-0.853887 0.877694,-0.992658 0.156342,-0.107567 0.204834,-0.119858 0.355978,-0.09023 0.397242,0.07786 0.795854,0.340272 0.971077,0.639267 0.232348,0.396471 0.146547,0.735052 -0.58727,2.317458 l -0.335516,0.723506 -0.09821,-0.222534 c -0.123665,-0.280212 -0.220781,-0.332778 -0.573328,-0.31033 -0.211629,0.01348 -0.357449,0.05803 -0.610818,0.186634 -1.125737,0.571394 -2.016437,1.4105 -2.905599,2.737289 -0.589657,0.879872 -0.801132,1.392826 -0.705632,1.711578 0.0832,0.277702 0.409557,0.481902 0.771313,0.482608 0.267394,5.21e-4 0.776138,-0.161059 1.210615,-0.3845 0.249144,-0.128129 0.45299,-0.220935 0.45299,-0.206237 0,0.09362 -1.646617,2.058435 -2.131083,2.542901 -0.566032,0.566032 -0.668249,0.624933 -1.109504,0.639327 -0.198681,0.0065 -0.442571,-0.0076 -0.541977,-0.0314 z"
       id="path4701"
       inkscape:connector-curvature="0"
       transform="matrix(0.26458333,0,0,0.26458333,0,283.77082)" />
    <path
       style="fill:#ffffff;fill-opacity:0.45588235;stroke-width:0.04419417"
       d="m 35.487381,23.323169 c -0.09941,-0.02375 -0.287769,-0.107274 -0.418584,-0.185611 -0.628835,-0.376574 -0.667547,-1.216519 -0.107387,-2.330043 0.386564,-0.76844 0.916837,-1.590685 1.675664,-2.598295 0.872951,-1.159149 3.301249,-4.141658 3.419705,-4.200185 0.06553,-0.03238 0.238471,-0.220807 0.384312,-0.418732 0.405066,-0.549728 0.722061,-0.908898 0.902956,-1.023093 0.135056,-0.08526 0.194396,-0.09745 0.337559,-0.06938 0.599725,0.11761 1.079679,0.571764 1.079679,1.021641 0,0.114215 -0.04089,0.340051 -0.09087,0.501859 -0.09084,0.294107 -0.573718,1.40789 -0.822271,1.89661 l -0.131746,0.259049 -0.07854,-0.205642 c -0.108542,-0.284213 -0.222836,-0.349177 -0.57488,-0.32676 -0.328818,0.02094 -0.709509,0.19583 -1.368376,0.628643 -0.768624,0.504913 -1.750566,1.60474 -2.41238,2.701992 -0.573381,0.950635 -0.6076,1.395697 -0.128985,1.677611 0.117359,0.06913 0.222292,0.08714 0.481517,0.08268 0.379712,-0.0065 0.771786,-0.132875 1.304994,-0.420484 0.181605,-0.09796 0.33019,-0.16492 0.33019,-0.148809 0,0.101013 -1.615811,2.033749 -2.130815,2.548753 -0.566317,0.566318 -0.668485,0.6252 -1.109772,0.639595 -0.198681,0.0065 -0.442571,-0.0076 -0.541977,-0.0314 z"
       id="path4703"
       inkscape:connector-curvature="0"
       transform="matrix(0.26458333,0,0,0.26458333,0,283.77082)" />
    <path
       style="fill:#ffffff;fill-opacity:0.45588235;stroke-width:0.04419417"
       d="m 35.487381,23.323169 c -0.09941,-0.02375 -0.287769,-0.107274 -0.418584,-0.185611 -0.628835,-0.376574 -0.667547,-1.216519 -0.107387,-2.330043 0.384728,-0.764791 0.895208,-1.557203 1.666249,-2.586499 0.795763,-1.0623 3.299838,-4.141977 3.43433,-4.223766 0.07052,-0.04289 0.28336,-0.282831 0.472972,-0.533208 0.436152,-0.575923 0.616667,-0.775363 0.815261,-0.90073 0.136911,-0.08643 0.186337,-0.09471 0.365479,-0.06124 0.357246,0.06674 0.731534,0.314535 0.917117,0.607169 0.230234,0.363042 0.162774,0.730076 -0.341131,1.856024 -0.446119,0.996827 -0.577768,1.240519 -0.613472,1.135573 -0.14755,-0.433708 -0.218666,-0.485169 -0.625373,-0.452522 -0.337011,0.02705 -0.707823,0.197661 -1.358233,0.624919 -1.182278,0.776644 -2.84556,2.995967 -2.871018,3.830808 -0.01221,0.400428 0.284357,0.638892 0.789072,0.634478 0.36983,-0.0032 0.648691,-0.08929 1.226389,-0.378445 0.236991,-0.118623 0.430893,-0.204178 0.430893,-0.190121 0,0.09769 -1.628271,2.042473 -2.130815,2.545018 -0.566317,0.566318 -0.668485,0.6252 -1.109772,0.639595 -0.198681,0.0065 -0.442571,-0.0076 -0.541977,-0.0314 z"
       id="path4705"
       inkscape:connector-curvature="0"
       transform="matrix(0.26458333,0,0,0.26458333,0,283.77082)" />
  </g>
</svg>
