<?xml version="1.0" encoding="UTF-8" standalone="no"?>
<!-- Created with Inkscape (http://www.inkscape.org/) -->

<svg
   xmlns:dc="http://purl.org/dc/elements/1.1/"
   xmlns:cc="http://creativecommons.org/ns#"
   xmlns:rdf="http://www.w3.org/1999/02/22-rdf-syntax-ns#"
   xmlns:svg="http://www.w3.org/2000/svg"
   xmlns="http://www.w3.org/2000/svg"
   xmlns:sodipodi="http://sodipodi.sourceforge.net/DTD/sodipodi-0.dtd"
   xmlns:inkscape="http://www.inkscape.org/namespaces/inkscape"
   width="50"
   height="50"
   viewBox="0 0 13.229166 13.229167"
   version="1.1"
   id="svg8"
   sodipodi:docname="squid_terror.svg"
   inkscape:version="0.91 r13725">
  <defs
     id="defs2" />
  <sodipodi:namedview
     id="base"
     pagecolor="#ffffff"
     bordercolor="#666666"
     borderopacity="1.0"
     inkscape:pageopacity="0.0"
     inkscape:pageshadow="2"
     inkscape:zoom="22.627417"
     inkscape:cx="9.8764005"
     inkscape:cy="21.750187"
     inkscape:document-units="mm"
     inkscape:current-layer="layer1"
     showgrid="false"
     units="px"
     inkscape:window-width="2450"
     inkscape:window-height="1392"
     inkscape:window-x="110"
     inkscape:window-y="48"
     inkscape:window-maximized="1" />
  <metadata
     id="metadata5">
    <rdf:RDF>
      <cc:Work
         rdf:about="">
        <dc:format>image/svg+xml</dc:format>
        <dc:type
           rdf:resource="http://purl.org/dc/dcmitype/StillImage" />
        <dc:title />
      </cc:Work>
    </rdf:RDF>
  </metadata>
  <g
     inkscape:label="Layer 1"
     inkscape:groupmode="layer"
     id="layer1"
     transform="translate(0,-283.77082)">
    <path
       style="fill:#000000;stroke-width:0.26458332"
       id="path94"
       d="m 5.3928642,291.01368 c 0.040509,-0.055 0.081552,-0.10969 0.1215281,-0.16511 0.1475005,-0.20452 0.2928176,-0.4106 0.4387443,-0.61623 0.2834269,-0.39941 0.5655206,-0.79973 0.8465087,-1.20085 0.3487391,-0.4979 0.7064449,-0.98941 1.0566572,-1.48626 0.110341,-0.1519 0.2140741,-0.3083 0.3133357,-0.46761 0.035951,-0.0509 0.061959,-0.10754 0.092728,-0.16144 0.02095,-0.0297 0.027447,-0.0632 0.030877,-0.0986 0.00411,-0.0408 0.00254,-0.0806 -0.00683,-0.12039 -0.023951,-0.0706 -0.071859,-0.13064 -0.1166645,-0.18922 -0.069949,-0.0892 -0.1519,-0.16769 -0.2325781,-0.24695 -0.055849,-0.0515 -0.1098182,-0.10503 -0.1636826,-0.15861 -0.015984,-0.0173 -0.0554,-0.0391 -0.049661,-0.0684 0.00108,-0.006 0.005,-0.0101 0.0075,-0.0152 0.05729,-0.0312 0.1127956,-0.066 0.1718707,-0.0937 0.011234,-0.005 0.024622,-0.003 0.036981,-0.004 0.015767,-10e-4 0.031551,-0.003 0.04737,-0.003 0.074434,-0.003 0.1493901,-2e-5 0.2238523,-1.8e-4 0.1910287,2.8e-4 0.3824248,-0.007 0.571984,-0.0316 0.045439,-0.006 0.090631,-0.0137 0.1359463,-0.0206 0.2053757,-0.0337 0.4070416,-0.0871 0.6048121,-0.15147 0.1274331,-0.0415 0.1998914,-0.0698 0.3261744,-0.11668 0.3357352,-0.12709 0.6581542,-0.28603 0.9773602,-0.44947 0.138805,-0.0717 0.276126,-0.14624 0.412247,-0.2229 0.0066,-0.004 -0.02645,0.0145 -0.02004,0.0105 0.06531,-0.0407 0.13158,-0.0798 0.197084,-0.12011 0.157559,-0.10047 0.319771,-0.19309 0.481775,-0.2861 0.0087,-0.003 0.01694,-0.009 0.02622,-0.0105 0.06844,-0.0117 0.03827,0.13411 0.03461,0.16121 -0.03883,0.22835 -0.06845,0.45781 -0.0904,0.68836 -0.02247,0.27071 -0.03069,0.54268 -0.02277,0.81424 0.0016,0.0538 0.0046,0.10752 0.0069,0.16128 0.0137,0.25606 0.04625,0.51125 0.103304,0.76138 0.01076,0.0472 0.02348,0.0939 0.03523,0.14081 0.06306,0.25037 0.144281,0.49549 0.230081,0.73883 0.03609,0.10795 0.0811,0.21248 0.122762,0.31829 0.04142,0.11358 -0.01458,0.0885 -0.151309,0.16179 -0.05528,-0.0171 -0.107523,-0.044 -0.160625,-0.0671 -0.08778,-0.0365 -0.172824,-0.079 -0.259619,-0.11755 -0.08074,-0.0354 -0.16507,-0.0615 -0.247595,-0.0922 -0.04833,-0.0181 -0.09712,-0.0344 -0.148083,-0.0431 -0.02677,-0.004 -0.05389,-0.004 -0.08089,-0.004 -0.01178,0.003 -0.03594,-0.003 -0.04647,3.2e-4 -0.0034,10e-4 -0.01132,0.009 -0.0082,0.007 0.04664,-0.0248 0.09253,-0.051 0.138796,-0.0765 -0.004,0.006 -0.0083,0.0118 -0.01201,0.018 -0.02146,0.0361 -0.03868,0.0747 -0.05925,0.11124 -0.02306,0.041 -0.04644,0.078 -0.07118,0.11829 -0.07497,0.11797 -0.14621,0.23838 -0.223644,0.35477 -0.05359,0.0806 -0.09837,0.14258 -0.154527,0.22193 -0.236347,0.32526 -0.484004,0.6422 -0.733389,0.95751 -0.3320698,0.42643 -0.6659152,0.85145 -0.9958972,1.2795 -0.248648,0.31627 -0.4956617,0.63374 -0.7396168,0.95363 -0.1092512,0.14413 -0.2234581,0.28444 -0.3421287,0.42089 -0.058576,0.0655 -0.115579,0.13204 -0.1698456,0.20112 -0.03279,0.0386 -0.057723,0.0826 -0.08508,0.12498 -0.017216,0.0291 -0.039293,0.0544 -0.061803,0.0793 -0.019108,0.0198 -0.040473,0.0374 -0.061455,0.0552 -0.066186,0.0502 -0.136243,0.10573 -0.2195423,0.11778 -0.024111,0.003 -0.0484,0.002 -0.072606,0.002 -0.052395,0.004 -0.08848,-0.0125 -0.1343326,-0.036 -0.1177275,-0.0704 -0.232604,-0.14571 -0.3463759,-0.22236 -0.1704231,-0.11833 -0.3378136,-0.24094 -0.5085336,-0.35885 -0.1806739,-0.12323 -0.3620447,-0.24544 -0.5424038,-0.36914 -0.1478209,-0.10082 -0.2939381,-0.20406 -0.4389556,-0.30886 -0.094683,-0.0664 -0.1840773,-0.14008 -0.2641656,-0.22353 -0.037989,-0.0435 -0.078806,-0.0891 -0.095005,-0.1461 -0.00273,-0.01 -0.00394,-0.0196 -0.00592,-0.0294 -0.00717,-0.0742 0.014962,-0.14443 0.044606,-0.21137 0.047977,-0.093 0.1151302,-0.17438 0.181959,-0.2543 0.06951,-0.0795 0.1439772,-0.15436 0.217629,-0.22997 0.050388,-0.0504 0.095604,-0.10515 0.1350701,-0.1644 0.021323,-0.0344 0.045043,-0.0671 0.066668,-0.10128 0.00704,-0.0111 0.01165,-0.0234 0.016452,-0.0356 0,0 0.1580325,-0.0731 0.1580325,-0.0731 v 0 c -0.0052,0.0128 -0.00909,0.026 -0.015526,0.0383 -0.020645,0.0353 -0.046176,0.0674 -0.067562,0.1023 -0.039067,0.0608 -0.084445,0.11688 -0.1354526,0.16819 -0.073939,0.0756 -0.1488239,0.15024 -0.2191726,0.22925 -0.066508,0.0785 -0.1327039,0.15879 -0.1822707,0.24941 -0.030104,0.0633 -0.052636,0.13017 -0.048172,0.20136 0.00151,0.009 0.00228,0.0181 0.00456,0.0269 0.014269,0.055 0.054077,0.0988 0.089916,0.14081 0.078872,0.0829 0.1668732,0.15618 0.260024,0.22256 0.1437466,0.10575 0.2893642,0.20891 0.4365035,0.30988 0.1799802,0.12411 0.3607327,0.24705 0.5417881,0.36957 0.1709547,0.11794 0.3386235,0.24058 0.5103648,0.35739 0.1142675,0.0759 0.2294687,0.15095 0.3493691,0.21766 0.021878,0.0101 0.035503,0.0178 0.058377,0.0236 0.024027,0.006 0.048866,0.004 0.073356,0.005 0.023603,-2e-4 0.047428,-5e-5 0.07066,-0.005 0.00976,-0.003 0.013002,-0.003 0.022352,-0.007 0.00377,-0.002 0.01456,-0.007 0.011036,-0.005 -0.2462339,0.14565 -0.1629307,0.0999 -0.1142312,0.0645 0.02195,-0.0161 0.041124,-0.0357 0.06255,-0.0525 0.022376,-0.0247 0.046155,-0.0482 0.063454,-0.077 0.027718,-0.043 0.053306,-0.0875 0.085834,-0.12716 0.055554,-0.0691 0.1113028,-0.13782 0.1717638,-0.20285 0.1217787,-0.13715 0.2389007,-0.27843 0.3511095,-0.42353 0.2479802,-0.32034 0.4975016,-0.63943 0.7484184,-0.95746 0.3313009,-0.42715 0.6659237,-0.85167 0.9960517,-1.27972 0.2460853,-0.31363 0.4903113,-0.6289 0.7234483,-0.95233 0.05524,-0.0784 0.100119,-0.14083 0.152833,-0.22042 0.0765,-0.11552 0.146717,-0.23509 0.219911,-0.35269 0.04876,-0.0807 0.09653,-0.16172 0.135856,-0.24752 0.143413,-0.0901 0.113036,-0.103 0.216918,-0.10104 0.02753,3.7e-4 0.05512,0.002 0.08219,0.007 0.05085,0.0107 0.09977,0.0279 0.148237,0.0466 0.08244,0.0311 0.166581,0.0579 0.247147,0.0938 0.08673,0.0389 0.172057,0.0809 0.260026,0.117 0.02505,0.0106 0.05014,0.0212 0.07516,0.0319 0.02597,0.0111 0.05344,0.0273 0.08259,0.0254 -0.04724,0.0277 -0.09529,0.054 -0.141705,0.083 -0.0023,0.001 0.0055,0.002 0.008,5.8e-4 0.0023,-9.5e-4 0.0039,-0.003 0.0047,-0.006 0.0055,-0.0164 -0.0065,-0.0361 -0.0098,-0.0511 -0.03885,-0.10742 -0.0823,-0.21318 -0.116686,-0.32221 -0.08278,-0.24511 -0.163465,-0.49119 -0.227063,-0.74211 -0.01176,-0.0472 -0.02453,-0.0941 -0.03529,-0.14153 -0.05701,-0.2511 -0.08962,-0.50728 -0.103316,-0.76428 -0.0135,-0.32558 -0.01386,-0.65174 0.01348,-0.97674 0.01206,-0.13534 0.02525,-0.27031 0.04296,-0.40505 0.01668,-0.12688 0.01221,-0.0822 0.02901,-0.20106 0.0037,-0.0263 0.007,-0.0527 0.01046,-0.079 0.0013,-0.0108 0.02198,-0.12635 -0.0025,-0.1316 -0.01086,-0.002 -0.03377,0.0109 -0.03993,0.0137 0.03766,-0.0219 0.07533,-0.0439 0.11298,-0.0658 0.01404,-0.008 -0.02809,0.0163 -0.04215,0.0245 -0.08953,0.0519 -0.177872,0.10564 -0.265757,0.16026 -0.282861,0.17384 -0.570438,0.34011 -0.866307,0.49095 -0.319494,0.1627 -0.642063,0.32104 -0.9779293,0.44755 -0.3047479,0.11273 -0.6138265,0.21778 -0.9360649,0.26793 -0.045661,0.007 -0.091197,0.0146 -0.1369851,0.0206 -0.1910072,0.0249 -0.3838234,0.0318 -0.5762609,0.0326 -0.075261,8e-4 -0.1512462,-0.001 -0.2264072,0.004 -0.015888,0.001 -0.031757,0.003 -0.047515,0.005 -0.012213,0.002 -0.04596,0.0149 -0.036309,0.007 0.038642,-0.0308 0.083824,-0.0523 0.1257361,-0.0785 -0.00415,10e-4 -0.00879,10e-4 -0.012449,0.004 -0.015425,0.01 0.035852,0.0496 0.040944,0.0559 0.052893,0.0542 0.1061114,0.108 0.1612696,0.15986 0.08092,0.0801 0.1628974,0.15952 0.2338385,0.24884 0.047026,0.06 0.096756,0.1214 0.1228534,0.19392 0.010724,0.0413 0.013769,0.0826 0.00963,0.12527 -0.00251,0.037 -0.00594,0.0743 -0.027547,0.10582 -0.033495,0.0535 -0.057592,0.11253 -0.09585,0.16326 -0.1026522,0.16139 -0.2095653,0.32005 -0.3240614,0.47334 -0.3614391,0.49941 -0.7295057,0.99404 -1.0843924,1.49818 -0.4597905,0.65253 -0.921254,1.30403 -1.3677259,1.96579 0,0 -0.1559378,0.0672 -0.1559378,0.0672 z"
       inkscape:connector-curvature="0" />
    <path
       style="fill:#000000;stroke-width:0.26458332"
       id="path132"
       d="m 7.4146787,289.40187 c -0.1566201,0.30036 -0.3280457,0.59268 -0.5029594,0.88266 -0.1807025,0.28983 -0.3746084,0.57113 -0.5814591,0.84286 -0.038987,0.0504 -0.079005,0.10007 -0.1181606,0.15037 -0.015793,0.0203 -0.030814,0.04 -0.042954,0.0626 -0.00212,0.008 -0.00534,0.0126 -0.00138,0.0202 0.00997,0.0191 0.046767,0.0333 0.064229,0.0414 0.123026,0.0529 0.2471108,0.10342 0.3712337,0.15372 0.1984433,0.0783 0.3906499,0.17031 0.5780209,0.27204 0.1279036,0.0706 0.2520127,0.14805 0.3653171,0.24046 0.046893,0.035 0.084298,0.0802 0.1262168,0.12053 0.00768,0.006 0.014089,0.0131 0.024585,0.0139 0.030407,0.002 0.095466,-0.0388 0.1187752,-0.0519 -0.028578,0.0154 -0.055115,0.0568 -0.085734,0.0461 -0.027329,-0.01 0.047103,-0.0337 0.069864,-0.0516 0.1327475,-0.10439 0.2497852,-0.22579 0.3658124,-0.34797 0.1825574,-0.20484 0.3622421,-0.41217 0.5469943,-0.61507 0.1078732,-0.11659 0.2124934,-0.23613 0.3115929,-0.36028 0.04049,-0.0485 0.071627,-0.10316 0.1012743,-0.15861 0.018703,-0.0363 0.040465,-0.071 0.056361,-0.10863 0.00948,-0.0234 0.011806,-0.0483 0.012814,-0.0733 -4.762e-4,-0.0433 -0.047284,-0.058 -0.079774,-0.0751 -0.1566796,-0.0738 -0.3192801,-0.13381 -0.4803746,-0.19704 -0.2055037,-0.0781 -0.3999497,-0.18078 -0.59153,-0.28776 -0.1431563,-0.0842 -0.2884694,-0.16457 -0.4331168,-0.24613 -0.064581,-0.0402 -0.1318168,-0.076 -0.1953207,-0.11797 -0.047338,-0.0326 -0.024249,-0.0171 -0.069192,-0.0465 -0.041096,-0.0218 -0.072925,-0.0565 -0.1113129,-0.082 -0.059126,-0.0307 -0.1088503,0.0262 0.1003165,-0.0695 0,0 -0.1585087,0.0677 -0.1585087,0.0677 v 0 c 0.1199481,-0.0761 0.1238515,-0.14121 0.2048341,-0.0916 0.036806,0.027 0.06915,0.0601 0.1090933,0.0829 0.085447,0.0577 0.1717579,0.1138 0.2613144,0.16509 0.1437417,0.082 0.2877253,0.16359 0.4300706,0.24802 0.190699,0.10722 0.3850045,0.20867 0.5900936,0.28597 0.1628934,0.0633 0.3273145,0.12306 0.4867013,0.19496 0.040164,0.0205 0.088242,0.0393 0.092176,0.0904 -5.821e-4,0.0266 -0.00198,0.0534 -0.010597,0.0789 -0.014507,0.039 -0.037014,0.074 -0.056208,0.11082 -0.030789,0.0564 -0.060644,0.1134 -0.1026819,0.1626 -0.100924,0.12552 -0.2076813,0.24615 -0.3174908,0.36396 -0.1860888,0.20267 -0.3668903,0.40999 -0.5490286,0.6162 -0.090761,0.0968 -0.181814,0.19286 -0.2807457,0.28149 -0.024635,0.0221 -0.1142143,0.0984 -0.1465059,0.11904 -0.066576,0.0426 -0.1357323,0.0811 -0.2035982,0.12165 -0.035546,0.0187 -0.087565,0.0558 -0.1313608,0.0413 -0.011205,-0.004 -0.018828,-0.0118 -0.027449,-0.0192 -0.040338,-0.0409 -0.07743,-0.0852 -0.1228865,-0.12083 -0.1105974,-0.093 -0.2331008,-0.17009 -0.3590637,-0.24059 -0.1868802,-0.10185 -0.3788558,-0.19362 -0.5777214,-0.26991 -0.1259184,-0.0497 -0.2518259,-0.0996 -0.3770429,-0.15105 -0.027959,-0.0134 -0.074202,-0.032 -0.078579,-0.0687 -6.35e-4,-0.005 0.00101,-0.0107 0.00151,-0.0161 0.010978,-0.0256 0.026497,-0.0455 0.043979,-0.0674 0.040894,-0.0511 0.083117,-0.10115 0.1238009,-0.15243 0.2124885,-0.2714 0.4112311,-0.55331 0.5933551,-0.84606 0.172194,-0.28541 0.3398404,-0.57409 0.4865201,-0.87361 0,0 0.1558771,-0.0708 0.1558771,-0.0708 z"
       inkscape:connector-curvature="0" />
    <path
       style="fill:#000000;stroke-width:0.26458332"
       id="path162"
       d="m 6.1110613,290.23491 c -0.089359,0.0928 -0.1915557,0.17292 -0.2956486,0.24839 -0.141588,0.10264 -0.2480664,0.17149 -0.4014808,0.25984 -0.115606,0.0666 -0.2332929,0.12948 -0.3499393,0.19422 -0.1750763,0.0831 -0.2448753,0.12415 -0.4298661,0.18096 -0.1307092,0.0401 -0.283268,0.0698 -0.4196882,0.0838 -0.1563267,0.0161 -0.1935353,0.009 -0.3452312,0.001 -0.1598292,-0.019 -0.3179352,-0.0597 -0.4571918,-0.14272 -0.067193,-0.0401 -0.097414,-0.0681 -0.1580205,-0.11718 -0.1445451,-0.12832 -0.2760586,-0.27061 -0.4078545,-0.41177 -0.1002545,-0.10867 -0.2071005,-0.21132 -0.3237625,-0.30236 -0.023159,-0.0181 -0.047231,-0.0349 -0.070847,-0.0524 -0.1149342,-0.0862 -0.2428883,-0.15296 -0.3824617,-0.18869 -0.026272,-0.007 -0.053097,-0.0111 -0.079645,-0.0166 -0.1005084,-0.0181 -0.2009252,-0.01 -0.2955529,0.0296 -0.025207,0.0105 -0.046391,0.0403 -0.073406,0.0363 -0.026298,-0.004 0.047182,-0.0245 0.070774,-0.0367 -0.1011202,0.0704 -0.1796336,0.16351 -0.2317376,0.27526 -0.033344,0.0715 -0.038252,0.10159 -0.059146,0.17726 -0.022949,0.1196 -0.018902,0.24365 0.017312,0.36046 0.021679,0.0699 0.035806,0.0885 0.070355,0.15185 0.08424,0.12674 0.1850974,0.19219 0.3291295,0.23743 0.029067,0.009 0.058937,0.0155 0.088406,0.0232 0.1793926,0.0392 0.3636293,0.0393 0.5462381,0.0447 0.1184206,0.006 0.2386829,0.0113 0.3542042,0.0405 0.019026,0.005 0.037575,0.0114 0.056363,0.017 0.075796,0.0277 0.1541835,0.0635 0.2097497,0.12429 0.00936,0.0102 0.016923,0.022 0.025384,0.033 0.038526,0.0637 0.050387,0.13451 0.028391,0.2064 -0.00491,0.0161 -0.012285,0.0312 -0.018428,0.0469 -0.049464,0.099 -0.1153956,0.18981 -0.1935061,0.26828 -0.018918,0.019 -0.039138,0.0367 -0.058707,0.055 -0.021701,0.0179 -0.042763,0.0366 -0.0651,0.0537 -0.03939,0.0301 -0.1036269,0.0734 -0.1463566,0.0985 -0.078482,0.046 -0.2024927,0.1204 -0.2988514,0.16436 -0.026919,0.0123 -0.054601,0.0228 -0.081902,0.0342 -0.1145834,0.0441 -0.2336801,0.0755 -0.3551364,0.0935 -0.077305,0.0114 -0.1108235,0.0127 -0.1892091,0.0188 -0.1551968,0.0129 -0.3120219,0.0148 -0.4659673,0.0403 -0.028551,0.005 -0.056807,0.0111 -0.08521,0.0166 -0.027499,0.007 -0.055251,0.0122 -0.082498,0.0198 -0.04652,0.0129 -0.10602049,0.0335 -0.15032611,0.0534 -0.0229719,0.0103 -0.0887424,0.0475 -0.0673918,0.0342 0.0248404,-0.0155 0.0550088,-0.059 0.0778979,-0.0407 0.0215805,0.0172 -0.0438529,0.0336 -0.0657794,0.0504 -0.11125493,0.0986 -0.20129055,0.22215 -0.25305837,0.36229 -0.009373,0.0254 -0.0154744,0.0518 -0.0232114,0.0778 -0.0254273,0.12406 -0.0138311,0.25237 0.0409942,0.36742 0.0103402,0.0217 0.023677,0.0418 0.0355157,0.0627 0.0819975,0.11213 0.19656928,0.19363 0.32511208,0.24482 0.027209,0.0108 0.055433,0.0189 0.08315,0.0284 0.1097122,0.0297 0.2241086,0.041 0.3373598,0.0287 0.059885,-0.006 0.083833,-0.0147 0.1410353,-0.0295 -0.035529,0.0282 0.1521214,-0.0709 0.1134006,-0.0547 -0.031755,0.0133 -0.057871,0.0423 -0.091967,0.0469 -0.021668,0.003 0.034551,-0.0269 0.050997,-0.0413 0.036824,-0.0323 0.065612,-0.0634 0.099757,-0.0985 0.09775,-0.10219 0.1874516,-0.21158 0.2806324,-0.31787 0.060017,-0.0672 0.1224643,-0.13279 0.1937923,-0.18822 0.043362,-0.0337 0.060429,-0.0433 0.105959,-0.0725 0.1159402,-0.0676 0.2430596,-0.16441 0.3872829,-0.1491 0.013909,0.001 0.027504,0.005 0.041257,0.008 0.013131,0.005 0.027005,0.009 0.039392,0.016 0.06075,0.0338 0.095595,0.0982 0.106925,0.16512 0.00406,0.024 0.00368,0.0486 0.00552,0.0728 -0.00704,0.18922 -0.07928,0.36722 -0.1642004,0.53405 -0.025109,0.0493 -0.052668,0.0974 -0.079003,0.14607 -0.1091718,0.19679 -0.2211887,0.39221 -0.3210996,0.59397 -0.05694,0.11498 -0.063028,0.13305 -0.1125992,0.2479 -0.056165,0.14791 -0.1152778,0.3028 -0.1102566,0.46391 7.065e-4,0.0227 0.00447,0.0452 0.0067,0.0678 0.015271,0.0802 0.044495,0.15762 0.097776,0.2206 0.035428,0.0419 0.05378,0.0526 0.097062,0.0864 0.085646,0.0575 0.1827543,0.10001 0.2880277,0.0935 0.018495,-0.001 0.036683,-0.005 0.055025,-0.008 -0.02661,0.032 0.1383795,-0.0607 0.1063739,-0.0404 -0.030444,0.0194 -0.060487,0.0411 -0.094804,0.0522 -0.019294,0.006 0.032854,-0.0239 0.048228,-0.0371 0.042695,-0.0367 0.054077,-0.0531 0.091275,-0.0959 0.092824,-0.11645 0.1470691,-0.25599 0.1976588,-0.39445 0.043785,-0.12851 0.082384,-0.25857 0.136135,-0.38338 0.04071,-0.0939 0.097368,-0.17921 0.1773642,-0.24412 0.017187,-0.014 0.035814,-0.026 0.053721,-0.039 0.110527,-0.0703 0.216485,-0.13713 0.3436361,-0.16695 0.047145,-0.0111 0.1054994,-0.0189 0.1538748,-0.0214 0.024469,-10e-4 0.049004,-2.1e-4 0.073506,-3.1e-4 0.080568,0.004 0.16408,0.0123 0.2371005,0.0498 0.042415,0.0218 0.050003,0.0332 0.08502,0.0654 0.011679,0.0157 0.024675,0.0306 0.035036,0.0472 0.049941,0.0802 0.074811,0.17638 0.085809,0.26926 0.00337,0.0285 0.00439,0.0572 0.00658,0.0858 0.00859,0.18386 -0.023725,0.36588 -0.04487,0.54781 -0.022601,0.17973 -0.038093,0.36003 -0.046335,0.54095 -0.00249,0.15253 0.00151,0.30565 0.01764,0.4574 0.0122,0.0807 0.034843,0.15962 0.082583,0.22693 0.029527,0.0416 0.047397,0.0561 0.083695,0.0919 0.082576,0.0727 0.1812195,0.12057 0.2897711,0.13922 0.023476,0.004 0.047301,0.006 0.070952,0.009 0.093838,0.006 0.1873577,-0.006 0.2736951,-0.0444 0.020653,-0.009 0.079975,-0.0422 0.060306,-0.031 -0.028396,0.0161 -0.057668,0.0306 -0.086502,0.0459 0.1298159,-0.0924 0.2099016,-0.23142 0.2916732,-0.36447 0.086225,-0.14752 0.1750475,-0.29329 0.275876,-0.43132 0.090916,-0.12343 0.195584,-0.23578 0.3127721,-0.33445 0.1163638,-0.0825 0.2436239,-0.17787 0.3924512,-0.17801 0.014727,-2e-5 0.029369,0.002 0.044054,0.003 0.013494,0.004 0.027605,0.007 0.040485,0.0125 0.080539,0.0362 0.1244411,0.11847 0.163227,0.1926 0.054288,0.12351 0.084126,0.2559 0.1231454,0.38468 0.023085,0.0751 0.044041,0.15288 0.087077,0.21964 0.029864,0.0463 0.039215,0.0515 0.078252,0.0906 0.103486,0.0915 0.2313816,0.14261 0.3614261,0.18321 0.088655,0.0237 0.1796682,0.0398 0.271716,0.0376 0.048015,-10e-4 0.06526,-0.005 0.1119373,-0.0109 0.04436,-0.008 0.087365,-0.022 0.1275154,-0.0427 0.010673,-0.005 0.041626,-0.024 0.031067,-0.0182 -0.1265913,0.0685 -0.155311,0.10002 -0.099753,0.0462 0.00567,-0.009 0.012451,-0.0165 0.01701,-0.0257 0.026517,-0.0535 0.017216,-0.12082 0.00127,-0.17584 -0.00563,-0.0194 -0.013862,-0.038 -0.020794,-0.057 -0.055152,-0.12373 -0.1482981,-0.22332 -0.2341184,-0.32605 -0.074234,-0.0868 -0.1423725,-0.17959 -0.192583,-0.28262 -0.00907,-0.0186 -0.016743,-0.0379 -0.025112,-0.0568 -0.033555,-0.0868 -0.048854,-0.18055 -0.026872,-0.27236 0.00427,-0.0178 0.011353,-0.0349 0.017031,-0.0523 0.00884,-0.0171 0.016362,-0.0349 0.02653,-0.0513 0.083663,-0.13448 0.2299656,-0.18885 0.3645396,-0.25992 0.075324,-0.0176 0.1528457,-0.0148 0.2269281,0.008 0.045486,0.0139 0.078125,0.0316 0.1209016,0.0521 0.1230284,0.069 0.2267069,0.16553 0.3333949,0.25647 0.08408,0.0736 0.1678146,0.14765 0.2573329,0.21465 0.057137,0.0428 0.075188,0.0534 0.1343832,0.0925 0.1035841,0.065 0.2164225,0.11616 0.3365414,0.14132 0.020135,0.004 0.040608,0.007 0.060912,0.01 0.066486,0.006 0.1368884,0.01 0.1992078,-0.0193 0.013758,-0.006 0.052836,-0.0298 0.038993,-0.0236 -0.036699,0.0165 -0.071833,0.0364 -0.1077499,0.0546 0.095751,-0.0951 0.1298245,-0.21588 0.1573215,-0.34399 0.01883,-0.10969 0.015142,-0.22275 -0.011157,-0.33101 -0.00461,-0.019 -0.010954,-0.0375 -0.016431,-0.0563 -0.023569,-0.068 -0.055329,-0.1336 -0.098754,-0.1913 -0.027043,-0.0359 -0.044384,-0.0517 -0.075877,-0.0842 -0.1005692,-0.0966 -0.220745,-0.16709 -0.3404354,-0.23674 -0.098934,-0.0572 -0.2003607,-0.10968 -0.2980894,-0.16901 -0.045563,-0.0291 -0.094195,-0.0624 -0.1163714,-0.11404 -0.00357,-0.008 -0.00553,-0.0172 -0.0083,-0.0258 -0.00169,-0.0225 -0.00545,-0.0365 0.0046,-0.0585 0.019934,-0.0436 0.06433,-0.0756 0.1047676,-0.0978 0.066476,-0.0366 0.1342123,-0.0709 0.2013186,-0.10638 0.1272955,-0.0387 0.2610739,-0.047 0.3933547,-0.048 0.1396897,10e-4 0.2787565,0.0159 0.4181446,0.024 0.1382173,0.0103 0.2763956,0.007 0.4138747,-0.01 0.063638,-0.0112 0.1265919,-0.0268 0.1861449,-0.0522 0.01767,-0.008 0.0681,-0.0355 0.05185,-0.0252 -0.190326,0.1202 -0.08969,0.0481 -0.05261,0.0204 0.07739,-0.0698 0.13339,-0.16063 0.156887,-0.26271 0.0047,-0.0203 0.0065,-0.0411 0.0097,-0.0616 0.0057,-0.10343 -0.01042,-0.20973 -0.06208,-0.30095 -0.01011,-0.0179 -0.02269,-0.0342 -0.03403,-0.0513 -0.07391,-0.0905 -0.174903,-0.14429 -0.2879393,-0.16925 -0.025575,-0.006 -0.051603,-0.009 -0.077405,-0.0135 -0.1174856,-0.012 -0.2367672,-0.006 -0.352656,0.0171 -0.07928,0.0156 -0.1169144,0.029 -0.1948831,0.0524 -0.2131957,0.0712 -0.4170569,0.16707 -0.6184135,0.26622 -0.2012188,0.10546 -0.3978839,0.21923 -0.5981613,0.32644 -0.1260237,0.0661 -0.2577184,0.12425 -0.3959566,0.15974 -0.02154,0.006 -0.043409,0.01 -0.065114,0.0145 -0.083004,0.0118 -0.1749925,0.0241 -0.2552174,-0.009 -0.013261,-0.005 -0.025284,-0.0136 -0.037927,-0.0204 -0.011716,-0.009 -0.024437,-0.017 -0.03515,-0.0272 -0.059823,-0.0571 -0.089969,-0.13721 -0.1127866,-0.21448 -0.02137,-0.0853 -0.024339,-0.17345 -0.026321,-0.26094 9.525e-4,-0.0623 0.008,-0.12473 0.02168,-0.1855 0.012187,-0.0464 0.043473,-0.0804 0.078697,-0.11106 0,0 0.1601343,-0.0644 0.1601343,-0.0644 v 0 c -0.035372,0.0271 -0.068266,0.0573 -0.082979,0.10075 -0.015661,0.0593 -0.022225,0.121 -0.024831,0.18211 0.00108,0.0862 0.00334,0.17308 0.023381,0.25738 0.021042,0.0738 0.049151,0.15148 0.1076317,0.20477 0.010292,0.009 0.022474,0.0164 0.03371,0.0247 0.011972,0.006 0.023418,0.013 0.035918,0.0177 0.078917,0.0295 0.1677765,0.016 0.2483347,0.004 0.02136,-0.005 0.042879,-0.009 0.064076,-0.015 0.1365887,-0.0364 0.2665341,-0.0945 0.3911912,-0.16037 0.1999274,-0.1071 0.3961558,-0.22095 0.5975897,-0.32524 0.2022174,-0.0989 0.4067522,-0.19498 0.6211425,-0.26484 0.079924,-0.0233 0.1159602,-0.0361 0.1972156,-0.0513 0.1174539,-0.022 0.238201,-0.0269 0.3568983,-0.0134 0.026242,0.005 0.05274,0.008 0.078723,0.0145 0.116338,0.0272 0.219419,0.0856 0.295361,0.17876 0.01174,0.0178 0.02473,0.0348 0.03522,0.0533 0.05319,0.0939 0.07076,0.20324 0.0667,0.30985 -0.0029,0.0213 -0.0044,0.0428 -0.0088,0.0638 -0.0218,0.10424 -0.07603,0.19819 -0.15193,0.27217 -0.09673,0.0772 -0.05213,0.0452 -0.237713,0.14814 -0.02932,0.0163 -0.078747,0.0344 -0.1103618,0.0438 -0.052902,0.0158 -0.075303,0.0184 -0.1299896,0.0285 -0.1381635,0.0151 -0.2768576,0.0182 -0.4155738,0.007 -0.1392103,-0.009 -0.2782623,-0.0227 -0.4178406,-0.0227 -0.1313826,0.002 -0.2645886,0.0105 -0.3898501,0.0535 0.030056,-0.0199 0.061369,-0.0381 0.090168,-0.0599 0.014293,-0.0108 -0.031746,0.0167 -0.046486,0.0269 -0.012949,0.009 -0.024897,0.0193 -0.036286,0.0302 -0.024535,0.0234 -0.036789,0.0436 -0.03348,0.0776 0.00217,0.008 0.00353,0.0155 0.00652,0.0229 0.01991,0.049 0.068135,0.0794 0.1101564,0.10721 0.096767,0.0599 0.1975207,0.11265 0.2957766,0.17008 0.1207575,0.0709 0.2417202,0.14294 0.3437655,0.24007 0.033025,0.0341 0.049503,0.0488 0.077824,0.0865 0.044435,0.0591 0.076909,0.12641 0.100892,0.19613 0.00565,0.0192 0.012184,0.0383 0.016941,0.0578 0.026913,0.11023 0.0311,0.2256 0.013324,0.3375 -0.02622,0.12858 -0.059656,0.25417 -0.1505556,0.35358 -0.061124,0.0388 -0.1215946,0.0786 -0.1833708,0.11636 -0.013129,0.008 -0.026847,0.0153 -0.041193,0.0208 -0.064645,0.0251 -0.13545,0.0194 -0.202638,0.0118 -0.020439,-0.004 -0.041059,-0.007 -0.06132,-0.0114 -0.1208082,-0.0277 -0.2342417,-0.0803 -0.338446,-0.1467 -0.062069,-0.0414 -0.074675,-0.0486 -0.1346766,-0.0939 -0.089518,-0.0675 -0.1736323,-0.14159 -0.2585344,-0.21469 -0.1061326,-0.0896 -0.2090605,-0.18532 -0.3317685,-0.25224 -0.044341,-0.0205 -0.072137,-0.0355 -0.1192159,-0.0486 -0.072982,-0.0202 -0.1488247,-0.0205 -0.2214671,7.2e-4 0.032168,-0.021 0.065671,-0.04 0.096505,-0.0629 0.015036,-0.0112 -0.03327,0.0173 -0.048937,0.0276 -0.064491,0.0422 -0.1168045,0.10023 -0.1510808,0.16923 -0.00605,0.0166 -0.013563,0.0327 -0.018156,0.0497 -0.023847,0.0884 -0.010184,0.17986 0.021553,0.26412 0.00805,0.0186 0.01537,0.0376 0.024151,0.0559 0.049056,0.10227 0.1170529,0.19383 0.1904526,0.27976 0.087148,0.10417 0.1810597,0.20544 0.2376426,0.33063 0.00746,0.0196 0.016211,0.0387 0.022394,0.0588 0.017854,0.0578 0.029205,0.12802 0.0066,0.18632 -0.00397,0.0102 -0.010292,0.0194 -0.015438,0.0291 -0.06332,0.0745 -0.015341,0.0232 -0.192932,0.12822 -0.049349,0.0292 -0.104905,0.0455 -0.1611914,0.0546 -0.046807,0.005 -0.064606,0.008 -0.112654,0.008 -0.092822,0 -0.1845323,-0.0175 -0.2737554,-0.042 -0.1339119,-0.0428 -0.2599965,-0.095 -0.3666273,-0.18956 -0.039758,-0.0403 -0.050461,-0.0469 -0.081036,-0.0944 -0.043677,-0.0678 -0.065242,-0.14674 -0.088181,-0.22315 -0.037987,-0.1279 -0.067965,-0.25914 -0.1221901,-0.38146 -0.037077,-0.0697 -0.078866,-0.14937 -0.1573205,-0.17998 -0.012216,-0.005 -0.025432,-0.006 -0.038148,-0.01 -0.039758,-0.001 -0.04745,-0.004 -0.087716,0.003 -0.016444,0.003 -0.032801,0.007 -0.048711,0.0117 -0.024228,0.008 -0.1880169,0.0816 0.045563,-0.0376 0.018031,-0.009 -0.033401,0.0229 -0.050101,0.0343 -0.017039,0.0138 -0.034576,0.0271 -0.051119,0.0415 -0.09884,0.0861 -0.1853242,0.18599 -0.2648788,0.28984 -0.1016792,0.13715 -0.1910525,0.28234 -0.2765468,0.43006 -0.081596,0.13375 -0.1601959,0.27441 -0.2873369,0.37081 -0.048279,0.0288 -0.181732,0.11664 -0.2637454,0.15008 -0.088354,0.036 -0.1835513,0.045 -0.278088,0.0378 -0.024016,-0.003 -0.04823,-0.005 -0.072048,-0.01 -0.1108681,-0.021 -0.211583,-0.0712 -0.2954099,-0.14664 -0.037516,-0.0374 -0.055408,-0.0519 -0.08603,-0.0953 -0.049093,-0.0695 -0.073098,-0.15051 -0.085596,-0.23382 -0.015952,-0.15282 -0.019534,-0.30698 -0.017063,-0.46054 0.00841,-0.18137 0.0234,-0.36213 0.046411,-0.54228 0.020889,-0.18088 0.053068,-0.36179 0.045532,-0.54455 -0.0022,-0.0281 -0.00324,-0.0563 -0.00656,-0.0842 -0.010681,-0.0901 -0.034505,-0.18376 -0.083649,-0.26115 -0.00993,-0.0156 -0.022439,-0.0295 -0.033658,-0.0442 -0.034072,-0.0301 -0.040825,-0.0403 -0.081757,-0.0603 -0.071786,-0.0351 -0.1531771,-0.0425 -0.2317197,-0.0455 -0.024088,4.5e-4 -0.048226,-2.6e-4 -0.072266,0.001 -0.076207,0.005 -0.152337,0.0198 -0.2238891,0.0468 -0.022389,0.008 -0.081471,0.0471 -0.065614,0.0292 0.021474,-0.0243 0.05577,-0.0331 0.083655,-0.0496 -0.045459,0.0313 -0.062711,0.0403 -0.1023041,0.0785 -0.057591,0.0555 -0.09923,0.12379 -0.1321689,0.19615 -0.00863,0.0194 -0.017767,0.0386 -0.025884,0.0582 -0.043777,0.10576 -0.072453,0.21703 -0.1113499,0.32454 -0.050556,0.1396 -0.1045419,0.28044 -0.1949714,0.3998 -0.036477,0.044 -0.047532,0.0605 -0.089365,0.0987 -0.074032,0.0677 -0.1471141,0.10047 -0.2434249,0.15334 -0.016997,0.009 -0.035164,0.0166 -0.053565,0.0227 -0.01826,0.006 -0.037377,0.009 -0.056065,0.0137 -0.018836,0.002 -0.037583,0.005 -0.05651,0.006 -0.1076551,0.002 -0.2061039,-0.0434 -0.2931432,-0.1029 -0.044458,-0.0353 -0.063543,-0.0467 -0.1000727,-0.0902 -0.055036,-0.0654 -0.08531,-0.14565 -0.1013697,-0.22868 -0.0024,-0.0233 -0.0064,-0.0466 -0.00719,-0.07 -0.00553,-0.16397 0.05534,-0.32155 0.1125658,-0.47196 0.049933,-0.11481 0.05704,-0.13514 0.1143946,-0.24992 0.1007624,-0.20165 0.2134363,-0.39705 0.3218375,-0.59459 0.1115786,-0.20912 0.229037,-0.42545 0.2388176,-0.66771 -0.00164,-0.0231 -0.00111,-0.0464 -0.00493,-0.0692 -0.010303,-0.0617 -0.042584,-0.12186 -0.1002872,-0.15062 -0.011851,-0.006 -0.024984,-0.009 -0.037475,-0.0132 -0.013187,-0.002 -0.026266,-0.005 -0.039561,-0.006 -0.045867,-0.003 -0.091969,0.006 -0.1349322,0.0217 -0.016889,0.006 -0.0637,0.0325 -0.04953,0.0214 0.028554,-0.0223 0.062256,-0.0371 0.093384,-0.0557 -0.045533,0.0282 -0.063738,0.0381 -0.1071166,0.0707 -0.072059,0.0542 -0.1350527,0.11888 -0.1951481,0.18577 -0.093338,0.10638 -0.1833372,0.2157 -0.2805199,0.31865 -0.029699,0.0312 -0.066461,0.071 -0.098462,0.10011 -0.081303,0.0741 -0.1302849,0.0939 -0.2472894,0.16365 -0.01789,0.0107 -0.036234,0.0207 -0.055302,0.0291 -0.019558,0.009 -0.040198,0.0145 -0.060296,0.0217 -0.059336,0.0138 -0.079942,0.0207 -0.1419642,0.0261 -0.1146491,0.01 -0.2300333,-0.003 -0.3404909,-0.0344 -0.0280175,-0.01 -0.0565524,-0.0185 -0.0840524,-0.0298 -0.13110096,-0.0538 -0.24802425,-0.13799 -0.33189518,-0.25287 -0.0122226,-0.0216 -0.0259652,-0.0424 -0.0366677,-0.0648 -0.0564089,-0.11801 -0.069476,-0.24993 -0.0452773,-0.37765 0.007591,-0.0266 0.0134837,-0.0538 0.0227729,-0.0799 0.0505212,-0.14181 0.13962964,-0.26794 0.24940207,-0.36977 0.0215821,-0.0172 0.0415218,-0.0368 0.064746,-0.0517 0.066378,-0.0427 0.18731894,-0.11902 0.27757081,-0.15766 0.075026,-0.0321 0.1541518,-0.0538 0.2339314,-0.0702 0.028558,-0.005 0.056981,-0.0113 0.085674,-0.0158 0.1540623,-0.0241 0.3106759,-0.0256 0.4657627,-0.0391 0.078522,-0.007 0.1113393,-0.008 0.188679,-0.0204 0.1209112,-0.019 0.2393583,-0.0514 0.3530997,-0.0966 0.027093,-0.0117 0.054552,-0.0225 0.081278,-0.035 0.026645,-0.0125 0.049347,-0.0398 0.078762,-0.0398 0.025469,-4e-5 -0.08596,0.0546 -0.065239,0.0398 0.023946,-0.0171 0.050337,-0.0305 0.074934,-0.0467 0.072335,-0.0475 0.070555,-0.0487 0.1368883,-0.10224 0.019579,-0.0179 0.039802,-0.0351 0.05874,-0.0537 0.077805,-0.0763 0.1432086,-0.16507 0.1935652,-0.26167 0.00642,-0.0147 0.013983,-0.029 0.019254,-0.0442 0.023966,-0.0691 0.014877,-0.13047 -0.021669,-0.19276 -0.00791,-0.0102 -0.014962,-0.0212 -0.02373,-0.0306 -0.054162,-0.0586 -0.1305494,-0.0924 -0.204157,-0.11863 -0.018391,-0.005 -0.03657,-0.0115 -0.055177,-0.0161 -0.114572,-0.0281 -0.233406,-0.0337 -0.3506862,-0.0395 -0.1832391,-0.006 -0.3682254,-0.007 -0.5478882,-0.0482 -0.02983,-0.008 -0.060081,-0.0149 -0.089489,-0.0244 -0.1449607,-0.0471 -0.2522548,-0.11825 -0.3359614,-0.24722 -0.035077,-0.0648 -0.049826,-0.0846 -0.072049,-0.15595 -0.037089,-0.11904 -0.042258,-0.24582 -0.020564,-0.36807 0.020255,-0.0769 0.025055,-0.1077 0.057595,-0.18066 0.051327,-0.1151 0.1259071,-0.20848 0.227575,-0.2829 0.066113,-0.0392 0.1968997,-0.12673 0.2906267,-0.16267 0.096951,-0.0372 0.1990606,-0.0421 0.3004406,-0.0223 0.026711,0.006 0.053703,0.0109 0.080132,0.018 0.1405616,0.038 0.2694956,0.10599 0.3853469,0.19359 0.1427908,0.10685 0.2772139,0.22403 0.3960875,0.35741 0.1307029,0.14104 0.2612313,0.2832 0.4058986,0.41017 0.060168,0.0482 0.089599,0.0752 0.1560417,0.11458 0.136742,0.081 0.2913571,0.12204 0.4482399,0.14036 0.1487771,0.007 0.1866241,0.0146 0.3399404,-10e-4 0.1376373,-0.0143 0.2838672,-0.0435 0.4157231,-0.0847 0.1819365,-0.0569 0.2545789,-0.0992 0.4267917,-0.18127 0.03099,-0.0153 0.062988,-0.0287 0.09297,-0.0459 0.1513247,-0.0868 0.2560764,-0.15432 0.3953245,-0.25563 0.079984,-0.0582 0.1604534,-0.12189 0.2333884,-0.18937 0.017494,-0.0162 0.033278,-0.0341 0.049917,-0.0512 0,0 0.1584843,-0.0661 0.1584843,-0.0661 z"
       inkscape:connector-curvature="0" />
    <path
       style="fill:#000000;stroke-width:0.26458332"
       id="path170"
       d="m 7.5398626,290.81963 c 0.1253154,0.0606 0.2485517,0.12536 0.3708218,0.19182 0.1238832,0.0707 0.061426,0.0328 0.1870554,0.1142 0,0 -0.1378823,0.0886 -0.1378823,0.0886 v 0 c -0.1262407,-0.0798 -0.063525,-0.0425 -0.187869,-0.11219 -0.123221,-0.0657 -0.2472283,-0.13074 -0.3757528,-0.18548 0,0 0.1436269,-0.097 0.1436269,-0.097 z"
       inkscape:connector-curvature="0" />
    <path
       style="fill:#00e4c6;stroke-width:0.04419417;fill-opacity:0.45588234"
       d="m 18.078839,49.330082 c -0.686488,-0.126124 -1.386699,-0.653635 -1.590816,-1.198457 -0.28206,-0.752866 -0.280249,-2.174902 0.0058,-4.586208 0.230456,-1.942399 0.136607,-2.757177 -0.383948,-3.333368 -0.255476,-0.282782 -0.521497,-0.370193 -1.193025,-0.392016 -0.438271,-0.01424 -0.645006,-0.0014 -0.861786,0.05359 -0.596943,0.151396 -1.381139,0.607781 -1.76384,1.026516 -0.282978,0.309624 -0.458364,0.678087 -0.796338,1.673002 -0.382876,1.1271 -0.672161,1.70328 -1.05533,2.101947 L 10.135953,44.99097 9.7420868,44.9753 C 9.4050829,44.961892 9.3060128,44.938819 9.0554234,44.815376 8.3262421,44.456174 7.9529693,43.802412 8.0173602,42.99728 8.0841566,42.162077 8.5474096,41.048708 9.6649088,39.037611 10.701815,37.171554 10.960871,36.509356 10.962809,35.719924 10.963437,35.465299 10.941074,35.363321 10.842043,35.169149 10.565235,34.62641 9.9634736,34.590121 9.1442511,35.066764 8.3611723,35.522379 7.9808788,35.861055 7.0601413,36.922798 6.4008212,37.68309 6.0182976,38.021928 5.7379425,38.093999 5.4057292,38.179401 4.5600902,38.166087 4.2018681,38.069815 3.3342563,37.836644 2.639524,37.273566 2.3696838,36.584835 2.2653072,36.318427 2.2307064,35.732257 2.3015606,35.430764 c 0.07868,-0.334793 0.2743381,-0.752327 0.5021385,-1.07156 0.1984167,-0.278056 0.5657365,-0.646991 0.6441591,-0.646991 0.023903,0 0.079038,-0.03707 0.1225214,-0.08239 0.092606,-0.0965 0.5165348,-0.239686 0.9850419,-0.332706 0.3339858,-0.06631 1.0000838,-0.13255 1.8561553,-0.184583 1.4812486,-0.09003 2.5904822,-0.491367 3.9959042,-1.445771 0.607453,-0.412514 1.272978,-1.228161 1.422895,-1.743859 0.121979,-0.419593 -0.05021,-0.844269 -0.44956,-1.10879 C 10.885184,28.485825 10.371261,28.380146 8.9748389,28.319375 7.854437,28.270616 7.4498911,28.225105 6.9804208,28.095009 6.5449295,27.974328 6.2054617,27.786794 5.9344014,27.517151 5.0036264,26.591242 5.0561302,24.886994 6.0466005,23.875225 6.3206099,23.595323 6.4337617,23.53165 6.7863111,23.458972 c 0.4765286,-0.09824 1.0770324,0.0176 1.7338882,0.334478 0.6936536,0.334625 1.196517,0.753698 2.5980567,2.165152 1.298099,1.307282 1.579751,1.54505 2.120831,1.790388 0.687371,0.311669 1.652254,0.446213 2.578589,0.35956 1.405615,-0.131487 2.395574,-0.472835 4.042307,-1.393833 0.333112,-0.186305 0.617597,-0.338736 0.632188,-0.338736 0.01459,0 -0.12817,0.16407 -0.317248,0.364602 -0.434086,0.460381 -0.839351,1.001495 -0.982885,1.312359 -0.07416,0.160622 -0.117953,0.347182 -0.131675,0.560996 -0.01823,0.284087 -0.0079,0.341947 0.0913,0.511207 0.10478,0.178795 0.595788,0.689042 0.893821,0.928847 0.258129,0.207695 1.519988,1.093767 2.850525,2.001624 0.741357,0.505847 1.775501,1.222004 2.298097,1.591461 0.873886,0.617805 1.264753,0.881164 1.957034,1.318611 l 0.255558,0.161486 -0.112036,0.120826 c -0.186322,0.200941 -0.222321,0.378233 -0.222087,1.093767 1.77e-4,0.559862 0.01535,0.711003 0.0976,0.972272 0.126482,0.401798 0.315579,0.694418 0.548349,0.848547 0.362127,0.239784 1.130515,0.183836 1.992483,-0.145076 0.384764,-0.146819 0.883958,-0.401733 2.151695,-1.098762 2.587127,-1.422458 4.152391,-1.951835 5.324004,-1.800595 1.063952,0.137342 1.616371,0.628763 1.755064,1.561271 0.08393,0.564271 -0.104462,1.141654 -0.498461,1.527727 -0.362906,0.355604 -0.573182,0.373553 -3.747456,0.319877 -1.274461,-0.02155 -1.46301,0.01228 -2.147246,0.385261 -0.681047,0.371243 -0.82278,0.569612 -0.656838,0.919308 0.08686,0.183041 0.275133,0.316627 1.124705,0.79801 0.376756,0.213477 0.854053,0.498339 1.060661,0.633028 0.985303,0.642324 1.426675,1.401449 1.430043,2.459559 0.0021,0.648812 -0.210726,1.345508 -0.508227,1.663984 -0.126516,0.135436 -0.131915,0.136749 -0.438158,0.106573 -0.44982,-0.04432 -0.763235,-0.135724 -1.212862,-0.3537 -0.507831,-0.246193 -0.945987,-0.561539 -1.819064,-1.309201 -0.848234,-0.726387 -1.105914,-0.920119 -1.451305,-1.091135 -0.626474,-0.310189 -0.999123,-0.302611 -1.653714,0.03363 -0.559021,0.28715 -0.842197,0.53772 -1.023198,0.905384 -0.129661,0.263379 -0.137353,0.305973 -0.121194,0.67108 0.02561,0.57869 0.249584,1.068108 0.799676,1.747425 0.143324,0.176993 0.388958,0.480904 0.545854,0.675359 0.37062,0.459342 0.558132,0.837961 0.582612,1.176395 0.0156,0.215668 -0.04596,0.52508 -0.104472,0.52508 -0.0074,0 -0.163733,0.02089 -0.347304,0.04642 -0.831887,0.115705 -2.122075,-0.296186 -2.697919,-0.861308 -0.293512,-0.288046 -0.379163,-0.473267 -0.670831,-1.45068 -0.271487,-0.909785 -0.463853,-1.354988 -0.696957,-1.613006 -0.217493,-0.240739 -0.359547,-0.291505 -0.745436,-0.266398 -0.541674,0.03524 -1.155462,0.398659 -1.844828,1.092301 -0.51437,0.517561 -0.940696,1.097949 -1.593086,2.168785 -0.707229,1.160847 -0.991525,1.511911 -1.345164,1.661075 -0.174314,0.07353 -0.847077,0.123122 -1.082757,0.07982 z"
       id="path4647"
       inkscape:connector-curvature="0"
       transform="matrix(0.26458333,0,0,0.26458333,0,283.77082)" />
    <path
       style="fill:#ffffff;fill-opacity:0.45588235;stroke-width:0.04419417"
       d="m 28.92671,31.697403 c -0.697985,-0.72982 -2.157567,-1.555261 -4.323521,-2.445094 -0.592376,-0.243364 -1.125754,-0.474393 -1.185283,-0.513399 -0.105533,-0.06915 -0.106336,-0.07388 -0.03216,-0.189409 0.04184,-0.06517 0.209376,-0.287534 0.372305,-0.494142 1.154918,-1.464534 2.47974,-3.498482 3.687614,-5.66145 l 0.360419,-0.645411 0.174516,0.120501 c 0.311062,0.214785 2.674719,1.550755 3.356496,1.897136 0.364602,0.185238 1.06066,0.4933 1.546796,0.684583 1.062029,0.417881 1.652192,0.675427 1.756718,0.766627 0.125163,0.109207 0.0927,0.326437 -0.104888,0.701888 -0.331029,0.629004 -0.456962,0.783085 -2.563464,3.136439 -1.77989,1.988467 -2.281773,2.476372 -2.868766,2.788864 -0.01314,0.007 -0.09269,-0.05921 -0.176777,-0.147133 z m 1.428443,-3.711742 c 0.139004,-0.08695 0.252734,-0.172938 0.252734,-0.191092 0,-0.05271 -0.716434,-0.466759 -1.441544,-0.833112 l -0.668146,-0.337572 -0.270561,0.174358 c -0.148809,0.0959 -0.265778,0.187514 -0.259932,0.203592 0.0058,0.01608 0.348715,0.198678 0.761931,0.405775 0.413215,0.207098 0.880568,0.456516 1.038563,0.554261 0.157994,0.09774 0.297828,0.178654 0.310742,0.179798 0.01291,0.0011 0.13721,-0.06906 0.276213,-0.156008 z"
       id="path4655"
       inkscape:connector-curvature="0"
       transform="matrix(0.26458333,0,0,0.26458333,0,283.77082)" />
    <path
       style="fill:#ffffff;fill-opacity:0.45588235;stroke-width:0.04419417"
       d="m 4.2951746,288.6137 c -0.011255,-0.003 -0.020463,-0.0106 -0.020463,-0.0166 0,-0.006 -0.00816,-0.0108 -0.018137,-0.0108 -0.025458,0 -0.052022,-0.0705 -0.052022,-0.13807 0,-0.19115 0.1312468,-0.45127 0.3573394,-0.70821 0.1626213,-0.18481 0.2942203,-0.27081 0.4630218,-0.3026 0.1611988,-0.0303 0.1913142,0.0563 0.092702,0.26673 -0.051232,0.10933 -0.082791,0.15839 -0.154667,0.24044 -0.1355722,0.15476 -0.1906939,0.20901 -0.3286,0.32339 -0.081955,0.068 -0.1469803,0.12562 -0.1445006,0.1281 0.011687,0.0117 0.1630727,-0.071 0.2479415,-0.13542 0.1465485,-0.11124 0.1477561,-0.099 0.00653,0.0664 -0.096234,0.11268 -0.2262505,0.22978 -0.2943685,0.26513 -0.033675,0.0175 -0.1244843,0.0301 -0.1547789,0.0216 z"
       id="path4673"
       inkscape:connector-curvature="0" />
    <path
       style="fill:#ffffff;fill-opacity:0.45588235;stroke-width:0.04419417"
       d="m 3.9326902,288.49634 c -0.011255,-0.003 -0.020463,-0.0102 -0.020463,-0.0162 0,-0.006 -0.00816,-0.0108 -0.018137,-0.0108 -0.025458,0 -0.052022,-0.0705 -0.052022,-0.13807 0,-0.0845 0.039617,-0.22409 0.094458,-0.33286 0.1363965,-0.2705 0.4180433,-0.57446 0.5935009,-0.64052 0.1407893,-0.053 0.2227406,-0.0575 0.2656107,-0.0147 0.030673,0.0307 0.015441,0.12458 -0.039081,0.24093 -0.052729,0.11252 -0.083997,0.16126 -0.1560925,0.24329 -0.028032,0.0319 -0.074646,0.0849 -0.1035862,0.11784 -0.02894,0.0329 -0.1210231,0.11772 -0.2046282,0.18847 -0.083605,0.0707 -0.1538134,0.13325 -0.1560182,0.1389 -0.00961,0.0246 0.139183,-0.0557 0.2342269,-0.1265 0.057156,-0.0426 0.1070742,-0.0742 0.1109297,-0.0704 0.00385,0.004 -0.022553,0.0427 -0.058686,0.0863 -0.2204484,0.266 -0.3674975,0.36632 -0.4900136,0.3343 z"
       id="path4675"
       inkscape:connector-curvature="0" />
    <path
       style="fill:#ffffff;fill-opacity:0.45588235;stroke-width:0.04419417"
       d="m 28.904332,31.67541 c -0.204488,-0.211454 -0.847297,-0.698872 -1.257455,-0.95348 -0.748297,-0.46451 -1.717023,-0.925558 -3.373376,-1.605498 -0.43341,-0.177916 -0.827792,-0.355691 -0.876404,-0.395055 -0.08607,-0.0697 -0.06847,-0.09813 0.672983,-1.086949 1.211325,-1.615451 2.153101,-3.074396 3.303608,-5.117758 l 0.43022,-0.764093 0.237484,0.151725 c 0.471074,0.300962 2.647312,1.529209 3.295699,1.860059 0.364602,0.186045 1.06066,0.494835 1.546796,0.686202 1.062876,0.4184 1.652299,0.675675 1.756718,0.766782 0.125163,0.109207 0.0927,0.326437 -0.104888,0.701888 -0.325231,0.617987 -0.466643,0.792245 -2.402139,2.960086 -1.411775,1.58125 -1.727718,1.918838 -2.180972,2.330383 -0.306996,0.278747 -0.796857,0.646356 -0.861307,0.646356 -0.0067,0 -0.09088,-0.08129 -0.186967,-0.180648 z m 1.450821,-3.689749 c 0.139004,-0.08695 0.252734,-0.172938 0.252734,-0.191092 0,-0.05271 -0.716434,-0.466759 -1.441544,-0.833112 l -0.668146,-0.337572 -0.270594,0.174358 c -0.148826,0.0959 -0.270767,0.184799 -0.27098,0.19756 -2.21e-4,0.01276 0.319196,0.181803 0.709797,0.37565 0.390601,0.193848 0.862926,0.445993 1.049611,0.560325 0.186686,0.114331 0.349995,0.208796 0.362909,0.209922 0.01291,0.0011 0.13721,-0.06909 0.276213,-0.156039 z"
       id="path4689"
       inkscape:connector-curvature="0"
       transform="matrix(0.26458333,0,0,0.26458333,0,283.77082)" />
    <path
       style="fill:#ffffff;fill-opacity:0.45588235;stroke-width:0.04419417"
       d="m 28.783291,31.570092 c -0.529661,-0.498312 -1.592225,-1.161007 -2.661113,-1.659669 -0.243068,-0.113397 -0.936171,-0.411551 -1.54023,-0.662564 -0.604059,-0.251014 -1.137652,-0.488263 -1.185763,-0.52722 -0.08486,-0.06871 -0.06488,-0.100974 0.667863,-1.078409 1.19367,-1.59229 2.177904,-3.117509 3.31361,-5.134938 l 0.423899,-0.753 0.348686,0.215759 c 0.625777,0.387215 2.686605,1.542207 3.297333,1.847992 0.328142,0.164297 1.044088,0.477313 1.59099,0.695592 1.195459,0.477128 1.500115,0.610608 1.602039,0.701911 0.125226,0.112175 0.09303,0.330894 -0.103825,0.705345 -0.32769,0.623317 -0.481858,0.81191 -2.543362,3.111288 -1.48276,1.653854 -1.661388,1.84434 -2.092638,2.231557 -0.274256,0.246253 -0.753267,0.597828 -0.80442,0.590413 -0.0072,-0.0011 -0.148126,-0.128876 -0.313069,-0.284057 z m 1.571862,-3.584431 c 0.139004,-0.08695 0.252734,-0.172938 0.252734,-0.191092 0,-0.05142 -0.686492,-0.448175 -1.431314,-0.827228 l -0.676836,-0.344453 -0.271364,0.174857 c -0.14925,0.09617 -0.271537,0.185297 -0.27175,0.198058 -2.21e-4,0.01276 0.319196,0.181803 0.709797,0.37565 0.390601,0.193848 0.862926,0.445993 1.049611,0.560325 0.186686,0.114331 0.349995,0.208796 0.362909,0.209922 0.01291,0.0011 0.13721,-0.06909 0.276213,-0.156039 z"
       id="path4691"
       inkscape:connector-curvature="0"
       transform="matrix(0.26458333,0,0,0.26458333,0,283.77082)" />
    <path
       style="fill:#ffffff;fill-opacity:0.45588235;stroke-width:0.04419417"
       d="m 28.783291,31.570092 c -0.795278,-0.748208 -2.031965,-1.426041 -4.354901,-2.386939 -0.518368,-0.214426 -0.982926,-0.422611 -1.032351,-0.462633 -0.08811,-0.07135 -0.07789,-0.08864 0.525063,-0.888245 1.355356,-1.797391 2.459444,-3.508614 3.59375,-5.569946 l 0.281647,-0.511827 0.333985,0.207128 c 0.617929,0.383222 2.675523,1.535064 3.297324,1.845845 0.339015,0.169442 1.063856,0.488024 1.610758,0.707961 1.216898,0.489374 1.502401,0.614855 1.602039,0.70411 0.125226,0.112175 0.09303,0.330894 -0.103825,0.705345 -0.327466,0.622891 -0.479371,0.808755 -2.542842,3.111288 -1.458887,1.627905 -1.701712,1.886625 -2.115255,2.253713 -0.258237,0.229228 -0.734521,0.575186 -0.782323,0.568257 -0.0072,-0.0011 -0.148126,-0.128876 -0.313069,-0.284057 z m 1.564698,-3.584224 c 0.142944,-0.08683 0.259898,-0.1728 0.259898,-0.191037 0,-0.05015 -0.692449,-0.44978 -1.440774,-0.831508 l -0.667376,-0.340435 -0.271364,0.174857 c -0.14925,0.09617 -0.271537,0.185297 -0.27175,0.198058 -2.21e-4,0.01276 0.319196,0.181803 0.709797,0.37565 0.390601,0.193848 0.862926,0.445993 1.049611,0.560325 0.186686,0.114331 0.346771,0.208796 0.355745,0.209922 0.009,0.0011 0.13327,-0.069 0.276213,-0.155832 z"
       id="path4693"
       inkscape:connector-curvature="0"
       transform="matrix(0.26458333,0,0,0.26458333,0,283.77082)" />
    <path
       style="fill:#ffffff;fill-opacity:0.45588235;stroke-width:0.04419417"
       d="m 2.899731,290.21068 c -0.026302,-0.006 -0.076139,-0.0284 -0.1107504,-0.0491 -0.1663792,-0.0996 -0.1766218,-0.32187 -0.028413,-0.61649 0.1022784,-0.20331 0.2425798,-0.42087 0.4433528,-0.68746 0.2309683,-0.3067 0.8734555,-1.09582 0.9047969,-1.1113 0.017338,-0.009 0.063096,-0.0584 0.1016826,-0.11079 0.1071737,-0.14545 0.1910453,-0.24048 0.2389071,-0.2707 0.035734,-0.0225 0.051434,-0.0258 0.089313,-0.0183 0.1586772,0.0311 0.285665,0.15128 0.285665,0.27031 0,0.0302 -0.010819,0.09 -0.024043,0.13278 -0.024035,0.0778 -0.1517963,0.3725 -0.2175592,0.50181 l -0.034858,0.0685 -0.02078,-0.0544 c -0.028718,-0.0752 -0.058959,-0.0924 -0.1521037,-0.0865 -0.087,0.006 -0.1877242,0.0518 -0.3620495,0.16633 -0.2033651,0.13359 -0.4631705,0.42458 -0.6382755,0.7149 -0.151707,0.25152 -0.1607608,0.36928 -0.034127,0.44387 0.031051,0.0183 0.058815,0.0231 0.1274014,0.0219 0.1004655,-0.002 0.2042017,-0.0352 0.3452797,-0.11125 0.04805,-0.0259 0.087363,-0.0436 0.087363,-0.0394 0,0.0267 -0.4275166,0.53809 -0.5637781,0.67435 -0.149838,0.14984 -0.17687,0.16542 -0.2936272,0.16923 -0.052568,0.002 -0.1170969,-0.002 -0.1433981,-0.008 z"
       id="path4703"
       inkscape:connector-curvature="0" />
    <path
       style="fill:#00e5c6;fill-opacity:0.45490196"
       d="m 27.882108,34.662434 c -0.38663,-0.201731 -1.157346,-0.701647 -2.047191,-1.327888 -0.413216,-0.290806 -1.44736,-1.005909 -2.298097,-1.589119 -2.716287,-1.862106 -3.398841,-2.391247 -3.736728,-2.896846 -0.124793,-0.186735 -0.135888,-0.23167 -0.121861,-0.493542 0.01962,-0.366373 0.161938,-0.664236 0.564257,-1.180988 0.335261,-0.430621 1.057734,-1.207193 1.059063,-1.138366 4.69e-4,0.02431 -0.208206,0.330076 -0.463722,0.679486 -0.255516,0.349411 -0.455868,0.643998 -0.445227,0.65464 0.01064,0.01064 0.14993,-0.03659 0.309529,-0.104962 l 0.290181,-0.124309 0.697729,-1.021277 c 0.606553,-0.887818 0.746302,-1.063653 1.069424,-1.345558 0.338204,-0.295063 0.420248,-0.435097 0.179398,-0.306198 -0.05204,0.02785 -0.102959,0.0423 -0.113148,0.03212 -0.04048,-0.04048 3.582479,-5.161967 6.11221,-8.640351 2.529809,-3.478493 2.969051,-4.154513 3.006587,-4.627318 0.04516,-0.568846 -0.152654,-0.892477 -1.191814,-1.9498562 l -0.742282,-0.755297 0.961649,-0.028535 c 1.425875,-0.04231 2.29465,-0.1566997 3.480716,-0.4582967 2.504649,-0.6368914 5.722908,-2.1283723 9.357808,-4.3368149 0.406969,-0.2472609 0.75997,-0.4495653 0.784446,-0.4495653 0.06602,0 0.0557,0.1638816 -0.06397,1.0167887 -0.252192,1.7972894 -0.357947,3.4404682 -0.314279,4.8831335 0.07556,2.4961372 0.326388,3.8116562 1.261884,6.6180772 0.232945,0.698821 0.410401,1.270583 0.394347,1.270583 -0.01605,0 -0.225576,-0.09176 -0.465604,-0.203923 -0.240029,-0.112157 -0.734727,-0.313898 -1.099329,-0.448313 -0.522282,-0.192545 -0.733228,-0.248561 -0.994369,-0.264051 -0.32963,-0.01955 -0.333074,-0.01861 -0.625332,0.172099 -0.238703,0.155759 -0.316006,0.236634 -0.411747,0.430775 -0.15223,0.308689 -0.690122,1.199845 -1.155424,1.914257 -0.741616,1.138656 -1.366393,1.966742 -5.07749,6.729758 -4.663697,5.985632 -5.204658,6.674104 -5.739757,7.304904 -0.29467,0.347372 -0.682206,0.804781 -0.86119,1.016466 -0.178985,0.211685 -0.395401,0.494262 -0.480926,0.62795 -0.265798,0.415481 -0.351667,0.486136 -0.590821,0.486136 -0.151057,0 -0.287433,-0.04067 -0.488917,-0.145795 z m 1.416348,-2.713305 c 0.891962,-0.517956 1.301364,-0.902102 3.092908,-2.902105 2.463021,-2.749612 2.432407,-2.712492 2.762338,-3.349356 0.237385,-0.458223 0.264881,-0.673133 0.105301,-0.82305 -0.132348,-0.124335 -0.584,-0.325991 -1.601718,-0.715143 -0.461829,-0.176594 -1.140387,-0.465533 -1.507907,-0.642087 -1.102041,-0.529414 -3.653739,-2.020517 -4.102261,-2.397186 -0.278189,-0.233621 -0.393002,-0.218855 -0.753793,0.09695 -0.144756,0.126706 -0.160766,0.155108 -0.08839,0.156797 0.04861,0.0011 0.122582,0.02804 0.164375,0.05978 0.06974,0.05298 0.04535,0.116356 -0.296909,0.77134 -1.15165,2.203945 -2.478263,4.25662 -3.88949,6.018227 -0.223931,0.279528 -0.431225,0.554313 -0.460654,0.610633 -0.107923,0.206541 4.56e-4,0.274233 1.220634,0.762387 1.314578,0.525919 2.655636,1.179305 3.338572,1.626606 0.260852,0.17085 0.638712,0.470124 0.83969,0.665054 0.472016,0.457813 0.492397,0.458871 1.177302,0.06115 z"
       id="path3423"
       inkscape:connector-curvature="0"
       transform="matrix(0.26458334,0,0,0.26458334,-5.0465268e-7,283.77082)" />
  </g>
  <g
     inkscape:groupmode="layer"
     id="layer2"
     inkscape:label="ojos" />
</svg>
