<?xml version="1.0" encoding="UTF-8" standalone="no"?>
<!-- Created with Inkscape (http://www.inkscape.org/) -->

<svg
   xmlns:dc="http://purl.org/dc/elements/1.1/"
   xmlns:cc="http://creativecommons.org/ns#"
   xmlns:rdf="http://www.w3.org/1999/02/22-rdf-syntax-ns#"
   xmlns:svg="http://www.w3.org/2000/svg"
   xmlns="http://www.w3.org/2000/svg"
   xmlns:sodipodi="http://sodipodi.sourceforge.net/DTD/sodipodi-0.dtd"
   xmlns:inkscape="http://www.inkscape.org/namespaces/inkscape"
   width="50"
   height="50"
   viewBox="0 0 13.229166 13.229167"
   version="1.1"
   id="svg8"
   sodipodi:docname="squid_terror_solo.svg"
   inkscape:version="0.91 r13725">
  <defs
     id="defs2" />
  <sodipodi:namedview
     id="base"
     pagecolor="#ffffff"
     bordercolor="#666666"
     borderopacity="1.0"
     inkscape:pageopacity="0.0"
     inkscape:pageshadow="2"
     inkscape:zoom="22.627417"
     inkscape:cx="17.070583"
     inkscape:cy="27.488421"
     inkscape:document-units="mm"
     inkscape:current-layer="layer1"
     showgrid="false"
     units="px"
     inkscape:window-width="2450"
     inkscape:window-height="1392"
     inkscape:window-x="110"
     inkscape:window-y="48"
     inkscape:window-maximized="1" />
  <metadata
     id="metadata5">
    <rdf:RDF>
      <cc:Work
         rdf:about="">
        <dc:format>image/svg+xml</dc:format>
        <dc:type
           rdf:resource="http://purl.org/dc/dcmitype/StillImage" />
        <dc:title />
      </cc:Work>
    </rdf:RDF>
  </metadata>
  <g
     inkscape:label="Layer 1"
     inkscape:groupmode="layer"
     id="layer1"
     transform="translate(0,-283.77082)">
    <path
       style="fill:#000000;stroke-width:0.26458332"
       id="path94"
       d="m 5.3928642,291.01368 c 0.040509,-0.055 0.081552,-0.10969 0.1215281,-0.16511 0.1475005,-0.20452 0.2928176,-0.4106 0.4387443,-0.61623 0.2834269,-0.39941 0.5655206,-0.79973 0.8465087,-1.20085 0.3487391,-0.4979 0.7064449,-0.98941 1.0566572,-1.48626 0.110341,-0.1519 0.2140741,-0.3083 0.3133357,-0.46761 0.035951,-0.0509 0.061959,-0.10754 0.092728,-0.16144 0.02095,-0.0297 0.027447,-0.0632 0.030877,-0.0986 0.00411,-0.0408 0.00254,-0.0806 -0.00683,-0.12039 -0.023951,-0.0706 -0.071859,-0.13064 -0.1166645,-0.18922 -0.069949,-0.0892 -0.1519,-0.16769 -0.2325781,-0.24695 -0.055849,-0.0515 -0.1098182,-0.10503 -0.1636826,-0.15861 -0.015984,-0.0173 -0.0554,-0.0391 -0.049661,-0.0684 0.00108,-0.006 0.005,-0.0101 0.0075,-0.0152 0.05729,-0.0312 0.1127956,-0.066 0.1718707,-0.0937 0.011234,-0.005 0.024622,-0.003 0.036981,-0.004 0.015767,-10e-4 0.031551,-0.003 0.04737,-0.003 0.074434,-0.003 0.1493901,-2e-5 0.2238523,-1.8e-4 0.1910287,2.8e-4 0.3824248,-0.007 0.571984,-0.0316 0.045439,-0.006 0.090631,-0.0137 0.1359463,-0.0206 0.2053757,-0.0337 0.4070416,-0.0871 0.6048121,-0.15147 0.1274331,-0.0415 0.1998914,-0.0698 0.3261744,-0.11668 0.3357352,-0.12709 0.6581542,-0.28603 0.9773602,-0.44947 0.138805,-0.0717 0.276126,-0.14624 0.412247,-0.2229 0.0066,-0.004 -0.02645,0.0145 -0.02004,0.0105 0.06531,-0.0407 0.13158,-0.0798 0.197084,-0.12011 0.157559,-0.10047 0.319771,-0.19309 0.481775,-0.2861 0.0087,-0.003 0.01694,-0.009 0.02622,-0.0105 0.06844,-0.0117 0.03827,0.13411 0.03461,0.16121 -0.03883,0.22835 -0.06845,0.45781 -0.0904,0.68836 -0.02247,0.27071 -0.03069,0.54268 -0.02277,0.81424 0.0016,0.0538 0.0046,0.10752 0.0069,0.16128 0.0137,0.25606 0.04625,0.51125 0.103304,0.76138 0.01076,0.0472 0.02348,0.0939 0.03523,0.14081 0.06306,0.25037 0.144281,0.49549 0.230081,0.73883 0.03609,0.10795 0.0811,0.21248 0.122762,0.31829 0.04142,0.11358 -0.01458,0.0885 -0.151309,0.16179 -0.05528,-0.0171 -0.107523,-0.044 -0.160625,-0.0671 -0.08778,-0.0365 -0.172824,-0.079 -0.259619,-0.11755 -0.08074,-0.0354 -0.16507,-0.0615 -0.247595,-0.0922 -0.04833,-0.0181 -0.09712,-0.0344 -0.148083,-0.0431 -0.02677,-0.004 -0.05389,-0.004 -0.08089,-0.004 -0.01178,0.003 -0.03594,-0.003 -0.04647,3.2e-4 -0.0034,10e-4 -0.01132,0.009 -0.0082,0.007 0.04664,-0.0248 0.09253,-0.051 0.138796,-0.0765 -0.004,0.006 -0.0083,0.0118 -0.01201,0.018 -0.02146,0.0361 -0.03868,0.0747 -0.05925,0.11124 -0.02306,0.041 -0.04644,0.078 -0.07118,0.11829 -0.07497,0.11797 -0.14621,0.23838 -0.223644,0.35477 -0.05359,0.0806 -0.09837,0.14258 -0.154527,0.22193 -0.236347,0.32526 -0.484004,0.6422 -0.733389,0.95751 -0.3320698,0.42643 -0.6659152,0.85145 -0.9958972,1.2795 -0.248648,0.31627 -0.4956617,0.63374 -0.7396168,0.95363 -0.1092512,0.14413 -0.2234581,0.28444 -0.3421287,0.42089 -0.058576,0.0655 -0.115579,0.13204 -0.1698456,0.20112 -0.03279,0.0386 -0.057723,0.0826 -0.08508,0.12498 -0.017216,0.0291 -0.039293,0.0544 -0.061803,0.0793 -0.019108,0.0198 -0.040473,0.0374 -0.061455,0.0552 -0.066186,0.0502 -0.136243,0.10573 -0.2195423,0.11778 -0.024111,0.003 -0.0484,0.002 -0.072606,0.002 -0.052395,0.004 -0.08848,-0.0125 -0.1343326,-0.036 -0.1177275,-0.0704 -0.232604,-0.14571 -0.3463759,-0.22236 -0.1704231,-0.11833 -0.3378136,-0.24094 -0.5085336,-0.35885 -0.1806739,-0.12323 -0.3620447,-0.24544 -0.5424038,-0.36914 -0.1478209,-0.10082 -0.2939381,-0.20406 -0.4389556,-0.30886 -0.094683,-0.0664 -0.1840773,-0.14008 -0.2641656,-0.22353 -0.037989,-0.0435 -0.078806,-0.0891 -0.095005,-0.1461 -0.00273,-0.01 -0.00394,-0.0196 -0.00592,-0.0294 -0.00717,-0.0742 0.014962,-0.14443 0.044606,-0.21137 0.047977,-0.093 0.1151302,-0.17438 0.181959,-0.2543 0.06951,-0.0795 0.1439772,-0.15436 0.217629,-0.22997 0.050388,-0.0504 0.095604,-0.10515 0.1350701,-0.1644 0.021323,-0.0344 0.045043,-0.0671 0.066668,-0.10128 0.00704,-0.0111 0.01165,-0.0234 0.016452,-0.0356 0,0 0.1580325,-0.0731 0.1580325,-0.0731 v 0 c -0.0052,0.0128 -0.00909,0.026 -0.015526,0.0383 -0.020645,0.0353 -0.046176,0.0674 -0.067562,0.1023 -0.039067,0.0608 -0.084445,0.11688 -0.1354526,0.16819 -0.073939,0.0756 -0.1488239,0.15024 -0.2191726,0.22925 -0.066508,0.0785 -0.1327039,0.15879 -0.1822707,0.24941 -0.030104,0.0633 -0.052636,0.13017 -0.048172,0.20136 0.00151,0.009 0.00228,0.0181 0.00456,0.0269 0.014269,0.055 0.054077,0.0988 0.089916,0.14081 0.078872,0.0829 0.1668732,0.15618 0.260024,0.22256 0.1437466,0.10575 0.2893642,0.20891 0.4365035,0.30988 0.1799802,0.12411 0.3607327,0.24705 0.5417881,0.36957 0.1709547,0.11794 0.3386235,0.24058 0.5103648,0.35739 0.1142675,0.0759 0.2294687,0.15095 0.3493691,0.21766 0.021878,0.0101 0.035503,0.0178 0.058377,0.0236 0.024027,0.006 0.048866,0.004 0.073356,0.005 0.023603,-2e-4 0.047428,-5e-5 0.07066,-0.005 0.00976,-0.003 0.013002,-0.003 0.022352,-0.007 0.00377,-0.002 0.01456,-0.007 0.011036,-0.005 -0.2462339,0.14565 -0.1629307,0.0999 -0.1142312,0.0645 0.02195,-0.0161 0.041124,-0.0357 0.06255,-0.0525 0.022376,-0.0247 0.046155,-0.0482 0.063454,-0.077 0.027718,-0.043 0.053306,-0.0875 0.085834,-0.12716 0.055554,-0.0691 0.1113028,-0.13782 0.1717638,-0.20285 0.1217787,-0.13715 0.2389007,-0.27843 0.3511095,-0.42353 0.2479802,-0.32034 0.4975016,-0.63943 0.7484184,-0.95746 0.3313009,-0.42715 0.6659237,-0.85167 0.9960517,-1.27972 0.2460853,-0.31363 0.4903113,-0.6289 0.7234483,-0.95233 0.05524,-0.0784 0.100119,-0.14083 0.152833,-0.22042 0.0765,-0.11552 0.146717,-0.23509 0.219911,-0.35269 0.04876,-0.0807 0.09653,-0.16172 0.135856,-0.24752 0.143413,-0.0901 0.113036,-0.103 0.216918,-0.10104 0.02753,3.7e-4 0.05512,0.002 0.08219,0.007 0.05085,0.0107 0.09977,0.0279 0.148237,0.0466 0.08244,0.0311 0.166581,0.0579 0.247147,0.0938 0.08673,0.0389 0.172057,0.0809 0.260026,0.117 0.02505,0.0106 0.05014,0.0212 0.07516,0.0319 0.02597,0.0111 0.05344,0.0273 0.08259,0.0254 -0.04724,0.0277 -0.09529,0.054 -0.141705,0.083 -0.0023,0.001 0.0055,0.002 0.008,5.8e-4 0.0023,-9.5e-4 0.0039,-0.003 0.0047,-0.006 0.0055,-0.0164 -0.0065,-0.0361 -0.0098,-0.0511 -0.03885,-0.10742 -0.0823,-0.21318 -0.116686,-0.32221 -0.08278,-0.24511 -0.163465,-0.49119 -0.227063,-0.74211 -0.01176,-0.0472 -0.02453,-0.0941 -0.03529,-0.14153 -0.05701,-0.2511 -0.08962,-0.50728 -0.103316,-0.76428 -0.0135,-0.32558 -0.01386,-0.65174 0.01348,-0.97674 0.01206,-0.13534 0.02525,-0.27031 0.04296,-0.40505 0.01668,-0.12688 0.01221,-0.0822 0.02901,-0.20106 0.0037,-0.0263 0.007,-0.0527 0.01046,-0.079 0.0013,-0.0108 0.02198,-0.12635 -0.0025,-0.1316 -0.01086,-0.002 -0.03377,0.0109 -0.03993,0.0137 0.03766,-0.0219 0.07533,-0.0439 0.11298,-0.0658 0.01404,-0.008 -0.02809,0.0163 -0.04215,0.0245 -0.08953,0.0519 -0.177872,0.10564 -0.265757,0.16026 -0.282861,0.17384 -0.570438,0.34011 -0.866307,0.49095 -0.319494,0.1627 -0.642063,0.32104 -0.9779293,0.44755 -0.3047479,0.11273 -0.6138265,0.21778 -0.9360649,0.26793 -0.045661,0.007 -0.091197,0.0146 -0.1369851,0.0206 -0.1910072,0.0249 -0.3838234,0.0318 -0.5762609,0.0326 -0.075261,8e-4 -0.1512462,-0.001 -0.2264072,0.004 -0.015888,0.001 -0.031757,0.003 -0.047515,0.005 -0.012213,0.002 -0.04596,0.0149 -0.036309,0.007 0.038642,-0.0308 0.083824,-0.0523 0.1257361,-0.0785 -0.00415,10e-4 -0.00879,10e-4 -0.012449,0.004 -0.015425,0.01 0.035852,0.0496 0.040944,0.0559 0.052893,0.0542 0.1061114,0.108 0.1612696,0.15986 0.08092,0.0801 0.1628974,0.15952 0.2338385,0.24884 0.047026,0.06 0.096756,0.1214 0.1228534,0.19392 0.010724,0.0413 0.013769,0.0826 0.00963,0.12527 -0.00251,0.037 -0.00594,0.0743 -0.027547,0.10582 -0.033495,0.0535 -0.057592,0.11253 -0.09585,0.16326 -0.1026522,0.16139 -0.2095653,0.32005 -0.3240614,0.47334 -0.3614391,0.49941 -0.7295057,0.99404 -1.0843924,1.49818 -0.4597905,0.65253 -0.921254,1.30403 -1.3677259,1.96579 0,0 -0.1559378,0.0672 -0.1559378,0.0672 z"
       inkscape:connector-curvature="0" />
    <path
       style="fill:#000000;stroke-width:0.26458332"
       id="path132"
       d="m 7.4146787,289.40187 c -0.1566201,0.30036 -0.3280457,0.59268 -0.5029594,0.88266 -0.1807025,0.28983 -0.3746084,0.57113 -0.5814591,0.84286 -0.038987,0.0504 -0.079005,0.10007 -0.1181606,0.15037 -0.015793,0.0203 -0.030814,0.04 -0.042954,0.0626 -0.00212,0.008 -0.00534,0.0126 -0.00138,0.0202 0.00997,0.0191 0.046767,0.0333 0.064229,0.0414 0.123026,0.0529 0.2471108,0.10342 0.3712337,0.15372 0.1984433,0.0783 0.3906499,0.17031 0.5780209,0.27204 0.1279036,0.0706 0.2520127,0.14805 0.3653171,0.24046 0.046893,0.035 0.084298,0.0802 0.1262168,0.12053 0.00768,0.006 0.014089,0.0131 0.024585,0.0139 0.030407,0.002 0.095466,-0.0388 0.1187752,-0.0519 -0.028578,0.0154 -0.055115,0.0568 -0.085734,0.0461 -0.027329,-0.01 0.047103,-0.0337 0.069864,-0.0516 0.1327475,-0.10439 0.2497852,-0.22579 0.3658124,-0.34797 0.1825574,-0.20484 0.3622421,-0.41217 0.5469943,-0.61507 0.1078732,-0.11659 0.2124934,-0.23613 0.3115929,-0.36028 0.04049,-0.0485 0.071627,-0.10316 0.1012743,-0.15861 0.018703,-0.0363 0.040465,-0.071 0.056361,-0.10863 0.00948,-0.0234 0.011806,-0.0483 0.012814,-0.0733 -4.762e-4,-0.0433 -0.047284,-0.058 -0.079774,-0.0751 -0.1566796,-0.0738 -0.3192801,-0.13381 -0.4803746,-0.19704 -0.2055037,-0.0781 -0.3999497,-0.18078 -0.59153,-0.28776 -0.1431563,-0.0842 -0.2884694,-0.16457 -0.4331168,-0.24613 -0.064581,-0.0402 -0.1318168,-0.076 -0.1953207,-0.11797 -0.047338,-0.0326 -0.024249,-0.0171 -0.069192,-0.0465 -0.041096,-0.0218 -0.072925,-0.0565 -0.1113129,-0.082 -0.059126,-0.0307 -0.1088503,0.0262 0.1003165,-0.0695 0,0 -0.1585087,0.0677 -0.1585087,0.0677 v 0 c 0.1199481,-0.0761 0.1238515,-0.14121 0.2048341,-0.0916 0.036806,0.027 0.06915,0.0601 0.1090933,0.0829 0.085447,0.0577 0.1717579,0.1138 0.2613144,0.16509 0.1437417,0.082 0.2877253,0.16359 0.4300706,0.24802 0.190699,0.10722 0.3850045,0.20867 0.5900936,0.28597 0.1628934,0.0633 0.3273145,0.12306 0.4867013,0.19496 0.040164,0.0205 0.088242,0.0393 0.092176,0.0904 -5.821e-4,0.0266 -0.00198,0.0534 -0.010597,0.0789 -0.014507,0.039 -0.037014,0.074 -0.056208,0.11082 -0.030789,0.0564 -0.060644,0.1134 -0.1026819,0.1626 -0.100924,0.12552 -0.2076813,0.24615 -0.3174908,0.36396 -0.1860888,0.20267 -0.3668903,0.40999 -0.5490286,0.6162 -0.090761,0.0968 -0.181814,0.19286 -0.2807457,0.28149 -0.024635,0.0221 -0.1142143,0.0984 -0.1465059,0.11904 -0.066576,0.0426 -0.1357323,0.0811 -0.2035982,0.12165 -0.035546,0.0187 -0.087565,0.0558 -0.1313608,0.0413 -0.011205,-0.004 -0.018828,-0.0118 -0.027449,-0.0192 -0.040338,-0.0409 -0.07743,-0.0852 -0.1228865,-0.12083 -0.1105974,-0.093 -0.2331008,-0.17009 -0.3590637,-0.24059 -0.1868802,-0.10185 -0.3788558,-0.19362 -0.5777214,-0.26991 -0.1259184,-0.0497 -0.2518259,-0.0996 -0.3770429,-0.15105 -0.027959,-0.0134 -0.074202,-0.032 -0.078579,-0.0687 -6.35e-4,-0.005 0.00101,-0.0107 0.00151,-0.0161 0.010978,-0.0256 0.026497,-0.0455 0.043979,-0.0674 0.040894,-0.0511 0.083117,-0.10115 0.1238009,-0.15243 0.2124885,-0.2714 0.4112311,-0.55331 0.5933551,-0.84606 0.172194,-0.28541 0.3398404,-0.57409 0.4865201,-0.87361 0,0 0.1558771,-0.0708 0.1558771,-0.0708 z"
       inkscape:connector-curvature="0" />
    <path
       style="fill:#000000;stroke-width:0.26458332"
       id="path170"
       d="m 7.5398626,290.81963 c 0.1253154,0.0606 0.2485517,0.12536 0.3708218,0.19182 0.1238832,0.0707 0.061426,0.0328 0.1870554,0.1142 0,0 -0.1378823,0.0886 -0.1378823,0.0886 v 0 c -0.1262407,-0.0798 -0.063525,-0.0425 -0.187869,-0.11219 -0.123221,-0.0657 -0.2472283,-0.13074 -0.3757528,-0.18548 0,0 0.1436269,-0.097 0.1436269,-0.097 z"
       inkscape:connector-curvature="0" />
    <path
       style="fill:#ffffff;fill-opacity:0.45588235;stroke-width:0.04419417"
       d="m 28.92671,31.697403 c -0.697985,-0.72982 -2.157567,-1.555261 -4.323521,-2.445094 -0.592376,-0.243364 -1.125754,-0.474393 -1.185283,-0.513399 -0.105533,-0.06915 -0.106336,-0.07388 -0.03216,-0.189409 0.04184,-0.06517 0.209376,-0.287534 0.372305,-0.494142 1.154918,-1.464534 2.47974,-3.498482 3.687614,-5.66145 l 0.360419,-0.645411 0.174516,0.120501 c 0.311062,0.214785 2.674719,1.550755 3.356496,1.897136 0.364602,0.185238 1.06066,0.4933 1.546796,0.684583 1.062029,0.417881 1.652192,0.675427 1.756718,0.766627 0.125163,0.109207 0.0927,0.326437 -0.104888,0.701888 -0.331029,0.629004 -0.456962,0.783085 -2.563464,3.136439 -1.77989,1.988467 -2.281773,2.476372 -2.868766,2.788864 -0.01314,0.007 -0.09269,-0.05921 -0.176777,-0.147133 z m 1.428443,-3.711742 c 0.139004,-0.08695 0.252734,-0.172938 0.252734,-0.191092 0,-0.05271 -0.716434,-0.466759 -1.441544,-0.833112 l -0.668146,-0.337572 -0.270561,0.174358 c -0.148809,0.0959 -0.265778,0.187514 -0.259932,0.203592 0.0058,0.01608 0.348715,0.198678 0.761931,0.405775 0.413215,0.207098 0.880568,0.456516 1.038563,0.554261 0.157994,0.09774 0.297828,0.178654 0.310742,0.179798 0.01291,0.0011 0.13721,-0.06906 0.276213,-0.156008 z"
       id="path4655"
       inkscape:connector-curvature="0"
       transform="matrix(0.26458333,0,0,0.26458333,0,283.77082)" />
    <path
       style="fill:#ffffff;fill-opacity:0.45588235;stroke-width:0.04419417"
       d="m 28.904332,31.67541 c -0.204488,-0.211454 -0.847297,-0.698872 -1.257455,-0.95348 -0.748297,-0.46451 -1.717023,-0.925558 -3.373376,-1.605498 -0.43341,-0.177916 -0.827792,-0.355691 -0.876404,-0.395055 -0.08607,-0.0697 -0.06847,-0.09813 0.672983,-1.086949 1.211325,-1.615451 2.153101,-3.074396 3.303608,-5.117758 l 0.43022,-0.764093 0.237484,0.151725 c 0.471074,0.300962 2.647312,1.529209 3.295699,1.860059 0.364602,0.186045 1.06066,0.494835 1.546796,0.686202 1.062876,0.4184 1.652299,0.675675 1.756718,0.766782 0.125163,0.109207 0.0927,0.326437 -0.104888,0.701888 -0.325231,0.617987 -0.466643,0.792245 -2.402139,2.960086 -1.411775,1.58125 -1.727718,1.918838 -2.180972,2.330383 -0.306996,0.278747 -0.796857,0.646356 -0.861307,0.646356 -0.0067,0 -0.09088,-0.08129 -0.186967,-0.180648 z m 1.450821,-3.689749 c 0.139004,-0.08695 0.252734,-0.172938 0.252734,-0.191092 0,-0.05271 -0.716434,-0.466759 -1.441544,-0.833112 l -0.668146,-0.337572 -0.270594,0.174358 c -0.148826,0.0959 -0.270767,0.184799 -0.27098,0.19756 -2.21e-4,0.01276 0.319196,0.181803 0.709797,0.37565 0.390601,0.193848 0.862926,0.445993 1.049611,0.560325 0.186686,0.114331 0.349995,0.208796 0.362909,0.209922 0.01291,0.0011 0.13721,-0.06909 0.276213,-0.156039 z"
       id="path4689"
       inkscape:connector-curvature="0"
       transform="matrix(0.26458333,0,0,0.26458333,0,283.77082)" />
    <path
       style="fill:#ffffff;fill-opacity:0.45588235;stroke-width:0.04419417"
       d="m 28.783291,31.570092 c -0.529661,-0.498312 -1.592225,-1.161007 -2.661113,-1.659669 -0.243068,-0.113397 -0.936171,-0.411551 -1.54023,-0.662564 -0.604059,-0.251014 -1.137652,-0.488263 -1.185763,-0.52722 -0.08486,-0.06871 -0.06488,-0.100974 0.667863,-1.078409 1.19367,-1.59229 2.177904,-3.117509 3.31361,-5.134938 l 0.423899,-0.753 0.348686,0.215759 c 0.625777,0.387215 2.686605,1.542207 3.297333,1.847992 0.328142,0.164297 1.044088,0.477313 1.59099,0.695592 1.195459,0.477128 1.500115,0.610608 1.602039,0.701911 0.125226,0.112175 0.09303,0.330894 -0.103825,0.705345 -0.32769,0.623317 -0.481858,0.81191 -2.543362,3.111288 -1.48276,1.653854 -1.661388,1.84434 -2.092638,2.231557 -0.274256,0.246253 -0.753267,0.597828 -0.80442,0.590413 -0.0072,-0.0011 -0.148126,-0.128876 -0.313069,-0.284057 z m 1.571862,-3.584431 c 0.139004,-0.08695 0.252734,-0.172938 0.252734,-0.191092 0,-0.05142 -0.686492,-0.448175 -1.431314,-0.827228 l -0.676836,-0.344453 -0.271364,0.174857 c -0.14925,0.09617 -0.271537,0.185297 -0.27175,0.198058 -2.21e-4,0.01276 0.319196,0.181803 0.709797,0.37565 0.390601,0.193848 0.862926,0.445993 1.049611,0.560325 0.186686,0.114331 0.349995,0.208796 0.362909,0.209922 0.01291,0.0011 0.13721,-0.06909 0.276213,-0.156039 z"
       id="path4691"
       inkscape:connector-curvature="0"
       transform="matrix(0.26458333,0,0,0.26458333,0,283.77082)" />
    <path
       style="fill:#ffffff;fill-opacity:0.45588235;stroke-width:0.04419417"
       d="m 28.783291,31.570092 c -0.795278,-0.748208 -2.031965,-1.426041 -4.354901,-2.386939 -0.518368,-0.214426 -0.982926,-0.422611 -1.032351,-0.462633 -0.08811,-0.07135 -0.07789,-0.08864 0.525063,-0.888245 1.355356,-1.797391 2.459444,-3.508614 3.59375,-5.569946 l 0.281647,-0.511827 0.333985,0.207128 c 0.617929,0.383222 2.675523,1.535064 3.297324,1.845845 0.339015,0.169442 1.063856,0.488024 1.610758,0.707961 1.216898,0.489374 1.502401,0.614855 1.602039,0.70411 0.125226,0.112175 0.09303,0.330894 -0.103825,0.705345 -0.327466,0.622891 -0.479371,0.808755 -2.542842,3.111288 -1.458887,1.627905 -1.701712,1.886625 -2.115255,2.253713 -0.258237,0.229228 -0.734521,0.575186 -0.782323,0.568257 -0.0072,-0.0011 -0.148126,-0.128876 -0.313069,-0.284057 z m 1.564698,-3.584224 c 0.142944,-0.08683 0.259898,-0.1728 0.259898,-0.191037 0,-0.05015 -0.692449,-0.44978 -1.440774,-0.831508 l -0.667376,-0.340435 -0.271364,0.174857 c -0.14925,0.09617 -0.271537,0.185297 -0.27175,0.198058 -2.21e-4,0.01276 0.319196,0.181803 0.709797,0.37565 0.390601,0.193848 0.862926,0.445993 1.049611,0.560325 0.186686,0.114331 0.346771,0.208796 0.355745,0.209922 0.009,0.0011 0.13327,-0.069 0.276213,-0.155832 z"
       id="path4693"
       inkscape:connector-curvature="0"
       transform="matrix(0.26458333,0,0,0.26458333,0,283.77082)" />
    <path
       style="fill:#00e5c6;fill-opacity:0.45490196"
       d="m 27.882108,34.662434 c -0.38663,-0.201731 -1.157346,-0.701647 -2.047191,-1.327888 -0.413216,-0.290806 -1.44736,-1.005909 -2.298097,-1.589119 -2.716287,-1.862106 -3.398841,-2.391247 -3.736728,-2.896846 -0.124793,-0.186735 -0.135888,-0.23167 -0.121861,-0.493542 0.01962,-0.366373 0.161938,-0.664236 0.564257,-1.180988 0.335261,-0.430621 1.057734,-1.207193 1.059063,-1.138366 4.69e-4,0.02431 -0.208206,0.330076 -0.463722,0.679486 -0.255516,0.349411 -0.455868,0.643998 -0.445227,0.65464 0.01064,0.01064 0.14993,-0.03659 0.309529,-0.104962 l 0.290181,-0.124309 0.697729,-1.021277 c 0.606553,-0.887818 0.746302,-1.063653 1.069424,-1.345558 0.338204,-0.295063 0.420248,-0.435097 0.179398,-0.306198 -0.05204,0.02785 -0.102959,0.0423 -0.113148,0.03212 -0.04048,-0.04048 3.582479,-5.161967 6.11221,-8.640351 2.529809,-3.478493 2.969051,-4.154513 3.006587,-4.627318 0.04516,-0.568846 -0.152654,-0.892477 -1.191814,-1.9498562 l -0.742282,-0.755297 0.961649,-0.028535 c 1.425875,-0.04231 2.29465,-0.1566997 3.480716,-0.4582967 2.504649,-0.6368914 5.722908,-2.1283723 9.357808,-4.3368149 0.406969,-0.2472609 0.75997,-0.4495653 0.784446,-0.4495653 0.06602,0 0.0557,0.1638816 -0.06397,1.0167887 -0.252192,1.7972894 -0.357947,3.4404682 -0.314279,4.8831335 0.07556,2.4961372 0.326388,3.8116562 1.261884,6.6180772 0.232945,0.698821 0.410401,1.270583 0.394347,1.270583 -0.01605,0 -0.225576,-0.09176 -0.465604,-0.203923 -0.240029,-0.112157 -0.734727,-0.313898 -1.099329,-0.448313 -0.522282,-0.192545 -0.733228,-0.248561 -0.994369,-0.264051 -0.32963,-0.01955 -0.333074,-0.01861 -0.625332,0.172099 -0.238703,0.155759 -0.316006,0.236634 -0.411747,0.430775 -0.15223,0.308689 -0.690122,1.199845 -1.155424,1.914257 -0.741616,1.138656 -1.366393,1.966742 -5.07749,6.729758 -4.663697,5.985632 -5.204658,6.674104 -5.739757,7.304904 -0.29467,0.347372 -0.682206,0.804781 -0.86119,1.016466 -0.178985,0.211685 -0.395401,0.494262 -0.480926,0.62795 -0.265798,0.415481 -0.351667,0.486136 -0.590821,0.486136 -0.151057,0 -0.287433,-0.04067 -0.488917,-0.145795 z m 1.416348,-2.713305 c 0.891962,-0.517956 1.301364,-0.902102 3.092908,-2.902105 2.463021,-2.749612 2.432407,-2.712492 2.762338,-3.349356 0.237385,-0.458223 0.264881,-0.673133 0.105301,-0.82305 -0.132348,-0.124335 -0.584,-0.325991 -1.601718,-0.715143 -0.461829,-0.176594 -1.140387,-0.465533 -1.507907,-0.642087 -1.102041,-0.529414 -3.653739,-2.020517 -4.102261,-2.397186 -0.278189,-0.233621 -0.393002,-0.218855 -0.753793,0.09695 -0.144756,0.126706 -0.160766,0.155108 -0.08839,0.156797 0.04861,0.0011 0.122582,0.02804 0.164375,0.05978 0.06974,0.05298 0.04535,0.116356 -0.296909,0.77134 -1.15165,2.203945 -2.478263,4.25662 -3.88949,6.018227 -0.223931,0.279528 -0.431225,0.554313 -0.460654,0.610633 -0.107923,0.206541 4.56e-4,0.274233 1.220634,0.762387 1.314578,0.525919 2.655636,1.179305 3.338572,1.626606 0.260852,0.17085 0.638712,0.470124 0.83969,0.665054 0.472016,0.457813 0.492397,0.458871 1.177302,0.06115 z"
       id="path3423"
       inkscape:connector-curvature="0"
       transform="matrix(0.26458334,0,0,0.26458334,-5.0465268e-7,283.77082)" />
    <path
       style="fill:#000000"
       id="path3353"
       d="m 5.0997378,291.41965 c -0.013597,0.0111 -0.02682,0.0226 -0.04079,0.0332 -0.038342,0.0291 -0.094484,0.0678 -0.1347507,0.0917 -0.1284957,0.0764 -0.2048135,0.12557 -0.3294372,0.17925 -0.036638,0.0158 -0.074222,0.0293 -0.1113325,0.0439 -0.2381512,0.0893 -0.4907079,0.12615 -0.7402788,0.16803 -0.1889622,0.0305 -0.3811241,0.0641 -0.5555609,0.14679 -0.029872,0.0142 -0.058242,0.0313 -0.087364,0.0469 0.020084,-0.01 0.066795,-0.0498 0.060251,-0.0286 -0.00874,0.0284 -0.047036,0.0364 -0.068863,0.0565 -0.020574,0.019 -0.040249,0.0391 -0.058115,0.0606 -0.031385,0.0379 -0.060026,0.084 -0.078695,0.12966 -0.0084,0.0206 -0.013134,0.0425 -0.019701,0.0637 -0.015428,0.0705 -0.015076,0.14433 0.046683,0.19305 0.037625,0.0297 0.068801,0.0361 0.1137126,0.0519 0.1716522,0.0457 0.3443947,0.0252 0.5169691,-0.001 0.1183386,-0.0188 0.2342222,-0.0495 0.3506859,-0.0771 0.023297,-0.006 0.063656,-0.0168 0.074915,0.0151 0.00764,0.0217 -9.79e-4,0.0332 -0.00806,0.0542 -0.00843,0.0133 -0.015891,0.0273 -0.025307,0.0399 -0.029266,0.0393 -0.067282,0.0778 -0.1009139,0.11264 -0.080979,0.0838 -0.166048,0.16136 -0.2535082,0.23835 -0.2448456,0.20877 -0.5060288,0.39723 -0.7680584,0.58358 -0.2294676,0.16204 -0.4617819,0.32271 -0.6698307,0.51233 -0.038343,0.0349 -0.074905,0.0718 -0.1123571,0.10769 -0.1211967,0.12756 -0.2467455,0.25888 -0.3254894,0.41851 -0.04035,0.0818 -0.040994,0.10373 -0.061996,0.1895 -0.00157,0.0285 -0.00594,0.0571 -0.00472,0.0856 0.00326,0.0765 0.031323,0.15022 0.086577,0.20455 0.052628,0.0518 0.082978,0.0584 0.1499391,0.0894 0.03314,0.008 0.065719,0.0188 0.099419,0.024 0.1165114,0.0178 0.2380209,0.006 0.3516015,-0.0232 0.103146,-0.0266 0.1359093,-0.0461 0.2327412,-0.0894 -0.010089,0.005 -0.039115,0.0238 -0.030266,0.0164 0.130418,-0.10783 0.075677,-0.038 0.1933243,-0.16412 0.05632,-0.0604 0.1168029,-0.14051 0.1625745,-0.20891 0.025202,-0.0377 0.047811,-0.077 0.071717,-0.11548 0.1184341,-0.20729 0.2099842,-0.4281 0.3104171,-0.64427 0.055911,-0.11405 0.1263341,-0.2211 0.2230015,-0.30488 0.022468,-0.0195 0.045735,-0.0383 0.07104,-0.054 0.070409,-0.0434 0.1437487,-0.0819 0.215623,-0.12289 0.085093,-0.0334 0.1901923,-0.0674 0.2792537,-0.0248 0.059762,0.0286 0.063618,0.0499 0.1009409,0.10353 0.00915,0.0294 0.021638,0.058 0.027439,0.0883 0.041561,0.21684 -0.050862,0.47336 -0.1190019,0.67593 -0.081759,0.22978 -0.1908918,0.44817 -0.2932237,0.66911 -0.079822,0.17234 -0.068071,0.14786 -0.1426839,0.31797 -0.01978,0.0492 -0.040957,0.0979 -0.05934,0.14768 -0.05847,0.15828 -0.1136584,0.338 -0.1161725,0.50822 -4.762e-4,0.0321 0.00366,0.0641 0.00549,0.0961 0.00705,0.0286 0.011419,0.058 0.021148,0.0858 0.025577,0.0731 0.072364,0.13847 0.1352052,0.1841 0.047473,0.0345 0.069145,0.0378 0.1231715,0.0569 0.022072,0.003 0.043967,0.008 0.066214,0.009 0.045886,0.002 0.085313,-0.004 0.128579,-0.0191 0.020571,-0.007 0.078373,-0.0384 0.059454,-0.0275 -0.028272,0.0163 -0.055341,0.0487 -0.08759,0.0437 -0.023794,-0.004 0.035346,-0.0327 0.053018,-0.0491 0.015915,-0.0196 0.033198,-0.0381 0.047743,-0.0587 0.08845,-0.12523 0.1334299,-0.27788 0.1823654,-0.42126 0.061998,-0.18229 0.1482228,-0.35583 0.2629138,-0.51089 0.0244,-0.033 0.051248,-0.0641 0.076873,-0.0961 0.074515,-0.0816 0.1547968,-0.16089 0.2508199,-0.21734 0.090006,-0.0529 0.1969175,-0.12433 0.3059145,-0.14983 0.025916,-0.006 0.052756,-0.007 0.079135,-0.0106 0.02553,0.002 0.051359,4.2e-4 0.076588,0.005 0.1159415,0.0193 0.2114481,0.0982 0.2864697,0.18431 0.024807,0.0285 0.046255,0.0597 0.069382,0.0896 0.138216,0.20889 0.2310199,0.44293 0.3337243,0.67026 0.06239,0.12739 0.1262888,0.26337 0.2377469,0.35636 0.014674,0.0122 0.031346,0.0219 0.047019,0.0328 0.033249,0.0152 0.050149,0.0282 0.087518,0.0262 0.013174,-6.9e-4 0.049286,-0.0172 0.038324,-0.01 -0.034749,0.0233 -0.070542,0.0478 -0.1109752,0.0585 -0.01619,0.004 0.02372,-0.0239 0.032949,-0.0379 0.010737,-0.0162 0.017669,-0.0347 0.026504,-0.0521 0.0059,-0.0222 0.013682,-0.0439 0.017701,-0.0665 0.028412,-0.15972 -0.00297,-0.32803 -0.029613,-0.48552 -0.026075,-0.14604 -0.06491,-0.28976 -0.083906,-0.43709 -0.011655,-0.0904 -0.00992,-0.10539 -0.012327,-0.19395 0.00435,-0.093 0.00827,-0.19603 0.061382,-0.27701 0.029623,-0.0452 0.045998,-0.0501 0.089633,-0.0799 0.067747,-0.0346 0.1331849,-0.0742 0.2032407,-0.10388 0.020182,-0.009 0.043138,-0.009 0.065025,-0.01 0.071799,-0.004 0.1461328,0.0124 0.2126591,0.0383 0.02553,0.01 0.049799,0.0229 0.074698,0.0343 0.1403382,0.0735 0.2710048,0.16348 0.4088871,0.24124 0.028378,0.016 0.057306,0.031 0.08596,0.0465 0.1198563,0.058 0.2501294,0.11545 0.3867124,0.10746 0.019645,-0.001 0.038944,-0.006 0.058416,-0.009 0.016346,-0.006 0.062951,-0.0272 0.049037,-0.0169 -0.031889,0.0235 -0.066827,0.0439 -0.1040585,0.0575 -0.015396,0.006 0.025844,-0.0205 0.036544,-0.0329 0.042837,-0.0497 0.048777,-0.0953 0.05856,-0.15747 0.010821,-0.16426 -0.067625,-0.30829 -0.1470665,-0.44593 -0.097849,-0.15811 -0.2140001,-0.30354 -0.3197112,-0.45624 -0.058023,-0.0836 -0.1053581,-0.175 -0.1304642,-0.27405 -0.014592,-0.0576 -0.014446,-0.0776 -0.020317,-0.13601 -0.00103,-0.10265 1.352e-4,-0.21356 0.043975,-0.30902 0.00897,-0.0195 0.021143,-0.0374 0.031715,-0.0562 0.049454,-0.0691 0.024477,-0.0363 0.074609,-0.0987 0,0 0.1547482,-0.0659 0.1547482,-0.0659 l 0,0 c -0.051386,0.0613 -0.025889,0.0292 -0.076234,0.0965 -0.010782,0.0177 -0.023135,0.0346 -0.032344,0.0532 -0.045863,0.0926 -0.048413,0.20198 -0.048295,0.30281 0.00505,0.0574 0.00459,0.0767 0.018341,0.13325 0.023757,0.0977 0.069678,0.18797 0.1263756,0.2705 0.1052925,0.15347 0.2203386,0.30014 0.31945,0.45786 0.083042,0.14176 0.1620215,0.28412 0.1556768,0.45383 -0.00607,0.0497 -0.00523,0.0736 -0.02517,0.1198 -0.047836,0.11081 -0.1910649,0.17723 -0.3001269,0.20446 -0.019772,0.002 -0.039449,0.006 -0.059315,0.006 -0.1375926,0.002 -0.2672321,-0.0565 -0.3877831,-0.11595 -0.028706,-0.0157 -0.057652,-0.0309 -0.086116,-0.047 -0.1375389,-0.0779 -0.2683939,-0.16738 -0.4097219,-0.23852 -0.024712,-0.0107 -0.048823,-0.023 -0.074138,-0.0322 -0.065824,-0.024 -0.1389031,-0.038 -0.2091902,-0.0312 -0.021426,0.002 -0.072338,0.0319 -0.063373,0.0124 0.014494,-0.0316 0.05686,-0.0402 0.085291,-0.0602 -0.042719,0.0251 -0.062916,0.0311 -0.093152,0.0718 -0.057064,0.0768 -0.061909,0.18018 -0.068374,0.27127 9.261e-4,0.089 -0.00127,0.10185 0.00967,0.19283 0.017751,0.1475 0.056787,0.2912 0.083226,0.43715 0.028293,0.16008 0.060174,0.32599 0.037326,0.48913 -0.00327,0.0233 -0.010054,0.046 -0.015081,0.069 -0.00914,0.0209 -0.031583,0.0821 -0.054025,0.0978 -0.077019,0.0537 -0.1690389,0.13795 -0.2693657,0.10069 -0.016126,-0.006 -0.030601,-0.0157 -0.045902,-0.0236 -0.015817,-0.0119 -0.032631,-0.0225 -0.04745,-0.0356 -0.1101336,-0.0973 -0.1740699,-0.23449 -0.2354945,-0.36471 -0.1001591,-0.22699 -0.19274,-0.45998 -0.3322529,-0.66651 -0.023225,-0.029 -0.044788,-0.0595 -0.069673,-0.0871 -0.074366,-0.0825 -0.1689222,-0.15715 -0.2822702,-0.17258 -0.024577,-0.003 -0.049585,-0.002 -0.074377,-0.002 -0.025551,0.004 -0.051597,0.006 -0.076655,0.0125 -0.02729,0.007 -0.054014,0.0396 -0.079774,0.0281 -0.020635,-0.009 0.074815,-0.0506 0.055442,-0.0389 -0.095996,0.0575 -0.1802995,0.1307 -0.2549356,0.21388 -0.025813,0.0317 -0.052887,0.0624 -0.077441,0.095 -0.1149017,0.15288 -0.2008045,0.32493 -0.262204,0.50567 -0.047324,0.14108 -0.094252,0.30044 -0.1772533,0.42514 -0.014105,0.0212 -0.030969,0.0404 -0.046453,0.0606 -0.099091,0.0986 -0.054829,0.0625 -0.2505035,0.1725 -0.035346,0.0199 -0.086019,0.0342 -0.1261399,0.0384 -0.05875,0.006 -0.077652,-0.001 -0.1354545,-0.0111 -0.055792,-0.0216 -0.077182,-0.0255 -0.1259781,-0.0627 -0.064273,-0.0489 -0.1120974,-0.11735 -0.1384224,-0.19354 -0.00997,-0.0289 -0.014499,-0.0593 -0.021746,-0.089 -0.00164,-0.0329 -0.00563,-0.0659 -0.00495,-0.0988 0.0035,-0.17102 0.06037,-0.35608 0.1194646,-0.51515 0.018619,-0.0501 0.040168,-0.0991 0.060252,-0.14864 0.078443,-0.17704 0.060885,-0.1395 0.1443062,-0.31908 0.1021458,-0.2199 0.2108451,-0.43742 0.2916674,-0.66646 0.066046,-0.19822 0.1568378,-0.45079 0.1152694,-0.66278 -0.00558,-0.0285 -0.017642,-0.0553 -0.026462,-0.0829 -0.014121,-0.0195 -0.025101,-0.0417 -0.042362,-0.0584 -0.066466,-0.0645 -0.1683991,-0.0556 -0.2493219,-0.0305 -0.02526,0.008 -0.049197,0.0194 -0.073796,0.0291 0.021841,-0.0137 0.079063,-0.0631 0.065523,-0.0412 -0.015608,0.0253 -0.049428,0.0332 -0.07232,0.0522 -0.098121,0.0813 -0.1694829,0.18702 -0.2264826,0.29988 -0.10277,0.21665 -0.1951932,0.43856 -0.313386,0.6476 -0.023691,0.0388 -0.04611,0.0784 -0.071077,0.11636 -0.045249,0.0688 -0.1053552,0.15001 -0.1608667,0.21122 -0.1278651,0.14097 -0.2632429,0.21924 -0.4358372,0.30784 -0.098496,0.0425 -0.1303741,0.0611 -0.2350982,0.0866 -0.1158479,0.0282 -0.2394685,0.0386 -0.3576681,0.019 -0.034673,-0.006 -0.068123,-0.0173 -0.1021849,-0.026 -0.069372,-0.0329 -0.1013712,-0.0405 -0.1559612,-0.0949 -0.057638,-0.0574 -0.08725,-0.13513 -0.091038,-0.2154 -0.0014,-0.0296 0.00293,-0.0592 0.00439,-0.0889 0.020829,-0.0873 0.021819,-0.11151 0.062277,-0.19473 0.078783,-0.16206 0.2061198,-0.295 0.3282377,-0.42456 0.1049073,-0.10121 0.1211142,-0.12046 0.2341016,-0.21466 0.1754064,-0.14624 0.3629016,-0.27741 0.5496693,-0.40847 0.2603749,-0.18513 0.5198152,-0.37248 0.763139,-0.57986 0.087434,-0.077 0.1682245,-0.15084 0.2488719,-0.23486 0.035071,-0.0365 0.066739,-0.0685 0.097725,-0.10811 0.009,-0.0115 0.016664,-0.024 0.024995,-0.036 0.00169,-0.004 0.015782,-0.0276 0.014549,-0.0374 -0.00241,-0.019 -0.055752,-3.7e-4 -0.061685,-2.9e-4 -0.1149964,0.0259 -0.2295178,0.0544 -0.3461988,0.072 -0.1750365,0.0254 -0.3502808,0.0437 -0.5236914,-0.004 -0.048592,-0.018 -0.07941,-0.0244 -0.1196636,-0.0577 -0.065032,-0.0538 -0.069785,-0.13197 -0.053332,-0.20905 0.018338,-0.0637 0.017455,-0.0747 0.0517,-0.13385 0.091402,-0.15788 0.2352164,-0.23265 0.3915672,-0.32172 0.029273,-0.0151 0.057842,-0.0316 0.087818,-0.0453 0.175337,-0.0798 0.3671948,-0.11167 0.555807,-0.14247 0.2493301,-0.0417 0.5014722,-0.0795 0.7385918,-0.17108 0.037134,-0.0151 0.074775,-0.029 0.1114012,-0.0453 0.034421,-0.0153 0.066389,-0.0361 0.1016239,-0.0495 0.018746,-0.007 -0.067681,0.0428 -0.051762,0.0306 0.023066,-0.0176 0.04922,-0.0308 0.073306,-0.0471 0.049904,-0.0336 0.054233,-0.0384 0.096283,-0.0722 0,0 0.1592376,-0.0653 0.1592376,-0.0653 z"
       inkscape:connector-curvature="0" />
    <path
       style="fill:#000000"
       id="path3357"
       d="m 7.3732723,293.40618 c 0.072193,-0.0518 0.1411663,-0.10777 0.2012778,-0.17331 0.019738,-0.027 0.052751,-0.0718 0.020786,-0.10371 -0.02332,-0.0233 -0.049429,-0.0263 -0.080249,-0.036 -0.1038572,-4.3e-4 -0.05103,-0.003 -0.1584574,0.007 0,0 0.1328222,-0.0981 0.1328222,-0.0981 l 0,0 c 0.1105884,-0.008 0.055556,-0.007 0.1650923,-0.003 0.037815,0.0132 0.062268,0.0155 0.089662,0.045 0.036054,0.0388 0.012414,0.0872 -0.0127,0.12341 -0.058416,0.0666 -0.1265134,0.1229 -0.1976604,0.17546 0,0 -0.1605725,0.0639 -0.1605725,0.0639 z"
       inkscape:connector-curvature="0" />
    <path
       style="fill:#00ffff"
       d="m 14.27773,47.857193 c -0.597402,-0.206346 -0.937136,-0.759799 -0.937136,-1.526667 0,-0.836212 0.350283,-1.865401 1.392252,-4.090668 0.754838,-1.612057 1.172463,-2.733379 1.328942,-3.5682 0.10962,-0.584828 0.07464,-1.123037 -0.09449,-1.453743 -0.168473,-0.329423 -0.372686,-0.456362 -0.735856,-0.457407 -0.336965,-9.73e-4 -0.581353,0.08563 -1.161038,0.411413 -0.554296,0.311514 -0.966455,0.686907 -1.2288,1.119186 -0.09072,0.149486 -0.383883,0.743601 -0.651471,1.320255 -0.696277,1.500486 -0.962478,1.957045 -1.548536,2.655882 C 9.9774604,43.05918 9.1467192,43.419102 8.0814878,43.376419 7.5061517,43.353366 7.3623129,43.317678 7.0218083,43.113499 6.2654676,42.65997 6.3132479,41.630412 7.1423414,40.516285 7.4589628,40.090813 8.5119381,39.040385 9.0553245,38.60793 9.2870998,38.423471 10.052764,37.860043 10.7568,37.355867 c 2.092147,-1.498232 2.983607,-2.203396 3.803278,-3.008469 0.502283,-0.493339 0.72506,-0.778885 0.72506,-0.929353 0,-0.189932 -0.113285,-0.19507 -0.79552,-0.03608 -1.636445,0.381349 -2.842031,0.354922 -3.249968,-0.07124 -0.118394,-0.123683 -0.130838,-0.16484 -0.13062,-0.431999 3.1e-4,-0.367605 0.149609,-0.698721 0.455516,-1.010186 0.341098,-0.347296 0.490224,-0.446373 0.889166,-0.590747 0.487987,-0.176598 0.706846,-0.225983 1.953921,-0.440893 2.111743,-0.36392 2.831482,-0.603774 4.059486,-1.352825 0.255221,-0.155679 0.506572,-0.313489 0.558557,-0.350689 0.08933,-0.06393 0.09964,-0.05936 0.187778,0.08326 0.27335,0.442291 1.101952,1.078151 3.85253,2.956391 0.764195,0.521832 1.767305,1.215747 2.229134,1.542032 0.945216,0.667802 1.846684,1.261164 2.142793,1.410423 0.147859,0.07453 0.310739,0.107175 0.640816,0.12843 l 0.442566,0.0285 -0.162988,0.07237 c -0.184363,0.08186 -0.390881,0.339775 -0.55882,0.69789 -0.09892,0.210945 -0.116357,0.316306 -0.131919,0.79725 -0.03085,0.953446 0.09564,1.266488 1.052897,2.605701 0.960425,1.343647 1.242058,1.919308 1.244507,2.543785 8.88e-4,0.22695 -0.02472,0.377423 -0.08896,0.522646 -0.08993,0.20329 -0.09091,0.203938 -0.311492,0.203938 -0.565791,0 -1.113879,-0.224286 -2.359608,-0.965586 -1.165833,-0.693756 -1.424699,-0.800586 -1.942539,-0.801656 -0.218745,-4.51e-4 -0.312052,0.02981 -0.676896,0.219526 -0.57499,0.298994 -0.667209,0.371486 -0.796063,0.625766 -0.257216,0.507592 -0.243903,1.299394 0.04533,2.696306 0.291084,1.405829 0.346729,2.144706 0.20003,2.65611 -0.06057,0.211138 -0.14519,0.213269 -0.410949,0.01035 -0.37535,-0.286601 -0.673892,-0.788447 -1.28782,-2.164813 -0.975984,-2.188057 -1.738323,-2.946693 -2.774276,-2.760804 -0.569391,0.10217 -1.503591,0.671102 -2.050015,1.248468 -0.65584,0.692978 -1.071963,1.428814 -1.517536,2.683482 -0.570975,1.607777 -0.926737,1.956824 -1.71645,1.684053 z"
       id="path3361"
       inkscape:connector-curvature="0"
       transform="matrix(0.26458334,0,0,0.26458334,-5.0465268e-7,283.77082)" />
    <path
       style="fill:#00f3e5;fill-opacity:1"
       d="m 14.404851,47.870706 c -0.956825,-0.257252 -1.274122,-1.232992 -0.862666,-2.65284 0.215029,-0.74202 0.384963,-1.15439 1.445757,-3.508338 0.604026,-1.340357 0.968633,-2.365718 1.093234,-3.074423 0.0302,-0.171758 0.04664,-0.501315 0.03653,-0.73235 -0.01555,-0.355624 -0.03845,-0.459954 -0.149258,-0.680107 -0.191314,-0.380103 -0.296455,-0.44077 -0.763893,-0.44077 -0.352968,0 -0.411485,0.01338 -0.735921,0.168278 -0.518157,0.247388 -1.043941,0.613755 -1.329472,0.926379 -0.211589,0.231666 -0.334771,0.44718 -0.776267,1.358119 -0.92856,1.915903 -1.113217,2.244159 -1.620236,2.88022 -0.504033,0.632314 -1.0823672,1.015279 -1.7613417,1.166337 -0.2375861,0.05286 -0.4826682,0.06807 -0.9150662,0.0568 C 7.4922819,43.323048 7.4671732,43.318268 7.1728757,43.167936 6.5114741,42.83008 6.3441743,42.247776 6.6638908,41.39636 c 0.2137069,-0.569109 0.6245415,-1.10124 1.5257358,-1.976199 0.6814823,-0.661643 0.9171561,-0.849375 2.5542604,-2.034663 2.289405,-1.657564 3.012273,-2.232695 3.839318,-3.054653 0.565534,-0.562055 0.718321,-0.76998 0.693566,-0.943861 -0.02062,-0.144834 -0.210243,-0.143267 -0.930963,0.0077 -0.893138,0.187073 -1.416305,0.242972 -2.014281,0.215221 -0.600244,-0.02786 -0.860706,-0.105426 -1.066317,-0.317561 -0.139672,-0.144106 -0.144096,-0.159796 -0.127225,-0.451198 0.02296,-0.396614 0.158068,-0.670849 0.499728,-1.014343 0.294047,-0.295624 0.554448,-0.446284 1.052184,-0.608762 0.321256,-0.104868 0.468609,-0.135367 2.153299,-0.445688 1.838642,-0.338678 2.479481,-0.572134 3.799446,-1.384125 l 0.462786,-0.284689 0.110091,0.14896 c 0.366307,0.495639 1.023289,0.993578 4.201347,3.184284 0.862891,0.59481 1.882268,1.298695 2.265283,1.564188 1.618395,1.121822 1.787253,1.209053 2.479904,1.281114 l 0.259478,0.027 -0.132825,0.08078 c -0.160244,0.09745 -0.311498,0.292696 -0.479245,0.618631 -0.11491,0.223272 -0.126454,0.290335 -0.141737,0.823449 -0.0098,0.342295 0.0047,0.683025 0.03531,0.830594 0.07769,0.37424 0.336859,0.843366 0.95397,1.726811 0.94299,1.349966 1.223324,1.888694 1.282289,2.464221 0.0351,0.342624 -0.06685,0.755563 -0.204764,0.829374 -0.116499,0.06235 -0.661101,-0.01189 -0.964495,-0.131477 -0.366645,-0.144519 -0.914187,-0.429973 -1.633614,-0.851666 -1.031139,-0.604404 -1.279102,-0.709197 -1.732757,-0.732284 l -0.377597,-0.01922 -0.448526,0.225081 c -0.56325,0.282652 -0.731032,0.428792 -0.859628,0.74875 -0.0904,0.224912 -0.100673,0.321415 -0.09738,0.914363 0.0029,0.530992 0.02773,0.786038 0.124516,1.281631 0.293439,1.502514 0.303972,1.57951 0.308342,2.253903 0.0024,0.364601 -0.011,0.717602 -0.02969,0.784446 -0.05146,0.184001 -0.203155,0.158001 -0.468131,-0.08024 -0.271715,-0.244295 -0.536447,-0.660227 -0.870147,-1.367124 -0.610486,-1.293232 -1.000475,-2.056767 -1.207651,-2.364388 -0.301497,-0.44767 -0.698648,-0.840225 -1.008748,-0.997074 -0.225304,-0.113958 -0.301567,-0.129325 -0.631879,-0.127327 -0.324969,0.002 -0.42322,0.02245 -0.728236,0.151812 -0.536224,0.227427 -1.188396,0.686303 -1.617879,1.138361 -0.636349,0.669798 -0.982826,1.275157 -1.498672,2.618461 -0.163348,0.425368 -0.360592,0.899362 -0.438321,1.05332 -0.183685,0.363823 -0.454404,0.656232 -0.660572,0.713498 -0.195871,0.05441 -0.192379,0.05459 -0.488607,-0.02506 z"
       id="path3363"
       inkscape:connector-curvature="0"
       transform="matrix(0.26458334,0,0,0.26458334,-5.0465268e-7,283.77082)" />
  </g>
  <g
     inkscape:groupmode="layer"
     id="layer2"
     inkscape:label="ojos" />
</svg>
