<?xml version="1.0" encoding="UTF-8" standalone="no"?>
<!-- Created with Inkscape (http://www.inkscape.org/) -->

<svg
   xmlns:dc="http://purl.org/dc/elements/1.1/"
   xmlns:cc="http://creativecommons.org/ns#"
   xmlns:rdf="http://www.w3.org/1999/02/22-rdf-syntax-ns#"
   xmlns:svg="http://www.w3.org/2000/svg"
   xmlns="http://www.w3.org/2000/svg"
   xmlns:sodipodi="http://sodipodi.sourceforge.net/DTD/sodipodi-0.dtd"
   xmlns:inkscape="http://www.inkscape.org/namespaces/inkscape"
   width="40"
   height="40"
   viewBox="0 0 10.583333 10.583334"
   version="1.1"
   id="svg8"
   inkscape:version="0.92.1 r15371"
   sodipodi:docname="headtest2_40_40.svg">
  <defs
     id="defs2" />
  <sodipodi:namedview
     id="base"
     pagecolor="#ffffff"
     bordercolor="#666666"
     borderopacity="1.0"
     inkscape:pageopacity="0.0"
     inkscape:pageshadow="2"
     inkscape:zoom="31.678384"
     inkscape:cx="22.874466"
     inkscape:cy="23.956684"
     inkscape:document-units="mm"
     inkscape:current-layer="layer1"
     showgrid="false"
     showguides="true"
     inkscape:guide-bbox="true"
     inkscape:window-width="2560"
     inkscape:window-height="1315"
     inkscape:window-x="-13"
     inkscape:window-y="-13"
     inkscape:window-maximized="1"
     units="px">
    <sodipodi:guide
       position="45.43582,255.2424"
       orientation="1,0"
       id="guide3680"
       inkscape:locked="false" />
    <sodipodi:guide
       position="137.91107,163.83623"
       orientation="1,0"
       id="guide3682"
       inkscape:locked="false" />
    <sodipodi:guide
       position="78.577239,194.57222"
       orientation="0,1"
       id="guide3684"
       inkscape:locked="false" />
  </sodipodi:namedview>
  <metadata
     id="metadata5">
    <rdf:RDF>
      <cc:Work
         rdf:about="">
        <dc:format>image/svg+xml</dc:format>
        <dc:type
           rdf:resource="http://purl.org/dc/dcmitype/StillImage" />
        <dc:title></dc:title>
      </cc:Work>
    </rdf:RDF>
  </metadata>
  <g
     inkscape:label="Layer 1"
     inkscape:groupmode="layer"
     id="layer1"
     transform="translate(0,-286.41665)">
    <path
       id="path3694"
       style="stroke-width:0.00929632"
       d="m -7.7381255,290.33749 -0.1280423,0.0544 c -0.042008,0.065 -0.064963,0.1406 -0.070884,0.21765 -0.00167,0.0217 -9.075e-4,0.0435 -0.00136,0.0652 0.010144,0.0871 0.030209,0.17409 0.065001,0.25495 0.013044,0.0303 0.029886,0.0588 0.044829,0.0883 l 0.1138618,-0.0649 c -0.014523,-0.029 -0.030952,-0.0571 -0.043577,-0.087 -0.033772,-0.0799 -0.053129,-0.16571 -0.06019,-0.25196 8.695e-4,-0.0214 5.205e-4,-0.0428 0.0026,-0.0641 0.00742,-0.076 0.03185,-0.15106 0.077766,-0.21257 z"
       inkscape:connector-curvature="0" />
    <path
       id="path3696"
       style="stroke-width:0.00929632"
       d="m -4.6561239,290.18744 -0.1272616,0.0562 c -0.044021,0.0708 -0.073827,0.14838 -0.097121,0.22805 -0.014607,0.0602 -0.025045,0.12175 -0.026583,0.18382 -7.065e-4,0.0286 8.694e-4,0.0551 0.00206,0.0836 0.00446,0.076 0.030686,0.14711 0.056558,0.21785 0.021845,0.0524 0.043048,0.10677 0.077875,0.15232 0.00814,0.0106 0.017356,0.0204 0.026034,0.0306 0.014498,0.015 0.052226,0.0551 0.068088,0.0682 0.017123,0.0141 0.035843,0.0262 0.053764,0.0392 l 0.1134619,-0.0719 c -0.017133,-0.0129 -0.034984,-0.0248 -0.0514,-0.0386 -0.019503,-0.0163 -0.048999,-0.0488 -0.066563,-0.0675 -0.00829,-0.01 -0.017106,-0.0193 -0.024877,-0.0296 -0.033898,-0.0448 -0.054951,-0.098 -0.07635,-0.14939 -0.025513,-0.0694 -0.050884,-0.13922 -0.054961,-0.21388 -0.00114,-0.0284 -0.00272,-0.0536 -0.00179,-0.0822 0.00196,-0.0611 0.012515,-0.12171 0.027654,-0.18083 0.024339,-0.0794 0.055189,-0.15659 0.101406,-0.22606 z"
       inkscape:connector-curvature="0" />
    <g
       id="g38"
       transform="translate(-11.457403,-0.66145834)">
      <path
         inkscape:connector-curvature="0"
         d="m 3.469294,290.71867 c -0.129405,5.4e-4 -0.1819478,0.0205 -0.3076318,0.05 -0.049173,0.02 -0.1000103,0.0363 -0.1475247,0.0599 -0.2051748,0.10214 -0.4044992,0.22377 -0.5719595,0.38162 -0.01234,0.0116 -0.023436,0.0245 -0.035152,0.0368 l 0.1275702,-0.0539 c 0.06331,-0.0716 0.1391524,-0.1307 0.2167204,-0.18589 0.041965,-0.0298 0.084402,-0.0592 0.1284235,-0.0859 0.011439,-0.007 0.024967,-0.01 0.037349,-0.0148 0.048864,-0.0201 0.097599,-0.0404 0.1463988,-0.0606 0.1266579,-0.0311 0.174359,-0.0506 0.3048901,-0.0525 0.1579292,-0.002 0.3190109,0.0341 0.4666134,0.0881 0.050958,0.0186 0.099873,0.0424 0.1498124,0.0637 0.014987,0.007 0.029812,0.0143 0.044557,0.0217 0.00922,-0.008 0.017386,-0.0179 0.028779,-0.022 0.00812,-0.003 0.016127,-0.004 0.023949,-0.004 0.033895,4.4e-4 0.064482,0.0256 0.087462,0.048 0.013944,0.0136 0.028762,0.0267 0.039744,0.0428 0.011422,0.0167 0.01784,0.0364 0.026763,0.0546 1.614e-4,0.001 4.075e-4,0.002 5.977e-4,0.003 0.064459,0.044 0.126345,0.0918 0.1857449,0.14277 0.049189,0.0422 0.067499,0.0615 0.1115556,0.10481 0.027029,0.0297 0.055515,0.0584 0.079836,0.0905 0.011227,0.0148 0.019535,0.0311 0.030034,0.0465 l 0.1198899,-0.0704 c -0.00331,-0.005 -0.00662,-0.01 -0.00993,-0.0147 -0.00288,-0.005 -0.00543,-0.01 -0.00857,-0.0146 -0.027018,-0.0402 -0.064705,-0.072 -0.097067,-0.1076 -0.1680576,-0.15724 -0.3497579,-0.29319 -0.5596856,-0.3907 -0.050026,-0.0217 -0.09896,-0.0461 -0.1500847,-0.0651 -0.1417803,-0.0526 -0.317384,-0.0931 -0.4690827,-0.0924 z"
         style="stroke-width:0.00929632"
         id="path3686" />
      <path
         inkscape:connector-curvature="0"
         d="m 2.3711302,291.1504 -0.1166579,0.075 c 0.032332,0.0202 0.063692,0.042 0.094325,0.0647 0.079124,0.0602 0.1620838,0.11515 0.2462434,0.16799 0.1041887,0.0645 0.2135662,0.11979 0.3277316,0.16452 0.05057,0.0201 0.08745,0.0355 0.1390089,0.0532 0.1037673,0.0355 0.2109974,0.0616 0.3196699,0.0765 0.080824,0.009 0.1156945,0.0146 0.198037,0.0171 0.145132,0.004 0.2895208,-0.0124 0.4326237,-0.035 0.099285,-0.0171 0.1390789,-0.0227 0.2371286,-0.045 0.1122903,-0.0256 0.2231238,-0.0577 0.3332873,-0.0912 l 0.1093044,-0.0847 c -0.1499732,0.0493 -0.3024389,0.092 -0.457444,0.1223 -0.039679,0.008 -0.079639,0.0141 -0.119454,0.0211 -0.1421557,0.0224 -0.2856089,0.0392 -0.429773,0.0356 -0.086685,-0.002 -0.1118894,-0.007 -0.1966571,-0.0161 -0.1076351,-0.0148 -0.2136647,-0.0405 -0.3164742,-0.0755 -0.055018,-0.0188 -0.084422,-0.0311 -0.1383917,-0.0525 -0.1132295,-0.0446 -0.2212033,-0.1004 -0.3250625,-0.1635 -0.083654,-0.0524 -0.1659127,-0.10737 -0.244101,-0.1677 -0.030292,-0.0234 -0.061484,-0.0455 -0.093344,-0.0667 z"
         style="stroke-width:0.00929632"
         id="path3688" />
      <path
         inkscape:connector-curvature="0"
         d="m 6.7383115,290.5146 c -0.04908,2e-5 -0.09818,0.002 -0.1470708,0.005 -0.1390942,0.0174 -0.1837674,0.0167 -0.3174184,0.0581 -0.1430665,0.0443 -0.258333,0.11021 -0.3918612,0.18437 -0.043363,0.0241 -0.085363,0.0506 -0.1264808,0.0784 -0.040396,0.0273 -0.078587,0.0577 -0.1178749,0.0865 -0.033691,0.0302 -0.068405,0.0592 -0.1010789,0.0905 -0.1065688,0.10197 -0.2005117,0.21777 -0.2727892,0.34653 l 0.1267351,-0.0573 c 0.067859,-0.12689 0.1604288,-0.23947 0.2644915,-0.33841 0.032495,-0.0309 0.06706,-0.0596 0.1005887,-0.0893 0.08596,-0.0622 0.1492988,-0.1127 0.2439193,-0.16227 0.00987,-0.005 0.022345,-0.003 0.032865,-0.006 0.04814,-0.0168 0.094095,-0.0398 0.1426948,-0.0553 0.1352845,-0.0431 0.1754387,-0.0421 0.3164745,-0.061 0.1938056,-0.013 0.3907451,-0.005 0.5779875,0.0514 0.1078595,0.0323 0.1337673,0.0507 0.2334975,0.1009 0.070596,0.0419 0.136763,0.0903 0.1984001,0.14393 -0.00158,-0.0162 -0.00217,-0.0298 0.00467,-0.0218 0.010173,0.012 0.012976,0.0244 0.01133,0.036 0.046233,0.0415 0.089871,0.0859 0.1307297,0.13293 0.041853,0.0482 0.055082,0.0687 0.090874,0.11834 0.024975,0.0379 0.047265,0.0777 0.063114,0.11986 0.01797,-0.002 0.036044,-0.002 0.052167,0.003 9.782e-4,2.5e-4 -0.00201,-3.6e-4 -0.00299,-5.2e-4 0.041451,0.009 0.037457,0.003 0.028328,0.0944 -8.151e-4,0.008 -0.015107,0.006 -0.022861,0.009 -0.011276,0.004 -0.022654,0.007 -0.034028,0.0111 -4.277e-4,0.006 -0.00114,0.0117 -0.00239,0.0175 -0.00255,0.0211 -0.019291,0.029 -0.034751,0.0402 -0.039891,0.0368 -0.085162,0.0669 -0.1313834,0.0953 0.00114,-10e-4 5.434e-4,-0.002 -0.00299,-5.4e-4 -0.029175,0.008 -0.054308,0.0261 -0.081852,0.0384 -0.028371,0.0126 -0.05698,0.0247 -0.085864,0.036 -0.067448,0.0265 -0.1126892,0.0415 -0.1835294,0.0601 -0.03249,0.009 -0.065421,0.0153 -0.098138,0.023 -0.1257727,0.0255 -0.2537593,0.0419 -0.3821838,0.0444 -0.08002,0.002 -0.1191818,-0.002 -0.1986365,-0.006 -0.1420134,-0.0108 -0.2836182,-0.0353 -0.4187157,-0.0812 -0.022366,-0.008 -0.044255,-0.0166 -0.066382,-0.0248 -0.09854,-0.0395 -0.1927694,-0.0882 -0.287078,-0.13663 -0.061482,-0.0313 -0.1223987,-0.0638 -0.1856177,-0.0916 -0.039462,-0.016 -0.077226,-0.0357 -0.1155687,-0.0542 -0.023785,-0.0118 -0.049096,-0.0189 -0.075332,-0.0222 -0.010504,-0.002 -0.020818,-10e-4 -0.031338,-4e-4 l -0.1114464,0.0844 c 0.00994,-0.003 0.018269,-0.004 0.028849,-0.003 0.025393,0.002 0.050124,0.007 0.073318,0.0178 0.038891,0.0179 0.076581,0.0385 0.1165854,0.0541 0.063623,0.0269 0.1248696,0.0586 0.1863436,0.09 0.095546,0.048 0.19083,0.0967 0.2903286,0.13624 0.022339,0.008 0.044418,0.0177 0.067035,0.0254 0.1362283,0.0464 0.2795209,0.0707 0.422601,0.0824 0.073687,0.004 0.1253575,0.008 0.1994168,0.007 0.1289196,-0.002 0.2574832,-0.0174 0.3837819,-0.0428 0.077989,-0.0177 0.1192004,-0.0254 0.1954767,-0.0496 0.1553186,-0.0494 0.3013048,-0.12413 0.4408669,-0.20734 0.063027,-0.0381 0.1255348,-0.0773 0.1811515,-0.12593 0.017258,-0.0133 0.02861,-0.0277 0.030686,-0.0502 0.00255,-0.0236 0.00168,-0.0475 -0.00239,-0.0709 -0.015194,-0.0693 -0.048939,-0.13177 -0.089151,-0.18985 -0.037234,-0.0495 -0.051216,-0.07 -0.094216,-0.11815 -0.1019304,-0.11406 -0.2187897,-0.21423 -0.3500464,-0.29321 -0.09937,-0.0505 -0.1280197,-0.0706 -0.2357124,-0.10306 -0.1416259,-0.0427 -0.2888087,-0.0582 -0.4360556,-0.0581 z"
         style="stroke-width:0.00929632"
         id="path3692" />
      <path
         inkscape:connector-curvature="0"
         d="m 4.2030675,290.93577 c -0.00141,-3.7e-4 -0.00397,5.4e-4 -0.00533,0.002 -0.017731,0.01 -0.035305,0.02 -0.052855,0.0302 0.0089,0.007 0.017211,0.0144 0.024657,0.0216 5.162e-4,5e-4 0.00103,10e-4 0.00158,0.002 0.011172,-0.01 0.022307,-0.0195 0.033555,-0.0291 -2.016e-4,-0.008 0.00163,-0.0168 -6.521e-4,-0.0247 -1.614e-4,-5e-4 -4.88e-4,-5.4e-4 -9.781e-4,-10e-4 z m -0.2844454,0.1806 c -0.00477,1.7e-4 -0.00938,1.7e-4 -0.014036,1.3e-4 -0.00114,0.001 -0.00236,0.002 -0.00329,0.003 -7.825e-4,10e-4 -0.00135,0.002 -0.00207,0.002 0.00588,-0.002 0.012396,-0.003 0.019391,-0.006 z m 0.3904274,0.0322 c -1.212e-4,-2e-5 -5.087e-4,1.2e-4 -0.0013,5.1e-4 -0.00677,0.003 -0.011325,0.005 -0.017302,0.008 2.016e-4,0.002 3.227e-4,0.003 4.885e-4,0.004 0.005,-0.004 0.018861,-0.0126 0.018123,-0.0128 z m -0.012911,0.015 c -0.00163,1.6e-4 -0.00326,4.4e-4 -0.00489,5.5e-4 3.228e-4,0.003 6.521e-4,0.006 9.238e-4,0.009 0.00618,-0.006 0.00983,-0.0101 0.00391,-0.009 z m 0.11546,0.0181 c -0.01916,0.0103 -0.038342,0.0206 -0.057521,0.031 0.00567,0.003 0.010276,0.006 0.019155,0.0121 -0.00168,-5.2e-4 -0.00337,-0.002 -0.00505,-0.002 -0.00136,5.2e-4 0.00266,10e-4 0.00391,0.002 0.00331,0.002 0.00666,0.004 0.010004,0.006 3.7e-5,0 2.77e-5,-3e-5 8.05e-5,-4e-5 0.007,-10e-4 0.015536,0.003 0.023861,0.008 0.00579,-0.0104 0.015786,-0.0287 0.014107,-0.0412 -8.151e-4,-0.006 -0.0057,-0.0111 -0.00855,-0.0166 z m -0.00337,0.0215 c -0.00812,0.005 -0.016242,0.01 -0.024366,0.0145 1.614e-4,-1.2e-4 3.63e-4,-2.5e-4 5.244e-4,-3.7e-4 0.00769,-0.005 0.031778,-0.0189 0.023839,-0.0142 z m -0.097503,0.26859 c -1.85e-5,2e-4 4.9e-6,4e-4 -1.85e-5,5.4e-4 3.228e-4,-2e-5 6.521e-4,-3e-5 9.238e-4,-8e-5 -3.228e-4,-1.6e-4 -5.977e-4,-3.2e-4 -9.238e-4,-4.9e-4 z"
         style="stroke-width:0.00929632"
         id="path3698" />
      <path
         inkscape:connector-curvature="0"
         d="m 7.3383053,290.82421 c -4.02e-5,-3e-5 -2.424e-4,1e-5 -5.977e-4,1.6e-4 -0.00613,0.002 -0.012216,0.005 -0.018324,0.007 0.00168,0.001 0.00337,0.002 0.00495,0.003 0.00234,-0.002 0.00331,-0.003 0.00654,-0.005 0.00201,-0.002 0.00783,-0.005 0.00743,-0.006 z m -0.00152,0.0311 c -4.233e-4,2e-4 -7.065e-4,3.2e-4 -0.00114,5.2e-4 1.9e-5,2e-4 1.9e-5,4.2e-4 3.75e-5,5.4e-4 5.407e-4,-2.8e-4 9.781e-4,-5.4e-4 0.00152,-0.001 -1.613e-4,-8e-5 -2.825e-4,-2e-4 -4.195e-4,-3.2e-4 z m 0.2933065,0.33125 c -1.212e-4,-2e-5 -5.434e-4,1.6e-4 -0.00141,5.5e-4 -0.00869,0.004 -0.014775,0.007 -0.022203,0.01 -5.978e-4,0.004 -0.00136,0.009 -0.00228,0.0139 0.011515,-0.0106 0.016096,-0.0155 0.010841,-0.0149 0.00674,-0.004 0.015634,-0.009 0.01503,-0.009 z m -0.522591,0.18413 c -0.00632,0.004 -0.012618,0.009 -0.018938,0.0138 0.00168,10e-4 0.00348,0.003 0.00527,0.004 0.00613,-0.004 0.010341,-0.0103 0.013656,-0.0173 z"
         style="stroke-width:0.00929632"
         id="path3700" />
      <path
         inkscape:connector-curvature="0"
         d="m 6.1079411,288.30625 c -0.1765179,-4e-5 -0.3530449,5.5e-4 -0.5295633,0.001 -0.176382,-2e-4 -0.3527634,-2.3e-4 -0.529146,-4.7e-4 -0.1783556,2.5e-4 -0.356708,3.7e-4 -0.5350647,3.2e-4 -0.1850509,-0.002 -0.3698964,0.008 -0.5547103,0.0152 -0.2149326,0.0106 -0.4298748,0.0212 -0.6446415,0.0349 -0.2027399,0.0156 -0.4053172,0.0331 -0.6082188,0.0468 -0.1416867,0.008 -0.2835037,0.0123 -0.4251612,0.0211 -0.089889,0.007 -0.1797537,0.0147 -0.2698656,0.0186 -0.05279,0.002 -0.1056319,0.002 -0.158455,0.002 -0.029637,0 -0.05926,-2.3e-4 -0.088896,-3.7e-4 -0.060641,-0.001 -0.045856,0.002 -0.1002623,0.0508 -0.065365,0.0362 -0.071582,0.0333 -0.037494,0.0317 -4.353e-4,3.5e-4 -7.77e-4,5.4e-4 -0.00122,0.001 0.024386,0.01 0.037105,0.0309 0.049096,0.0532 0.053602,0.11409 0.081418,0.23834 0.10787,0.36094 0.03649,0.19021 0.049564,0.38376 0.067308,0.57633 0.018387,0.18287 0.031788,0.36621 0.040472,0.54979 0.00833,0.16233 0.00402,0.3248 -0.00688,0.48686 -0.00803,0.13626 -0.023738,0.27189 -0.036641,0.40773 -0.0082,0.0958 -0.021327,0.19096 -0.0333,0.28631 -0.0046,0.0479 -0.00987,0.0957 -0.016196,0.14345 -0.00534,0.0213 -0.00698,0.0447 -0.019664,0.0633 -7.064e-4,10e-4 -0.0013,0.002 -0.00192,0.003 -0.014394,-4e-5 -0.028783,-1.2e-4 -0.043177,-1.2e-4 -0.031537,0.001 -0.062923,-0.002 -0.094143,-0.006 -0.029313,-0.004 -0.057995,-0.0107 -0.086935,-0.0164 -0.020277,-0.004 -0.040919,-0.005 -0.061534,-0.006 -0.062575,-0.003 -0.1459081,0.022 -0.1688226,0.085 -0.00891,0.0451 -0.00754,0.0918 -0.00596,0.1375 0.00305,0.0884 0.00938,0.17664 0.017812,0.26467 0.014932,0.12797 0.035171,0.25522 0.051366,0.38304 0.013637,0.12866 0.038232,0.25572 0.057085,0.38362 0.016731,0.12447 0.033158,0.24897 0.052037,0.37314 0.014464,0.0939 0.02645,0.1881 0.032882,0.28292 0.00486,0.0454 4.882e-4,0.0914 0.00472,0.13682 0.00196,0.0203 0.00504,0.0388 0.016541,0.0558 0.016942,0.0205 0.040305,0.0301 0.065328,0.0367 0.03731,0.007 0.075481,0.008 0.1133714,0.009 0.033134,1.5e-4 0.066277,10e-4 0.0993,-0.002 0.022471,-0.002 0.042951,-0.0115 0.064275,-0.0179 0.015492,-0.004 0.021252,0.0113 0.025546,0.0234 0.00958,0.0343 0.016029,0.0693 0.022751,0.10422 0.00853,0.0448 0.011473,0.0903 0.013182,0.13571 2.058e-4,0.0484 0.00179,0.0967 0.00701,0.14487 0.00953,0.0592 0.016228,0.11879 0.025274,0.17804 0.00822,0.0509 0.012105,0.10224 0.017522,0.15343 0.00583,0.0516 0.011231,0.10316 0.014235,0.15502 0.00209,0.0422 0.00251,0.0845 0.00254,0.12672 4.44e-5,0.028 -2.017e-4,0.056 -3.469e-4,0.084 -0.00167,0.0224 0.00185,0.0443 0.00467,0.0664 0.00242,0.0301 0.00921,0.0597 0.01763,0.0886 0.012149,0.0306 0.025093,0.0611 0.039582,0.0906 0.013276,0.0265 0.028984,0.0517 0.044303,0.077 0.012432,0.0182 0.021936,0.0379 0.031084,0.0578 0.00775,0.0176 0.020912,0.0291 0.035097,0.0411 0.02018,0.0212 0.048122,0.0311 0.07457,0.0421 0.04652,0.0177 0.090395,0.0411 0.1333985,0.066 0.067798,0.0372 0.1388354,0.068 0.2085681,0.10128 0.1485847,0.0704 0.3064366,0.11848 0.4649429,0.16069 0.206936,0.0541 0.4200036,0.0771 0.6317863,0.10314 0.2196837,0.0229 0.4374793,0.0593 0.6550095,0.097 0.1795968,0.0362 0.3599788,0.0677 0.5414921,0.0927 0.1930851,0.0248 0.3877906,0.0298 0.582182,0.0331 0.2069234,0.005 0.4136018,-0.007 0.6201295,-0.0182 0.2173171,-0.0145 0.4348857,-0.0246 0.6521224,-0.0403 0.140112,-0.0143 0.2808196,-0.0212 0.421112,-0.0332 0.09891,-0.008 0.1957913,-0.0302 0.2927795,-0.0501 0.1188862,-0.0243 0.2371545,-0.0516 0.3546767,-0.0818 0.12284,-0.0334 0.2418446,-0.0785 0.3580888,-0.12996 0.060008,-0.0272 0.117043,-0.0604 0.1746692,-0.0922 0.1128968,-0.0585 0.136318,-0.0705 0.2018317,-0.14769 0.021633,-0.0259 0.038766,-0.0545 0.054943,-0.084 0.024796,-0.043 0.041277,-0.0897 0.056341,-0.13679 0.018747,-0.0608 0.02304,-0.12436 0.02598,-0.18749 0.00217,-0.0696 0.00158,-0.13919 0.00136,-0.20878 7.064e-4,-0.0958 -0.00456,-0.1915 -0.00703,-0.28726 -0.00261,-0.11516 -0.00304,-0.23033 -0.00342,-0.34551 -2.016e-4,-0.0991 1.212e-4,-0.19817 4.162e-4,-0.29725 1.207e-4,-0.0595 0.00217,-0.11902 -0.0019,-0.17846 -0.00277,-0.0333 -0.00467,-0.0665 -0.00559,-0.0999 -4.76e-4,-0.0209 -4.195e-4,-0.0418 -4.037e-4,-0.0627 -8.7e-6,-0.002 -3.7e-5,-0.004 -3.7e-5,-0.005 0.023823,-0.007 0.048048,-0.0135 0.072482,-0.0184 0.027806,-0.005 0.055369,-0.0131 0.08156,-0.024 0.062107,-0.0322 0.1225607,-0.058 0.1660628,-0.11076 0.013362,-0.0174 0.01465,-0.0388 0.018574,-0.0595 0.014525,-0.0485 0.022502,-0.0987 0.030229,-0.14868 0.01383,-0.0886 0.023834,-0.17773 0.031539,-0.26707 0.00683,-0.11161 0.012433,-0.22333 0.016416,-0.33509 0.0031,-0.0972 0.00386,-0.19454 0.00435,-0.29183 2.418e-4,-0.0773 2.82e-4,-0.15464 4.032e-4,-0.23195 -8.04e-5,-0.0612 1.212e-4,-0.12242 3.63e-4,-0.18362 2.423e-4,-0.039 2.423e-4,-0.078 3.635e-4,-0.11699 0.00234,-0.0314 -0.00234,-0.0609 -0.014944,-0.0896 -0.012966,-0.0262 -0.025937,-0.0521 -0.04539,-0.0742 -0.024866,-0.0265 -0.052058,-0.0503 -0.080871,-0.0723 -0.028583,-0.0209 -0.05963,-0.038 -0.089585,-0.0567 -0.021242,-0.0136 -0.041032,-0.0292 -0.055288,-0.0503 -0.00712,-0.0149 -0.010401,-0.031 -0.012112,-0.0473 l 0.00446,-0.002 c -0.00245,-0.0204 -0.00467,-0.0409 -0.00701,-0.0614 -5.124e-4,-0.0414 2.826e-4,-0.0826 -0.00179,-0.12394 l -0.011205,0.006 c -0.00782,-0.0735 -0.0154,-0.14709 -0.023421,-0.2206 -0.022747,-0.24827 -0.06182,-0.49442 -0.1042203,-0.73995 -0.036538,-0.19876 -0.076552,-0.39689 -0.1173293,-0.59482 -0.034153,-0.1716 -0.07443,-0.34179 -0.1156595,-0.51178 -0.024024,-0.0985 -0.048499,-0.19707 -0.065528,-0.29707 -0.00906,-0.0523 -0.016335,-0.10497 -0.024132,-0.15751 -8.694e-4,-0.0231 -0.00725,-0.0364 -0.019916,-0.0543 -0.00342,-0.0128 -0.00577,-0.0233 -0.015232,-0.0333 -0.015362,-0.0117 -0.034789,-0.012 -0.053292,-0.0127 -0.0519,-5.5e-4 -0.1038013,1.3e-4 -0.1556767,0.002 -0.1628464,0.0123 -0.325696,0.0235 -0.4888733,0.0305 -0.1183471,0.005 -0.2367774,0.006 -0.3552033,0.006 -0.1055364,-0.002 -0.2110049,-0.006 -0.3163473,-0.0124 -0.1352932,-0.01 -0.2703488,-0.0219 -0.4058784,-0.0282 -0.1391187,-0.005 -0.2783542,-0.006 -0.4175533,-0.006 z m -0.635454,0.0778 c 0.1757636,-3e-5 0.3515119,4.7e-4 0.5272755,5.4e-4 0.1389465,4.2e-4 0.2779375,5.5e-4 0.4168095,0.006 0.1352599,0.006 0.2701053,0.017 0.4049887,0.0286 0.1052805,0.007 0.2106903,0.0117 0.3161838,0.0137 0.1194334,-5.5e-4 0.2388461,-0.003 0.3581801,-0.008 0.1621008,-0.007 0.3239533,-0.0181 0.4858596,-0.0286 0.050814,-0.001 0.1016239,-0.001 0.1524456,-3.1e-4 0.015748,2.8e-4 0.032191,-3.7e-4 0.047282,0.005 0.010156,0.007 0.00692,0.0209 0.013547,0.0306 0.00283,0.004 0.00729,0.008 0.00961,0.0122 0.00586,0.011 0.00623,0.0239 0.00841,0.0359 0.00872,0.0523 0.016204,0.10475 0.025926,0.15686 0.018541,0.0997 0.043738,0.19795 0.069377,0.29601 0.042614,0.16929 0.082653,0.3392 0.1171848,0.51035 0.039614,0.19777 0.081929,0.395 0.1197084,0.59313 0.043173,0.24537 0.081293,0.49165 0.1019505,0.7401 0.00982,0.10649 0.019258,0.21302 0.028415,0.31958 8.04e-5,0.0134 8.04e-5,0.0268 3.63e-4,0.0402 0.0012,0.034 0.00158,0.0693 0.017465,0.10028 0.015112,0.0228 0.035696,0.0403 0.058574,0.0551 0.029599,0.0188 0.060788,0.0349 0.089259,0.0555 0.028338,0.0212 0.054992,0.0442 0.079055,0.0702 0.018905,0.0206 0.03086,0.0454 0.043157,0.0703 0.011678,0.0271 0.013971,0.0551 0.012471,0.0845 1.212e-4,0.0389 1.212e-4,0.0777 3.636e-4,0.11658 2.82e-4,0.0611 4.798e-4,0.12214 4.879e-4,0.18321 2.016e-4,0.0772 4.157e-4,0.15435 3.63e-4,0.23151 -1.206e-4,0.097 -5.407e-4,0.194 -0.00359,0.29095 -0.00386,0.11158 -0.00919,0.22315 -0.016883,0.33452 -0.00813,0.0894 -0.019432,0.17837 -0.033533,0.26698 -0.00839,0.0504 -0.018313,0.1003 -0.032485,0.14936 -0.0031,0.0166 -0.00642,0.0325 -0.016193,0.046 -0.00456,10e-4 -0.00917,0.002 -0.013726,0.004 -0.048048,0.008 -0.094967,0.0223 -0.1403892,0.0401 -0.063919,0.0273 -0.046608,0.0188 -0.1553865,0.0885 -0.00408,0.003 -0.0061,0.008 -0.00823,0.0119 -0.00462,0.009 -0.00359,0.0205 -0.00375,0.0305 4.02e-5,0.021 1.212e-4,0.0419 9.238e-4,0.0629 0.00136,0.0334 0.00375,0.0666 0.00663,0.0999 0.00424,0.0588 0.00277,0.11774 0.00331,0.17665 2.418e-4,0.0989 4.798e-4,0.19779 7.607e-4,0.29668 4.038e-4,0.1152 0.0013,0.2304 0.00391,0.34557 0.00206,0.096 0.00543,0.19199 0.00489,0.28802 -2.83e-5,0.0695 3.227e-4,0.13899 -0.00217,0.20844 -0.00321,0.0622 -0.00821,0.12467 -0.027708,0.18424 -0.015541,0.0466 -0.033588,0.0923 -0.058502,0.13485 -0.016297,0.0289 -0.034843,0.0563 -0.056341,0.0816 -0.010857,0.0127 -0.021584,0.0255 -0.033626,0.0371 -0.008,0.008 -0.018307,0.0157 -0.027453,0.0224 -0.026665,0.0145 -0.05352,0.0286 -0.080871,0.0417 -0.1160208,0.0527 -0.2349798,0.0988 -0.3579442,0.13277 -0.1169137,0.03 -0.2345647,0.0574 -0.3528792,0.0813 -0.096928,0.0198 -0.1935932,0.0422 -0.2922708,0.0516 -0.1412249,0.0136 -0.2830927,0.0197 -0.4241269,0.0357 -0.2175871,0.0169 -0.4355671,0.0277 -0.6533564,0.0416 -0.2059165,0.0106 -0.412003,0.0226 -0.618296,0.0179 -0.1940893,-0.003 -0.3885378,-0.008 -0.5813828,-0.0318 -0.1814894,-0.0246 -0.361566,-0.0574 -0.5413475,-0.0923 -0.2180408,-0.0367 -0.4362223,-0.0729 -0.6560983,-0.097 -0.211267,-0.0251 -0.4234503,-0.049 -0.6299345,-0.10219 -0.1569504,-0.0419 -0.3133091,-0.0889 -0.4593143,-0.16141 -0.068898,-0.0336 -0.1390986,-0.0647 -0.2064618,-0.10137 -0.043063,-0.0255 -0.086926,-0.0498 -0.1336527,-0.0681 -0.024873,-0.0103 -0.052269,-0.0189 -0.071139,-0.0389 -0.012353,-0.0112 -0.025663,-0.0197 -0.032283,-0.036 -0.00934,-0.0205 -0.019404,-0.0405 -0.032102,-0.0592 -0.015276,-0.0249 -0.030988,-0.0496 -0.043994,-0.0758 -0.014183,-0.0288 -0.026782,-0.0585 -0.038275,-0.0885 -0.00791,-0.0284 -0.014389,-0.0573 -0.016396,-0.0869 -0.0027,-0.0216 -0.00481,-0.0431 -0.00372,-0.0649 -4.84e-5,-0.0279 -1.493e-4,-0.0559 -2.905e-4,-0.0838 -4.252e-4,-0.0423 -0.0011,-0.0847 -0.00365,-0.12701 -0.00326,-0.0521 -0.00868,-0.10385 -0.014362,-0.15567 -0.0054,-0.0513 -0.00967,-0.1028 -0.018302,-0.15372 -0.00896,-0.0591 -0.015905,-0.11847 -0.024657,-0.17759 -0.00456,-0.048 -0.00573,-0.0961 -0.00619,-0.14437 -0.00209,-0.0461 -0.00558,-0.0921 -0.014144,-0.13748 -0.00667,-0.0358 -0.013057,-0.0716 -0.022914,-0.10669 -0.00661,-0.0177 -0.01592,-0.0359 -0.036023,-0.0401 -0.022479,0.002 -0.041783,0.0154 -0.064094,0.019 -0.032767,0.004 -0.06556,0.004 -0.098592,0.003 -0.037217,-3.2e-4 -0.074617,-5.4e-4 -0.1114831,-0.006 -0.022412,-0.004 -0.043039,-0.0111 -0.059101,-0.0284 -0.010241,-0.0147 -0.011108,-0.032 -0.013509,-0.0494 -0.00394,-0.045 -0.0018,-0.0905 -0.00683,-0.13545 -0.00755,-0.0948 -0.020378,-0.189 -0.035188,-0.28294 -0.019302,-0.12402 -0.035793,-0.24843 -0.052492,-0.37281 -0.018803,-0.12778 -0.043384,-0.2547 -0.057321,-0.38319 -0.016235,-0.12784 -0.03635,-0.25519 -0.049713,-0.38338 -0.00781,-0.0881 -0.013527,-0.17632 -0.015687,-0.26472 -3.108e-4,-0.021 -0.00135,-0.0481 3.62e-5,-0.0738 0.029103,0.005 0.05767,0.0127 0.087008,0.0164 0.031372,0.005 0.063197,0.008 0.095033,0.008 0.022496,8e-5 0.044994,2.4e-4 0.067489,4e-4 0.018326,1.2e-4 0.036687,4.5e-4 0.054979,-0.001 0.056284,-0.006 0.011126,-1.3e-4 0.1356681,-0.0719 0.00918,-0.005 0.010771,-0.0189 0.012455,-0.028 0.00224,-0.0152 0.00676,-0.0291 0.015124,-0.0422 0.00886,-0.0216 0.0131,-0.0446 0.016831,-0.0675 0.00601,-0.0474 0.00916,-0.095 0.014126,-0.14254 0.01115,-0.0951 0.023447,-0.19016 0.031176,-0.28568 0.012567,-0.1357 0.026951,-0.27127 0.034988,-0.40733 0.010553,-0.16236 0.013856,-0.3251 0.00514,-0.48766 -0.00899,-0.18355 -0.022496,-0.36682 -0.042086,-0.54957 -0.017742,-0.19323 -0.029265,-0.38759 -0.066872,-0.57832 -0.025317,-0.1195 -0.050628,-0.24068 -0.097829,-0.3538 0.03347,-4.1e-4 0.066939,-10e-4 0.1003894,-0.002 0.090836,-0.004 0.1814105,-0.0115 0.2719536,-0.0198 0.142509,-0.009 0.2851747,-0.0145 0.4277396,-0.0229 0.2033221,-0.0142 0.4063673,-0.0318 0.6095443,-0.0479 0.2144852,-0.0142 0.429204,-0.0239 0.6438788,-0.0347 0.18445,-0.007 0.3689517,-0.0166 0.5536027,-0.0151 0.1780654,-5e-5 0.3561287,9e-5 0.5341936,3.2e-4 0.1768928,-2.7e-4 0.3537954,-3.2e-4 0.5306887,-5.4e-4 z m -3.7110282,3.12763 c -0.00473,0.006 -0.022598,0.0133 -0.014725,0.009 0.00528,-0.003 0.00973,-0.006 0.014725,-0.009 z"
         style="stroke-width:0.00929632"
         id="path3702" />
      <path
         style="stroke-width:0.00929632"
         inkscape:connector-curvature="0"
         d="m 5.2654599,292.38959 c -0.061621,0.10392 -0.1139146,0.21293 -0.1682516,0.32074 -0.022046,0.0423 -0.042271,0.0855 -0.061595,0.12905 -0.00843,0.019 -0.018498,0.0389 -0.023013,0.0594 -0.040652,0.0174 -0.080083,0.0379 -0.1219646,0.0521 -0.00774,0.003 0.012368,-0.0108 0.017786,-0.0169 0.00916,-0.0103 0.017568,-0.0214 0.02585,-0.0324 0.040326,-0.0539 0.075806,-0.11113 0.1119682,-0.16779 0.080891,-0.12772 0.1530363,-0.26081 0.21644,-0.39802 0.022953,-0.0512 0.043206,-0.10411 0.050803,-0.15997 0.00905,-0.0622 0.012156,-0.0435 0.1339303,-0.0824 0.00672,-0.002 0.00835,0.0114 0.011922,0.0174 0.012998,0.0221 0.023279,0.0463 0.033957,0.0694 0.062168,0.14072 0.1297836,0.27888 0.1981285,0.41667 0.059287,0.12015 0.1216852,0.2387 0.184621,0.35696 0.025333,0.0456 0.051074,0.0916 0.064794,0.1422 0.00212,0.0118 0.00875,0.038 -0.0056,0.0463 -0.042049,0.0245 -0.085005,0.0473 -0.1275072,0.0709 -0.021921,0.004 -0.039174,-0.005 -0.057561,-0.0158 -0.024122,-0.0185 -0.050938,-0.0319 -0.078461,-0.0446 -0.045537,-0.0231 -0.093378,-0.0394 -0.1421993,-0.0539 -0.083906,-0.0236 -0.1686488,-0.0443 -0.254539,-0.0592 -0.064443,-0.0108 -0.1297499,-0.0135 -0.194949,-0.0147 -0.044923,-5.5e-4 -0.089849,-8e-5 -0.1347731,1.2e-4 -0.031458,2e-4 -0.06322,-0.002 -0.09376,0.007 -0.019845,0.006 -0.037038,0.0171 -0.056305,0.0241 -0.012455,0.003 -0.00619,0.002 -0.018796,0.004 0,0 0.1112204,-0.0849 0.1112204,-0.0849 v 0 c 0.011748,-0.003 0.00592,-0.002 0.017476,-0.006 0.018715,-0.009 0.037049,-0.0184 0.057535,-0.0221 0.031468,-0.005 0.063223,-0.004 0.095013,-0.004 0.044766,-1.2e-4 0.089537,-2e-4 0.1342976,5.4e-4 0.065286,0.002 0.1306433,0.006 0.1950234,0.0173 0.086154,0.0159 0.1712882,0.0369 0.2557531,0.0602 0.049852,0.0143 0.098402,0.0312 0.1448787,0.0546 0.027795,0.0129 0.054424,0.0273 0.079511,0.0449 0.016873,0.009 0.032724,0.0137 0.051188,0.006 -0.037886,0.0221 -0.076139,0.0435 -0.1136521,0.0661 -0.00359,0.002 0.0089,-0.002 0.011776,-0.004 0.00659,-0.007 0.00288,-0.0185 0.00179,-0.0265 -0.011607,-0.0502 -0.03637,-0.0958 -0.0603,-0.14099 -0.061269,-0.1193 -0.1218341,-0.23895 -0.1813818,-0.35913 -0.068545,-0.13764 -0.1362284,-0.27569 -0.2018258,-0.41477 -0.011384,-0.0228 -0.021296,-0.0447 -0.03506,-0.0659 -0.00277,-0.004 -0.013504,-0.009 -0.00954,-0.0121 0.1521224,-0.12588 0.1190857,-0.10943 0.1083399,-0.0553 -0.0072,0.058 -0.028594,0.11277 -0.052911,0.16563 -0.064684,0.13746 -0.1371674,0.27132 -0.2174144,0.40034 -0.035289,0.0563 -0.069986,0.11307 -0.1082072,0.16747 -0.00776,0.011 -0.015992,0.0217 -0.023975,0.0326 -0.00489,0.007 -0.00737,0.0161 -0.014661,0.02 -0.043211,0.0231 -0.089563,0.0399 -0.1343449,0.0598 0.00331,-0.0224 0.014895,-0.0434 0.024219,-0.0639 0.020019,-0.044 0.040571,-0.0877 0.0633,-0.13038 0.05439,-0.1069 0.1063732,-0.21508 0.1650275,-0.31975 0,0 0.1259738,-0.0565 0.1259738,-0.0565 z"
         id="path3704" />
    </g>
    <path
       id="path3706"
       style="stroke-width:0.00929632"
       d="m -8.1485978,292.77206 c -0.014738,4e-5 -0.029482,2.8e-4 -0.04423,10e-4 -0.031699,0.001 -0.047692,0.001 -0.078438,0.003 -0.00899,5.5e-4 -0.018783,-0.002 -0.026945,0.002 -0.046455,0.0218 -0.090875,0.0477 -0.1351597,0.0736 -0.00777,0.004 -0.00867,0.0129 -0.010731,0.0203 -0.00149,0.0202 -4.696e-4,0.0404 -8.369e-4,0.0607 -8.47e-5,0.0236 -3.671e-4,0.0473 -1.089e-4,0.0709 5.923e-4,0.0329 0.00181,0.0658 0.00832,0.0982 0.011405,0.0536 0.031617,0.10438 0.048515,0.15642 0.024064,0.0845 0.040163,0.17087 0.057884,0.25688 0.022922,0.11919 0.040766,0.23917 0.062096,0.35862 0.010371,0.0507 0.017629,0.10344 0.039473,0.15079 0.012509,0.0258 0.024706,0.0517 0.0331,0.0792 0.00646,0.0208 0.011242,0.0441 0.025601,0.0609 l -0.1089412,0.0797 c 0.012689,-0.002 0.024954,-3.2e-4 0.037439,0.003 0.021975,0.005 0.043034,0.0158 0.066182,0.0138 0.034642,-1.2e-4 0.069288,-1.2e-4 0.1039299,-2e-4 0.052948,-1.6e-4 0.1058882,-2.4e-4 0.1588364,-4e-4 0.077107,-2.4e-4 0.1542294,-3.3e-4 0.2313366,-2.4e-4 0.077214,-9e-5 0.154414,-2.4e-4 0.2316272,2.4e-4 0.1180114,10e-4 0.2360502,0.004 0.3538414,0.0117 0.1422677,0.01 0.2844061,0.022 0.4261956,0.0374 0.1258466,0.0136 0.25124,0.0318 0.3776089,0.0403 0.1222634,0.0117 0.2441524,0.0259 0.3655882,0.0445 0.1227645,0.0153 0.2451524,0.0334 0.3667512,0.0562 0.1074715,0.0184 0.215175,0.0346 0.3236642,0.0459 0.1135402,0.0128 0.2270576,0.0273 0.3410765,0.0347 0.08721,0.002 0.17446,0.001 0.2616951,0.001 0.089451,0 0.1789083,-2e-4 0.2683589,-8e-5 0.092432,4e-5 0.1848585,1.6e-4 0.2772913,2e-4 0.093324,1.3e-4 0.1866627,5.4e-4 0.279979,-5.4e-4 0.073307,-0.002 0.1475165,-0.003 0.2189174,-0.022 0.019334,-0.006 0.032561,-0.009 0.050096,-0.0192 0.057401,-0.0325 0.1279653,-0.0579 0.1692042,-0.11297 0.018943,-0.0296 0.027176,-0.0614 0.024893,-0.0968 -0.00321,-0.0674 -0.00928,-0.13467 -0.022155,-0.20098 -0.021171,-0.10283 -0.043141,-0.20549 -0.064094,-0.30837 -0.026676,-0.12707 -0.05346,-0.25433 -0.095269,-0.3775 -0.034658,-0.10209 -0.069089,-0.20556 -0.1313649,-0.29485 -0.046102,-0.0641 -0.097602,-0.12509 -0.1583279,-0.17585 -0.032762,-0.0223 -0.064993,-0.0398 -0.1036579,-0.0498 -0.043037,-0.0112 -0.083718,-0.0101 -0.1279148,-0.008 -0.064037,0.002 -0.1280208,0.004 -0.1919,0.009 -0.077579,0.005 -0.1553235,0.008 -0.2326807,0.0163 -0.090346,0.006 -0.1806846,0.0121 -0.2712454,0.0126 -0.1084708,0.003 -0.2168171,0.008 -0.3249711,0.0168 -0.1555974,0.0111 -0.3113681,0.0197 -0.4668861,0.032 -0.1752996,0.008 -0.3508616,0.009 -0.5262953,0.005 -0.2179675,-0.005 -0.4360144,-0.014 -0.6527576,-0.039 -0.2123416,-0.0229 -0.4252756,-0.0409 -0.6370156,-0.0689 -0.1627215,-0.0215 -0.3261806,-0.0362 -0.4891097,-0.056 -0.1024054,-0.0117 -0.2053006,-0.0224 -0.3084671,-0.0221 z m -0.1547874,0.0279 c 5.978e-4,-8e-5 6.684e-4,8e-5 -1.089e-4,5.4e-4 -0.00476,0.003 -0.00967,0.006 -0.014526,0.009 0.0012,-0.002 0.00218,-0.004 0.00405,-0.005 0.00231,-0.002 0.0088,-0.004 0.010585,-0.004 z m 0.044757,0.0522 c 0.1034966,-0.002 0.2067963,0.009 0.3096654,0.0192 0.1633851,0.0184 0.3269449,0.0349 0.4901448,0.055 0.2125981,0.0271 0.426226,0.0451 0.6393393,0.0676 0.2165052,0.0253 0.4343673,0.0345 0.6521044,0.0407 0.1751615,0.004 0.3505104,0.004 0.5255687,-0.004 0.1553909,-0.011 0.3108725,-0.0207 0.4663042,-0.0311 0.1072785,-0.008 0.2147076,-0.0131 0.3222486,-0.0156 0.090657,-4.1e-4 0.1811205,-0.007 0.2715726,-0.0122 0.077251,-0.007 0.1547045,-0.0111 0.2321171,-0.0158 0.063505,-0.005 0.1270884,-0.008 0.1907382,-0.009 0.042016,-10e-4 0.083825,-0.003 0.125119,0.006 0.036832,0.009 0.069732,0.0251 0.1012604,0.0455 0.061504,0.0476 0.112248,0.10778 0.1577107,0.17043 0.062026,0.0878 0.096175,0.18994 0.1305296,0.29067 0.041435,0.12267 0.069335,0.24899 0.095142,0.37567 0.01997,0.10327 0.041929,0.20614 0.062024,0.30939 0.012428,0.066 0.017384,0.13293 0.019535,0.19991 0.00141,0.0323 -0.00827,0.0594 -0.026654,0.0846 -0.066043,0.0177 -0.1350203,0.0199 -0.2030478,0.0222 -0.093429,0.002 -0.1868985,0.002 -0.2803425,0.002 -0.092365,-2.8e-4 -0.184726,-3.6e-4 -0.277092,-3.6e-4 -0.089342,8e-5 -0.1786892,-1.7e-4 -0.2680317,-1.7e-4 -0.087263,-4.3e-4 -0.1745382,10e-4 -0.2617853,-0.001 -0.1142271,-0.005 -0.227827,-0.0202 -0.3414042,-0.033 -0.1081474,-0.0119 -0.2157569,-0.0272 -0.3230105,-0.0454 -0.1220656,-0.0221 -0.2446208,-0.0409 -0.3676945,-0.0563 -0.1214727,-0.0173 -0.2429944,-0.0333 -0.3650986,-0.0453 -0.126809,-0.009 -0.2528084,-0.0256 -0.3791516,-0.039 -0.1418319,-0.0156 -0.2840192,-0.028 -0.4263598,-0.0379 -0.1172271,-0.008 -0.2346603,-0.0117 -0.3521158,-0.0138 -0.077014,-0.001 -0.1540436,-0.001 -0.2310643,-0.001 -0.077016,2.4e-4 -0.1540299,2.9e-4 -0.2310462,8e-5 -0.052605,-1.2e-4 -0.105197,-2e-4 -0.1578013,-3.6e-4 -0.034447,-8e-5 -0.068902,-8e-5 -0.1033489,-2e-4 -0.015343,0.002 -0.029819,-0.002 -0.044212,-0.006 0.043339,-0.0113 0.0843,-0.0478 0.08334,-0.0886 -2.784e-4,-0.0118 -0.00251,-0.0223 -0.00443,-0.0339 -0.014019,-0.0745 -0.031917,-0.14829 -0.046119,-0.2228 -0.028087,-0.15122 -0.052266,-0.30316 -0.076586,-0.45502 -0.019784,-0.13566 -0.038889,-0.27137 -0.063967,-0.40618 l -0.1020233,0.0542 c -0.00346,-0.0268 -0.00417,-0.0538 -0.00429,-0.0808 1.089e-4,-0.0236 2.783e-4,-0.0472 4.361e-4,-0.0708 2.542e-4,-0.005 2.824e-4,-0.0102 2.178e-4,-0.0153 0.00574,-2.3e-4 0.01191,-5.4e-4 0.017176,-10e-4 0.014793,-5.5e-4 0.02959,-0.001 0.044375,-0.002 z"
       inkscape:connector-curvature="0" />
    <path
       id="path3936"
       d="m -126.47803,152.70632 c 9.65868,1.14624 19.35881,1.90838 29.054512,2.66106 9.566662,0.68093 19.145912,1.25978 28.734602,1.51961 4.44227,0.12037 6.53016,0.1 10.859058,0.10898 4.312913,-0.0539 8.638493,-0.12245 12.926912,-0.6298 1.741411,-0.20602 2.162469,-0.30166 3.816919,-0.59178 1.334212,-0.25112 2.657941,-0.55275 3.98807,-0.82374 0,0 -3.14439,2.38029 -3.14439,2.38029 v 0 c -1.30174,0.25276 -2.600079,0.52349 -3.907208,0.74785 -1.626452,0.25933 -2.069222,0.35055 -3.778091,0.52894 -4.231669,0.44175 -8.493451,0.45128 -12.74317,0.44916 -3.93342,-0.0494 -6.757651,-0.0653 -10.747891,-0.20323 -9.566039,-0.33056 -19.122239,-0.94035 -28.671483,-1.57906 -9.8667,-0.70892 -19.72904,-1.47543 -29.58804,-2.28361 0,0 3.2002,-2.28467 3.2002,-2.28467 z"
       inkscape:connector-curvature="0"
       style="stroke-width:0.26458332" />
    <path
       style="fill:#ffccaa;stroke-width:0.26458332"
       id="path88"
       d="m -1.0552372,288.64039 c 3.757e-4,0.0226 2.019e-4,0.0453 0.00112,0.0679 0.00187,0.046 0.0097,0.15418 0.012598,0.19703 0.00688,0.10189 0.013611,0.2038 0.02028,0.30571 0.00162,0.0249 0.00324,0.0498 0.00486,0.0746 0,0 -0.1029754,0.0532 -0.1029754,0.0532 v 0 c -0.00101,-0.0252 -0.00202,-0.0504 -0.00302,-0.0755 -0.00503,-0.1022 -0.010698,-0.20429 -0.018641,-0.30632 -0.028954,-0.37187 0.0096,0.13511 -0.017039,-0.19518 -0.00178,-0.022 -0.00293,-0.044 -0.00439,-0.0661 0,0 0.1072072,-0.0554 0.1072072,-0.0554 z"
       inkscape:connector-curvature="0" />
    <path
       style="fill:#ffccaa;stroke-width:0.26458332"
       id="path90"
       d="m 5.7890806,289.24754 c -0.3019711,0.0253 -0.6030235,0.0594 -0.9035756,0.0978 -0.2241545,0.03 -0.4471075,0.0679 -0.6700451,0.10563 -0.040637,0.009 -0.083646,0.009 -0.1235903,0.0217 -0.00469,0.002 -0.017976,0.008 -0.013716,0.005 0.031689,-0.0184 0.064081,-0.0355 0.096121,-0.0532 -0.00233,0.003 -0.00551,0.005 -0.00697,0.009 -0.0087,0.0201 0.00151,0.0737 0.0034,0.0914 0.00872,0.0819 0.00677,0.0641 0.015822,0.15621 0.021963,0.23474 0.022558,0.47088 0.01673,0.70636 -0.00421,0.1477 -0.016626,0.29499 -0.03594,0.44144 -0.00468,0.032 -0.010798,0.0639 -0.019058,0.0952 -0.00424,0.0161 -0.00991,0.0303 -0.010747,0.0469 0.00204,0.002 0.00352,0.005 0.00614,0.006 0.02209,0.011 0.065,0.0113 0.087697,0.0127 0.053293,0.003 0.063568,0.002 0.1190778,0.003 0.1083945,-0.003 0.2168279,-0.0122 0.3240903,-0.0283 0.07113,-0.0106 0.1069705,-0.0189 0.1775857,-0.0334 0.1682202,-0.0387 0.3331561,-0.09 0.4975198,-0.14231 0.1028888,-0.0294 0.2020094,-0.0699 0.303067,-0.10463 0.056788,-0.0205 0.1136862,-0.041 0.171677,-0.0579 0.029325,-0.009 0.059057,-0.0169 0.087118,-0.0293 0.031976,-0.0142 0.1168914,-0.0652 -0.076215,0.0447 0.037501,-0.0228 0.042837,-0.0339 0.056551,-0.0766 0.00301,-0.0141 0.00659,-0.0281 0.00902,-0.0423 0.00714,-0.0418 0.011427,-0.0868 0.014613,-0.12886 0.00671,-0.0886 0.00879,-0.17714 0.010205,-0.26591 -0.00108,-0.11343 -0.00225,-0.22708 -0.01112,-0.34024 -0.00436,-0.0556 -0.00783,-0.0775 -0.014817,-0.13163 -0.012441,-0.0888 -0.037832,-0.17489 -0.064447,-0.26026 -0.011615,-0.0351 -0.025136,-0.0695 -0.032563,-0.10581 -0.0033,-0.0177 -0.00352,-0.0357 -0.00356,-0.0536 3.76e-5,-0.011 1.403e-4,-0.0219 2.181e-4,-0.0329 0,0 0.1107461,-0.0563 0.1107461,-0.0563 v 0 c -6.59e-5,0.0109 -1.495e-4,0.0219 -2.4e-4,0.0328 -8.97e-5,0.0173 -2.91e-4,0.0346 0.00214,0.0517 0.00607,0.0363 0.018661,0.0709 0.029684,0.10585 0.025305,0.0868 0.049867,0.17414 0.061941,0.26391 0.00651,0.055 0.0097,0.0767 0.01366,0.13309 0.00798,0.11379 0.00821,0.22797 0.00955,0.34196 -0.00138,0.14549 -0.00201,0.29227 -0.025154,0.43624 -0.011401,0.0455 -0.012914,0.0583 -0.051278,0.0845 -0.039657,0.0227 -0.079026,0.0459 -0.1189723,0.0682 -0.031852,0.0177 -0.069669,0.023 -0.1035748,0.0352 -0.057371,0.0174 -0.1139058,0.0374 -0.1703912,0.0575 -0.099505,0.0344 -0.1978509,0.0722 -0.2991598,0.10121 -0.1642304,0.0516 -0.3289033,0.10262 -0.4969846,0.14037 -0.073968,0.0149 -0.1039318,0.0219 -0.1783864,0.0329 -0.108391,0.016 -0.2178817,0.0256 -0.32738,0.0288 -0.050445,-5e-5 -0.072553,6.1e-4 -0.1217015,-0.002 -0.026239,-0.001 -0.073271,-0.001 -0.096284,-0.0188 -0.00453,-0.003 -0.00684,-0.009 -0.010258,-0.0137 -1.743e-4,-0.005 -0.00116,-0.01 -5.291e-4,-0.0146 9.26e-4,-0.007 0.00976,-0.0306 0.011353,-0.0358 0.00949,-0.0312 0.016412,-0.0632 0.022191,-0.0952 0.022696,-0.14697 0.037827,-0.29504 0.043406,-0.4437 0.00799,-0.23461 0.00895,-0.47022 -0.018304,-0.70375 -0.0077,-0.0602 -0.011927,-0.0958 -0.02036,-0.15359 -0.00228,-0.0156 -0.00493,-0.0311 -0.00727,-0.0467 -0.00329,-0.0219 -0.00829,-0.0423 0.00151,-0.0632 0.038747,-0.0228 0.076957,-0.0465 0.116241,-0.0683 0.00493,-0.003 0.028435,-0.007 0.032338,-0.008 0.033746,-0.006 0.067962,-0.008 0.1016886,-0.0142 0.2193764,-0.0331 0.4384702,-0.0682 0.6585278,-0.0966 0.305729,-0.0387 0.6122099,-0.0706 0.9180304,-0.10849 0,0 -0.097057,0.0723 -0.097057,0.0723 z"
       inkscape:connector-curvature="0" />
    <path
       style="fill:#ffccaa;stroke-width:0.26458332"
       id="path92"
       d="m 6.9288053,290.3195 c 0.049091,0.0436 0.098752,0.0865 0.149759,0.12789 0.022132,0.0186 0.045039,0.0362 0.066792,0.0552 0.00602,0.005 0.02218,0.0198 0.027498,0.027 0.00326,0.004 0.0054,0.01 0.0081,0.0143 0.00111,0.006 0.0032,0.0111 0.00331,0.0168 8.202e-4,0.0444 -0.055315,0.0969 -0.083025,0.12595 -0.069717,0.0689 -0.1416799,0.13538 -0.2152219,0.20014 -0.043919,0.0375 -0.085689,0.0774 -0.1348788,0.10801 -0.1245965,0.0703 -0.077024,0.0524 -0.1339998,0.0728 0,0 0.097129,-0.0763 0.097129,-0.0763 v 0 c 0.044773,-0.0194 0.016671,-0.008 -0.077719,0.0476 0.051261,-0.029 0.093817,-0.069 0.1384041,-0.10701 0.073852,-0.0642 0.1460548,-0.13028 0.2155891,-0.1992 0.026629,-0.0272 0.030355,-0.0295 0.05295,-0.058 0.0122,-0.0154 0.029313,-0.0356 0.031672,-0.0563 4.762e-4,-0.004 -7.938e-4,-0.009 -0.00119,-0.0129 -0.021222,-0.0395 -0.066388,-0.0633 -0.09788,-0.0938 -0.050921,-0.0419 -0.1003956,-0.0854 -0.1519335,-0.12654 0,0 0.1046594,-0.0656 0.1046594,-0.0656 z"
       inkscape:connector-curvature="0" />
    <path
       style="fill:#ffccaa;stroke-width:0.26458332"
       id="path94"
       d="m 7.1138253,289.36187 c 0.00628,0.15114 0.00855,0.30239 0.00633,0.45364 -0.00204,0.091 -0.00511,0.18198 -0.00672,0.27299 -3.44e-4,0.006 -6.615e-4,0.0121 -0.00101,0.0181 0,0 -0.1100937,0.0549 -0.1100937,0.0549 v 0 c 7.144e-4,-0.006 0.00143,-0.012 0.00217,-0.018 0.00438,-0.0918 0.00905,-0.18368 0.012189,-0.27558 0.00383,-0.14989 0.00432,-0.30041 -0.011335,-0.4497 0,0 0.1084826,-0.0564 0.1084826,-0.0564 z"
       inkscape:connector-curvature="0" />
    <path
       style="fill:#ffccaa;stroke-width:0.26458332"
       id="path96"
       d="m 7.2742951,289.05171 c 0.094696,-0.0102 0.1878327,-0.0298 0.2802191,-0.0525 0.093674,-0.0228 0.1851668,-0.0533 0.277662,-0.0803 0.044355,-0.0122 0.089738,-0.0203 0.1356103,-0.0235 0.00424,7.8e-4 0.00879,5.7e-4 0.012734,0.002 0.03776,0.0169 0.038243,0.0983 0.041148,0.13053 0.00659,0.13879 0.00285,0.27797 -4.233e-4,0.41683 -0.0057,0.12847 -0.00528,0.25692 0.00188,0.38529 0.005,0.0823 0.019796,0.16341 0.033949,0.24446 0.00623,0.0412 0.020145,0.0818 0.019277,0.12374 -0.00143,0.009 -0.00398,0.0205 -0.012914,0.0257 -0.090752,0.0533 -0.083082,0.0633 -0.1491755,0.0692 -0.069012,0.003 -0.1381586,0.002 -0.2072219,0.002 -0.091394,-0.002 -0.1826525,0.002 -0.2738515,0.007 -0.073005,0.005 -0.1461113,0.007 -0.2192358,0.009 -0.036277,7.4e-4 -0.072562,0.001 -0.1088464,0.001 -0.018034,-7.4e-4 -0.036846,0.003 -0.053317,-0.005 -0.00198,-0.002 -0.00445,-0.004 -0.00592,-0.007 -0.011451,-0.0211 -0.009,-0.0813 -0.00993,-0.10538 -0.00444,-0.0804 -0.00427,-0.16098 -0.00672,-0.24146 -0.00374,-0.0853 -0.015584,-0.17 -0.028554,-0.25431 -0.00973,-0.0702 -0.01837,-0.14047 -0.032299,-0.21002 -0.012375,-0.0503 -0.025961,-0.10017 -0.034763,-0.15124 -0.00458,-0.0294 -0.006,-0.0592 -0.00663,-0.0889 1.381e-4,-0.019 -0.0023,-0.0382 0.00393,-0.0564 0.00702,-0.009 0.0074,-0.0107 0.017933,-0.0167 0.040285,-0.023 0.080472,-0.0462 0.1216221,-0.0676 0.00717,-0.004 0.01533,-0.005 0.023016,-0.008 0.037617,-0.0122 0.024818,-0.008 0.066411,-0.0196 0.1031912,-0.0258 0.2041239,-0.0593 0.3061385,-0.0891 0,0 -0.093315,0.072 -0.093315,0.072 v 0 c -0.1026364,0.0307 -0.2046582,0.0634 -0.3082973,0.0907 -0.031381,0.009 -0.03797,0.0107 -0.067285,0.0213 -0.00778,0.003 -0.030034,0.0135 -0.023151,0.009 0.1543278,-0.10271 0.1076159,-0.0617 0.070474,-0.0426 -0.00183,0.002 -0.00434,0.003 -0.00551,0.005 -0.00514,0.01 5.556e-4,0.0342 -0.00164,0.0454 8.25e-5,0.0293 7.937e-4,0.0587 0.0048,0.0878 0.00765,0.0513 0.020907,0.10124 0.033199,0.15156 0.013838,0.0698 0.022445,0.14036 0.031751,0.21091 0.013025,0.0849 0.024265,0.17017 0.028486,0.25597 0.0028,0.0801 0.00332,0.16035 0.00838,0.24039 5.821e-4,0.0102 0.00119,0.0203 0.00177,0.0305 3.44e-4,0.009 5.821e-4,0.017 0.00106,0.0255 6.085e-4,0.0109 -1.056e-4,0.0299 0.00548,0.0404 6.085e-4,0.001 0.00201,0.002 0.00301,0.002 0.016277,0.004 0.03348,4.5e-4 0.050019,0.002 0.03569,1.9e-4 0.071382,2.6e-4 0.1070705,-2.7e-4 0.07248,-0.001 0.1449276,-0.004 0.2172854,-0.008 0.091316,-0.005 0.1826876,-0.008 0.2741755,-0.007 0.069706,-1.9e-4 0.1396307,7.5e-4 0.2091515,-0.005 0.00586,-9e-4 0.011795,-0.001 0.017592,-0.003 0.0047,-10e-4 0.017886,-0.007 0.01384,-0.004 -0.031385,0.0202 -0.064254,0.038 -0.096276,0.0572 -0.014623,0.009 0.012663,-0.007 0.014073,-0.008 0.00185,-0.002 0.00235,-0.005 0.00355,-0.008 0.00518,-0.041 -0.011073,-0.0819 -0.01569,-0.12232 -0.013324,-0.0819 -0.027565,-0.16393 -0.032113,-0.24697 -0.00656,-0.1291 -0.00604,-0.25821 1.607e-4,-0.38735 0.00333,-0.1378 0.00641,-0.27608 -0.00243,-0.41372 -0.00283,-0.0254 -0.00564,-0.0903 -0.027104,-0.11008 -0.006,-0.006 -0.012816,-0.004 -0.020137,-0.005 -0.044616,0.004 -0.088745,0.0116 -0.1318379,0.0238 -0.091746,0.0265 -0.1827464,0.0558 -0.2756699,0.0781 -0.094199,0.0229 -0.1891646,0.0421 -0.2853658,0.0545 0,0 0.098772,-0.0735 0.098772,-0.0735 z"
       inkscape:connector-curvature="0" />
    <path
       style="fill:#ffccaa;stroke-width:0.26458332"
       id="path98"
       d="m 7.5878234,291.27444 c -0.00589,0.0917 -0.010377,0.18344 -0.015915,0.27514 -0.00585,0.0766 -0.010033,0.15357 -0.023146,0.22936 -0.00654,0.0293 -0.0096,0.0628 -0.030757,0.086 -0.00431,0.005 -0.00943,0.009 -0.014142,0.013 -0.101074,0.0753 -0.2175729,0.12072 -0.3349522,0.16237 -0.1770813,0.059 -0.3591811,0.10086 -0.5412996,0.14085 -0.2238042,0.0439 -0.4473371,0.0893 -0.6699544,0.13893 -0.1397005,0.0291 -0.2777521,0.0655 -0.4171566,0.0959 -0.071052,0.0147 -0.1420283,0.0298 -0.2110216,0.0525 -0.032269,0.0138 -0.067074,0.0174 -0.100924,0.0248 -0.019124,0.005 -0.037421,0.0113 -0.056962,0.0143 -0.00833,0.002 -0.017018,7.4e-4 -0.025392,0.002 -0.00879,10e-4 -0.00776,0.002 -0.015229,0.007 0.033044,-0.0187 0.066088,-0.0374 0.099133,-0.0561 0,0 -0.11546,0.0457 -0.11546,0.0457 v 0 c 0.1220579,-0.0714 0.078026,-0.0619 0.1560841,-0.0728 0.018987,-0.004 0.037259,-0.011 0.056472,-0.0141 0.033515,-0.006 0.066722,-0.0129 0.098726,-0.0249 0.068539,-0.021 0.1387504,-0.0353 0.2089587,-0.0495 0.1378272,-0.0296 0.2745007,-0.0644 0.4126772,-0.0925 0.2227453,-0.0482 0.4462796,-0.0926 0.6694964,-0.13859 0.1833938,-0.0405 0.3666976,-0.0833 0.5443362,-0.14508 0.050917,-0.0188 0.1017752,-0.0376 0.151148,-0.0602 0.011705,-0.005 0.045351,-0.0242 0.034703,-0.017 -0.02472,0.0168 -0.051189,0.0309 -0.077104,0.0458 -0.00679,0.004 0.013131,-0.009 0.019698,-0.0128 0.010433,-0.008 0.017251,-0.0116 0.025236,-0.0217 0.015613,-0.0197 0.017711,-0.0467 0.024072,-0.07 0.015306,-0.0756 0.020214,-0.15271 0.026625,-0.22942 0.00568,-0.0909 0.011057,-0.18195 0.011729,-0.27311 0,0 0.1103254,-0.0553 0.1103254,-0.0553 z"
       inkscape:connector-curvature="0" />
    <path
       style="fill:#782121;stroke-width:0.26458332"
       id="path100"
       d="m 8.9528199,288.44903 c 0.02132,0.22879 0.057012,0.45596 0.093547,0.68272 0.00783,0.048 0.015433,0.096 0.023506,0.14399 0.025979,0.15435 0.053964,0.30822 0.076547,0.46314 0.023278,0.1597 0.024302,0.17781 0.04303,0.33708 0.023342,0.2028 0.026959,0.40729 0.017245,0.61106 -0.00536,0.11238 -0.010684,0.16062 -0.020439,0.27172 -0.023424,0.24107 -0.068685,0.47914 -0.1197862,0.71564 -0.036336,0.16983 -0.08733,0.33689 -0.1576982,0.49585 -0.013147,0.0297 -0.027751,0.0587 -0.041626,0.0881 -0.055068,0.1098 -0.1167183,0.21684 -0.190899,0.31499 -0.043103,0.057 -0.069146,0.0845 -0.1164122,0.13818 -0.1394563,0.15674 -0.3101292,0.28048 -0.4877041,0.39052 -0.054466,0.0337 -0.1104138,0.065 -0.1656207,0.0976 -0.2122749,0.12735 -0.437897,0.228 -0.6662197,0.32214 -0.1562672,0.0644 -0.2506605,0.10146 -0.4098912,0.15816 -0.067249,0.0239 -0.1350793,0.0462 -0.202619,0.0693 -0.2591654,0.0859 -0.5217358,0.16385 -0.7890647,0.22033 -0.039062,0.008 -0.078401,0.0151 -0.1176018,0.0227 -0.1960837,0.0384 -0.3952846,0.0512 -0.5946121,0.0557 -0.1190726,3.1e-4 -0.2383211,-0.003 -0.3568827,-0.0147 -0.049578,-0.005 -0.1140764,-0.0134 -0.1634829,-0.0197 -0.1043135,-0.0131 -0.2062543,-0.039 -0.3043052,-0.0769 -0.05849,-0.0226 -0.088878,-0.0376 -0.1457153,-0.0637 -0.091582,-0.046 -0.1791674,-0.0998 -0.2586035,-0.16469 -0.054627,-0.0446 -0.070625,-0.0621 -0.1218165,-0.11151 -0.12035,-0.12401 -0.223587,-0.26304 -0.3305675,-0.39839 -0.016338,-0.0202 -0.032602,-0.0403 -0.049016,-0.0604 -0.018248,-0.0223 -0.075465,-0.0913 -0.093533,-0.11399 -0.046776,-0.0589 -0.090845,-0.11952 -0.1341808,-0.18092 -0.088758,-0.12448 -0.166959,-0.25593 -0.2406126,-0.38976 -0.054728,-0.0991 -0.1022078,-0.20241 -0.1384472,-0.30978 -0.00754,-0.0224 -0.013946,-0.0451 -0.020918,-0.0676 -0.046074,-0.15419 -0.061796,-0.31454 -0.071595,-0.47444 -0.00808,-0.21449 0.00615,-0.42896 0.014372,-0.64323 0.00682,-0.21612 0.00886,-0.4323 0.018026,-0.64834 0.00762,-0.13427 0.013647,-0.2692 0.034949,-0.40219 0.014068,-0.0878 0.020873,-0.1074 0.042303,-0.19357 0.043014,-0.15132 0.1054029,-0.29833 0.195702,-0.42783 0.017767,-0.0255 0.037562,-0.0495 0.056344,-0.0742 0.075684,-0.0932 0.1636784,-0.17512 0.2645931,-0.24042 0.065401,-0.0423 0.2048336,-0.11461 0.2524676,-0.14034 0.1776706,-0.0808 0.3688257,-0.12433 0.558991,-0.16417 0.2232356,-0.0465 0.4484968,-0.0822 0.672746,-0.12336 0.1776402,-0.0335 0.3556479,-0.0654 0.5321406,-0.10464 0.1209825,-0.0269 0.1626991,-0.038 0.2833195,-0.068 0.048935,-0.0121 0.097713,-0.0248 0.1468038,-0.0362 0.060455,-0.0141 0.2830787,-0.0619 0.3413868,-0.0741 0.1112486,-0.0233 0.2540339,-0.0523 0.3653452,-0.0718 0.068274,-0.0119 0.1368427,-0.0221 0.2052642,-0.0331 0.4136493,-0.0609 0.8287774,-0.11082 1.2438923,-0.16042 0.2359763,-0.0268 0.4708472,-0.0623 0.7071129,-0.0865 0.090285,-0.01 0.1806686,-0.0185 0.2713742,-0.0231 0.025278,-9e-5 0.055266,-0.007 0.076764,0.01 0.011102,0.0129 0.011586,0.0295 0.012047,0.0456 1.066e-4,0.0167 -2.336e-4,0.0335 -3.969e-4,0.0502 0,0 -0.1107432,0.0563 -0.1107432,0.0563 v 0 c 1.405e-4,-0.0166 4.234e-4,-0.0333 5.028e-4,-0.0499 -9.79e-5,-0.0115 0.00156,-0.0258 -0.00623,-0.0352 -0.021164,-0.0107 -0.047875,-0.003 -0.070362,-0.005 -0.088677,0.003 -0.1770933,0.0111 -0.2654249,0.0195 -0.2331395,0.0217 -0.4649142,0.0551 -0.6977412,0.0798 -0.414074,0.0469 -0.8282432,0.0941 -1.2400923,0.15817 -0.068901,0.0115 -0.1379477,0.0222 -0.2067036,0.0345 -0.2879577,0.0517 -0.5738061,0.11594 -0.8577672,0.18602 -0.1216896,0.0301 -0.1619552,0.0409 -0.2840107,0.0681 -0.1771816,0.0394 -0.3558519,0.0717 -0.5341138,0.10575 -0.2248196,0.0415 -0.4506013,0.078 -0.6743983,0.12499 -0.1903579,0.0407 -0.3816694,0.0852 -0.558981,0.16779 0.00644,-0.006 0.027057,-0.0207 0.019312,-0.017 -0.026506,0.0126 -0.051419,0.0284 -0.076235,0.0441 -0.075619,0.0478 -0.1437323,0.10422 -0.2054291,0.16897 -0.021079,0.0221 -0.040678,0.0456 -0.061018,0.0684 -0.050299,0.0651 -0.065267,0.0804 -0.1074216,0.15125 -0.064408,0.10833 -0.112359,0.226 -0.1471917,0.3469 -0.021571,0.0851 -0.028696,0.10565 -0.042966,0.19247 -0.021807,0.13266 -0.028032,0.26733 -0.035502,0.40135 -0.00992,0.21633 -0.012938,0.43283 -0.020039,0.64926 -0.00751,0.21335 -0.020651,0.42696 -0.011443,0.64047 0.010369,0.15874 0.025831,0.31806 0.072181,0.47102 0.00695,0.0223 0.013343,0.0448 0.020839,0.067 0.036156,0.1068 0.083639,0.20941 0.1371579,0.30852 0.07262,0.13391 0.1508993,0.26481 0.2395717,0.38881 0.086865,0.12239 0.1806898,0.23917 0.2757527,0.35526 0.1059712,0.13545 0.2088523,0.27415 0.3295409,0.39712 0.052236,0.0497 0.066243,0.0651 0.1218714,0.10996 0.079193,0.0639 0.1661154,0.11719 0.2570181,0.16265 0.058702,0.0268 0.084673,0.0399 0.1451954,0.0628 0.097576,0.0369 0.198991,0.062 0.3025007,0.0751 0.048565,0.006 0.1142402,0.0147 0.1629931,0.0194 0.1179317,0.0114 0.2365344,0.0152 0.3549746,0.0145 0.1981784,-0.005 0.3960915,-0.0187 0.5912201,-0.0554 0.038678,-0.007 0.077488,-0.014 0.1160341,-0.022 0.2643362,-0.0548 0.5240208,-0.13093 0.7803309,-0.21502 0.0673,-0.023 0.1349036,-0.0452 0.2018993,-0.0691 0.3086068,-0.11009 0.6111152,-0.23743 0.90439,-0.38359 0.054437,-0.0321 0.10962,-0.0629 0.1633117,-0.0962 0.174617,-0.10824 0.3419292,-0.23061 0.4796475,-0.38412 0.045986,-0.0517 0.074718,-0.0821 0.1167961,-0.13704 0.074729,-0.0976 0.1370285,-0.20415 0.1925745,-0.31357 0.014084,-0.0293 0.028912,-0.0582 0.042247,-0.0878 0.071329,-0.15834 0.1224714,-0.32518 0.159758,-0.49459 0.052459,-0.23636 0.09823,-0.47452 0.1228442,-0.7156 0.010623,-0.11336 0.015849,-0.15707 0.021939,-0.27182 0.010811,-0.20367 0.00842,-0.4081 -0.013875,-0.611 -0.017447,-0.15213 -0.019738,-0.18444 -0.042928,-0.33662 -0.030831,-0.20233 -0.06995,-0.40331 -0.1038016,-0.60513 -0.036401,-0.22545 -0.069555,-0.4514 -0.1050658,-0.67698 0,0 0.1075193,-0.0566 0.1075193,-0.0566 z"
       inkscape:connector-curvature="0" />
    <path
       style="fill:#aa4400;stroke-width:0.26458332"
       id="path104"
       d="m 2.6578343,289.93217 c -0.00504,-0.0341 -0.00607,-0.0434 -0.013544,-0.0812 -0.00959,-0.0486 -0.020561,-0.097 -0.030594,-0.14553 -0.018433,-0.0892 -0.019084,-0.0936 -0.03707,-0.18478 -0.033403,-0.16958 -0.047633,-0.34309 -0.027646,-0.51531 0.00414,-0.0357 0.011131,-0.071 0.016697,-0.10655 0.027139,-0.1406 0.073234,-0.27719 0.1447168,-0.40165 0.018277,-0.0318 0.036877,-0.0637 0.05895,-0.093 0.028427,-0.0378 0.061447,-0.0718 0.092171,-0.10776 0.044247,-0.041 0.0867,-0.084 0.1327412,-0.12299 0.1997305,-0.16905 0.4210978,-0.3082 0.6491798,-0.43538 0.3146205,-0.17544 0.3558368,-0.19127 0.6574342,-0.3392 0.5866395,-0.2767 1.1925538,-0.5096 1.8007275,-0.73393 0.2914872,-0.10303 0.5821471,-0.21028 0.8820525,-0.28685 0.1699348,-0.0434 0.2280095,-0.0526 0.3977217,-0.0862 0.058842,-0.009 0.1174297,-0.0205 0.1765263,-0.0281 0.055594,-0.007 0.1114681,-0.0122 0.167381,-0.0162 0.1514972,-0.0107 0.3058644,-0.0119 0.4537437,0.0287 0.051828,0.0142 0.1010722,0.0366 0.1516084,0.0549 0.1566351,0.0749 0.2919412,0.16573 0.4115935,0.29273 0.1576443,0.16732 0.2760998,0.36531 0.3977568,0.55871 0.042633,0.0729 0.08583,0.1454 0.1278985,0.21859 0.025252,0.0439 0.2011112,0.35695 0.2311281,0.41003 0.080525,0.14238 0.1613861,0.28459 0.242316,0.42675 0.064604,0.1193 0.1394204,0.23292 0.2021256,0.35324 0.00397,0.009 0.015261,0.03 0.016568,0.0412 0.00577,0.0494 -0.077302,0.0646 -0.1226627,0.085 -0.00927,0.004 -0.020362,-6.5e-4 -0.030446,-0.002 -0.015312,-0.002 -0.030415,-0.005 -0.045623,-0.008 -0.2519114,-0.0629 -0.4868818,-0.17733 -0.7228062,-0.28297 -0.2689127,-0.12114 -0.537904,-0.24209 -0.8076084,-0.36145 -0.012634,-0.005 -0.07585,-0.0346 -0.096412,-0.0387 -0.00719,-10e-4 -0.028389,0.005 -0.021963,0.002 0.032241,-0.0178 0.064213,-0.0413 0.1008367,-0.045 0.011758,-10e-4 0.0063,0.0229 0.0112,0.0336 0.00822,0.018 0.018682,0.0349 0.028022,0.0524 0.1045824,0.16708 0.2301531,0.31988 0.3554262,0.47165 0.091271,0.11057 0.1864,0.21795 0.2869221,0.32019 0.058765,0.0628 0.093231,0.0623 -0.064936,0.11443 -0.010012,0.003 -0.017444,-0.0118 -0.025982,-0.018 -0.020805,-0.0151 -0.041361,-0.0305 -0.062041,-0.0457 -0.2570766,-0.18539 -0.5197631,-0.36391 -0.7945914,-0.52216 -0.06495,-0.0374 -0.1311608,-0.0726 -0.1967413,-0.10885 -0.15407,-0.0809 -0.3110867,-0.15714 -0.4737981,-0.21929 -0.056786,-0.0217 -0.1308827,-0.0467 -0.1915615,-0.0608 -0.021479,-0.005 -0.043447,-0.008 -0.06517,-0.0115 -0.016587,-2.9e-4 -0.033318,-0.003 -0.049758,-8.6e-4 -0.012414,0.002 -0.046481,0.0184 -0.035497,0.0123 0.026321,-0.0144 0.051803,-0.0361 0.081774,-0.0377 0.011734,-6.5e-4 -0.00923,0.022 -0.010131,0.0338 -0.00309,0.0404 0.010181,0.0713 0.021193,0.10969 0.057063,0.15541 0.1531969,0.29128 0.2534433,0.42141 0.035319,0.045 0.072898,0.0881 0.1121098,0.12976 0.00831,0.009 0.01678,0.0175 0.025093,0.0263 0.00571,0.006 0.01206,0.0116 0.016965,0.0183 0.00259,0.004 0.00348,0.008 0.00522,0.0121 -0.039758,0.0215 -0.076158,0.051 -0.1192733,0.0646 -0.012163,0.004 -0.023257,-0.0105 -0.034789,-0.0159 -0.018317,-0.009 -0.03652,-0.0175 -0.054755,-0.0264 -0.084758,-0.041 -0.1694804,-0.0819 -0.2547482,-0.12181 -0.1854441,-0.0868 -0.3737991,-0.16775 -0.5671735,-0.23535 -0.03619,-0.0127 -0.072724,-0.0243 -0.1090864,-0.0364 -0.1520026,-0.0481 -0.3084486,-0.0794 -0.4668771,-0.0957 -0.015468,-0.001 -0.052486,-0.005 -0.06989,-0.003 -0.00709,6.1e-4 -0.026893,0.008 -0.020812,0.005 0.2040588,-0.12375 0.082213,-0.077 0.096024,-0.0359 0.00323,0.01 0.00929,0.018 0.013938,0.0271 0.00935,0.0125 0.018127,0.0254 0.028053,0.0375 0.047351,0.0574 0.1024183,0.10792 0.1577348,0.15748 0.049778,0.0446 0.083873,0.0731 0.1346882,0.11639 0.05906,0.0506 0.1197941,0.0993 0.1814836,0.14667 0.038864,0.0298 0.078338,0.0586 0.1160393,0.0899 0.032759,0.0525 0.027804,0.0331 -0.1103341,0.0887 -0.013356,0.005 -0.028454,-0.005 -0.042474,-0.008 -0.022939,-0.005 -0.045676,-0.0116 -0.068332,-0.0181 -0.063099,-0.018 -0.134617,-0.0413 -0.1966467,-0.0609 -0.2345071,-0.0766 -0.4720712,-0.14303 -0.7119896,-0.20026 -0.1282162,-0.0296 -0.2582457,-0.0511 -0.3894732,-0.0609 0.024545,-0.0274 -0.050243,0.0125 -0.038674,0.006 0.033743,-0.0177 0.06523,-0.0409 0.101455,-0.0528 0.00589,-0.002 0.00382,0.0119 0.00707,0.0172 0.014671,0.0238 0.035037,0.0443 0.053493,0.0649 0.075749,0.0754 0.1586622,0.14337 0.2416453,0.21064 0.075687,0.0587 0.1056032,0.0507 -0.047486,0.12282 -0.00917,0.004 -0.019563,-0.005 -0.029351,-0.008 -0.014646,-0.004 -0.029301,-0.008 -0.043951,-0.0117 -0.1267973,-0.0365 -0.252263,-0.0781 -0.3811217,-0.10707 -0.027175,-0.006 -0.054591,-0.0111 -0.081886,-0.0166 -0.1256905,-0.0249 -0.2511649,-0.0308 -0.3787446,-0.0261 -0.01801,0.002 -0.041178,0.003 -0.059183,0.008 -0.00644,0.002 -0.024402,0.0104 -0.018645,0.007 0.031797,-0.0172 0.063595,-0.0344 0.095392,-0.0515 -0.00122,0.004 -0.00382,0.007 -0.00361,0.0111 3.175e-4,0.006 0.00344,0.0118 0.00515,0.0178 0.029512,0.0579 0.076802,0.10411 0.1179734,0.15372 0.017193,0.0207 0.034621,0.0413 0.049994,0.0635 0.00469,0.007 0.015645,0.0223 0.017063,0.0316 7.937e-4,0.005 -0.00106,0.0106 -0.00159,0.0159 -0.074157,0.0812 -0.1616205,0.0911 -0.2590472,0.0985 -0.019566,10e-4 -0.1180158,0.007 -0.1365637,0.008 -0.081937,0.006 -0.1644012,0.01 -0.2455066,0.0235 -0.039351,0.007 -0.052663,0.0109 -0.09026,0.0204 -0.011554,0.004 -0.023334,0.007 -0.034662,0.012 -0.00951,0.004 -0.036714,0.0184 -0.027763,0.0134 0.027379,-0.0154 0.053843,-0.033 0.083082,-0.0445 0.00716,-0.003 -0.010843,0.0111 -0.014846,0.0177 -0.011022,0.0181 -0.00951,0.0269 -0.011882,0.0478 0.00309,0.0616 0.023569,0.12042 0.038491,0.17981 0.0036,0.0172 0.010782,0.037 0.00406,0.0546 -0.00212,0.006 -0.00443,0.0118 -0.00937,0.015 -0.1115425,0.0728 -0.081822,0.0634 -0.1536261,0.0782 -0.012369,10e-4 -0.024701,0.003 -0.037111,0.004 -0.023585,0.002 -0.079114,0.005 -0.1006649,0.006 -0.067525,0.004 -0.1347923,0.008 -0.2021578,0.0143 -0.1303767,0.0163 -0.2631795,0.0355 -0.3855128,0.086 -0.023916,0.01 -0.046705,0.0223 -0.070057,0.0335 0.00984,-0.004 0.035572,-0.0198 0.029528,-0.0112 -0.018301,0.0261 -0.047657,0.0426 -0.068478,0.0668 -0.045502,0.0528 -0.085844,0.12016 -0.1178375,0.1815 -0.01755,0.0337 -0.032371,0.0687 -0.048556,0.10298 0,0 -0.1010355,0.046 -0.1010355,0.046 v 0 c 0.046873,-0.10139 0.091054,-0.19976 0.1627043,-0.28712 0.077544,-0.0946 0.1099566,-0.0951 0.2341062,-0.17091 0.023585,-0.0108 0.046645,-0.0229 0.070752,-0.0325 0.12348,-0.0492 0.2568176,-0.0678 0.3877895,-0.0842 0.084617,-0.008 0.058467,-0.006 0.1408705,-0.0112 0.054911,-0.004 0.1104419,-0.005 0.1651008,-0.0121 0.012427,-0.002 0.024717,-0.004 0.037075,-0.006 0.056795,-0.0174 0.048823,-0.0176 -0.056368,0.0438 -0.00435,0.003 0.00865,-0.006 0.011576,-0.01 0.010234,-0.0144 0.00222,-0.035 -2.91e-4,-0.0499 -0.013954,-0.061 -0.03411,-0.12083 -0.039906,-0.18335 9.26e-4,-0.023 -0.00114,-0.0329 0.00856,-0.0538 0.024051,-0.0521 0.1013256,-0.0755 0.1391412,-0.0971 0.017,-0.01 0.044638,-0.0171 0.062581,-0.0227 0.037693,-0.009 0.050462,-0.0125 0.089899,-0.0186 0.080889,-0.0127 0.1629238,-0.0158 0.2444681,-0.0216 0.065795,-0.004 0.1322576,-0.006 0.197511,-0.0163 0.015899,-0.002 0.055962,-0.023 0.047317,-0.009 -0.015735,0.0247 -0.049308,0.0317 -0.072695,0.0493 -0.00521,0.004 0.011906,-0.005 0.017857,-0.008 0.00185,-0.003 0.0054,-0.005 0.00554,-0.009 2.91e-4,-0.007 -0.011835,-0.0251 -0.014653,-0.0294 -0.014732,-0.0222 -0.031784,-0.0427 -0.048509,-0.0634 -0.042041,-0.0509 -0.089689,-0.0985 -0.1214972,-0.15684 -7.408e-4,-0.002 -0.016129,-0.0353 -0.00846,-0.0412 0.082312,-0.0636 0.1084371,-0.0772 0.1936853,-0.0807 0.1262046,-0.002 0.2520791,0.006 0.3760753,0.0313 0.027296,0.006 0.054709,0.0109 0.081886,0.0172 0.1296842,0.0299 0.256196,0.0718 0.3852235,0.10413 0.015055,0.003 0.029934,0.007 0.045163,0.01 0.00912,10e-4 0.034052,-0.005 0.027642,10e-4 -0.026834,0.0278 -0.060316,0.0489 -0.094122,0.0675 -0.00406,0.002 -0.00565,-0.007 -0.00905,-0.0106 -0.015372,-0.0142 -0.033471,-0.0253 -0.04877,-0.0396 -0.082083,-0.0691 -0.1647928,-0.13778 -0.2419813,-0.21237 -0.01778,-0.0189 -0.043177,-0.0441 -0.058132,-0.0664 -0.00505,-0.008 -0.01855,-0.0177 -0.01229,-0.0243 0.00553,-0.006 0.076743,-0.0772 0.1228619,-0.0785 0.00822,-2.2e-4 0.016423,9.3e-4 0.024635,10e-4 0.1289265,0.0138 0.2566133,0.0372 0.3825878,0.0679 0.2395339,0.0594 0.4768551,0.12696 0.7123271,0.20085 0.066908,0.0201 0.132556,0.0408 0.2003901,0.0575 0.023328,0.006 0.046756,0.0113 0.070504,0.0149 0.013867,0.002 0.049669,-0.01 0.042022,0.002 -0.070441,0.10834 -0.073266,0.0899 -0.089759,0.0503 -0.035779,-0.0327 -0.074074,-0.0616 -0.1120222,-0.0917 -0.060836,-0.0483 -0.1207934,-0.0977 -0.1797206,-0.14829 -0.047365,-0.0405 -0.0884,-0.0753 -0.1351901,-0.11647 -0.056525,-0.0498 -0.1131123,-0.1 -0.1628275,-0.15677 -0.010747,-0.0123 -0.020434,-0.0254 -0.030651,-0.0382 -0.00584,-0.01 -0.01301,-0.0195 -0.017515,-0.0302 -0.00322,-0.008 -0.011689,-0.0189 -0.00539,-0.0243 0.091469,-0.0786 0.1118293,-0.078 0.2058432,-0.0673 0.1566402,0.02 0.3112743,0.0536 0.4615844,0.10237 0.036191,0.0124 0.072541,0.0243 0.1085725,0.0371 0.1934303,0.0689 0.3822351,0.1499 0.5689071,0.23525 0.086713,0.0391 0.1726811,0.08 0.2597245,0.11843 0.018849,0.008 0.03766,0.0168 0.056878,0.0242 0.011451,0.004 0.042091,10e-4 0.035043,0.0113 -0.021418,0.0305 -0.059871,0.0445 -0.089807,0.0668 -3.704e-4,-0.003 3.44e-4,-0.006 -0.00114,-0.008 -0.00377,-0.006 -0.03907,-0.0453 -0.039614,-0.0459 -0.0379,-0.043 -0.07471,-0.0869 -0.1094507,-0.13254 -0.099198,-0.13248 -0.1958443,-0.26922 -0.2568149,-0.42423 -0.013119,-0.0407 -0.026798,-0.0708 -0.026963,-0.1137 -5.14e-5,-0.0134 -0.00316,-0.0305 0.00669,-0.0396 0.026561,-0.0244 0.1043662,-0.0874 0.1624692,-0.0907 0.016394,-9.3e-4 0.032758,0.002 0.049137,0.003 0.021217,0.005 0.042701,0.008 0.063647,0.0138 0.058505,0.016 0.131998,0.0433 0.1864715,0.0658 0.1595858,0.0659 0.3136773,0.14445 0.4657841,0.22587 0.1741964,0.0969 0.2227824,0.12172 0.3937836,0.22613 0.2077376,0.12683 0.4085881,0.26451 0.6135148,0.39574 0.02222,0.014 0.044149,0.0285 0.066657,0.042 0.00866,0.005 0.033287,0.006 0.026797,0.0142 -0.1201359,0.14343 -0.073683,0.0965 -0.1020305,0.0606 -0.00676,-0.009 -0.033275,-0.0376 -0.03813,-0.043 -0.097267,-0.10507 -0.1901375,-0.21406 -0.2807361,-0.32492 -0.1253141,-0.15291 -0.2513682,-0.30599 -0.361356,-0.47049 -0.010393,-0.0175 -0.021702,-0.0345 -0.03118,-0.0526 -0.0066,-0.0126 -0.025694,-0.0279 -0.016973,-0.0391 0.092962,-0.11941 0.1265081,-0.081 0.2242786,-0.0344 0.2634051,0.1268 0.528017,0.25123 0.7954734,0.36928 0.2397803,0.10387 0.4798172,0.21536 0.7368379,0.26978 0.01542,0.002 0.030747,0.005 0.046257,0.005 0.00975,4e-4 0.036251,-0.009 0.02919,-0.002 -0.025482,0.0243 -0.058695,0.0389 -0.088043,0.0584 0.00185,-0.003 0.00532,-0.005 0.00555,-0.009 6.35e-4,-0.009 -0.01125,-0.0344 -0.013634,-0.0402 -0.057848,-0.12263 -0.1301639,-0.23789 -0.1909374,-0.35905 -0.1911945,-0.35672 -0.3804576,-0.71479 -0.5887751,-1.06193 -0.1241682,-0.19351 -0.2422835,-0.38606 -0.4036878,-0.5521 -0.118419,-0.12182 -0.2577647,-0.21643 -0.4113943,-0.28793 -0.050522,-0.0176 -0.099834,-0.0392 -0.1515668,-0.0528 -0.1466522,-0.0387 -0.3004608,-0.0378 -0.4504666,-0.0274 -0.055452,0.004 -0.1108445,0.009 -0.1659916,0.0159 -0.058359,0.007 -0.1162553,0.018 -0.174383,0.027 -0.1739603,0.0341 -0.2213128,0.0409 -0.3959005,0.0858 -0.2965484,0.0762 -0.5849202,0.18011 -0.8735774,0.28126 -0.6070902,0.22318 -1.2123563,0.45374 -1.7968111,0.73198 -0.093056,0.0457 -0.3994843,0.19406 -0.5091353,0.25478 -0.2749227,0.15224 -0.5412809,0.32533 -0.7648604,0.54797 -0.029774,0.035 -0.061686,0.0682 -0.089321,0.10487 -0.021918,0.0291 -0.040668,0.0605 -0.059006,0.0919 -0.071866,0.1233 -0.1189633,0.25865 -0.14634,0.39843 -0.00569,0.0352 -0.01284,0.0703 -0.017055,0.10571 -0.020343,0.17104 -0.00628,0.34363 0.027335,0.51199 0.027908,0.13631 0.058917,0.27183 0.090678,0.40728 0,0 -0.1092472,0.0576 -0.1092472,0.0576 z"
       inkscape:connector-curvature="0" />
    <path
       style="fill:#aa4400;stroke-width:0.03156727"
       d="m 10.361582,12.581141 c -0.03429,-0.109789 -0.267074,-1.226815 -0.308033,-1.478102 -0.02396,-0.146991 -0.04128,-0.516406 -0.04143,-0.883884 -2.27e-4,-0.5310493 0.01109,-0.6877887 0.07122,-0.9866473 0.134872,-0.6702981 0.354455,-1.2250502 0.686584,-1.734581 0.45255,-0.6942734 1.658782,-1.6666279 3.044738,-2.4543903 0.485872,-0.2761644 2.045148,-1.051853 2.887773,-1.4365715 2.239413,-1.0224528 6.019232,-2.4764019 8.288565,-3.18828829 2.088978,-0.65530941 4.117541,-0.95466904 5.238641,-0.77307824 1.04262,0.16887892 2.097664,0.8425684 2.911336,1.85900913 0.307901,0.3846299 0.988622,1.4082494 1.362803,2.049284 0.462127,0.791702 1.519513,2.7257758 2.459368,4.4984537 L 37.119783,8.3477816 37.01295,8.3253446 C 36.793982,8.2793571 36.101679,8.0438283 35.643426,7.8594183 34.754879,7.5018499 31.664811,6.0953309 31.578774,6.0092943 31.546941,5.9774609 32.528411,5.8790001 33.110152,5.8556674 l 0.43405,-0.017409 v 0.1622513 c 0,0.090122 0.01443,0.1622517 0.03247,0.1622517 0.01786,0 0.115504,-0.041917 0.216994,-0.093149 0.144153,-0.072769 0.188175,-0.1122362 0.201203,-0.1803902 0.02663,-0.139277 -0.01119,-0.2937716 -0.08106,-0.3311643 -0.09981,-0.053415 -0.959204,0.019864 -2.500395,0.2132018 -0.34724,0.04356 -1.195313,0.1482687 -1.884607,0.2326849 L 28.275543,6.157429 27.917467,6.0056808 C 27.463966,5.8134926 27.081894,5.6925224 26.852739,5.6685711 26.644342,5.6467894 26.474188,5.7082865 26.213618,5.8995624 l -0.158553,0.1163878 0.01542,0.2154583 c 0.0085,0.118502 0.0027,0.2154583 -0.01286,0.2154583 -0.09285,0 -1.428128,0.2111474 -1.913908,0.3026474 -0.554971,0.1045321 -0.584448,0.1069603 -0.757615,0.062414 -0.296295,-0.07622 -0.943133,-0.1794542 -1.152516,-0.1839393 -0.206428,-0.00442 -0.350294,0.051349 -0.538027,0.2085684 -0.08969,0.07511 -0.08975,0.075419 -0.03565,0.1821214 0.0298,0.058787 0.07515,0.1308264 0.10078,0.1600893 0.05512,0.06294 0.123654,0.040946 -0.906522,0.2909138 -1.116965,0.2710268 -1.214996,0.2864834 -1.572527,0.2479423 -0.34472,-0.03716 -0.42488,-0.018435 -0.60791,0.1420085 -0.103594,0.090809 -0.158484,0.1037944 -1.291963,0.3056365 -2.628266,0.4680232 -3.352541,0.6635815 -4.245797,1.1463886 -0.544115,0.2940962 -0.86187,0.512667 -1.171774,0.8060163 -0.562756,0.532696 -0.964017,1.163099 -1.251271,1.965818 -0.113374,0.316816 -0.31751,0.605963 -0.351337,0.497649 z"
       id="path108"
       inkscape:connector-curvature="0"
       transform="matrix(0.26458333,0,0,0.26458333,0,286.41665)" />
    <path
       style="fill:#aa4400;stroke-width:0.03156727"
       d="m 11.134174,11.887165 c 0.282934,-0.777288 0.781492,-1.524722 1.329576,-1.9932878 0.232143,-0.1984628 0.636455,-0.4790795 0.713437,-0.4951687 0.02941,-0.00615 0.160018,-0.055591 0.290233,-0.109875 0.344042,-0.1434238 0.860189,-0.2939883 1.503138,-0.4384783 0.559673,-0.1257753 1.213873,-0.2569142 1.281644,-0.2569142 0.01937,0 -0.01686,0.046167 -0.08051,0.1025936 l -0.115733,0.1025936 0.05824,0.1262691 c 0.03203,0.069448 0.188091,0.282527 0.346794,0.473509 0.158703,0.1909819 0.288746,0.3578939 0.288985,0.3709154 2.53e-4,0.013021 -0.03863,0.023795 -0.08637,0.023941 -0.264998,8.101e-4 -1.415784,0.098886 -1.617822,0.1378794 -0.465245,0.089792 -0.889464,0.3015389 -0.988088,0.4931999 -0.06584,0.127961 -0.05586,0.279165 0.04457,0.675038 0.03473,0.136884 0.05649,0.266197 0.04837,0.287363 -0.0099,0.02568 -0.144393,0.04568 -0.404235,0.0601 -1.101545,0.06114 -1.895292,0.221984 -2.409773,0.488306 -0.121534,0.06291 -0.231903,0.119331 -0.245265,0.125374 -0.01336,0.006 0.0059,-0.07197 0.04281,-0.17336 z"
       id="path110"
       inkscape:connector-curvature="0"
       transform="matrix(0.26458333,0,0,0.26458333,0,286.41665)" />
    <path
       style="fill:#aa4400;stroke-width:0.03156727"
       d="M 18.928558,8.7312822 C 18.467176,8.6015267 17.901445,8.4980967 17.539981,8.4774153 17.348788,8.466476 17.192358,8.4486325 17.192358,8.4377631 c 0,-0.015149 1.207567,-0.2495375 1.375419,-0.266969 0.0186,-0.00193 0.186708,0.1420928 0.373581,0.3200532 0.186873,0.1779605 0.320814,0.3218391 0.297646,0.3197302 -0.02317,-0.00211 -0.162869,-0.037792 -0.310446,-0.079295 z"
       id="path112"
       inkscape:connector-curvature="0"
       transform="matrix(0.26458333,0,0,0.26458333,0,286.41665)" />
    <path
       style="fill:#aa4400;stroke-width:0.03156727"
       d="M 23.032302,8.6524134 C 22.358082,8.4406862 21.562353,8.2164388 20.816338,8.0279239 l -0.716519,-0.1810615 0.41663,-0.1000921 c 0.229146,-0.055051 0.643601,-0.154986 0.92101,-0.2220785 l 0.504381,-0.1219864 0.300585,0.272642 c 0.165321,0.1499532 0.517215,0.4551597 0.781985,0.6782368 0.264771,0.2230771 0.481401,0.4109195 0.481401,0.4174275 0,0.024408 -0.08953,0.00198 -0.473509,-0.1185983 z"
       id="path114"
       inkscape:connector-curvature="0"
       transform="matrix(0.26458333,0,0,0.26458333,0,286.41665)" />
    <path
       style="fill:#aa4400;stroke-width:0.03156727"
       d="M 26.536269,7.9711054 C 25.854137,7.6609979 24.855363,7.2575827 24.405478,7.1104571 24.231858,7.0536782 24.078595,6.9970694 24.064894,6.9846598 c -0.0137,-0.01241 0.20648,-0.06058 0.489292,-0.1070441 0.642172,-0.1055054 1.610325,-0.2455028 1.61898,-0.2341088 0.0036,0.0047 0.04474,0.093298 0.09147,0.1968828 0.118953,0.2636268 0.366304,0.6699647 0.641481,1.0538011 0.128813,0.1796773 0.229691,0.3302233 0.224174,0.3345466 -0.0055,0.00432 -0.272829,-0.111611 -0.594026,-0.257632 z"
       id="path116"
       inkscape:connector-curvature="0"
       transform="matrix(0.26458333,0,0,0.26458333,0,286.41665)" />
    <path
       style="fill:#aa4400;stroke-width:0.03156727"
       d="M 32.028973,8.2736202 C 31.157849,7.6968942 30.127282,7.0929598 29.172136,6.599453 28.876982,6.4469522 28.658694,6.3218231 28.687051,6.3213883 c 0.05667,-8.69e-4 1.613203,-0.1782983 1.803018,-0.2055267 0.0688,-0.00987 0.118377,-0.00384 0.118377,0.014404 0,0.1099949 0.632101,0.9896188 1.299347,1.8081551 0.222909,0.2734514 0.394635,0.4960051 0.381612,0.4945636 -0.01302,-0.00144 -0.130217,-0.073155 -0.260432,-0.1593641 z"
       id="path118"
       inkscape:connector-curvature="0"
       transform="matrix(0.26458333,0,0,0.26458333,0,286.41665)" />
    <path
       style="fill:#00ffff;stroke-width:0.26458332"
       id="path120"
       d="m 5.6721554,289.62091 c -0.060599,0.006 -0.1207492,0.0208 -0.1759132,0.0469 -0.019815,0.009 -0.040939,0.0174 -0.057771,0.0314 -0.011494,0.01 0.027521,-0.0118 0.041281,-0.0177 -0.1102302,0.0858 -0.1962494,0.19803 -0.2578614,0.32306 -0.012062,0.0245 -0.02196,0.05 -0.032939,0.075 -0.033656,0.0893 -0.055905,0.1828 -0.064175,0.27794 -0.00354,0.0407 -0.00283,0.0632 -0.00294,0.10309 0.00153,0.0563 0.00935,0.11207 0.015957,0.1679 0.00259,0.0206 0.00375,0.0414 0.00415,0.0621 9.789e-4,0.0102 3.175e-4,0.005 0.00201,0.0155 0,0 -0.1099201,0.0584 -0.1099201,0.0584 v 0 c -0.00204,-0.0113 -0.00108,-0.006 -0.00288,-0.0172 -1.717e-4,-0.0205 -8.202e-4,-0.041 -0.00289,-0.0615 -0.00542,-0.0568 -0.012507,-0.11349 -0.013777,-0.17059 4.498e-4,-0.0404 -7.6e-6,-0.0638 0.00372,-0.10497 0.00872,-0.0964 0.03085,-0.19112 0.064377,-0.28185 0.010885,-0.0253 0.020656,-0.0511 0.032651,-0.0759 0.060859,-0.12584 0.1459098,-0.23956 0.254688,-0.32775 0.04695,-0.0291 0.1517898,-0.0997 0.2201981,-0.13057 0.057295,-0.0258 0.1193361,-0.0403 0.181659,-0.0466 0,0 -0.099604,0.0733 -0.099604,0.0733 z"
       inkscape:connector-curvature="0" />
    <path
       style="fill:#00ffff;stroke-width:0.26458332"
       id="path122"
       d="m 7.9030056,289.18562 c -0.09261,0.0569 -0.17273,0.13062 -0.2501688,0.20618 -0.062766,0.0629 -0.1189596,0.13246 -0.1613498,0.21085 -0.027206,0.0503 -0.03148,0.0665 -0.051955,0.1197 -0.035118,0.10109 -0.046406,0.20688 -0.048092,0.31316 -3.44e-4,0.0466 0.00204,0.0931 0.00416,0.13964 6.085e-4,0.0147 5.08e-5,0.008 0.00153,0.0211 0,0 -0.1100066,0.0578 -0.1100066,0.0578 v 0 c -0.00201,-0.0145 -0.0014,-0.007 -0.00175,-0.0222 -0.00124,-0.0471 -0.00259,-0.0943 -0.00209,-0.14146 0.00254,-0.10821 0.013912,-0.21465 0.048572,-0.31796 0.019968,-0.0536 0.024453,-0.0708 0.05118,-0.1216 0.04176,-0.0793 0.097328,-0.15006 0.1601547,-0.21369 0.075898,-0.0752 0.154296,-0.14882 0.2446083,-0.20663 0,0 0.1151962,-0.0449 0.1151962,-0.0449 z"
       inkscape:connector-curvature="0" />
  </g>
</svg>
