<?xml version="1.0" encoding="UTF-8" standalone="no"?>
<!-- Created with Inkscape (http://www.inkscape.org/) -->

<svg
   xmlns:dc="http://purl.org/dc/elements/1.1/"
   xmlns:cc="http://creativecommons.org/ns#"
   xmlns:rdf="http://www.w3.org/1999/02/22-rdf-syntax-ns#"
   xmlns:svg="http://www.w3.org/2000/svg"
   xmlns="http://www.w3.org/2000/svg"
   xmlns:sodipodi="http://sodipodi.sourceforge.net/DTD/sodipodi-0.dtd"
   xmlns:inkscape="http://www.inkscape.org/namespaces/inkscape"
   width="210mm"
   height="297mm"
   viewBox="0 0 210 297"
   version="1.1"
   id="svg8"
   inkscape:version="0.92.1 r15371"
   sodipodi:docname="headtest1.svg">
  <defs
     id="defs2" />
  <sodipodi:namedview
     id="base"
     pagecolor="#ffffff"
     bordercolor="#666666"
     borderopacity="1.0"
     inkscape:pageopacity="0.0"
     inkscape:pageshadow="2"
     inkscape:zoom="0.98994949"
     inkscape:cx="144.47517"
     inkscape:cy="635.07215"
     inkscape:document-units="mm"
     inkscape:current-layer="layer1"
     showgrid="false"
     showguides="true"
     inkscape:guide-bbox="true"
     inkscape:window-width="2560"
     inkscape:window-height="1315"
     inkscape:window-x="-13"
     inkscape:window-y="-13"
     inkscape:window-maximized="1">
    <sodipodi:guide
       position="45.43582,255.2424"
       orientation="1,0"
       id="guide3680"
       inkscape:locked="false" />
    <sodipodi:guide
       position="137.91107,163.83623"
       orientation="1,0"
       id="guide3682"
       inkscape:locked="false" />
    <sodipodi:guide
       position="78.577239,194.57222"
       orientation="0,1"
       id="guide3684"
       inkscape:locked="false" />
  </sodipodi:namedview>
  <metadata
     id="metadata5">
    <rdf:RDF>
      <cc:Work
         rdf:about="">
        <dc:format>image/svg+xml</dc:format>
        <dc:type
           rdf:resource="http://purl.org/dc/dcmitype/StillImage" />
        <dc:title />
      </cc:Work>
    </rdf:RDF>
  </metadata>
  <g
     inkscape:label="Layer 1"
     inkscape:groupmode="layer"
     id="layer1">
    <path
       id="path3686"
       style="stroke-width:0.23041108"
       d="m 58.180904,91.165991 c -3.207329,0.0155 -4.509613,0.50965 -7.624716,1.23891 -1.218755,0.49514 -2.478776,0.8993 -3.656428,1.48552 -5.0853,2.53142 -10.025597,5.54608 -14.176133,9.458559 -0.30585,0.28831 -0.580862,0.60786 -0.871242,0.91174 l 3.161853,-1.33431 c 1.569155,-1.77359 3.44892,-3.239369 5.371459,-4.607319 1.040108,-0.74008 2.091914,-1.46645 3.183003,-2.12906 0.283521,-0.17218 0.618812,-0.23996 0.925695,-0.36587 1.211117,-0.49691 2.419024,-1.00178 3.628525,-1.50262 3.139241,-0.77145 4.321522,-1.25488 7.556763,-1.30236 3.914307,-0.0575 7.906749,0.84473 11.565108,2.18351 1.262989,0.46218 2.475378,1.05217 3.71313,1.57822 0.371437,0.17394 0.738896,0.35485 1.104353,0.53913 0.228637,-0.1981 0.430925,-0.44401 0.713284,-0.54363 0.201278,-0.071 0.399708,-0.10108 0.593578,-0.0986 0.840102,0.0109 1.598203,0.63369 2.167754,1.18895 0.345584,0.33692 0.71288,0.66261 0.985099,1.06116 0.28316,0.41456 0.44218,0.9016 0.66333,1.352309 0.004,0.0229 0.0101,0.0531 0.0148,0.0783 1.59763,1.0898 3.13149,2.2747 4.60372,3.53852 1.21916,1.04658 1.67298,1.52412 2.76494,2.59798 0.66989,0.73706 1.37594,1.44781 1.97874,2.24336 0.27821,0.36715 0.48413,0.77232 0.74434,1.1516 l 2.97149,-1.74473 c -0.082,-0.12149 -0.16411,-0.24303 -0.24616,-0.36452 -0.0708,-0.12048 -0.13448,-0.24537 -0.21241,-0.36137 -0.66962,-0.9967 -1.60372,-1.78541 -2.40582,-2.66683 -4.16534,-3.89728 -8.66882,-7.266839 -13.871916,-9.683559 -1.239916,-0.5379 -2.452751,-1.1431 -3.719879,-1.61333 -3.514055,-1.30405 -7.866428,-2.30789 -11.626311,-2.28971 z"
       inkscape:connector-curvature="0" />
    <path
       id="path3688"
       style="stroke-width:0.23041108"
       d="m 30.962694,101.86661 -2.89139,1.85769 c 0.801356,0.50142 1.578616,1.04111 2.337862,1.60432 1.9611,1.49119 4.017282,2.8541 6.103194,4.1636 2.582337,1.59745 5.293282,2.96906 8.122892,4.07765 1.25339,0.49893 2.167463,0.88029 3.445365,1.31811 2.571895,0.88116 5.229613,1.52579 7.923082,1.89595 2.003247,0.22504 2.867512,0.36264 4.908388,0.42212 3.597125,0.10485 7.175831,-0.30722 10.722667,-0.8672 2.460804,-0.42472 3.447099,-0.56101 5.877285,-1.11515 2.78314,-0.63462 5.53016,-1.43117 8.26059,-2.25956 l 2.70913,-2.0989 c -3.71711,1.22139 -7.49601,2.27934 -11.33784,3.03135 -0.983405,0.19249 -1.973869,0.34836 -2.960694,0.52247 -3.523359,0.55447 -7.078874,0.97076 -10.652011,0.88249 -2.148513,-0.0531 -2.773203,-0.16682 -4.874186,-0.40052 -2.667757,-0.36626 -5.295723,-1.0041 -7.843878,-1.87254 -1.363633,-0.46473 -2.09243,-0.77145 -3.430066,-1.30056 -2.806416,-1.10448 -5.482568,-2.48829 -8.056739,-4.05244 -2.073375,-1.29931 -4.112179,-2.66123 -6.050091,-4.1564 -0.750804,-0.57872 -1.523881,-1.12833 -2.31356,-1.65248 z"
       inkscape:connector-curvature="0" />
    <path
       id="path3692"
       style="stroke-width:0.23041108"
       d="m 139.20416,86.108197 c -1.21651,4.61e-4 -2.43341,0.04348 -3.64518,0.118807 -3.44747,0.431346 -4.55471,0.413521 -7.86728,1.438719 -3.54592,1.097423 -6.40283,2.731498 -9.71236,4.569518 -1.07475,0.59688 -2.11572,1.25476 -3.13485,1.9423 -1.00122,0.67545 -1.9478,1.42894 -2.92155,2.14345 -0.83506,0.74761 -1.69544,1.46802 -2.50526,2.24291 -2.64133,2.527339 -4.96972,5.397409 -6.76113,8.588659 l 3.14115,-1.42117 c 1.6819,-3.14503 3.97626,-5.935419 6.55547,-8.387499 0.80548,-0.76579 1.66209,-1.4761 2.49312,-2.21411 2.13054,-1.54195 3.70039,-2.79331 6.04559,-4.02184 0.24473,-0.1282 0.55376,-0.0618 0.81454,-0.15301 1.19322,-0.41747 2.33214,-0.985936 3.53672,-1.369416 3.35304,-1.067441 4.34827,-1.043099 7.84388,-1.512974 4.80351,-0.322845 9.6847,-0.115657 14.32554,1.274464 2.67331,0.800766 3.31545,1.258026 5.78727,2.500766 1.74975,1.03846 3.3897,2.23761 4.91739,3.56732 -0.0384,-0.40327 -0.0537,-0.73983 0.11521,-0.54137 0.25215,0.29636 0.32158,0.60468 0.28081,0.89104 1.14592,1.02776 2.22747,2.12908 3.24016,3.29461 1.0374,1.193959 1.36523,1.701939 2.25235,2.933239 0.619,0.94037 1.17147,1.92489 1.56428,2.9706 0.4454,-0.0365 0.89331,-0.0388 1.29291,0.0639 0.0245,0.006 -0.0499,-0.009 -0.0747,-0.013 1.02735,0.23032 0.92844,0.0822 0.70203,2.34011 -0.0203,0.20221 -0.37447,0.15961 -0.56658,0.22591 -0.27943,0.0964 -0.56151,0.18539 -0.84333,0.27451 -0.0106,0.14597 -0.0287,0.29113 -0.0599,0.43383 -0.0636,0.52226 -0.47818,0.71785 -0.86134,0.99589 -0.98876,0.91142 -2.11076,1.65836 -3.25636,2.36082 0.0289,-0.029 0.0137,-0.0379 -0.0738,-0.0153 -0.72308,0.1867 -1.34597,0.64782 -2.0287,0.95044 -0.70312,0.31166 -1.41225,0.61088 -2.12815,0.89195 -1.67172,0.65632 -2.79303,1.02812 -4.54882,1.49092 -0.80532,0.21228 -1.62147,0.37942 -2.43237,0.56928 -3.11729,0.63212 -6.28947,1.03818 -9.4725,1.1021 -1.98331,0.0398 -2.95394,-0.0462 -4.92324,-0.14941 -3.51983,-0.26693 -7.02953,-0.87464 -10.37795,-2.01294 -0.55436,-0.18846 -1.09691,-0.4104 -1.64528,-0.61563 -2.44233,-0.9777 -4.77783,-2.18678 -7.11529,-3.38642 -1.52385,-0.77765 -3.03368,-1.58103 -4.60057,-2.26946 -0.97812,-0.39702 -1.91406,-0.88539 -2.86439,-1.34241 -0.58957,-0.29247 -1.21693,-0.46769 -1.86714,-0.54993 -0.26035,-0.0378 -0.51591,-0.0296 -0.77674,-0.01 l -2.76223,2.09125 c 0.24634,-0.0867 0.45288,-0.10414 0.71508,-0.072 0.62938,0.0437 1.24226,0.16982 1.81719,0.44102 0.96393,0.44469 1.89806,0.95546 2.88959,1.33972 1.5769,0.66711 3.09492,1.45139 4.61857,2.23121 2.36812,1.19002 4.72976,2.39672 7.19585,3.37696 0.55373,0.2101 1.10088,0.43944 1.66148,0.63048 3.37645,1.1506 6.92798,1.75321 10.47425,2.0431 1.82635,0.10027 3.10702,0.20164 4.94259,0.17596 3.1953,-0.0447 6.38178,-0.43108 9.51211,-1.05981 1.93297,-0.43984 2.95441,-0.62887 4.84493,-1.23036 3.84961,-1.22479 7.4679,-3.07659 10.92698,-5.13879 1.56214,-0.94402 3.1114,-1.91658 4.48987,-3.12135 0.42769,-0.33053 0.70907,-0.68511 0.76053,-1.24296 0.0628,-0.58507 0.0418,-1.17827 -0.0598,-1.75824 -0.37652,-1.71795 -1.213,-3.26581 -2.20961,-4.70542 -0.92284,-1.227009 -1.26936,-1.735579 -2.33516,-2.928299 -2.52637,-2.82716 -5.42275,-5.30987 -8.67597,-7.2674 -2.46292,-1.251999 -3.173,-1.749701 -5.84218,-2.554319 -3.51023,-1.058152 -7.15818,-1.44218 -10.80772,-1.44097 z"
       inkscape:connector-curvature="0" />
    <path
       id="path3694"
       style="stroke-width:0.23041108"
       d="m 64.376804,98.112981 -3.173554,1.34826 c -1.041186,1.611329 -1.610122,3.484869 -1.756884,5.394409 -0.0413,0.53749 -0.02244,1.07798 -0.03375,1.61693 0.251406,2.15963 0.74873,4.31462 1.611076,6.31875 0.323297,0.75137 0.740728,1.45826 1.111105,2.18756 l 2.822086,-1.60793 c -0.359955,-0.71881 -0.76716,-1.41599 -1.080052,-2.1565 -0.83704,-1.98098 -1.316815,-4.10727 -1.491822,-6.24495 0.0215,-0.52937 0.0129,-1.06084 0.06435,-1.58813 0.183891,-1.88488 0.789407,-3.743949 1.927445,-5.268399 z"
       inkscape:connector-curvature="0" />
    <path
       id="path3696"
       style="stroke-width:0.23041108"
       d="m 140.76483,94.394001 -3.1542,1.39371 c -1.09102,1.75443 -1.82981,3.6778 -2.40716,5.652279 -0.36206,1.49271 -0.62078,3.01764 -0.65883,4.55602 -0.0175,0.70817 0.0215,1.36516 0.0513,2.07144 0.11045,1.88448 0.76054,3.646 1.40182,5.39937 0.54143,1.29957 1.06692,2.64617 1.93014,3.77523 0.20174,0.26387 0.43014,0.50571 0.64533,0.75873 0.35938,0.37363 1.29448,1.3664 1.68758,1.69029 0.42441,0.34968 0.88842,0.64862 1.33252,0.97294 l 2.81218,-1.78118 c -0.42471,-0.31912 -0.86709,-0.61569 -1.27401,-0.9572 -0.48343,-0.40572 -1.21449,-1.21034 -1.64978,-1.67363 -0.20541,-0.2442 -0.42404,-0.47812 -0.61653,-0.73264 -0.84018,-1.11085 -1.36198,-2.42829 -1.89234,-3.70277 -0.6323,-1.72005 -1.26121,-3.45061 -1.36222,-5.30081 -0.0287,-0.70497 -0.0668,-1.32978 -0.0446,-2.0368 0.0478,-1.51461 0.31012,-3.01684 0.68538,-4.482209 0.6032,-1.96707 1.36788,-3.88091 2.51337,-5.60277 z"
       inkscape:connector-curvature="0" />
    <path
       id="path3698"
       style="stroke-width:0.23041108"
       d="m 76.367629,96.546901 c -0.0352,-0.009 -0.09766,0.0165 -0.131854,0.0356 -0.439488,0.24498 -0.875048,0.49605 -1.310014,0.74794 0.220538,0.17099 0.426565,0.35649 0.611129,0.53642 0.01279,0.0125 0.02586,0.0249 0.0387,0.0374 0.276941,-0.24072 0.552846,-0.48283 0.831639,-0.72139 -0.005,-0.2044 0.0405,-0.41635 -0.0158,-0.61293 -0.004,-0.0125 -0.0121,-0.0198 -0.0239,-0.023 z m -7.050037,4.476369 c -0.118247,0.004 -0.232487,0.004 -0.347868,0.003 -0.02819,0.026 -0.05841,0.0528 -0.08145,0.0792 -0.01945,0.0222 -0.03352,0.0354 -0.0513,0.0549 0.145853,-0.0378 0.307235,-0.0841 0.480624,-0.13726 z m 9.676817,0.79878 c -0.003,-4.6e-4 -0.0126,0.003 -0.0324,0.0126 -0.16783,0.0799 -0.28068,0.12945 -0.42887,0.19846 0.005,0.0349 0.008,0.0699 0.0121,0.10485 0.12457,-0.0983 0.46745,-0.31234 0.44912,-0.31591 z m -0.31997,0.37127 c -0.0405,0.004 -0.0805,0.011 -0.1206,0.0171 0.008,0.0728 0.0159,0.14505 0.0234,0.21736 0.15328,-0.14069 0.24366,-0.24909 0.0972,-0.23446 z m 2.86169,0.44957 c -0.47487,0.25649 -0.95028,0.51186 -1.42567,0.76729 0.14052,0.0647 0.25463,0.15405 0.47478,0.29971 -0.0415,-0.0129 -0.0841,-0.0548 -0.12466,-0.0392 -0.0338,0.013 0.0661,0.0307 0.0968,0.05 0.082,0.0514 0.1651,0.10102 0.24797,0.1512 9.2e-4,-1.6e-4 6.9e-4,-6.9e-4 0.002,-9.2e-4 0.1735,-0.0243 0.38499,0.0703 0.59133,0.20476 0.14356,-0.25769 0.39129,-0.71197 0.34967,-1.02155 -0.0206,-0.1529 -0.14131,-0.27417 -0.21197,-0.41132 z m -0.0833,0.53148 c -0.20128,0.12012 -0.40261,0.23997 -0.60393,0.36002 0.004,-0.003 0.009,-0.006 0.013,-0.009 0.19052,-0.12734 0.78766,-0.46846 0.59088,-0.35102 z m -2.41662,6.65717 c -4.6e-4,0.005 1.2e-4,0.01 -4.6e-4,0.0144 0.008,-6.9e-4 0.0156,-0.001 0.0234,-0.002 -0.008,-0.004 -0.0153,-0.008 -0.0229,-0.0121 z"
       inkscape:connector-curvature="0" />
    <path
       id="path3700"
       style="stroke-width:0.23041108"
       d="m 154.07513,93.781971 c -0.001,-6.9e-4 -0.006,2.3e-4 -0.0144,0.004 -0.15186,0.0599 -0.30275,0.12201 -0.45408,0.18316 0.042,0.0273 0.0833,0.0556 0.12241,0.0868 0.0584,-0.0483 0.0817,-0.0667 0.16201,-0.1323 0.0494,-0.0404 0.19402,-0.13597 0.18406,-0.14131 z m -0.0378,0.77223 c -0.0105,0.005 -0.0175,0.008 -0.0279,0.013 4.7e-4,0.005 4.7e-4,0.0103 9.3e-4,0.0153 0.0134,-0.007 0.0248,-0.0137 0.0374,-0.0207 -0.004,-0.002 -0.007,-0.005 -0.0104,-0.008 z m 7.26965,8.210199 c -0.003,-4.6e-4 -0.0137,0.004 -0.0346,0.0135 -0.21554,0.0994 -0.36621,0.16495 -0.55037,0.24796 -0.015,0.11394 -0.034,0.22855 -0.0563,0.34292 0.28537,-0.2634 0.39891,-0.38363 0.26867,-0.36947 0.16719,-0.10136 0.38747,-0.23277 0.37261,-0.23491 z m -12.95252,4.56367 c -0.15661,0.11333 -0.31273,0.22743 -0.46937,0.34067 0.0421,0.0319 0.0857,0.0617 0.13096,0.0891 0.15186,-0.10331 0.25629,-0.25485 0.33841,-0.42977 z"
       inkscape:connector-curvature="0" />
    <path
       id="path3702"
       style="stroke-width:0.23041108"
       d="m 123.58031,31.37386 c -4.37504,-0.0011 -8.75029,0.0197 -13.12534,0.02205 -4.37166,-0.0049 -8.74331,-0.0056 -13.114981,-0.0117 -4.42059,0.0063 -8.84108,0.0092 -13.26169,0.0081 -4.58653,-0.0579 -9.167961,0.187125 -13.74861,0.377118 -5.327149,0.263962 -10.654534,0.526682 -15.97757,0.865391 -5.02495,0.388438 -10.045869,0.822225 -15.074826,1.160157 -3.511733,0.204325 -7.026695,0.304527 -10.537707,0.522475 -2.227911,0.181488 -4.455232,0.363876 -6.688673,0.460372 -1.308416,0.05141 -2.618108,0.05805 -3.927339,0.05805 -0.734553,-9e-6 -1.468765,-0.0055 -2.203306,-0.009 -1.502988,-0.02836 -1.136543,0.04404 -2.48502,1.258261 -1.620077,0.897351 -1.774185,0.825845 -0.929294,0.785737 -0.01079,0.0086 -0.01924,0.01567 -0.03015,0.0243 0.604407,0.244826 0.919662,0.764985 1.216859,1.316763 1.328536,2.827734 2.017967,5.907347 2.673578,8.945981 0.904403,4.714389 1.228454,9.511573 1.668231,14.284588 0.455734,4.532274 0.787879,9.076398 1.003098,13.626658 0.206362,4.023464 0.09973,8.050255 -0.170558,12.06688 -0.198965,3.37734 -0.588354,6.73872 -0.908144,10.10569 -0.203189,2.37417 -0.528595,4.733069 -0.82534,7.096389 -0.114039,1.18842 -0.244648,2.37199 -0.401419,3.55517 -0.132401,0.52991 -0.17294,1.10863 -0.487373,1.57012 -0.01756,0.0263 -0.03214,0.0536 -0.0477,0.0806 -0.356757,-0.001 -0.713392,-0.003 -1.070151,-0.003 -0.781669,0.0286 -1.559558,-0.0433 -2.333363,-0.14626 -0.726518,-0.0923 -1.437423,-0.26475 -2.154704,-0.40682 -0.502571,-0.0997 -1.0141942,-0.13075 -1.5251232,-0.14625 -1.550935,-0.0653 -3.616361,0.54593 -4.184302,2.107 -0.220931,1.11847 -0.186937,2.27417 -0.147607,3.40801 0.07573,2.19106 0.232596,4.3779 0.441472,6.55997 0.370079,3.17171 0.871716,6.32561 1.273111,9.49365 0.337987,3.18891 0.947588,6.33797 1.414868,9.50806 0.41468,3.08515 0.821826,6.17079 1.289762,9.2484 0.358499,2.32789 0.655577,4.6621 0.8149892,7.01224 0.12058,1.12573 0.0121,2.26619 0.117006,3.39091 0.04847,0.50246 0.124804,0.9612 0.40997,1.38382 0.419918,0.50733 0.998955,0.74572 1.619178,0.90859 0.924725,0.18268 1.870819,0.19618 2.809935,0.21421 0.821239,0.004 1.642695,0.0326 2.461169,-0.0455 0.556953,-0.0489 1.064534,-0.28586 1.593077,-0.44327 0.383973,-0.0934 0.526733,0.28038 0.63318,0.58098 0.23738,0.8508 0.397293,1.71681 0.563877,2.58312 0.211536,1.10932 0.284376,2.23709 0.326716,3.36346 0.0051,1.20069 0.0444,2.39663 0.173709,3.59073 0.236293,1.46698 0.402198,2.9442 0.62643,4.41291 0.203615,1.26042 0.300032,2.53389 0.434271,3.80268 0.144496,1.27895 0.278359,2.5569 0.352817,3.84229 0.05174,1.04609 0.06227,2.09351 0.063,3.1407 0.0011,0.69417 -0.005,1.38855 -0.0086,2.0827 -0.04154,0.55521 0.04589,1.09783 0.115656,1.64618 0.05997,0.74662 0.228301,1.47889 0.436971,2.19655 0.301127,0.75831 0.621925,1.51322 0.981047,2.24651 0.32906,0.65765 0.71838,1.28085 1.098053,1.90944 0.308127,0.45121 0.543693,0.93925 0.770437,1.43377 0.192132,0.43454 0.518309,0.7217 0.869892,1.0202 0.500164,0.52542 1.192711,0.77159 1.848239,1.04315 1.153017,0.43893 2.24046,1.01955 3.30631,1.63583 1.6804,0.92097 3.441063,1.68507 5.1694,2.51022 3.682704,1.74555 7.595096,2.93629 11.523705,3.98269 5.128951,1.33979 10.409874,1.91077 15.658952,2.55613 5.444905,0.56801 10.843013,1.4705 16.234534,2.40356 4.45134,0.89876 8.92215,1.67857 13.42099,2.29736 4.78565,0.61372 9.611471,0.73824 14.429501,0.82219 5.12864,0.13331 10.25121,-0.18577 15.37004,-0.45047 5.38625,-0.36013 10.77872,-0.61004 16.16298,-0.9995 3.47271,-0.35535 6.96017,-0.52591 10.43735,-0.82264 2.45151,-0.20305 4.85272,-0.74684 7.2566,-1.24206 2.94661,-0.60157 5.87791,-1.27916 8.79073,-2.02689 3.04463,-0.82633 5.99417,-1.94471 8.87532,-3.22126 1.48732,-0.67484 2.90092,-1.49564 4.32921,-2.28431 2.79817,-1.44982 3.37866,-1.74638 5.00244,-3.66048 0.53616,-0.64273 0.96086,-1.3505 1.36177,-2.0809 0.61458,-1.06709 1.02311,-2.22267 1.39641,-3.39046 0.46467,-1.50622 0.5711,-3.08234 0.64399,-4.64692 0.0536,-1.72433 0.0385,-3.4499 0.0333,-5.1748 0.0175,-2.37477 -0.11277,-4.74632 -0.17416,-7.1198 -0.064,-2.85403 -0.0752,-5.70884 -0.0846,-8.56346 -0.005,-2.45565 0.003,-4.91167 0.0103,-7.3673 0.003,-1.47576 0.054,-2.95019 -0.0477,-4.42327 -0.0688,-0.82397 -0.11614,-1.64909 -0.13861,-2.47557 -0.0118,-0.51762 -0.0104,-1.0353 -0.01,-1.55302 -2.4e-4,-0.0439 -9.3e-4,-0.0902 -9.3e-4,-0.13636 0.59047,-0.18315 1.19088,-0.33481 1.79649,-0.45677 0.68913,-0.13369 1.37233,-0.32535 2.0215,-0.59403 1.53934,-0.79908 3.03769,-1.43723 4.1159,-2.74513 0.3312,-0.4325 0.36304,-0.96201 0.46037,-1.47517 0.36002,-1.20317 0.55771,-2.44618 0.74928,-3.68523 0.34272,-2.19644 0.5907,-4.40501 0.78169,-6.61937 0.16935,-2.76626 0.3081,-5.53521 0.40682,-8.30515 0.077,-2.41027 0.0952,-4.8219 0.10801,-7.2332 0.006,-1.91632 0.007,-3.8327 0.01,-5.74902 -0.002,-1.51703 0.003,-3.03406 0.009,-4.55107 0.006,-0.96639 0.006,-1.9331 0.009,-2.89949 0.0575,-0.77808 -0.0579,-1.50845 -0.37037,-2.22086 -0.32138,-0.65125 -0.64285,-1.29137 -1.12505,-1.83879 -0.61627,-0.65564 -1.29021,-1.24528 -2.0044,-1.79108 -0.70848,-0.51702 -1.47796,-0.94071 -2.2204,-1.40497 -0.52652,-0.33759 -1.01695,-0.7252 -1.37032,-1.24521 -0.1764,-0.36996 -0.25781,-0.76733 -0.30016,-1.17186 l 0.1098,-0.058 c -0.0602,-0.50666 -0.11636,-1.014019 -0.17371,-1.521079 -0.0127,-1.02438 0.007,-2.04826 -0.0445,-3.07184 l -0.27766,0.14265 c -0.19396,-1.82256 -0.3817,-3.64592 -0.58053,-5.46776 -0.56375,-6.153343 -1.53222,-12.254286 -2.58313,-18.339731 -0.90564,-4.92633 -1.89735,-9.836932 -2.90803,-14.742709 -0.8465,-4.253073 -1.84477,-8.471304 -2.86664,-12.684763 -0.59543,-2.441486 -1.20207,-4.884235 -1.62413,-7.362804 -0.22471,-1.297194 -0.4049,-2.601722 -0.59808,-3.903938 -0.021,-0.573417 -0.17971,-0.902711 -0.49367,-1.346465 -0.0844,-0.316472 -0.14299,-0.576551 -0.37757,-0.82399 -0.38069,-0.290891 -0.86225,-0.297891 -1.32082,-0.315465 -1.28641,-0.016 -2.57274,0.0033 -3.85848,0.04365 -4.03619,0.305033 -8.07245,0.583194 -12.11683,0.755137 -2.93326,0.11611 -5.86858,0.146919 -8.80378,0.158857 -2.61574,-0.03789 -5.22981,-0.148212 -7.84073,-0.308264 -3.35327,-0.244105 -6.70065,-0.542552 -10.05978,-0.699334 -3.44809,-0.13011 -6.89907,-0.139885 -10.34915,-0.145807 z m -15.74986,1.929243 c 4.35633,-8.75e-4 8.7123,0.01164 13.06863,0.018 3.44381,0.01042 6.88874,0.01384 10.3307,0.141307 3.35245,0.149189 6.69462,0.420761 10.03773,0.707884 2.6094,0.16949 5.222,0.291609 7.83668,0.339767 2.96019,-0.01741 5.91985,-0.06818 8.87757,-0.19711 4.0177,-0.17957 8.02924,-0.449004 12.04213,-0.708334 1.25946,-0.02365 2.51877,-0.02136 3.77839,-0.0077 0.39026,0.0069 0.79782,-0.0092 1.17185,0.117906 0.2517,0.173947 0.17146,0.518662 0.33572,0.760087 0.07,0.100813 0.18076,0.196341 0.23806,0.303764 0.14519,0.272051 0.15446,0.592943 0.20836,0.888793 0.21607,1.295756 0.4016,2.596272 0.64263,3.887738 0.45961,2.470618 1.08402,4.906308 1.71953,7.336702 1.05624,4.195927 2.04857,8.407185 2.90445,12.649211 0.98182,4.901728 2.03064,9.790151 2.96699,14.700857 1.07008,6.08154 2.01487,12.185503 2.52687,18.343336 0.24356,2.63952 0.47734,5.27988 0.70428,7.920829 0.002,0.33209 0.002,0.66428 0.009,0.99635 0.0299,0.84258 0.0395,1.71815 0.43292,2.48547 0.37458,0.56406 0.88476,0.99788 1.45177,1.36492 0.73366,0.46416 1.50664,0.86615 2.21231,1.37481 0.70241,0.52579 1.363,1.09608 1.95939,1.74114 0.46862,0.51075 0.76483,1.12469 1.0697,1.74248 0.28937,0.67213 0.34627,1.36526 0.30917,2.09305 0.003,0.96319 0.003,1.92641 0.009,2.88959 0.007,1.51352 0.0119,3.02718 0.0121,4.54072 0.005,1.91267 0.0103,3.82554 0.009,5.73823 -0.003,2.404 -0.0134,4.8081 -0.0887,7.21114 -0.0951,2.7655 -0.22787,5.53065 -0.41852,8.2912 -0.20168,2.21469 -0.48162,4.42078 -0.83119,6.61712 -0.208,1.24803 -0.45386,2.48581 -0.80508,3.70188 -0.0769,0.41054 -0.15919,0.80612 -0.40142,1.14035 -0.11366,0.0297 -0.22739,0.0596 -0.34022,0.0887 -1.19088,0.20796 -2.35378,0.55324 -3.47957,0.99275 -1.58425,0.67705 -1.15517,0.46756 -3.85128,2.19475 -0.10055,0.0644 -0.15118,0.18715 -0.20387,0.29432 -0.11443,0.23291 -0.0884,0.50814 -0.0936,0.75738 0.001,0.51991 0.003,1.04018 0.0229,1.55978 0.0342,0.82687 0.0923,1.65202 0.16426,2.47647 0.10485,1.45738 0.0682,2.91797 0.0828,4.37826 0.006,2.45113 0.0119,4.90221 0.0189,7.35335 0.01,2.85513 0.0322,5.71033 0.0968,8.56482 0.0515,2.37935 0.13403,4.75857 0.12106,7.13869 -7e-4,1.72216 0.008,3.44494 -0.0545,5.16625 -0.0793,1.54094 -0.20332,3.09001 -0.68673,4.56637 -0.38525,1.15596 -0.83251,2.28747 -1.44997,3.34231 -0.40392,0.71551 -0.86361,1.39437 -1.39642,2.0215 -0.26907,0.31324 -0.53499,0.63174 -0.83344,0.91804 -0.19841,0.19034 -0.45379,0.38859 -0.68043,0.55668 -0.66088,0.35911 -1.32647,0.70882 -2.0044,1.0346 -2.87559,1.30587 -5.82402,2.44881 -8.87172,3.29056 -2.89772,0.74339 -5.81373,1.42167 -8.74617,2.01384 -2.40239,0.49099 -4.79825,1.0464 -7.244,1.27942 -3.50028,0.33613 -7.0165,0.48928 -10.51206,0.88429 -5.39295,0.41962 -10.79563,0.68584 -16.19358,1.03145 -5.10368,0.26316 -10.21157,0.56015 -15.32459,0.44462 -4.81054,-0.0748 -9.62999,-0.19171 -14.409691,-0.78889 -4.49825,-0.6105 -8.96148,-1.42325 -13.4174,-2.28656 -5.40419,-0.91003 -10.811861,-1.80655 -16.261533,-2.40401 -5.236295,-0.62041 -10.495302,-1.21555 -15.613053,-2.53273 -3.890047,-1.03955 -7.765432,-2.20394 -11.3842,-4.00069 -1.707646,-0.8331 -3.447586,-1.60416 -5.117196,-2.51247 -1.067317,-0.63229 -2.154491,-1.23566 -3.312609,-1.68803 -0.616469,-0.2548 -1.295488,-0.46716 -1.763186,-0.9626 -0.306177,-0.27781 -0.636054,-0.48762 -0.800137,-0.89194 -0.231476,-0.50737 -0.480944,-1.00406 -0.795639,-1.46662 -0.378616,-0.61699 -0.768036,-1.22846 -1.090403,-1.87794 -0.351521,-0.71421 -0.663799,-1.45067 -0.948645,-2.19341 -0.196068,-0.70495 -0.356645,-1.42129 -0.40637,-2.15335 -0.06686,-0.53529 -0.119216,-1.06828 -0.09225,-1.60883 -0.0012,-0.6924 -0.0037,-1.38491 -0.0072,-2.0773 -0.01054,-1.04976 -0.02718,-2.09972 -0.09045,-3.1479 -0.08073,-1.28984 -0.215138,-2.5741 -0.355967,-3.85849 -0.133934,-1.27202 -0.239658,-2.54787 -0.453622,-3.80988 -0.222052,-1.46461 -0.394224,-2.9363 -0.61113,-4.40166 -0.113154,-1.19071 -0.141927,-2.38254 -0.153457,-3.57812 -0.0517,-1.14154 -0.138317,-2.28294 -0.350567,-3.40757 -0.165241,-0.88667 -0.323611,-1.77494 -0.567927,-2.64433 -0.163753,-0.43918 -0.39457,-0.88931 -0.892843,-0.99409 -0.557144,0.054 -1.035598,0.38131 -1.588577,0.47162 -0.812139,0.10797 -1.624927,0.0992 -2.443618,0.0868 -0.922422,-0.008 -1.849406,-0.0153 -2.763133,-0.15616 -0.555481,-0.11164 -1.066736,-0.27667 -1.46482,-0.70248 -0.253824,-0.36331 -0.27532,-0.79361 -0.334816,-1.22361 -0.09773,-1.11536 -0.04459,-2.2425 -0.169208,-3.35716 -0.187082,-2.35 -0.505069,-4.68431 -0.872142,-7.01269 -0.478401,-3.07376 -0.887146,-6.15729 -1.301013,-9.24029 -0.466026,-3.16705 -1.0752752,-6.31252 -1.4207192,-9.49726 -0.402396,-3.16874 -0.900947,-6.32483 -1.232159,-9.50221 -0.193704,-2.18277 -0.335275,-4.37024 -0.388819,-6.56131 -0.0077,-0.51995 -0.03353,-1.19229 8.99e-4,-1.82799 0.72133,0.1244 1.429355,0.31452 2.156503,0.40682 0.7775682,0.13023 1.5663472,0.21081 2.3554142,0.19261 0.557559,0.002 1.115186,0.006 1.672731,0.01 0.454212,0.003 0.909289,0.0111 1.362665,-0.022 1.395007,-0.15117 0.275748,-0.003 3.362562,-1.78163 0.227439,-0.13102 0.266958,-0.46851 0.308715,-0.69393 0.05567,-0.37705 0.167591,-0.72225 0.374868,-1.04585 0.219586,-0.53549 0.324682,-1.10406 0.41717,-1.67363 0.148999,-1.17515 0.226988,-2.35512 0.350117,-3.53313 0.276355,-2.35828 0.581127,-4.713089 0.772688,-7.080639 0.311464,-3.3632 0.66799,-6.723246 0.867191,-10.095785 0.261557,-4.023856 0.343414,-8.057509 0.127356,-12.086682 -0.222816,-4.549402 -0.557558,-9.091768 -1.043123,-13.621268 -0.439732,-4.789162 -0.725332,-9.606399 -1.65743,-14.333642 -0.627487,-2.961859 -1.254815,-5.965251 -2.424717,-8.769122 0.829553,-0.01001 1.659104,-0.02489 2.48817,-0.05625 2.251393,-0.09911 4.496296,-0.286 6.740425,-0.490073 3.532115,-0.232849 7.068112,-0.359165 10.601612,-0.567478 5.039381,-0.353287 10.071896,-0.78804 15.107678,-1.186257 5.316059,-0.352403 10.637908,-0.592979 15.958667,-0.860891 4.571631,-0.181391 9.144557,-0.412114 13.721167,-0.373518 4.41338,-0.0012 8.82671,0.0023 13.24009,0.0081 4.38433,-0.0066 8.768891,-0.008 13.153231,-0.0162 z M 15.851865,110.82204 c -0.117228,0.1567 -0.560097,0.33004 -0.364968,0.21331 0.130959,-0.0783 0.241242,-0.14071 0.364968,-0.21331 z"
       inkscape:connector-curvature="0" />
    <path
       id="path3704"
       d="m 102.69924,132.58009 c -1.52729,2.57582 -2.823401,5.27772 -4.170151,7.94971 -0.54637,1.04764 -1.04767,2.11853 -1.52665,3.19845 -0.20901,0.47124 -0.45852,0.96488 -0.57038,1.47275 -1.00764,0.43041 -1.98488,0.94043 -3.02292,1.29122 -0.19195,0.0649 0.30647,-0.26689 0.44076,-0.41862 0.227,-0.25647 0.43543,-0.5291 0.64071,-0.80327 0.99946,-1.33479 1.87886,-2.75443 2.77515,-4.1587 2.00491,-3.16568 3.793041,-6.46438 5.364511,-9.8651 0.56895,-1.26981 1.07085,-2.5803 1.25909,-3.96474 0.2243,-1.54102 0.30132,-1.07753 3.31949,-2.04356 0.16641,-0.0533 0.20692,0.28233 0.29556,0.43291 0.32211,0.5472 0.57691,1.14756 0.84166,1.72056 1.54085,3.48773 3.21671,6.91223 4.91066,10.32735 1.46943,2.97794 3.01599,5.91618 4.57587,8.84728 0.62782,1.13038 1.26594,2.26969 1.60594,3.52439 0.0521,0.29414 0.2169,0.94092 -0.13871,1.14758 -1.04219,0.60565 -2.10686,1.17181 -3.16029,1.75771 -0.54327,0.10244 -0.9709,-0.12853 -1.42666,-0.39054 -0.59786,-0.4598 -1.26253,-0.79061 -1.94468,-1.10504 -1.12869,-0.57233 -2.31438,-0.97656 -3.52444,-1.33452 -2.07961,-0.58479 -4.17999,-1.09882 -6.3088,-1.4681 -1.59722,-0.26614 -3.215881,-0.33594 -4.831851,-0.36471 -1.11343,-0.0138 -2.22693,-0.002 -3.34037,0.003 -0.77965,0.005 -1.56693,-0.0422 -2.32387,0.1734 -0.49183,0.13671 -0.91796,0.42483 -1.39554,0.59848 -0.30871,0.0829 -0.1534,0.0475 -0.46588,0.10648 0,0 2.75662,-2.10437 2.75662,-2.10437 v 0 c 0.29123,-0.0868 0.14681,-0.0378 0.43315,-0.14733 0.4638,-0.21162 0.91821,-0.45623 1.42602,-0.54735 0.77997,-0.12512 1.56699,-0.10907 2.35491,-0.1047 1.10954,-0.003 2.21919,-0.005 3.328591,0.016 1.61813,0.0454 3.23802,0.1374 4.8337,0.42791 2.13535,0.39469 4.24541,0.91542 6.33889,1.49109 1.23556,0.35437 2.43892,0.77506 3.59085,1.35186 0.68889,0.32076 1.3489,0.67609 1.97069,1.11395 0.41822,0.21253 0.81103,0.33922 1.26873,0.14947 -0.93897,0.54619 -1.88714,1.07684 -2.81689,1.63857 -0.089,0.0538 0.22055,-0.0345 0.29189,-0.11016 0.16329,-0.17318 0.0718,-0.45865 0.045,-0.65562 -0.28767,-1.24412 -0.90139,-2.37319 -1.49454,-3.49446 -1.51855,-2.95687 -3.01968,-5.9224 -4.49558,-8.90092 -1.69891,-3.41159 -3.37645,-6.83314 -5.00229,-10.28027 -0.28212,-0.56391 -0.5279,-1.10691 -0.86895,-1.6339 -0.0692,-0.10693 -0.33469,-0.21891 -0.23655,-0.30011 3.77038,-3.11997 2.95156,-2.7123 2.68522,-1.37146 -0.17851,1.4381 -0.70872,2.79496 -1.31137,4.10515 -1.60321,3.40696 -3.39972,6.72468 -5.38866,9.9224 -0.874591,1.39561 -1.734611,2.80264 -2.681931,4.15091 -0.19229,0.27369 -0.39632,0.53893 -0.59428,0.80855 -0.12127,0.16515 -0.18278,0.39899 -0.36338,0.49575 -1.07099,0.57377 -2.21984,0.98856 -3.32976,1.48284 0.0823,-0.55616 0.36913,-1.07584 0.60025,-1.58332 0.49624,-1.0896 1.0055,-2.1747 1.56892,-3.23146 1.34806,-2.64957 2.63648,-5.33079 4.09024,-7.92508 0,0 3.122291,-1.39922 3.122291,-1.39922 z"
       inkscape:connector-curvature="0"
       style="stroke-width:0.2304111" />
    <path
       id="path3706"
       style="stroke-width:0.23041108"
       d="m 54.203163,158.45413 c -0.365287,9.2e-4 -0.730714,0.007 -1.096252,0.0203 -0.785658,0.0239 -1.182053,0.0279 -1.944094,0.0801 -0.222884,0.0153 -0.465548,-0.0363 -0.667833,0.0585 -1.151389,0.53975 -2.252349,1.18276 -3.349961,1.82484 -0.192575,0.11265 -0.214828,0.3195 -0.265963,0.50403 -0.0371,0.5003 -0.01164,1.0026 -0.02069,1.50397 -0.0021,0.58578 -0.0091,1.17157 -0.0027,1.75733 0.01468,0.81437 0.04503,1.63173 0.20611,2.43282 0.282693,1.32906 0.783644,2.58709 1.202458,3.87694 0.59643,2.09462 0.995442,4.23515 1.434668,6.3669 0.56812,2.954 1.010385,5.92788 1.539075,8.88838 0.257042,1.25743 0.436922,2.56387 0.978346,3.73743 0.310039,0.63895 0.612338,1.28148 0.82039,1.96255 0.160056,0.51619 0.278634,1.09315 0.634532,1.50937 l -2.70013,1.97649 c 0.314486,-0.039 0.618497,-0.008 0.927944,0.0648 0.54465,0.13439 1.066607,0.39036 1.640329,0.34246 0.858613,-0.003 1.717307,-0.003 2.575924,-0.005 1.312327,-0.004 2.624459,-0.006 3.936791,-0.01 1.911108,-0.006 3.822607,-0.008 5.733725,-0.006 1.913769,-0.002 3.827183,-0.006 5.740927,0.006 2.924936,0.0288 5.85055,0.0989 8.77003,0.28937 3.52613,0.24728 7.04906,0.54491 10.56335,0.92659 3.11913,0.33783 6.22703,0.7884 9.359111,0.99815 3.03032,0.29091 6.05136,0.64161 9.06118,1.10345 3.04273,0.37846 6.07615,0.82649 9.08999,1.39417 2.66371,0.45693 5.33316,0.85861 8.02209,1.1381 2.81411,0.31663 5.62766,0.67587 8.45365,0.8609 2.1615,0.0591 4.32403,0.0249 6.48617,0.0337 2.21705,0 4.43427,-0.005 6.65132,-0.002 2.29096,9.2e-4 4.58176,0.004 6.87273,0.005 2.31304,0.003 4.62646,0.0179 6.93933,-0.0171 1.81692,-0.045 3.65622,-0.0875 5.42591,-0.54453 0.47915,-0.15341 0.80702,-0.22876 1.24161,-0.47477 1.4227,-0.80538 3.17164,-1.43431 4.19376,-2.80004 0.46949,-0.73241 0.67358,-1.52139 0.61698,-2.39816 -0.0799,-1.67002 -0.22991,-3.33795 -0.54903,-4.98129 -0.52478,-2.54874 -1.06928,-5.09325 -1.58858,-7.64317 -0.66115,-3.14939 -1.32503,-6.30353 -2.36126,-9.3564 -0.85903,-2.53037 -1.71239,-5.09493 -3.25591,-7.3079 -1.1426,-1.58754 -2.41909,-3.1002 -3.92419,-4.35846 -0.81195,-0.55172 -1.61085,-0.98592 -2.56917,-1.23486 -1.06672,-0.27747 -2.07496,-0.2488 -3.1704,-0.20386 -1.58717,0.0405 -3.17302,0.11311 -4.75628,0.23401 -1.92282,0.12778 -3.84972,0.19713 -5.76703,0.40367 -2.23925,0.13678 -4.47831,0.30012 -6.72288,0.31231 -2.68847,0.0622 -5.37386,0.20032 -8.05448,0.41807 -3.8565,0.27638 -7.71731,0.48695 -11.57186,0.79159 -4.34483,0.19468 -8.69617,0.23009 -13.04433,0.13096 -5.40237,-0.12621 -10.806711,-0.34683 -16.178731,-0.9653 -5.26294,-0.56768 -10.54054,-1.01222 -15.788563,-1.70828 -4.033086,-0.53237 -8.084453,-0.89859 -12.122684,-1.38832 -2.538137,-0.29128 -5.088415,-0.55566 -7.645418,-0.54857 z m -3.836435,0.69259 c 0.01475,-0.002 0.0165,0.002 -0.0027,0.0144 -0.117968,0.0751 -0.239611,0.14423 -0.360017,0.21556 0.02965,-0.0478 0.05398,-0.10108 0.100356,-0.13096 0.05736,-0.037 0.218107,-0.0936 0.262361,-0.099 z m 1.109303,1.29426 c 2.565183,-0.0356 5.125488,0.21456 7.67512,0.47747 4.049531,0.45633 8.103395,0.8657 12.148336,1.36222 5.269292,0.67051 10.564102,1.11736 15.846162,1.67543 5.36612,0.62566 10.76587,0.85362 16.162531,1.00895 4.34142,0.11129 8.68747,0.0981 13.02633,-0.0896 3.85139,-0.2731 7.70504,-0.51266 11.55745,-0.77044 2.65891,-0.19974 5.32156,-0.32591 7.98699,-0.38791 2.24697,-0.01 4.48911,-0.16897 6.73098,-0.30287 1.91467,-0.17672 3.83439,-0.27433 5.75307,-0.39152 1.57398,-0.11499 3.14991,-0.19032 4.72748,-0.22951 1.04142,-0.0286 2.07764,-0.0735 3.1011,0.14446 0.91292,0.21612 1.72833,0.62247 2.50977,1.12865 1.52438,1.17881 2.78208,2.67122 3.90889,4.22391 1.53731,2.1758 2.38372,4.70774 3.2352,7.20439 1.02699,3.04041 1.71848,6.1713 2.35812,9.31095 0.49495,2.55959 1.03923,5.10946 1.53727,7.66837 0.30797,1.63483 0.43084,3.2946 0.48423,4.95474 0.0352,0.80016 -0.20503,1.47247 -0.66064,2.09755 -1.6369,0.4395 -3.34651,0.49365 -5.03259,0.55083 -2.31565,0.049 -4.63231,0.0408 -6.94834,0.0364 -2.2893,-0.007 -4.57847,-0.009 -6.86778,-0.009 -2.21436,0.002 -4.42885,-0.004 -6.64322,-0.004 -2.16284,-0.0108 -4.32597,0.0259 -6.48841,-0.0216 -2.83113,-0.1329 -5.64673,-0.50012 -8.46176,-0.81904 -2.68046,-0.29538 -5.34759,-0.67447 -8.00588,-1.12595 -3.02543,-0.54714 -6.06298,-1.0144 -9.11339,-1.39642 -3.01073,-0.42791 -6.02267,-0.82446 -9.04904,-1.12325 -3.142991,-0.21711 -6.265911,-0.63434 -9.397351,-0.96665 -3.51533,-0.38652 -7.03948,-0.69506 -10.56741,-0.93965 -2.9055,-0.19561 -5.81611,-0.28915 -8.72727,-0.34201 -1.90882,-0.0289 -3.818001,-0.0247 -5.726976,-0.023 -1.908861,0.006 -3.817661,0.007 -5.726525,0.002 -1.303813,-0.003 -2.607329,-0.005 -3.911138,-0.009 -0.853772,-0.002 -1.707754,-0.002 -2.561524,-0.005 -0.380273,0.0374 -0.739081,-0.0395 -1.095803,-0.1377 1.074174,-0.28137 2.0894,-1.18356 2.065599,-2.19611 -0.0069,-0.29219 -0.06206,-0.55187 -0.109805,-0.84109 -0.347467,-1.84759 -0.791064,-3.67539 -1.143056,-5.52222 -0.696159,-3.74796 -1.295426,-7.51365 -1.898191,-11.27754 -0.490349,-3.36237 -0.963877,-6.72603 -1.585427,-10.06744 l -2.528672,1.34467 c -0.08582,-0.66349 -0.103355,-1.33399 -0.106203,-2.0026 0.0027,-0.58507 0.0069,-1.17002 0.01081,-1.75508 0.0063,-0.12622 0.007,-0.25293 0.0054,-0.37982 0.142182,-0.006 0.295182,-0.014 0.425719,-0.0203 0.366646,-0.0175 0.733399,-0.0287 1.099854,-0.0338 z"
       inkscape:connector-curvature="0" />
    <path
       id="path3936"
       d="m -126.47803,152.70632 c 9.65868,1.14624 19.35881,1.90838 29.054512,2.66106 9.566662,0.68093 19.145912,1.25978 28.734602,1.51961 4.44227,0.12037 6.53016,0.1 10.859058,0.10898 4.312913,-0.0539 8.638493,-0.12245 12.926912,-0.6298 1.741411,-0.20602 2.162469,-0.30166 3.816919,-0.59178 1.334212,-0.25112 2.657941,-0.55275 3.98807,-0.82374 0,0 -3.14439,2.38029 -3.14439,2.38029 v 0 c -1.30174,0.25276 -2.600079,0.52349 -3.907208,0.74785 -1.626452,0.25933 -2.069222,0.35055 -3.778091,0.52894 -4.231669,0.44175 -8.493451,0.45128 -12.74317,0.44916 -3.93342,-0.0494 -6.757651,-0.0653 -10.747891,-0.20323 -9.566039,-0.33056 -19.122239,-0.94035 -28.671483,-1.57906 -9.8667,-0.70892 -19.72904,-1.47543 -29.58804,-2.28361 0,0 3.2002,-2.28467 3.2002,-2.28467 z"
       inkscape:connector-curvature="0"
       style="stroke-width:0.26458332" />
    <path
       sodipodi:type="spiral"
       style="fill:none;fill-rule:evenodd;stroke:#000000;stroke-width:0.2304111"
       id="path3953"
       sodipodi:cx="68.654381"
       sodipodi:cy="108.46116"
       sodipodi:expansion="1"
       sodipodi:revolution="3"
       sodipodi:radius="12.988681"
       sodipodi:argument="-19.210682"
       sodipodi:t0="0"
       d="m 68.654381,108.46116 c 0.609227,-0.2301 0.610739,0.7077 0.382438,1.01257 -0.61868,0.82619 -1.861564,0.44251 -2.407589,-0.24769 -0.97671,-1.23462 -0.353042,-3.01325 0.877835,-3.80261 1.806362,-1.15841 4.183156,-0.26811 5.197618,1.50797 1.352118,2.36725 0.185553,5.35987 -2.13811,6.59264 -2.924092,1.5513 -6.539912,0.1043 -7.987645,-2.76825 -1.753398,-3.47904 -0.02382,-7.72185 3.398383,-9.38266 4.032954,-1.95721 8.904962,0.0562 10.777673,4.02852 2.16212,4.58625 -0.135822,10.08887 -4.658656,12.17269 -5.139133,2.36777 -11.273324,-0.21526 -13.567702,-5.2888 -2.573945,-5.69174 0.294525,-12.45818 5.918931,-14.962711 6.244157,-2.780505 13.643347,0.37367 16.357729,6.549071" />
    <path
       sodipodi:type="spiral"
       style="fill:none;fill-rule:evenodd;stroke:#000000;stroke-width:0.2304111"
       id="path3955"
       sodipodi:cx="147.32401"
       sodipodi:cy="100.7804"
       sodipodi:expansion="1"
       sodipodi:revolution="3"
       sodipodi:radius="19.91934"
       sodipodi:argument="-18.635382"
       sodipodi:t0="0"
       d="m 147.32401,100.7804 c 0.9759,0.21227 0.19534,1.42023 -0.35281,1.62202 -1.48545,0.54685 -2.76456,-0.98392 -2.89123,-2.32763 -0.2266,-2.403582 2.06001,-4.171812 4.30245,-4.160444 3.29088,0.01668 5.6063,3.145463 5.42966,6.277284 -0.23544,4.17421 -4.23356,7.05152 -8.2521,6.69887 -5.05694,-0.44378 -8.50212,-5.32274 -7.96809,-10.226931 0.64679,-5.939628 6.41251,-9.955799 12.20175,-9.237299 6.82243,0.846728 11.41141,7.502629 10.50652,14.17658 -1.04474,7.70534 -8.59299,12.8683 -16.15141,11.77572 -8.58835,-1.24145 -14.32609,-9.68351 -13.04493,-18.126224 1.43726,-9.471445 10.77417,-15.784545 20.10105,-14.314152 10.3546,1.632416 17.24349,11.864919 15.58336,22.075876" />
  </g>
</svg>
